<svg width="268" height="27" viewBox="0 0 268 27" fill="none" xmlns="http://www.w3.org/2000/svg">
<path d="M1.01855 18.6527L1.08963 18.2736L2.15573 18.1788C2.72431 18.1314 3.19813 17.9419 3.19813 17.7761V4.65123C3.19813 4.4617 3.05599 4.39063 1.98989 4.29586L1.11332 4.22479L1.04225 3.84573H7.72313C11.6558 3.84573 13.6222 5.17243 13.6222 7.6363C13.6222 9.43682 12.2007 10.882 10.0449 11.3795L13.1958 16.2599C14.1671 17.7287 14.5935 18.1078 15.6123 18.2025L16.015 18.2736L16.1098 18.6527H11.49L11.0636 17.8708L7.36776 11.5216C7.03609 11.4743 6.2069 11.3558 5.85153 11.2137V17.8472C5.85153 18.0367 6.34905 18.1314 7.05978 18.2025L7.98373 18.2736L8.0548 18.6527H1.01855ZM7.41514 11.0004C9.49996 10.9531 10.7793 9.81588 10.7793 7.70738C10.7793 5.5278 9.47627 4.22479 6.94132 4.31955C6.87025 4.31955 5.85153 4.34325 5.85153 4.34325V10.7635C6.25428 10.882 7.05978 11.0004 7.41514 11.0004Z" fill="#030712"/>
<path d="M23.6126 18.9369C22.5939 18.9369 21.9542 18.2973 21.8358 17.0653L21.7884 17.0417C20.8881 18.0367 19.9168 18.9133 18.6849 18.9133C17.2871 18.9133 16.1262 17.8472 16.1262 16.4968C16.1262 14.8147 17.524 13.6538 21.9069 12.6114L21.9305 11.9955C21.9779 9.79219 21.054 8.84455 19.5851 8.84455C18.7559 8.84455 17.9504 9.2473 17.9504 9.46052C17.9504 9.62635 18.5901 10.1239 18.5901 10.7872C18.5901 11.3795 18.0689 11.9244 17.3108 11.9244C16.5764 11.9244 16.0315 11.4743 16.0315 10.8583C16.0315 9.48421 18.9692 8.06274 20.9829 8.06274C23.4705 8.06274 24.4418 9.01039 24.2997 12.0665L24.0864 16.402C24.0391 17.2075 24.347 17.5866 24.8446 17.5866C25.2236 17.5866 25.5553 17.2786 25.887 16.9706L26.1002 17.1838C25.5553 17.9182 24.655 18.9369 23.6126 18.9369ZM19.9642 17.4681C20.6275 17.4681 21.1724 17.2075 21.7647 16.6152L21.9069 13.0142C19.0876 13.6775 18.4243 14.6252 18.4243 15.7623C18.4243 16.7811 19.1587 17.4681 19.9642 17.4681Z" fill="#030712"/>
<path d="M31.1075 19.008C28.3357 19.008 26.2745 16.7811 26.2745 13.8197C26.2745 10.574 28.5963 8.06274 31.8182 8.06274C33.8794 8.06274 35.443 8.98669 35.443 10.3371C35.443 11.1426 34.8033 11.6638 34.1163 11.6638C33.2871 11.6638 32.6948 10.9294 32.7896 10.1002C32.7896 9.57897 33.1449 9.27099 33.1449 9.12884C33.0739 8.84455 32.4342 8.51287 31.8182 8.51287C30.1125 8.51287 28.7858 10.2186 28.7858 12.872C28.7858 15.6202 30.2783 17.3733 32.3631 17.3733C33.5951 17.3733 34.5427 16.9232 35.3482 15.6439L35.6088 15.786C34.6138 17.8235 33.1686 19.008 31.1075 19.008Z" fill="#030712"/>
<path d="M35.8168 18.6527L35.8879 18.2736L36.3144 18.2499C36.9777 18.2025 37.2383 18.1314 37.2383 17.8472V5.19612C37.2383 4.48539 37.0962 4.29586 36.4802 4.13003L35.6984 3.84573L35.7221 3.58513L39.6074 2.54272V10.0054L39.6548 10.0291C40.7209 9.15253 42.0713 8.06274 43.6349 8.06274C44.3693 8.06274 45.0327 8.32334 45.5302 8.79717C46.0751 9.38944 46.312 10.2897 46.312 11.3321V17.8708C46.312 18.0367 46.3594 18.1551 47.4492 18.2499L47.8045 18.2736L47.8756 18.6527H42.5214L42.5925 18.2736L43.0663 18.2499C43.8481 18.2025 43.9666 18.0604 43.9666 17.8472V11.9718C43.9666 10.2897 43.2322 9.69743 41.9055 9.69743C40.9341 9.69743 40.1523 10.1002 39.6074 10.5503V17.8945C39.6074 18.1078 39.7259 18.1788 40.6735 18.2499L41.1236 18.2736L41.1947 18.6527H35.8168Z" fill="#030712"/>
<path d="M53.1222 19.008C50.3267 19.008 48.2656 16.7574 48.2656 13.796C48.2656 10.5503 50.5636 8.03905 53.6908 8.03905C56.1547 8.03905 57.5999 9.5079 57.5999 11.4269C57.5999 11.6401 57.5762 11.8533 57.5288 12.0902C57.5288 12.0902 51.0611 12.0192 50.8242 12.0192C50.7768 12.2324 50.7531 12.7062 50.7531 12.9431C50.7768 15.5965 52.2694 17.3733 54.3542 17.3733C55.6098 17.3733 56.6285 16.9232 57.434 15.6439L57.6946 15.786C56.6996 17.8235 55.2071 19.008 53.1222 19.008ZM50.8479 11.6164C50.8479 11.6164 55.2071 11.5927 55.1834 11.5927C55.2071 9.98172 54.6859 8.51287 53.3829 8.51287C52.1746 8.51287 51.1085 9.83957 50.8479 11.6164Z" fill="#030712"/>
<path d="M58.2745 18.6527L58.3456 18.2736L58.7957 18.2499C59.4827 18.2025 59.696 18.1314 59.696 17.8472V5.62256C59.696 4.48539 59.5301 4.29586 58.9142 4.13003L58.1324 3.84573L58.1797 3.58513L62.0414 2.54272V17.8945C62.0414 18.1078 62.2072 18.1788 63.1075 18.2499L63.5102 18.2736L63.5813 18.6527H58.2745Z" fill="#030712"/>
<path d="M68.2862 18.6527L68.3573 18.2736L69.2812 18.1788C70.0393 18.1078 70.2763 17.9419 70.2763 17.7761V4.65123C70.2763 4.4617 70.1815 4.39063 69.0917 4.29586L68.381 4.22479L68.3099 3.84573H75.2988L75.2277 4.22479L73.9721 4.31955C73.2376 4.39063 72.9296 4.53277 72.9296 4.7223V18.1078L74.5169 18.2025C77.81 18.2025 78.5681 16.9706 79.6579 14.4356L79.9422 13.5591H80.4871L79.8001 18.6527H68.2862Z" fill="#030712"/>
<path d="M86.3231 19.008C83.5275 19.008 81.4664 16.7574 81.4664 13.796C81.4664 10.5503 83.7644 8.03905 86.8916 8.03905C89.3555 8.03905 90.8007 9.5079 90.8007 11.4269C90.8007 11.6401 90.777 11.8533 90.7296 12.0902C90.7296 12.0902 84.2619 12.0192 84.025 12.0192C83.9776 12.2324 83.954 12.7062 83.954 12.9431C83.9776 15.5965 85.4702 17.3733 87.555 17.3733C88.8106 17.3733 89.8293 16.9232 90.6348 15.6439L90.8954 15.786C89.9004 17.8235 88.4079 19.008 86.3231 19.008ZM84.0487 11.6164C84.0487 11.6164 88.4079 11.5927 88.3842 11.5927C88.4079 9.98172 87.8867 8.51287 86.5837 8.51287C85.3754 8.51287 84.3093 9.83957 84.0487 11.6164Z" fill="#030712"/>
<path d="M96.6361 19.008C93.8405 19.008 91.7794 16.7574 91.7794 13.796C91.7794 10.5503 94.0774 8.03905 97.2047 8.03905C99.6685 8.03905 101.114 9.5079 101.114 11.4269C101.114 11.6401 101.09 11.8533 101.043 12.0902C101.043 12.0902 94.575 12.0192 94.338 12.0192C94.2907 12.2324 94.267 12.7062 94.267 12.9431C94.2907 15.5965 95.7832 17.3733 97.868 17.3733C99.1236 17.3733 100.142 16.9232 100.948 15.6439L101.208 15.786C100.213 17.8235 98.7209 19.008 96.6361 19.008ZM94.3617 11.6164C94.3617 11.6164 98.7209 11.5927 98.6972 11.5927C98.7209 9.98172 98.1997 8.51287 96.8967 8.51287C95.6884 8.51287 94.6223 9.83957 94.3617 11.6164Z" fill="#030712"/>
<path d="M105.994 18.6527L106.065 18.2736L107.131 18.1788C107.889 18.1078 108.174 17.9419 108.174 17.7761V4.65123C108.174 4.4617 108.031 4.39063 106.965 4.29586L106.089 4.22479L106.018 3.84573H112.699C116.679 3.84573 118.621 5.24351 118.621 7.54154C118.621 10.2186 116.063 11.8533 112.509 11.8533C111.893 11.8533 111.325 11.8059 110.827 11.7586V17.8472C110.827 18.0367 110.969 18.1314 112.035 18.2025L113.172 18.2736L113.244 18.6527H105.994ZM112.438 11.4032C114.404 11.4032 115.755 10.0528 115.755 7.89691C115.755 5.59887 114.665 4.29586 112.248 4.31955H110.827V11.19C111.301 11.3084 111.68 11.4032 112.438 11.4032Z" fill="#030712"/>
<path d="M126.39 18.9369C125.371 18.9369 124.732 18.2973 124.613 17.0653L124.566 17.0417C123.666 18.0367 122.694 18.9133 121.462 18.9133C120.065 18.9133 118.904 17.8472 118.904 16.4968C118.904 14.8147 120.302 13.6538 124.684 12.6114L124.708 11.9955C124.756 9.79219 123.832 8.84455 122.363 8.84455C121.534 8.84455 120.728 9.2473 120.728 9.46052C120.728 9.62635 121.368 10.1239 121.368 10.7872C121.368 11.3795 120.846 11.9244 120.088 11.9244C119.354 11.9244 118.809 11.4743 118.809 10.8583C118.809 9.48421 121.747 8.06274 123.761 8.06274C126.248 8.06274 127.219 9.01039 127.077 12.0665L126.864 16.402C126.817 17.2075 127.125 17.5866 127.622 17.5866C128.001 17.5866 128.333 17.2786 128.665 16.9706L128.878 17.1838C128.333 17.9182 127.433 18.9369 126.39 18.9369ZM122.742 17.4681C123.405 17.4681 123.95 17.2075 124.542 16.6152L124.684 13.0142C121.865 13.6775 121.202 14.6252 121.202 15.7623C121.202 16.7811 121.936 17.4681 122.742 17.4681Z" fill="#030712"/>
<path d="M133.056 18.9606C131.303 18.9606 130.331 18.0604 130.355 16.0466L130.474 9.62635L128.578 9.55528L128.792 8.963L130.284 7.82583L132.464 6.07269L132.819 6.14377L132.795 8.41811H136.444L136.112 9.53159H132.795L132.653 15.6913C132.629 16.9943 133.222 17.5866 134.43 17.5866C135.212 17.5866 135.875 17.3023 136.396 16.8995L136.515 17.1364C135.543 18.1551 134.335 18.9606 133.056 18.9606Z" fill="#030712"/>
<path d="M139.235 6.28591C138.24 6.28591 137.742 5.45672 137.742 4.76968C137.742 4.05895 138.24 3.25346 139.235 3.25346C140.254 3.25346 140.751 4.05895 140.751 4.76968C140.751 5.45672 140.254 6.28591 139.235 6.28591ZM136.795 18.6527L136.866 18.2736L137.316 18.2499C138.003 18.2025 138.264 18.1314 138.264 17.8472V11.4032C138.264 9.95803 138.098 9.72112 137.269 9.53159L136.747 9.41313L136.771 9.12884L140.609 8.08643V17.8945C140.609 18.1078 140.751 18.1788 141.723 18.2499L142.102 18.2736L142.173 18.6527H136.795Z" fill="#030712"/>
<path d="M147.64 19.008C144.845 19.008 142.784 16.7574 142.784 13.796C142.784 10.5503 145.082 8.03905 148.209 8.03905C150.673 8.03905 152.118 9.5079 152.118 11.4269C152.118 11.6401 152.094 11.8533 152.047 12.0902C152.047 12.0902 145.579 12.0192 145.342 12.0192C145.295 12.2324 145.271 12.7062 145.271 12.9431C145.295 15.5965 146.787 17.3733 148.872 17.3733C150.128 17.3733 151.147 16.9232 151.952 15.6439L152.213 15.786C151.218 17.8235 149.725 19.008 147.64 19.008ZM145.366 11.6164C145.366 11.6164 149.725 11.5927 149.701 11.5927C149.725 9.98172 149.204 8.51287 147.901 8.51287C146.693 8.51287 145.627 9.83957 145.366 11.6164Z" fill="#030712"/>
<path d="M153.002 18.6527L153.073 18.2736L153.523 18.2499C154.21 18.2025 154.471 18.1314 154.471 17.8472V11.4269C154.471 9.95803 154.281 9.72112 153.476 9.53159L152.931 9.41313L152.955 9.12884L156.84 8.08643L156.793 10.0291H156.84C157.906 9.15253 159.28 8.06274 160.82 8.06274C161.578 8.06274 162.241 8.29965 162.715 8.79717C163.284 9.36575 163.497 10.2897 163.497 11.3558V17.8708C163.497 18.0367 163.568 18.1551 164.658 18.2499L165.013 18.2736L165.084 18.6527H159.754L159.825 18.2736L160.275 18.2499C161.081 18.2025 161.152 18.0604 161.152 17.8472V11.9955C161.152 10.2897 160.465 9.69743 159.114 9.69743C158.143 9.69743 157.361 10.1002 156.793 10.5503V17.8945C156.793 18.1078 156.935 18.1788 157.859 18.2499L158.309 18.2736L158.356 18.6527H153.002Z" fill="#030712"/>
<path d="M169.496 18.9606C167.743 18.9606 166.771 18.0604 166.795 16.0466L166.913 9.62635L165.018 9.55528L165.231 8.963L166.724 7.82583L168.903 6.07269L169.259 6.14377L169.235 8.41811H172.884L172.552 9.53159H169.235L169.093 15.6913C169.069 16.9943 169.662 17.5866 170.87 17.5866C171.652 17.5866 172.315 17.3023 172.836 16.8995L172.955 17.1364C171.983 18.1551 170.775 18.9606 169.496 18.9606Z" fill="#030712"/>
<path d="M185.355 12.6114H181.138L180.38 14.7673C179.433 17.5392 179.385 17.9893 181.209 18.1788L181.825 18.2736L181.897 18.6527H176.637L176.708 18.2736L177.135 18.2025C178.509 17.9893 178.746 17.6813 180.357 13.2511L183.034 5.7884L182.82 5.0066C183.46 4.79338 184.455 4.03526 184.716 3.44298H185.071L189.217 15.8808C189.833 17.7287 190.141 18.1078 191.065 18.1788L191.847 18.2736L191.918 18.6527H184.929L185 18.2736L185.782 18.1788C186.895 18.1078 186.919 17.5155 186.374 15.8571L185.355 12.6114ZM181.304 12.1139H185.19L183.389 6.35699H183.318L181.304 12.1139Z" fill="#030712"/>
<path d="M199.578 19.0317V16.9943L199.507 16.9706C198.583 18.1078 197.351 18.9606 195.929 18.9606C193.537 18.9606 191.665 16.8284 191.665 13.8907C191.665 10.2423 194.461 8.1812 197.28 8.1812C198.156 8.1812 198.891 8.29965 199.53 8.58395C199.53 8.58395 199.578 8.56026 199.578 8.58395V4.95921C199.578 4.27217 199.412 4.03526 198.796 3.91681L197.801 3.6562L197.848 3.3956L201.9 2.54272V16.9232C201.9 17.5629 202.018 17.705 202.35 17.7998L203.487 18.0604L203.463 18.3447L199.578 19.0317ZM197.28 17.4681C198.275 17.4681 198.986 16.9943 199.578 16.402V10.7398C198.986 9.57897 197.919 8.67871 196.853 8.67871C195.195 8.67871 194.247 10.6451 194.247 13.1563C194.247 15.5965 195.432 17.4681 197.28 17.4681Z" fill="#030712"/>
<path d="M208.218 18.8896L204.546 10.0765C204.12 9.10515 204.001 8.91562 203.291 8.84455L202.817 8.77347L202.746 8.39442H208.337L208.289 8.77347L207.768 8.84455C206.986 8.89193 206.821 9.17622 207.129 9.91065L209.593 16.0703L211.393 11.2847C212.127 9.34206 211.938 8.98669 210.611 8.84455L210.161 8.77347L210.09 8.39442H214.307L214.236 8.77347L213.81 8.82086C212.838 8.93931 212.743 9.2473 211.867 11.4269L209 18.8896H208.218Z" fill="#030712"/>
<path d="M219.383 18.9843C216.066 18.9843 213.911 16.5678 213.911 13.5591C213.911 10.5029 216.303 8.06274 219.549 8.06274C222.842 8.06274 225.022 10.4319 225.022 13.3932C225.022 16.5205 222.676 18.9843 219.383 18.9843ZM219.502 18.5342C221.255 18.5342 222.345 16.4257 222.345 13.8197C222.345 11.7349 221.918 10.0528 221.113 9.2236C220.734 8.84455 220.212 8.51287 219.431 8.51287C217.583 8.51287 216.588 10.6451 216.588 13.18C216.588 15.3122 216.967 16.9469 217.796 17.7998C218.199 18.2262 218.744 18.5342 219.502 18.5342Z" fill="#030712"/>
<path d="M230.699 19.008C227.927 19.008 225.866 16.7811 225.866 13.8197C225.866 10.574 228.188 8.06274 231.41 8.06274C233.471 8.06274 235.035 8.98669 235.035 10.3371C235.035 11.1426 234.395 11.6638 233.708 11.6638C232.879 11.6638 232.287 10.9294 232.381 10.1002C232.381 9.57897 232.737 9.27099 232.737 9.12884C232.666 8.84455 232.026 8.51287 231.41 8.51287C229.704 8.51287 228.377 10.2186 228.377 12.872C228.377 15.6202 229.87 17.3733 231.955 17.3733C233.187 17.3733 234.134 16.9232 234.94 15.6439L235.201 15.786C234.205 17.8235 232.76 19.008 230.699 19.008Z" fill="#030712"/>
<path d="M243.321 18.9369C242.303 18.9369 241.663 18.2973 241.545 17.0653L241.497 17.0417C240.597 18.0367 239.626 18.9133 238.394 18.9133C236.996 18.9133 235.835 17.8472 235.835 16.4968C235.835 14.8147 237.233 13.6538 241.616 12.6114L241.639 11.9955C241.687 9.79219 240.763 8.84455 239.294 8.84455C238.465 8.84455 237.659 9.2473 237.659 9.46052C237.659 9.62635 238.299 10.1239 238.299 10.7872C238.299 11.3795 237.778 11.9244 237.02 11.9244C236.285 11.9244 235.74 11.4743 235.74 10.8583C235.74 9.48421 238.678 8.06274 240.692 8.06274C243.179 8.06274 244.151 9.01039 244.008 12.0665L243.795 16.402C243.748 17.2075 244.056 17.5866 244.553 17.5866C244.932 17.5866 245.264 17.2786 245.596 16.9706L245.809 17.1838C245.264 17.9182 244.364 18.9369 243.321 18.9369ZM239.673 17.4681C240.336 17.4681 240.881 17.2075 241.473 16.6152L241.616 13.0142C238.796 13.6775 238.133 14.6252 238.133 15.7623C238.133 16.7811 238.867 17.4681 239.673 17.4681Z" fill="#030712"/>
<path d="M250.816 19.008C248.044 19.008 245.983 16.7811 245.983 13.8197C245.983 10.574 248.305 8.06274 251.527 8.06274C253.588 8.06274 255.152 8.98669 255.152 10.3371C255.152 11.1426 254.512 11.6638 253.825 11.6638C252.996 11.6638 252.404 10.9294 252.498 10.1002C252.498 9.57897 252.854 9.27099 252.854 9.12884C252.783 8.84455 252.143 8.51287 251.527 8.51287C249.821 8.51287 248.495 10.2186 248.495 12.872C248.495 15.6202 249.987 17.3733 252.072 17.3733C253.304 17.3733 254.251 16.9232 255.057 15.6439L255.318 15.786C254.323 17.8235 252.877 19.008 250.816 19.008Z" fill="#030712"/>
<path d="M257.866 24.7649C257.013 24.7649 256.279 24.2201 256.279 23.4146C256.279 22.7038 256.8 22.1352 257.558 22.1352C258.435 22.1352 258.861 22.6801 259.027 23.2724C259.572 23.1303 259.88 22.4669 260.283 21.3297L261.112 18.8896H260.993L257.037 10.1002C256.587 9.10515 256.468 8.93931 255.734 8.84455L255.26 8.77347L255.189 8.41811H260.756L260.685 8.77347L260.211 8.84455C259.43 8.89193 259.287 9.17622 259.619 9.91065L262.178 15.9282L263.884 11.2373C264.547 9.34206 264.405 9.01039 263.054 8.84455L262.604 8.77347L262.533 8.41811H266.774L266.703 8.77347L266.229 8.84455C265.281 8.93931 265.163 9.2473 264.334 11.4269L261.728 18.4394L260.685 21.614C259.998 23.6988 259.216 24.7649 257.866 24.7649Z" fill="#030712"/>
</svg>
