<svg width="36" height="37" viewBox="0 0 36 37" fill="none" xmlns="http://www.w3.org/2000/svg">
<g clip-path="url(#clip0_9283_5590)">
<path fill-rule="evenodd" clip-rule="evenodd" d="M27.36 4.04754H8.64C4.66355 4.04754 1.44 7.27109 1.44 11.2475V25.4675C1.44 29.444 4.66355 32.6675 8.64 32.6675H27.36C31.3364 32.6675 34.56 29.444 34.56 25.4675V11.2475C34.56 7.27109 31.3364 4.04754 27.36 4.04754ZM8.64 2.60754C3.86826 2.60754 0 6.4758 0 11.2475V25.4675C0 30.2393 3.86826 34.1075 8.64 34.1075H27.36C32.1317 34.1075 36 30.2393 36 25.4675V11.2475C36 6.4758 32.1317 2.60754 27.36 2.60754H8.64Z" fill="black"/>
<path d="M18.3613 24.4165C18.3613 24.754 18.077 25.0165 17.7359 25.0165H14.3819C14.0408 25.0165 13.7944 24.754 13.7944 24.4165C13.7944 24.229 13.8892 24.0603 14.0408 23.9478C14.4766 23.629 14.5714 23.2915 14.3629 22.954L12.1269 19.4853H10.7436V22.8603C10.7436 23.4603 11.1794 23.7415 11.5394 23.8728C11.7668 23.9665 11.9374 24.1728 11.9374 24.4165C11.9374 24.754 11.6531 25.0165 11.312 25.0165H7.82533C7.48424 25.0165 7.2 24.754 7.2 24.4165C7.2 24.1728 7.37055 23.9665 7.59794 23.8728C7.95798 23.7415 8.39382 23.4603 8.39382 22.8603V13.6738C8.39382 13.0738 7.95798 12.7925 7.59794 12.6613C7.37055 12.5675 7.2 12.3613 7.2 12.1175C7.2 11.78 7.48424 11.5175 7.82533 11.5175H13.4154C15.9736 11.5175 17.717 12.755 17.717 15.4363C17.717 17.555 16.1631 18.7925 14.9314 19.1488C14.8367 19.1863 14.7419 19.205 14.6282 19.2238L16.959 22.8613C17.3001 23.3863 17.6033 23.7425 17.9633 23.8738C18.1907 23.9675 18.3613 24.1738 18.3613 24.4175V24.4165ZM10.7436 17.4988C10.7436 18.5113 11.0847 18.6238 12.1648 18.6238C13.7186 18.6238 15.2536 17.6113 15.2536 15.4363C15.2536 12.7925 13.6997 12.3425 12.1837 12.3425C11.0278 12.3425 10.7436 12.5113 10.7436 13.5425V17.4988Z" fill="black"/>
<path d="M28.3498 24.5675C28.274 24.83 28.0277 25.0175 27.7434 25.0175H19.4056C19.0645 25.0175 18.7803 24.755 18.7803 24.4175C18.7803 24.1738 18.9508 23.9675 19.1782 23.8738C19.5383 23.7238 19.9741 23.4613 19.9741 22.8613V13.6738C19.9741 13.0738 19.5383 12.7925 19.1782 12.6613C18.9508 12.5675 18.7803 12.3613 18.7803 12.1175C18.7803 11.78 19.0645 11.5175 19.4056 11.5175H22.8923C23.2334 11.5175 23.5177 11.78 23.5177 12.1175C23.5177 12.3613 23.3471 12.5675 23.1197 12.6613C22.7597 12.7925 22.3238 13.0738 22.3238 13.6738V23.18C22.3238 24.1738 22.8923 24.23 23.4229 24.23H24.9199C26.4359 24.23 27.137 24.155 27.6297 22.355C27.6866 22.1113 27.9329 21.9238 28.1792 21.9238C28.634 21.9238 28.8614 22.3175 28.7856 22.655L28.3498 24.5675Z" fill="black"/>
</g>
<defs>
<clipPath id="clip0_9283_5590">
<rect width="36" height="36" fill="white" transform="translate(0 0.545044)"/>
</clipPath>
</defs>
</svg>
