<svg width="104" height="31" viewBox="0 0 104 31" fill="none" xmlns="http://www.w3.org/2000/svg">
<path d="M14.9867 17.7328C14.9867 18.1389 14.6559 18.4548 14.2591 18.4548H10.3565C9.95957 18.4548 9.67294 18.1389 9.67294 17.7328C9.67294 17.5072 9.78318 17.3042 9.95957 17.1688C10.4667 16.7852 10.5769 16.3791 10.3344 15.973L7.73266 11.7991H6.1231V15.8602C6.1231 16.5822 6.63022 16.9206 7.04915 17.0785C7.31373 17.1913 7.51217 17.4395 7.51217 17.7328C7.51217 18.1389 7.18144 18.4548 6.78456 18.4548H2.72761C2.33073 18.4548 2 18.1389 2 17.7328C2 17.4395 2.19844 17.1913 2.46302 17.0785C2.88195 16.9206 3.38907 16.5822 3.38907 15.8602V4.80616C3.38907 4.08418 2.88195 3.74575 2.46302 3.58782C2.19844 3.47501 2 3.22683 2 2.93353C2 2.52741 2.33073 2.21155 2.72761 2.21155H9.23197C12.2085 2.21155 14.237 3.70063 14.237 6.92697C14.237 9.47646 12.429 10.9655 10.9959 11.3942C10.8856 11.4393 10.7754 11.4619 10.6431 11.4845L13.3551 15.8615C13.7519 16.4932 14.1047 16.9219 14.5237 17.0798C14.7882 17.1926 14.9867 17.4408 14.9867 17.7341V17.7328ZM6.1231 9.40877C6.1231 10.6271 6.51998 10.7625 7.77675 10.7625C9.58475 10.7625 11.3707 9.54414 11.3707 6.92697C11.3707 3.74575 9.5627 3.20427 7.7988 3.20427C6.45383 3.20427 6.1231 3.40732 6.1231 4.64823V9.40877Z" fill="#030712"/>
<path d="M15.4534 15.3425C15.4534 12.0711 19.1796 11.8229 21.5388 11.6424V11.2814C21.5388 9.54414 21.164 7.89713 19.5544 7.89713C18.7386 7.89713 17.9008 8.52886 17.8126 9.18315C17.7244 9.76976 17.9228 10.0856 17.57 10.5369C16.6881 11.665 15.1226 10.5369 15.6959 9.20571C16.3794 7.60382 17.989 7.01722 19.5544 7.01722C22.3987 7.01722 24.0965 8.14531 24.0965 11.2814V15.32C24.0965 16.4932 24.5374 16.7188 24.9784 16.9219C25.2209 17.0347 25.3973 17.2603 25.3973 17.5536C25.3973 17.9146 25.1548 18.1628 24.7359 18.2079L22.1562 18.5012C21.8475 18.5463 21.5388 18.5012 21.5388 17.9597V17.1926C20.8994 18.0048 19.7749 18.5012 18.3638 18.5012C16.7322 18.5012 15.4534 17.328 15.4534 15.3425ZM21.5388 14.9815V12.5449C19.797 12.7028 18.2315 12.8833 18.2315 15.2748C18.2315 18.253 21.5388 17.2828 21.5388 14.9815Z" fill="#030712"/>
<path d="M35.2163 16.1773C35.0399 16.5609 34.7754 16.8767 34.4887 17.1926C33.6509 18.0951 32.4162 18.7268 30.7846 18.7268C27.345 18.7268 25.4708 16.1096 25.4708 12.8607C25.4708 9.61183 27.345 6.97209 30.7846 6.97209C32.9012 6.97209 34.4226 7.94225 35.1722 9.49902C36.1644 11.7101 34.0257 12.1839 33.4083 11.3717C32.6807 10.4241 33.3642 9.5667 32.9012 8.82216C32.5264 8.21299 31.9531 7.852 31.1814 7.852C29.2632 7.852 28.249 10.221 28.249 12.8607C28.249 15.8163 29.4837 17.689 31.1814 17.689C32.1736 17.689 32.8792 17.3505 33.3202 16.7188C33.717 16.1322 33.1438 15.3877 33.7391 14.6206C34.2462 13.9211 36.0321 14.3272 35.2163 16.1773Z" fill="#030712"/>
<path d="M47.7718 17.7792C47.7718 18.1628 47.4852 18.4561 47.1324 18.4561H43.2519C42.877 18.4335 42.6124 18.1628 42.6124 17.7792C42.6124 17.4859 42.7888 17.2603 43.0534 17.17C43.4503 17.0347 43.9133 16.6962 43.9133 16.1322V11.7101C43.9133 9.65695 42.7006 8.9801 41.7525 8.9801C40.6501 8.9801 39.6359 9.97282 39.6359 11.2814V16.1322C39.6359 16.6962 40.0548 17.0347 40.4517 17.1475C40.7604 17.2377 40.9367 17.4859 40.9367 17.7792C40.9367 18.1628 40.6501 18.4561 40.2973 18.4561H36.4168C36.0419 18.4335 35.7774 18.1628 35.7774 17.7792C35.7774 17.4859 35.9537 17.2603 36.2183 17.17C36.6152 17.0347 37.0782 16.6962 37.0782 16.1322V5.70863C37.0782 4.53542 36.6152 4.3098 36.1963 4.10674C35.9537 3.99393 35.7774 3.76831 35.7774 3.47501C35.7774 3.18171 35.9758 2.91096 36.2404 2.84328L39.0197 2.23411C39.3284 2.16642 39.6371 2.23411 39.6371 2.77559V8.9801C40.1222 8.10018 41.423 7.17515 43.0105 7.17515C45.017 7.17515 46.4722 8.75448 46.4722 11.2814V16.1322C46.4722 16.6962 46.9132 17.0347 47.288 17.1475C47.5746 17.2377 47.7731 17.4859 47.7731 17.7792H47.7718Z" fill="#030712"/>
<path d="M50.6933 13.2217C50.8035 15.9743 51.9942 17.689 53.6258 17.689C54.4636 17.689 55.3235 17.3957 55.7645 16.7188C56.1614 16.1322 55.5881 15.3877 56.1834 14.6206C56.6905 13.9211 58.4765 14.3272 57.6607 16.1773C57.4843 16.5609 57.2417 16.8542 56.9331 17.1926C56.0732 18.1176 54.8605 18.7268 53.2289 18.7268C49.8995 18.7268 47.9152 16.5157 47.9152 12.7705C47.9152 9.54414 49.7893 6.99466 53.2068 6.99466C56.2716 6.99466 57.7048 9.00266 58.0355 11.7326C58.1016 12.6577 57.5725 12.5449 56.6905 12.5449H50.6933V13.2217ZM50.7594 11.5973H54.4857C55.1471 11.5973 55.3015 11.2588 55.3015 10.9204C55.3015 9.18315 54.3754 7.87457 53.2068 7.87457C51.6193 7.87457 50.7594 10.1307 50.7594 11.5973Z" fill="#030712"/>
<path d="M63.4582 17.7792C63.4582 18.1628 63.1716 18.4561 62.8188 18.4561H58.9383C58.5634 18.4335 58.2989 18.1628 58.2989 17.7792C58.2989 17.4859 58.4752 17.2828 58.7398 17.17C59.1367 17.0121 59.5997 16.6962 59.5997 16.1322V5.70863C59.5997 4.53542 59.1367 4.33236 58.7178 4.10674C58.4752 3.97137 58.2989 3.76831 58.2989 3.47501C58.2989 3.18171 58.4973 2.93353 58.7619 2.84328L61.54 2.23411C61.8487 2.16642 62.1574 2.23411 62.1574 2.77559V16.1322C62.1574 16.6962 62.5983 16.967 62.9732 17.1475C63.2598 17.2828 63.4582 17.4859 63.4582 17.7792Z" fill="#030712"/>
<path d="M79.8833 17.9146C79.7951 18.2304 79.5085 18.4561 79.1777 18.4561H69.4763C69.0794 18.4561 68.7487 18.1402 68.7487 17.7341C68.7487 17.4408 68.9471 17.1926 69.2117 17.0798C69.6307 16.8993 70.1378 16.5834 70.1378 15.8615V4.80616C70.1378 4.08418 69.6307 3.74575 69.2117 3.58782C68.9471 3.47501 68.7487 3.22683 68.7487 2.93353C68.7487 2.52741 69.0794 2.21155 69.4763 2.21155H73.5333C73.9301 2.21155 74.2609 2.52741 74.2609 2.93353C74.2609 3.22683 74.0624 3.47501 73.7979 3.58782C73.3789 3.74575 72.8718 4.08418 72.8718 4.80616V16.245C72.8718 17.4408 73.5333 17.5085 74.1506 17.5085H75.8925C77.6564 17.5085 78.4722 17.4182 79.0454 15.2523C79.1116 14.959 79.3982 14.7334 79.6849 14.7334C80.214 14.7334 80.4786 15.2072 80.3904 15.6133L79.8833 17.9146Z" fill="#030712"/>
<path d="M83.8545 13.2217C83.9647 15.9743 85.1554 17.689 86.787 17.689C87.6248 17.689 88.4847 17.3957 88.9257 16.7188C89.3226 16.1322 88.7493 15.3877 89.3446 14.6206C89.8517 13.9211 91.6377 14.3272 90.8219 16.1773C90.6455 16.5609 90.403 16.8542 90.0943 17.1926C89.2344 18.1176 88.0217 18.7268 86.3901 18.7268C83.0608 18.7268 81.0764 16.5157 81.0764 12.7705C81.0764 9.54414 82.9505 6.99466 86.3681 6.99466C89.4328 6.99466 90.866 9.00266 91.1967 11.7326C91.2629 12.6577 90.7337 12.5449 89.8517 12.5449H83.8545V13.2217ZM83.9207 11.5973H87.6469C88.3083 11.5973 88.4627 11.2588 88.4627 10.9204C88.4627 9.18315 87.5366 7.87457 86.3681 7.87457C84.7805 7.87457 83.9207 10.1307 83.9207 11.5973Z" fill="#030712"/>
<path d="M94.6522 13.2217C94.7625 15.9743 95.9531 17.689 97.5847 17.689C98.4226 17.689 99.2825 17.3957 99.7234 16.7188C100.12 16.1322 99.547 15.3877 100.142 14.6206C100.649 13.9211 102.435 14.3272 101.62 16.1773C101.443 16.5609 101.201 16.8542 100.892 17.1926C100.032 18.1176 98.8194 18.7268 97.1878 18.7268C93.8585 18.7268 91.8741 16.5157 91.8741 12.7705C91.8741 9.54414 93.7482 6.99466 97.1658 6.99466C100.231 6.99466 101.664 9.00266 101.994 11.7326C102.061 12.6577 101.531 12.5449 100.649 12.5449H94.6522V13.2217ZM94.7184 11.5973H98.4446C99.1061 11.5973 99.2604 11.2588 99.2604 10.9204C99.2604 9.18315 98.3344 7.87457 97.1658 7.87457C95.5783 7.87457 94.7184 10.1307 94.7184 11.5973Z" fill="#030712"/>
<path d="M52.6899 24.806V26.7839H52.0579V21.5947H53.6748C54.8433 21.5947 55.5195 22.1963 55.5195 23.2041C55.5195 24.2118 54.8507 24.806 53.6748 24.806H52.6899ZM53.6748 24.2194C54.5347 24.2194 54.8874 23.8433 54.8874 23.2041C54.8874 22.5648 54.5347 22.1813 53.6748 22.1813H52.6899V24.2194H53.6748Z" fill="#030712"/>
<path d="M57.3042 24.6092H58.1788V24.173C58.1788 23.639 57.9363 23.5187 57.363 23.5187C56.922 23.5187 56.6869 23.5563 56.4811 23.9022L56.0401 23.5864C56.2973 23.1502 56.6722 22.9622 57.3704 22.9622C58.3038 22.9622 58.7668 23.2705 58.7668 24.173V26.7826H58.1788V26.4141C57.973 26.7601 57.7231 26.8428 57.2454 26.8428C56.3929 26.8428 55.9298 26.4141 55.9298 25.6846C55.9298 24.8724 56.4958 24.6092 57.3042 24.6092ZM58.1788 25.1206H57.3042C56.7236 25.1206 56.5178 25.3236 56.5178 25.6997C56.5178 26.1208 56.8118 26.2863 57.2454 26.2863C57.7893 26.2863 58.1788 26.181 58.1788 25.3387V25.1206Z" fill="#030712"/>
<path d="M59.2163 23.0223H59.6867V22.1951H60.2747V23.0223H61.1199V23.5638H60.2747V25.474C60.2747 25.993 60.3335 26.2111 60.8259 26.2111H61.1199V26.7826H60.8038C59.9366 26.7826 59.6867 26.4066 59.6867 25.6245V23.5638H59.2163V23.0223Z" fill="#030712"/>
<path d="M61.6637 21.5947H62.3252V22.2715H61.6637V21.5947ZM61.7005 23.0223H62.2884V26.7826H61.7005V23.0223Z" fill="#030712"/>
<path d="M65.7905 26.2111C65.5333 26.6698 65.1437 26.8428 64.5043 26.8428C63.5195 26.8428 62.9315 26.1885 62.9315 25.1431V24.6468C62.9315 23.5789 63.4239 22.9622 64.3867 22.9622C65.3495 22.9622 65.842 23.5713 65.842 24.6468V25.0379H63.5195V25.1431C63.5195 25.7899 63.8208 26.3013 64.4602 26.3013C64.938 26.3013 65.1805 26.1584 65.3348 25.8802L65.7905 26.2111ZM63.5195 24.5127H65.2466C65.2172 23.8809 64.9453 23.5049 64.3867 23.5049C63.8282 23.5049 63.5562 23.8885 63.5195 24.5127Z" fill="#030712"/>
<path d="M66.474 23.0223H67.062V23.3908C67.2457 23.1051 67.503 22.9622 68.0468 22.9622C68.8332 22.9622 69.3844 23.3833 69.3844 24.4362V26.7826H68.7965V24.4437C68.7965 23.6841 68.3922 23.5187 67.9586 23.5187C67.4074 23.5187 67.062 23.9173 67.062 24.4362V26.7826H66.474V23.0223Z" fill="#030712"/>
<path d="M69.796 23.0223H70.2664V22.1951H70.8544V23.0223H71.6996V23.5638H70.8544V25.474C70.8544 25.993 70.9131 26.2111 71.4056 26.2111H71.6996V26.7826H71.3835C70.5163 26.7826 70.2664 26.4066 70.2664 25.6245V23.5638H69.796V23.0223Z" fill="#030712"/>
<path d="M73.8383 26.7826L75.6022 21.5934H76.1901L77.954 26.7826H77.2852L76.8957 25.5944H74.8966L74.5071 26.7826H73.8383ZM75.095 25.0078H76.6973L75.8962 22.5711L75.095 25.0078Z" fill="#030712"/>
<path d="M80.6305 21.5947H81.2185V26.7839H80.6305V26.453C80.4321 26.7162 80.116 26.8441 79.631 26.8441C78.6314 26.8441 78.161 26.1221 78.161 25.1444V24.648C78.161 23.5726 78.7196 22.9634 79.631 22.9634C80.116 22.9634 80.4321 23.1213 80.6305 23.3996V21.5947ZM80.6305 25.1958V24.6468C80.6305 23.9398 80.2924 23.5036 79.6898 23.5036C79.0871 23.5036 78.749 23.9323 78.749 24.6468V25.1431C78.749 25.7824 79.065 26.3013 79.6898 26.3013C80.3145 26.3013 80.6305 25.82 80.6305 25.1958Z" fill="#030712"/>
<path d="M85.2289 23.0223L83.759 26.7826H83.171L81.6717 23.0223H82.3331L83.4503 26.0155L84.5674 23.0223H85.2289Z" fill="#030712"/>
<path d="M88.4406 25.1431C88.4406 26.1208 87.9703 26.8428 86.9119 26.8428C85.9344 26.8428 85.3832 26.181 85.3832 25.1431V24.6468C85.3832 23.5789 85.9491 22.9622 86.9119 22.9622C87.8747 22.9622 88.4406 23.5713 88.4406 24.6468V25.1431ZM87.8527 25.1431V24.6468C87.8527 23.9323 87.5146 23.5036 86.9119 23.5036C86.3093 23.5036 85.9712 23.9398 85.9712 24.6468V25.1431C85.9712 25.7899 86.2358 26.3013 86.9119 26.3013C87.5366 26.3013 87.8527 25.7824 87.8527 25.1431Z" fill="#030712"/>
<path d="M91.77 26.2111C91.5421 26.6473 91.0938 26.8428 90.4985 26.8428C89.4916 26.8428 88.911 26.181 88.911 25.1431V24.6468C88.911 23.5789 89.5063 22.9622 90.4985 22.9622C91.0497 22.9622 91.5054 23.1652 91.77 23.5488L91.307 23.8797C91.1453 23.639 90.8366 23.5036 90.4985 23.5036C89.8664 23.5036 89.499 23.9398 89.499 24.6468V25.1431C89.499 25.7899 89.7929 26.3013 90.4985 26.3013C90.8439 26.3013 91.16 26.181 91.3143 25.8802L91.77 26.2111Z" fill="#030712"/>
<path d="M93.4983 24.6092H94.3729V24.173C94.3729 23.639 94.1304 23.5187 93.5571 23.5187C93.1162 23.5187 92.881 23.5563 92.6752 23.9022L92.2342 23.5864C92.4915 23.1502 92.8663 22.9622 93.5645 22.9622C94.4979 22.9622 94.9609 23.2705 94.9609 24.173V26.7826H94.3729V26.4141C94.1672 26.7601 93.9173 26.8428 93.4396 26.8428C92.587 26.8428 92.124 26.4141 92.124 25.6846C92.124 24.8724 92.6899 24.6092 93.4983 24.6092ZM94.3729 25.1206H93.4983C92.9177 25.1206 92.7119 25.3236 92.7119 25.6997C92.7119 26.1208 93.0059 26.2863 93.4396 26.2863C93.9834 26.2863 94.3729 26.181 94.3729 25.3387V25.1206Z" fill="#030712"/>
<path d="M98.4226 26.2111C98.1947 26.6473 97.7464 26.8428 97.1511 26.8428C96.1442 26.8428 95.5636 26.181 95.5636 25.1431V24.6468C95.5636 23.5789 96.1589 22.9622 97.1511 22.9622C97.7023 22.9622 98.158 23.1652 98.4226 23.5488L97.9595 23.8797C97.7978 23.639 97.4892 23.5036 97.1511 23.5036C96.519 23.5036 96.1515 23.9398 96.1515 24.6468V25.1431C96.1515 25.7899 96.4455 26.3013 97.1511 26.3013C97.4965 26.3013 97.8125 26.181 97.9669 25.8802L98.4226 26.2111Z" fill="#030712"/>
<path d="M100.052 26.8202L98.6112 23.0223H99.2433L100.338 25.9403L101.301 23.0223H101.926L100.632 26.903C100.331 27.8054 100.133 28.2115 99.1036 28.2115V27.6249C99.5887 27.6249 99.8165 27.5422 100.037 26.8729L100.052 26.8202Z" fill="#030712"/>
</svg>
