<svg width="36" height="36" viewBox="0 0 36 36" fill="none" xmlns="http://www.w3.org/2000/svg">
<g clip-path="url(#clip0_9283_5591)">
<path fill-rule="evenodd" clip-rule="evenodd" d="M27.36 3.5025H8.64C4.66355 3.5025 1.44 6.72605 1.44 10.7025V24.9225C1.44 28.8989 4.66355 32.1225 8.64 32.1225H27.36C31.3364 32.1225 34.56 28.8989 34.56 24.9225V10.7025C34.56 6.72605 31.3364 3.5025 27.36 3.5025ZM8.64 2.0625C3.86826 2.0625 0 5.93076 0 10.7025V24.9225C0 29.6942 3.86826 33.5625 8.64 33.5625H27.36C32.1317 33.5625 36 29.6942 36 24.9225V10.7025C36 5.93076 32.1317 2.0625 27.36 2.0625H8.64Z" fill="#F9FAFB"/>
<path d="M18.3613 23.8715C18.3613 24.209 18.077 24.4715 17.7359 24.4715H14.3819C14.0408 24.4715 13.7944 24.209 13.7944 23.8715C13.7944 23.684 13.8892 23.5152 14.0408 23.4027C14.4766 23.084 14.5714 22.7465 14.3629 22.409L12.1269 18.9402H10.7436V22.3152C10.7436 22.9152 11.1794 23.1965 11.5394 23.3277C11.7668 23.4215 11.9374 23.6277 11.9374 23.8715C11.9374 24.209 11.6531 24.4715 11.312 24.4715H7.82533C7.48424 24.4715 7.2 24.209 7.2 23.8715C7.2 23.6277 7.37055 23.4215 7.59794 23.3277C7.95798 23.1965 8.39382 22.9152 8.39382 22.3152V13.1288C8.39382 12.5288 7.95798 12.2475 7.59794 12.1162C7.37055 12.0225 7.2 11.8163 7.2 11.5725C7.2 11.235 7.48424 10.9725 7.82533 10.9725H13.4154C15.9736 10.9725 17.717 12.21 17.717 14.8912C17.717 17.01 16.1631 18.2475 14.9314 18.6038C14.8367 18.6413 14.7419 18.66 14.6282 18.6788L16.959 22.3162C17.3001 22.8412 17.6033 23.1975 17.9633 23.3287C18.1907 23.4225 18.3613 23.6287 18.3613 23.8725V23.8715ZM10.7436 16.9537C10.7436 17.9662 11.0847 18.0787 12.1648 18.0787C13.7186 18.0787 15.2536 17.0662 15.2536 14.8912C15.2536 12.2475 13.6997 11.7975 12.1837 11.7975C11.0278 11.7975 10.7436 11.9663 10.7436 12.9975V16.9537Z" fill="#F9FAFB"/>
<path d="M28.3498 24.0225C28.274 24.285 28.0277 24.4725 27.7434 24.4725H19.4056C19.0645 24.4725 18.7803 24.21 18.7803 23.8725C18.7803 23.6287 18.9508 23.4225 19.1782 23.3287C19.5383 23.1787 19.9741 22.9162 19.9741 22.3162V13.1288C19.9741 12.5288 19.5383 12.2475 19.1782 12.1162C18.9508 12.0225 18.7803 11.8163 18.7803 11.5725C18.7803 11.235 19.0645 10.9725 19.4056 10.9725H22.8923C23.2334 10.9725 23.5177 11.235 23.5177 11.5725C23.5177 11.8163 23.3471 12.0225 23.1197 12.1162C22.7597 12.2475 22.3238 12.5288 22.3238 13.1288V22.635C22.3238 23.6287 22.8923 23.685 23.4229 23.685H24.9199C26.4359 23.685 27.137 23.61 27.6297 21.81C27.6866 21.5662 27.9329 21.3787 28.1792 21.3787C28.634 21.3787 28.8614 21.7725 28.7856 22.11L28.3498 24.0225Z" fill="#F9FAFB"/>
</g>
<defs>
<clipPath id="clip0_9283_5591">
<rect width="36" height="36" fill="white"/>
</clipPath>
</defs>
</svg>
