<svg width="268" height="27" viewBox="0 0 268 27" fill="none" xmlns="http://www.w3.org/2000/svg">
<path d="M1.01855 18.8094L1.08963 18.4303L2.15573 18.3356C2.72431 18.2882 3.19813 18.0987 3.19813 17.9328V4.80797C3.19813 4.61844 3.05599 4.54736 1.98989 4.4526L1.11332 4.38153L1.04225 4.00247H7.72313C11.6558 4.00247 13.6222 5.32917 13.6222 7.79304C13.6222 9.59356 12.2007 11.0387 10.0449 11.5362L13.1958 16.4166C14.1671 17.8854 14.5935 18.2645 15.6123 18.3593L16.015 18.4303L16.1098 18.8094H11.49L11.0636 18.0276L7.36776 11.6784C7.03609 11.631 6.2069 11.5125 5.85153 11.3704V18.0039C5.85153 18.1934 6.34905 18.2882 7.05978 18.3593L7.98373 18.4303L8.0548 18.8094H1.01855ZM7.41514 11.1572C9.49996 11.1098 10.7793 9.97262 10.7793 7.86412C10.7793 5.68454 9.47627 4.38153 6.94132 4.47629C6.87025 4.47629 5.85153 4.49998 5.85153 4.49998V10.9203C6.25428 11.0387 7.05978 11.1572 7.41514 11.1572Z" fill="#F9FAFB"/>
<path d="M23.6126 19.0937C22.5939 19.0937 21.9542 18.454 21.8358 17.2221L21.7884 17.1984C20.8881 18.1934 19.9168 19.07 18.6849 19.07C17.2871 19.07 16.1262 18.0039 16.1262 16.6535C16.1262 14.9714 17.524 13.8106 21.9069 12.7682L21.9305 12.1522C21.9779 9.94893 21.054 9.00129 19.5851 9.00129C18.7559 9.00129 17.9504 9.40403 17.9504 9.61725C17.9504 9.78309 18.5901 10.2806 18.5901 10.944C18.5901 11.5362 18.0689 12.0811 17.3108 12.0811C16.5764 12.0811 16.0315 11.631 16.0315 11.015C16.0315 9.64095 18.9692 8.21948 20.9829 8.21948C23.4705 8.21948 24.4418 9.16712 24.2997 12.2233L24.0864 16.5587C24.0391 17.3642 24.347 17.7433 24.8446 17.7433C25.2236 17.7433 25.5553 17.4353 25.887 17.1273L26.1002 17.3405C25.5553 18.075 24.655 19.0937 23.6126 19.0937ZM19.9642 17.6248C20.6275 17.6248 21.1724 17.3642 21.7647 16.772L21.9069 13.1709C19.0876 13.8343 18.4243 14.7819 18.4243 15.9191C18.4243 16.9378 19.1587 17.6248 19.9642 17.6248Z" fill="#F9FAFB"/>
<path d="M31.1075 19.1648C28.3357 19.1648 26.2745 16.9378 26.2745 13.9764C26.2745 10.7307 28.5963 8.21948 31.8182 8.21948C33.8794 8.21948 35.443 9.14343 35.443 10.4938C35.443 11.2993 34.8033 11.8205 34.1163 11.8205C33.2871 11.8205 32.6948 11.0861 32.7896 10.2569C32.7896 9.73571 33.1449 9.42773 33.1449 9.28558C33.0739 9.00129 32.4342 8.66961 31.8182 8.66961C30.1125 8.66961 28.7858 10.3754 28.7858 13.0288C28.7858 15.7769 30.2783 17.5301 32.3631 17.5301C33.5951 17.5301 34.5427 17.0799 35.3482 15.8006L35.6088 15.9428C34.6138 17.9802 33.1686 19.1648 31.1075 19.1648Z" fill="#F9FAFB"/>
<path d="M35.8168 18.8094L35.8879 18.4303L36.3144 18.4066C36.9777 18.3593 37.2383 18.2882 37.2383 18.0039V5.35286C37.2383 4.64213 37.0962 4.4526 36.4802 4.28676L35.6984 4.00247L35.7221 3.74187L39.6074 2.69946V10.1621L39.6548 10.1858C40.7209 9.30927 42.0713 8.21948 43.6349 8.21948C44.3693 8.21948 45.0327 8.48008 45.5302 8.9539C46.0751 9.54618 46.312 10.4464 46.312 11.4888V18.0276C46.312 18.1934 46.3594 18.3119 47.4492 18.4066L47.8045 18.4303L47.8756 18.8094H42.5214L42.5925 18.4303L43.0663 18.4066C43.8481 18.3593 43.9666 18.2171 43.9666 18.0039V12.1285C43.9666 10.4464 43.2322 9.85416 41.9055 9.85416C40.9341 9.85416 40.1523 10.2569 39.6074 10.707V18.0513C39.6074 18.2645 39.7259 18.3356 40.6735 18.4066L41.1236 18.4303L41.1947 18.8094H35.8168Z" fill="#F9FAFB"/>
<path d="M53.1222 19.1648C50.3267 19.1648 48.2656 16.9141 48.2656 13.9527C48.2656 10.707 50.5636 8.19579 53.6908 8.19579C56.1547 8.19579 57.5999 9.66464 57.5999 11.5836C57.5999 11.7968 57.5762 12.0101 57.5288 12.247C57.5288 12.247 51.0611 12.1759 50.8242 12.1759C50.7768 12.3891 50.7531 12.8629 50.7531 13.0998C50.7768 15.7532 52.2694 17.5301 54.3542 17.5301C55.6098 17.5301 56.6285 17.0799 57.434 15.8006L57.6946 15.9428C56.6996 17.9802 55.2071 19.1648 53.1222 19.1648ZM50.8479 11.7731C50.8479 11.7731 55.2071 11.7495 55.1834 11.7495C55.2071 10.1385 54.6859 8.66961 53.3829 8.66961C52.1746 8.66961 51.1085 9.99631 50.8479 11.7731Z" fill="#F9FAFB"/>
<path d="M58.2745 18.8094L58.3456 18.4303L58.7957 18.4066C59.4827 18.3593 59.696 18.2882 59.696 18.0039V5.7793C59.696 4.64213 59.5301 4.4526 58.9142 4.28676L58.1324 4.00247L58.1797 3.74187L62.0414 2.69946V18.0513C62.0414 18.2645 62.2072 18.3356 63.1075 18.4066L63.5102 18.4303L63.5813 18.8094H58.2745Z" fill="#F9FAFB"/>
<path d="M68.2862 18.8094L68.3573 18.4303L69.2812 18.3356C70.0393 18.2645 70.2763 18.0987 70.2763 17.9328V4.80797C70.2763 4.61844 70.1815 4.54736 69.0917 4.4526L68.381 4.38153L68.3099 4.00247H75.2988L75.2277 4.38153L73.9721 4.47629C73.2376 4.54736 72.9296 4.68951 72.9296 4.87904V18.2645L74.5169 18.3593C77.81 18.3593 78.5681 17.1273 79.6579 14.5924L79.9422 13.7158H80.4871L79.8001 18.8094H68.2862Z" fill="#F9FAFB"/>
<path d="M86.3231 19.1648C83.5275 19.1648 81.4664 16.9141 81.4664 13.9527C81.4664 10.707 83.7644 8.19579 86.8916 8.19579C89.3555 8.19579 90.8007 9.66464 90.8007 11.5836C90.8007 11.7968 90.777 12.0101 90.7296 12.247C90.7296 12.247 84.2619 12.1759 84.025 12.1759C83.9776 12.3891 83.954 12.8629 83.954 13.0998C83.9776 15.7532 85.4702 17.5301 87.555 17.5301C88.8106 17.5301 89.8293 17.0799 90.6348 15.8006L90.8954 15.9428C89.9004 17.9802 88.4079 19.1648 86.3231 19.1648ZM84.0487 11.7731C84.0487 11.7731 88.4079 11.7495 88.3842 11.7495C88.4079 10.1385 87.8867 8.66961 86.5837 8.66961C85.3754 8.66961 84.3093 9.99631 84.0487 11.7731Z" fill="#F9FAFB"/>
<path d="M96.6361 19.1648C93.8405 19.1648 91.7794 16.9141 91.7794 13.9527C91.7794 10.707 94.0774 8.19579 97.2047 8.19579C99.6685 8.19579 101.114 9.66464 101.114 11.5836C101.114 11.7968 101.09 12.0101 101.043 12.247C101.043 12.247 94.575 12.1759 94.338 12.1759C94.2907 12.3891 94.267 12.8629 94.267 13.0998C94.2907 15.7532 95.7832 17.5301 97.868 17.5301C99.1236 17.5301 100.142 17.0799 100.948 15.8006L101.208 15.9428C100.213 17.9802 98.7209 19.1648 96.6361 19.1648ZM94.3617 11.7731C94.3617 11.7731 98.7209 11.7495 98.6972 11.7495C98.7209 10.1385 98.1997 8.66961 96.8967 8.66961C95.6884 8.66961 94.6223 9.99631 94.3617 11.7731Z" fill="#F9FAFB"/>
<path d="M105.994 18.8094L106.065 18.4303L107.131 18.3356C107.889 18.2645 108.174 18.0987 108.174 17.9328V4.80797C108.174 4.61844 108.031 4.54736 106.965 4.4526L106.089 4.38153L106.018 4.00247H112.699C116.679 4.00247 118.621 5.40024 118.621 7.69828C118.621 10.3754 116.063 12.0101 112.509 12.0101C111.893 12.0101 111.325 11.9627 110.827 11.9153V18.0039C110.827 18.1934 110.969 18.2882 112.035 18.3593L113.172 18.4303L113.244 18.8094H105.994ZM112.438 11.5599C114.404 11.5599 115.755 10.2095 115.755 8.05364C115.755 5.75561 114.665 4.4526 112.248 4.47629H110.827V11.3467C111.301 11.4652 111.68 11.5599 112.438 11.5599Z" fill="#F9FAFB"/>
<path d="M126.39 19.0937C125.371 19.0937 124.732 18.454 124.613 17.2221L124.566 17.1984C123.666 18.1934 122.694 19.07 121.462 19.07C120.065 19.07 118.904 18.0039 118.904 16.6535C118.904 14.9714 120.302 13.8106 124.684 12.7682L124.708 12.1522C124.756 9.94893 123.832 9.00129 122.363 9.00129C121.534 9.00129 120.728 9.40403 120.728 9.61725C120.728 9.78309 121.368 10.2806 121.368 10.944C121.368 11.5362 120.846 12.0811 120.088 12.0811C119.354 12.0811 118.809 11.631 118.809 11.015C118.809 9.64095 121.747 8.21948 123.761 8.21948C126.248 8.21948 127.219 9.16712 127.077 12.2233L126.864 16.5587C126.817 17.3642 127.125 17.7433 127.622 17.7433C128.001 17.7433 128.333 17.4353 128.665 17.1273L128.878 17.3405C128.333 18.075 127.433 19.0937 126.39 19.0937ZM122.742 17.6248C123.405 17.6248 123.95 17.3642 124.542 16.772L124.684 13.1709C121.865 13.8343 121.202 14.7819 121.202 15.9191C121.202 16.9378 121.936 17.6248 122.742 17.6248Z" fill="#F9FAFB"/>
<path d="M133.056 19.1174C131.303 19.1174 130.331 18.2171 130.355 16.2034L130.474 9.78309L128.578 9.71202L128.792 9.11974L130.284 7.98257L132.464 6.22943L132.819 6.30051L132.795 8.57485H136.444L136.112 9.68833H132.795L132.653 15.848C132.629 17.151 133.222 17.7433 134.43 17.7433C135.212 17.7433 135.875 17.459 136.396 17.0563L136.515 17.2932C135.543 18.3119 134.335 19.1174 133.056 19.1174Z" fill="#F9FAFB"/>
<path d="M139.235 6.44265C138.24 6.44265 137.742 5.61346 137.742 4.92642C137.742 4.21569 138.24 3.41019 139.235 3.41019C140.254 3.41019 140.751 4.21569 140.751 4.92642C140.751 5.61346 140.254 6.44265 139.235 6.44265ZM136.795 18.8094L136.866 18.4303L137.316 18.4066C138.003 18.3593 138.264 18.2882 138.264 18.0039V11.5599C138.264 10.1148 138.098 9.87786 137.269 9.68833L136.747 9.56987L136.771 9.28558L140.609 8.24317V18.0513C140.609 18.2645 140.751 18.3356 141.723 18.4066L142.102 18.4303L142.173 18.8094H136.795Z" fill="#F9FAFB"/>
<path d="M147.64 19.1648C144.845 19.1648 142.784 16.9141 142.784 13.9527C142.784 10.707 145.082 8.19579 148.209 8.19579C150.673 8.19579 152.118 9.66464 152.118 11.5836C152.118 11.7968 152.094 12.0101 152.047 12.247C152.047 12.247 145.579 12.1759 145.342 12.1759C145.295 12.3891 145.271 12.8629 145.271 13.0998C145.295 15.7532 146.787 17.5301 148.872 17.5301C150.128 17.5301 151.147 17.0799 151.952 15.8006L152.213 15.9428C151.218 17.9802 149.725 19.1648 147.64 19.1648ZM145.366 11.7731C145.366 11.7731 149.725 11.7495 149.701 11.7495C149.725 10.1385 149.204 8.66961 147.901 8.66961C146.693 8.66961 145.627 9.99631 145.366 11.7731Z" fill="#F9FAFB"/>
<path d="M153.002 18.8094L153.073 18.4303L153.523 18.4066C154.21 18.3593 154.471 18.2882 154.471 18.0039V11.5836C154.471 10.1148 154.281 9.87786 153.476 9.68833L152.931 9.56987L152.955 9.28558L156.84 8.24317L156.793 10.1858H156.84C157.906 9.30927 159.28 8.21948 160.82 8.21948C161.578 8.21948 162.241 8.45639 162.715 8.9539C163.284 9.52249 163.497 10.4464 163.497 11.5125V18.0276C163.497 18.1934 163.568 18.3119 164.658 18.4066L165.013 18.4303L165.084 18.8094H159.754L159.825 18.4303L160.275 18.4066C161.081 18.3593 161.152 18.2171 161.152 18.0039V12.1522C161.152 10.4464 160.465 9.85416 159.114 9.85416C158.143 9.85416 157.361 10.2569 156.793 10.707V18.0513C156.793 18.2645 156.935 18.3356 157.859 18.4066L158.309 18.4303L158.356 18.8094H153.002Z" fill="#F9FAFB"/>
<path d="M169.496 19.1174C167.743 19.1174 166.771 18.2171 166.795 16.2034L166.913 9.78309L165.018 9.71202L165.231 9.11974L166.724 7.98257L168.903 6.22943L169.259 6.30051L169.235 8.57485H172.884L172.552 9.68833H169.235L169.093 15.848C169.069 17.151 169.662 17.7433 170.87 17.7433C171.652 17.7433 172.315 17.459 172.836 17.0563L172.955 17.2932C171.983 18.3119 170.775 19.1174 169.496 19.1174Z" fill="#F9FAFB"/>
<path d="M185.355 12.7682H181.138L180.38 14.9241C179.433 17.6959 179.385 18.146 181.209 18.3356L181.825 18.4303L181.897 18.8094H176.637L176.708 18.4303L177.135 18.3593C178.509 18.146 178.746 17.8381 180.357 13.4078L183.034 5.94514L182.82 5.16333C183.46 4.95011 184.455 4.192 184.716 3.59972H185.071L189.217 16.0375C189.833 17.8854 190.141 18.2645 191.065 18.3356L191.847 18.4303L191.918 18.8094H184.929L185 18.4303L185.782 18.3356C186.895 18.2645 186.919 17.6722 186.374 16.0138L185.355 12.7682ZM181.304 12.2707H185.19L183.389 6.51372H183.318L181.304 12.2707Z" fill="#F9FAFB"/>
<path d="M199.578 19.1884V17.151L199.507 17.1273C198.583 18.2645 197.351 19.1174 195.929 19.1174C193.537 19.1174 191.665 16.9852 191.665 14.0475C191.665 10.3991 194.461 8.33794 197.28 8.33794C198.156 8.33794 198.891 8.45639 199.53 8.74069C199.53 8.74069 199.578 8.71699 199.578 8.74069V5.11595C199.578 4.42891 199.412 4.192 198.796 4.07354L197.801 3.81294L197.848 3.55234L201.9 2.69946V17.0799C201.9 17.7196 202.018 17.8617 202.35 17.9565L203.487 18.2171L203.463 18.5014L199.578 19.1884ZM197.28 17.6248C198.275 17.6248 198.986 17.151 199.578 16.5587V10.8966C198.986 9.73571 197.919 8.83545 196.853 8.83545C195.195 8.83545 194.247 10.8018 194.247 13.3131C194.247 15.7532 195.432 17.6248 197.28 17.6248Z" fill="#F9FAFB"/>
<path d="M208.218 19.0463L204.546 10.2332C204.12 9.26189 204.001 9.07236 203.291 9.00129L202.817 8.93021L202.746 8.55116H208.337L208.289 8.93021L207.768 9.00129C206.986 9.04867 206.821 9.33296 207.129 10.0674L209.593 16.2271L211.393 11.4415C212.127 9.4988 211.938 9.14343 210.611 9.00129L210.161 8.93021L210.09 8.55116H214.307L214.236 8.93021L213.81 8.9776C212.838 9.09605 212.743 9.40403 211.867 11.5836L209 19.0463H208.218Z" fill="#F9FAFB"/>
<path d="M219.383 19.1411C216.066 19.1411 213.911 16.7246 213.911 13.7158C213.911 10.6597 216.303 8.21948 219.549 8.21948C222.842 8.21948 225.022 10.5886 225.022 13.55C225.022 16.6772 222.676 19.1411 219.383 19.1411ZM219.502 18.6909C221.255 18.6909 222.345 16.5824 222.345 13.9764C222.345 11.8916 221.918 10.2095 221.113 9.38034C220.734 9.00129 220.212 8.66961 219.431 8.66961C217.583 8.66961 216.588 10.8018 216.588 13.3368C216.588 15.4689 216.967 17.1036 217.796 17.9565C218.199 18.3829 218.744 18.6909 219.502 18.6909Z" fill="#F9FAFB"/>
<path d="M230.699 19.1648C227.927 19.1648 225.866 16.9378 225.866 13.9764C225.866 10.7307 228.188 8.21948 231.41 8.21948C233.471 8.21948 235.035 9.14343 235.035 10.4938C235.035 11.2993 234.395 11.8205 233.708 11.8205C232.879 11.8205 232.287 11.0861 232.381 10.2569C232.381 9.73571 232.737 9.42773 232.737 9.28558C232.666 9.00129 232.026 8.66961 231.41 8.66961C229.704 8.66961 228.377 10.3754 228.377 13.0288C228.377 15.7769 229.87 17.5301 231.955 17.5301C233.187 17.5301 234.134 17.0799 234.94 15.8006L235.201 15.9428C234.205 17.9802 232.76 19.1648 230.699 19.1648Z" fill="#F9FAFB"/>
<path d="M243.321 19.0937C242.303 19.0937 241.663 18.454 241.545 17.2221L241.497 17.1984C240.597 18.1934 239.626 19.07 238.394 19.07C236.996 19.07 235.835 18.0039 235.835 16.6535C235.835 14.9714 237.233 13.8106 241.616 12.7682L241.639 12.1522C241.687 9.94893 240.763 9.00129 239.294 9.00129C238.465 9.00129 237.659 9.40403 237.659 9.61725C237.659 9.78309 238.299 10.2806 238.299 10.944C238.299 11.5362 237.778 12.0811 237.02 12.0811C236.285 12.0811 235.74 11.631 235.74 11.015C235.74 9.64095 238.678 8.21948 240.692 8.21948C243.179 8.21948 244.151 9.16712 244.008 12.2233L243.795 16.5587C243.748 17.3642 244.056 17.7433 244.553 17.7433C244.932 17.7433 245.264 17.4353 245.596 17.1273L245.809 17.3405C245.264 18.075 244.364 19.0937 243.321 19.0937ZM239.673 17.6248C240.336 17.6248 240.881 17.3642 241.473 16.772L241.616 13.1709C238.796 13.8343 238.133 14.7819 238.133 15.9191C238.133 16.9378 238.867 17.6248 239.673 17.6248Z" fill="#F9FAFB"/>
<path d="M250.816 19.1648C248.044 19.1648 245.983 16.9378 245.983 13.9764C245.983 10.7307 248.305 8.21948 251.527 8.21948C253.588 8.21948 255.152 9.14343 255.152 10.4938C255.152 11.2993 254.512 11.8205 253.825 11.8205C252.996 11.8205 252.404 11.0861 252.498 10.2569C252.498 9.73571 252.854 9.42773 252.854 9.28558C252.783 9.00129 252.143 8.66961 251.527 8.66961C249.821 8.66961 248.495 10.3754 248.495 13.0288C248.495 15.7769 249.987 17.5301 252.072 17.5301C253.304 17.5301 254.251 17.0799 255.057 15.8006L255.318 15.9428C254.323 17.9802 252.877 19.1648 250.816 19.1648Z" fill="#F9FAFB"/>
<path d="M257.866 24.9217C257.013 24.9217 256.279 24.3768 256.279 23.5713C256.279 22.8606 256.8 22.292 257.558 22.292C258.435 22.292 258.861 22.8369 259.027 23.4291C259.572 23.287 259.88 22.6237 260.283 21.4865L261.112 19.0463H260.993L257.037 10.2569C256.587 9.26189 256.468 9.09605 255.734 9.00129L255.26 8.93021L255.189 8.57485H260.756L260.685 8.93021L260.211 9.00129C259.43 9.04867 259.287 9.33296 259.619 10.0674L262.178 16.0849L263.884 11.3941C264.547 9.4988 264.405 9.16712 263.054 9.00129L262.604 8.93021L262.533 8.57485H266.774L266.703 8.93021L266.229 9.00129C265.281 9.09605 265.163 9.40403 264.334 11.5836L261.728 18.5962L260.685 21.7708C259.998 23.8556 259.216 24.9217 257.866 24.9217Z" fill="#F9FAFB"/>
</svg>
