<svg width="65" height="64" viewBox="0 0 65 64" fill="none" xmlns="http://www.w3.org/2000/svg">
<path d="M52.9033 42.6359C52.8133 42.5909 52.7141 42.5657 52.6096 42.5747C52.3015 42.6017 52.0943 42.8792 51.9448 43.1368C51.3339 44.2017 50.9159 45.4684 49.8384 46.1171C49.1969 46.5045 48.4131 46.6054 47.6545 46.6631C45.9284 46.7946 44.1914 46.7496 42.4598 46.7027C42.1679 46.6955 41.8454 46.6757 41.6364 46.4793C41.4544 46.3081 41.4111 46.0468 41.3823 45.8054C41.2111 44.4234 41.2075 32.3365 41.2147 28.4698C41.2147 27.7598 41.2598 26.9544 41.8238 26.4895C42.24 26.149 42.9463 25.9346 42.9121 25.4138C42.8778 24.9147 42.1913 24.7652 41.667 24.7543C40.1895 24.7201 38.712 24.6859 37.2344 24.6787C36.3659 24.6751 35.4866 24.6823 34.6488 24.8949C32.6956 25.394 31.2054 26.9814 30.4288 28.7581C29.3153 31.3023 29.5081 34.3312 30.9388 36.7295C32.2811 38.98 34.6848 40.6251 37.3443 41.144C36.6668 41.8233 35.8254 42.1584 34.7929 42.1584C33.7605 42.1584 32.8577 41.8845 32.0595 41.3224C31.2307 40.7386 30.4775 39.9746 29.818 39.0484C29.1441 38.1025 28.5387 37.0556 28.0198 35.9402C27.4918 34.8087 26.9963 33.6807 26.5386 32.5744C26.4053 32.2771 26.2828 31.9798 26.1711 31.6807C25.8305 30.8482 25.3602 30.1383 24.7728 29.5671C24.4611 29.2644 24.0719 29.0085 23.607 28.8049C24.3242 28.558 24.9999 28.2553 25.6287 27.9022C26.708 27.2986 27.5837 26.5274 28.2342 25.6102C28.8991 24.6751 29.236 23.5543 29.236 22.2786C29.236 20.7704 28.7855 19.5001 27.8972 18.5019C27.0287 17.5271 25.9134 16.7956 24.5818 16.3271C23.2737 15.8676 21.9277 15.6352 20.5853 15.6352H12.9527C12.65 15.6352 12.4049 15.7793 12.295 16.0226C12.2103 16.2136 12.2103 16.4136 12.295 16.6028C12.3508 16.7271 12.4986 16.9469 12.8842 17.0172C13.486 17.1001 13.8104 17.3812 13.9383 17.9343C14.1004 18.6334 14.1815 19.6479 14.1815 20.9488V33.9186C14.1815 35.2213 14.1004 36.2357 13.9383 36.9349C13.8104 37.4862 13.486 37.7691 12.859 37.8538C12.4986 37.9241 12.3508 38.1403 12.295 38.2664C12.2103 38.4556 12.2103 38.6574 12.295 38.8466C12.4049 39.0881 12.65 39.2322 12.9527 39.2322H18.7438C19.0465 39.2322 19.2916 39.0881 19.4015 38.8466C19.4862 38.6574 19.4862 38.4556 19.4015 38.2628C19.3474 38.1403 19.1997 37.9241 18.8123 37.8502C18.2123 37.7691 17.8879 37.4862 17.76 36.9349C17.5978 36.2339 17.515 35.2195 17.515 33.9186V29.7329H17.6555C19.3312 29.7329 20.5385 29.8824 21.2466 30.1797C21.8899 30.45 22.3998 31.0933 22.7602 32.0825C22.7872 32.1582 22.825 32.2482 22.8773 32.3491C23.4413 33.7654 24.0503 35.1997 24.6827 36.6087C25.3242 38.0376 26.0539 39.3638 26.8486 40.5494C27.6594 41.7566 28.6054 42.7458 29.6576 43.4882C30.746 44.2576 32.0055 44.6468 33.3983 44.6468C34.6902 44.6468 35.8722 44.3171 36.9119 43.6648C37.2633 43.445 37.584 43.1963 37.8741 42.9242C37.8579 43.7026 37.8182 44.481 37.7498 45.2576C37.6993 45.8198 37.5822 46.4631 37.0723 46.7478C36.6795 46.9658 36.0885 46.9568 35.9119 47.355C35.7839 47.6433 35.993 47.9874 36.2831 48.1352C36.575 48.2829 36.9191 48.2865 37.2488 48.2865C40.6471 48.2829 44.0436 48.2811 47.4419 48.2775C48.269 48.2775 49.0942 48.2757 49.9213 48.2757C50.4654 48.2739 51.7772 48.5136 52.2385 48.2217C52.6997 47.9298 52.6763 46.8973 52.77 46.4162C52.9286 45.5964 53.0889 44.7783 53.2475 43.9585C53.2529 43.9369 53.2565 43.917 53.2601 43.8954C53.1232 43.481 53.0042 43.0612 52.9051 42.6359H52.9033ZM21.7637 27.4986C20.4952 27.9526 19.1006 28.1833 17.6195 28.1833H17.5132V20.9488C17.5132 19.4695 17.5744 18.4064 17.6933 17.7884C17.7906 17.2875 18.0195 17.1848 18.3348 17.1848H20.5511C22.0827 17.1848 23.3349 17.6046 24.38 18.4677C25.4053 19.3163 25.9044 20.5092 25.9044 22.1164C25.9044 23.4732 25.526 24.6066 24.7818 25.4805C24.0214 26.376 23.007 27.0553 21.7637 27.4986ZM37.8669 39.6142C36.9443 39.371 36.0831 39.016 35.3245 38.4881C33.2145 37.0196 31.719 34.6285 31.8145 32.1437C31.8991 29.8518 33.5983 27.5364 35.9785 27.1995C36.5317 27.122 37.0957 27.149 37.6489 27.1184C37.7912 27.8067 37.8669 28.7743 37.8669 29.9959V39.6142Z" fill="#FAFAFA"/>
<path d="M32.7442 0.000488281C15.1005 0.000488281 0.745117 14.3558 0.745117 32.0014C0.745117 49.6469 15.1005 64.0023 32.7442 64.0023C50.388 64.0023 64.7451 49.6469 64.7451 32.0014C64.7451 14.3558 50.3898 0.000488281 32.7442 0.000488281ZM32.7442 62.2004C16.0933 62.2004 2.54697 48.6523 2.54697 32.0014C2.54697 15.3505 16.0933 1.80234 32.7442 1.80234C49.3951 1.80234 62.9433 15.3505 62.9433 32.0014C62.9433 48.6523 49.3969 62.2004 32.7442 62.2004Z" fill="#FAFAFA"/>
<path d="M32.7442 1.80234C16.0933 1.80234 2.54697 15.3505 2.54697 32.0014C2.54697 48.6523 16.0933 62.2004 32.7442 62.2004C49.3951 62.2004 62.9433 48.6523 62.9433 32.0014C62.9433 15.3505 49.3969 1.80234 32.7442 1.80234ZM53.2457 43.9585C53.0871 44.7783 52.9268 45.5964 52.7682 46.4162C52.6745 46.8973 52.6979 47.9298 52.2367 48.2217C51.7754 48.5136 50.4636 48.2739 49.9195 48.2757C49.0924 48.2757 48.2672 48.2775 47.4401 48.2775C44.0418 48.2811 40.6453 48.2829 37.247 48.2865C36.9173 48.2865 36.5732 48.2829 36.2813 48.1352C35.9912 47.9874 35.7821 47.6433 35.9101 47.355C36.0867 46.9568 36.6777 46.9658 37.0705 46.7478C37.5804 46.4631 37.6975 45.8198 37.748 45.2576C37.8164 44.481 37.8561 43.7026 37.8723 42.9242C37.5822 43.1963 37.2615 43.445 36.9101 43.6648C35.8704 44.3171 34.6884 44.6468 33.3965 44.6468C32.0037 44.6468 30.7442 44.2576 29.6558 43.4882C28.6036 42.7458 27.6576 41.7566 26.8468 40.5494C26.0521 39.3638 25.3224 38.0376 24.6809 36.6087C24.0485 35.1997 23.4395 33.7654 22.8755 32.3491C22.8232 32.2482 22.7854 32.1582 22.7583 32.0825C22.398 31.0933 21.8881 30.45 21.2448 30.1797C20.5367 29.8824 19.3294 29.7329 17.6537 29.7329H17.5132V33.9186C17.5132 35.2195 17.596 36.2339 17.7582 36.9349C17.8861 37.4862 18.2105 37.7691 18.8105 37.8502C19.1979 37.9241 19.3456 38.1403 19.3997 38.2628C19.4862 38.4556 19.4862 38.6574 19.3997 38.8466C19.2898 39.0881 19.0447 39.2322 18.742 39.2322H12.9509C12.6482 39.2322 12.4031 39.0881 12.2932 38.8466C12.2085 38.6574 12.2085 38.4556 12.2932 38.2664C12.349 38.1403 12.4968 37.9241 12.8572 37.8538C13.4842 37.7691 13.8085 37.4862 13.9365 36.9349C14.0986 36.2357 14.1797 35.2213 14.1797 33.9186V20.9488C14.1797 19.6479 14.0986 18.6334 13.9365 17.9343C13.8085 17.3812 13.4842 17.1001 12.8824 17.0172C12.4968 16.9469 12.349 16.7271 12.2932 16.6028C12.2085 16.4136 12.2085 16.2136 12.2932 16.0226C12.4031 15.7793 12.6482 15.6352 12.9509 15.6352H20.5835C21.9259 15.6352 23.2719 15.8676 24.58 16.3271C25.9116 16.7956 27.0269 17.5271 27.8954 18.5019C28.7837 19.5001 29.2342 20.7704 29.2342 22.2786C29.2342 23.5543 28.8973 24.6751 28.2324 25.6102C27.5819 26.5274 26.7062 27.2986 25.6269 27.9022C24.9981 28.2553 24.3224 28.558 23.6052 28.8049C24.0701 29.0085 24.4593 29.2644 24.771 29.5671C25.3584 30.1383 25.8287 30.8482 26.1693 31.6807C26.281 31.9798 26.4035 32.2771 26.5368 32.5744C26.9945 33.6807 27.49 34.8087 28.018 35.9402C28.5369 37.0556 29.1423 38.1025 29.8162 39.0484C30.4757 39.9746 31.2289 40.7386 32.0577 41.3224C32.8559 41.8846 33.7497 42.1584 34.7911 42.1584C35.8326 42.1584 36.665 41.8233 37.3425 41.144C34.683 40.6251 32.2793 38.98 30.937 36.7295C29.5063 34.3312 29.3135 31.3023 30.427 28.7581C31.2036 26.9814 32.6938 25.394 34.647 24.8949C35.4848 24.6823 36.3641 24.6751 37.2326 24.6787C38.7102 24.6859 40.1877 24.7201 41.6652 24.7543C42.1895 24.7652 42.876 24.9147 42.9103 25.4138C42.9445 25.9346 42.2382 26.149 41.822 26.4895C41.258 26.9544 41.2129 27.7598 41.2129 28.4698C41.2057 32.3365 41.2093 44.4234 41.3805 45.8054C41.4093 46.0468 41.4526 46.3081 41.6346 46.4793C41.8436 46.6757 42.1661 46.6955 42.458 46.7027C44.1896 46.7496 45.9266 46.7946 47.6527 46.6631C48.4113 46.6054 49.1951 46.5045 49.8366 46.1171C50.9141 45.4684 51.3321 44.2017 51.943 43.1368C52.0925 42.8792 52.2997 42.6017 52.6078 42.5747C52.7123 42.5657 52.8114 42.5909 52.9015 42.6359C53.0006 43.0612 53.1196 43.481 53.2565 43.8954C53.2529 43.917 53.2493 43.9369 53.2439 43.9585H53.2457Z" fill="#09090B"/>
<path d="M25.9044 22.1164C25.9044 23.4732 25.526 24.6066 24.7818 25.4805C24.0214 26.376 23.007 27.0553 21.7637 27.4986C20.4952 27.9526 19.1006 28.1833 17.6195 28.1833H17.5132V20.9488C17.5132 19.4695 17.5744 18.4064 17.6933 17.7884C17.7906 17.2875 18.0195 17.1848 18.3348 17.1848H20.5511C22.0827 17.1848 23.3349 17.6046 24.38 18.4677C25.4053 19.3163 25.9044 20.5092 25.9044 22.1164Z" fill="#09090B"/>
<path d="M37.8669 29.9959V39.6142C36.9443 39.371 36.0831 39.016 35.3245 38.4881C33.2145 37.0196 31.719 34.6285 31.8145 32.1437C31.8991 29.8518 33.5983 27.5364 35.9785 27.1995C36.5317 27.122 37.0957 27.149 37.6489 27.1184C37.7912 27.8067 37.8669 28.7743 37.8669 29.9959Z" fill="#09090B"/>
</svg>
