<svg width="32" height="32" viewBox="0 0 32 32" fill="none" xmlns="http://www.w3.org/2000/svg">
<path d="M26.0791 21.3187C26.0341 21.2962 25.9845 21.2836 25.9323 21.2881C25.7782 21.3016 25.6746 21.4403 25.5998 21.5692C25.2944 22.1016 25.0854 22.735 24.5466 23.0593C24.2259 23.253 23.834 23.3034 23.4547 23.3323C22.5916 23.398 21.7231 23.3755 20.8573 23.3521C20.7114 23.3485 20.5501 23.3386 20.4456 23.2404C20.3546 23.1548 20.333 23.0241 20.3186 22.9034C20.233 22.2124 20.2312 16.169 20.2348 14.2356C20.2348 13.8806 20.2573 13.4779 20.5393 13.2455C20.7474 13.0752 21.1006 12.968 21.0835 12.7076C21.0664 12.4581 20.7231 12.3833 20.4609 12.3779C19.7222 12.3608 18.9834 12.3437 18.2447 12.3401C17.8104 12.3383 17.3708 12.3419 16.9518 12.4482C15.9752 12.6977 15.2302 13.4914 14.8419 14.3798C14.2851 15.6519 14.3815 17.1663 15.0968 18.3655C15.768 19.4907 16.9698 20.3133 18.2996 20.5727C17.9609 20.9124 17.5401 21.0799 17.0239 21.0799C16.5077 21.0799 16.0563 20.943 15.6572 20.6619C15.2428 20.37 14.8662 19.988 14.5364 19.5249C14.1995 19.052 13.8968 18.5285 13.6373 17.9709C13.3733 17.4051 13.1256 16.8411 12.8968 16.2879C12.8301 16.1393 12.7688 15.9906 12.713 15.8411C12.5427 15.4248 12.3076 15.0699 12.0139 14.7843C11.858 14.6329 11.6634 14.505 11.431 14.4032C11.7895 14.2798 12.1274 14.1284 12.4418 13.9518C12.9814 13.65 13.4193 13.2644 13.7445 12.8058C14.077 12.3383 14.2454 11.7779 14.2454 11.14C14.2454 10.386 14.0202 9.7508 13.5761 9.25169C13.1418 8.76429 12.5841 8.39851 11.9184 8.16427C11.2643 7.93453 10.5913 7.81831 9.9201 7.81831H6.10378C5.95242 7.81831 5.82989 7.89039 5.77494 8.01201C5.73259 8.10751 5.73259 8.20751 5.77494 8.30211C5.80287 8.36428 5.87674 8.47419 6.06954 8.50932C6.37045 8.55077 6.53262 8.69131 6.59658 8.9679C6.67767 9.31746 6.71821 9.82468 6.71821 10.4751V16.96C6.71821 17.6114 6.67767 18.1186 6.59658 18.4682C6.53262 18.7438 6.37045 18.8853 6.05693 18.9276C5.87674 18.9628 5.80287 19.0709 5.77494 19.1339C5.73259 19.2285 5.73259 19.3294 5.77494 19.424C5.82989 19.5448 5.95242 19.6168 6.10378 19.6168H8.99935C9.15071 19.6168 9.27323 19.5448 9.32819 19.424C9.37053 19.3294 9.37053 19.2285 9.32819 19.1321C9.30116 19.0709 9.22729 18.9628 9.03359 18.9258C8.73358 18.8853 8.57141 18.7438 8.50745 18.4682C8.42636 18.1177 8.38492 17.6105 8.38492 16.96V14.8672H8.45519C9.29305 14.8672 9.89668 14.9419 10.2507 15.0906C10.5724 15.2257 10.8273 15.5474 11.0075 16.042C11.021 16.0798 11.04 16.1249 11.0661 16.1753C11.3481 16.8834 11.6526 17.6006 11.9688 18.3051C12.2895 19.0195 12.6544 19.6826 13.0517 20.2754C13.4571 20.879 13.9301 21.3737 14.4563 21.7448C15.0004 22.1295 15.6302 22.3241 16.3266 22.3241C16.9726 22.3241 17.5636 22.1593 18.0834 21.8331C18.2591 21.7232 18.4194 21.5989 18.5645 21.4628C18.5564 21.852 18.5366 22.2412 18.5023 22.6295C18.4771 22.9106 18.4185 23.2323 18.1636 23.3746C17.9672 23.4836 17.6717 23.4791 17.5834 23.6782C17.5194 23.8224 17.6239 23.9944 17.769 24.0683C17.9149 24.1422 18.087 24.144 18.2519 24.144C19.951 24.1422 21.6493 24.1413 23.3484 24.1395C23.7619 24.1395 24.1746 24.1386 24.5881 24.1386C24.8602 24.1377 25.516 24.2575 25.7467 24.1116C25.9773 23.9656 25.9656 23.4494 26.0124 23.2088C26.0917 22.7989 26.1719 22.3899 26.2512 21.98C26.2539 21.9692 26.2557 21.9593 26.2575 21.9484C26.189 21.7412 26.1296 21.5313 26.08 21.3187H26.0791ZM10.5093 13.75C9.87505 13.977 9.17774 14.0924 8.43717 14.0924H8.38402V10.4751C8.38402 9.73549 8.41465 9.20394 8.47411 8.89492C8.52276 8.64446 8.63718 8.59311 8.79484 8.59311H9.90298C10.6688 8.59311 11.2949 8.80303 11.8175 9.23457C12.3301 9.65891 12.5796 10.2553 12.5796 11.0589C12.5796 11.7373 12.3904 12.304 12.0184 12.741C11.6382 13.1887 11.1309 13.5284 10.5093 13.75ZM18.5609 19.8078C18.0996 19.6862 17.669 19.5087 17.2897 19.2448C16.2347 18.5105 15.4869 17.315 15.5347 16.0726C15.577 14.9266 16.4266 13.7689 17.6167 13.6005C17.8933 13.5617 18.1753 13.5752 18.4519 13.5599C18.523 13.9041 18.5609 14.3879 18.5609 14.9987V19.8078Z" fill="#FAFAFA"/>
<path d="M15.9995 0.000976562C7.17768 0.000976562 0 7.17866 0 16.0014C0 24.8242 7.17768 32.0019 15.9995 32.0019C24.8214 32.0019 32 24.8242 32 16.0014C32 7.17866 24.8223 0.000976562 15.9995 0.000976562ZM15.9995 31.101C7.67409 31.101 0.900926 24.3269 0.900926 16.0014C0.900926 7.67597 7.67409 0.901903 15.9995 0.901903C24.325 0.901903 31.0991 7.67597 31.0991 16.0014C31.0991 24.3269 24.3259 31.101 15.9995 31.101Z" fill="#FAFAFA"/>
<path d="M15.9995 0.901903C7.67409 0.901903 0.900926 7.67597 0.900926 16.0014C0.900926 24.3269 7.67409 31.101 15.9995 31.101C24.325 31.101 31.0991 24.3269 31.0991 16.0014C31.0991 7.67597 24.3259 0.901903 15.9995 0.901903ZM26.2503 21.98C26.171 22.3899 26.0908 22.7989 26.0115 23.2088C25.9647 23.4494 25.9764 23.9656 25.7458 24.1116C25.5151 24.2575 24.8593 24.1377 24.5872 24.1386C24.1737 24.1386 23.761 24.1395 23.3475 24.1395C21.6484 24.1413 19.9501 24.1422 18.251 24.144C18.0861 24.144 17.914 24.1422 17.7681 24.0683C17.623 23.9944 17.5185 23.8224 17.5825 23.6782C17.6708 23.4791 17.9663 23.4836 18.1627 23.3746C18.4176 23.2323 18.4762 22.9106 18.5014 22.6295C18.5357 22.2412 18.5555 21.852 18.5636 21.4628C18.4185 21.5989 18.2582 21.7232 18.0825 21.8331C17.5627 22.1593 16.9717 22.3241 16.3257 22.3241C15.6293 22.3241 14.9995 22.1295 14.4554 21.7448C13.9292 21.3737 13.4562 20.879 13.0508 20.2754C12.6535 19.6826 12.2886 19.0195 11.9679 18.3051C11.6517 17.6006 11.3472 16.8834 11.0652 16.1753C11.039 16.1249 11.0201 16.0798 11.0066 16.042C10.8264 15.5474 10.5715 15.2257 10.2498 15.0906C9.89577 14.9419 9.29215 14.8672 8.45429 14.8672H8.38402V16.96C8.38402 17.6105 8.42546 18.1177 8.50655 18.4682C8.57051 18.7438 8.73268 18.8853 9.03269 18.9258C9.22639 18.9628 9.30026 19.0709 9.32729 19.1321C9.37053 19.2285 9.37053 19.3294 9.32729 19.424C9.27233 19.5448 9.14981 19.6168 8.99845 19.6168H6.10287C5.95152 19.6168 5.82899 19.5448 5.77404 19.424C5.73169 19.3294 5.73169 19.2285 5.77404 19.1339C5.80196 19.0709 5.87584 18.9628 6.05603 18.9276C6.36955 18.8853 6.53172 18.7438 6.59568 18.4682C6.67676 18.1186 6.71731 17.6114 6.71731 16.96V10.4751C6.71731 9.82468 6.67676 9.31746 6.59568 8.9679C6.53172 8.69131 6.36955 8.55077 6.06864 8.50932C5.87584 8.47419 5.80196 8.36428 5.77404 8.30211C5.73169 8.20751 5.73169 8.10751 5.77404 8.01201C5.82899 7.89039 5.95152 7.81831 6.10287 7.81831H9.9192C10.5904 7.81831 11.2634 7.93453 11.9175 8.16427C12.5832 8.39851 13.1409 8.76429 13.5752 9.25169C14.0193 9.7508 14.2445 10.386 14.2445 11.14C14.2445 11.7779 14.0761 12.3383 13.7436 12.8058C13.4184 13.2644 12.9805 13.65 12.4409 13.9518C12.1265 14.1284 11.7886 14.2798 11.4301 14.4032C11.6625 14.505 11.8571 14.6329 12.013 14.7843C12.3067 15.0699 12.5418 15.4248 12.7121 15.8411C12.7679 15.9906 12.8292 16.1393 12.8959 16.2879C13.1247 16.8411 13.3724 17.4051 13.6364 17.9709C13.8959 18.5285 14.1986 19.052 14.5355 19.525C14.8653 19.988 15.2419 20.37 15.6563 20.6619C16.0554 20.943 16.5023 21.0799 17.023 21.0799C17.5437 21.0799 17.96 20.9124 18.2987 20.5727C16.9689 20.3133 15.7671 19.4907 15.0959 18.3655C14.3806 17.1663 14.2842 15.6519 14.841 14.3798C15.2293 13.4914 15.9743 12.6977 16.9509 12.4482C17.3699 12.3419 17.8095 12.3383 18.2438 12.3401C18.9825 12.3437 19.7213 12.3608 20.46 12.3779C20.7222 12.3833 21.0655 12.4581 21.0826 12.7076C21.0997 12.968 20.7465 13.0752 20.5384 13.2455C20.2564 13.4779 20.2339 13.8806 20.2339 14.2356C20.2303 16.169 20.2321 22.2124 20.3177 22.9034C20.3321 23.0241 20.3537 23.1548 20.4447 23.2404C20.5492 23.3386 20.7105 23.3485 20.8564 23.3521C21.7222 23.3755 22.5907 23.398 23.4538 23.3323C23.8331 23.3034 24.225 23.253 24.5457 23.0593C25.0845 22.735 25.2935 22.1016 25.5989 21.5692C25.6737 21.4403 25.7773 21.3016 25.9314 21.2881C25.9836 21.2836 26.0332 21.2962 26.0782 21.3187C26.1278 21.5313 26.1872 21.7412 26.2557 21.9484C26.2539 21.9593 26.2521 21.9692 26.2494 21.98H26.2503Z" fill="#09090B"/>
<path d="M12.5796 11.0589C12.5796 11.7373 12.3904 12.304 12.0184 12.741C11.6382 13.1887 11.1309 13.5284 10.5093 13.75C9.87505 13.977 9.17774 14.0924 8.43717 14.0924H8.38402V10.4751C8.38402 9.73549 8.41465 9.20394 8.47411 8.89492C8.52276 8.64446 8.63718 8.59311 8.79484 8.59311H9.90298C10.6688 8.59311 11.2949 8.80303 11.8175 9.23457C12.3301 9.65891 12.5796 10.2553 12.5796 11.0589Z" fill="#09090B"/>
<path d="M18.5609 14.9987V19.8078C18.0996 19.6862 17.669 19.5087 17.2897 19.2448C16.2347 18.5105 15.4869 17.315 15.5347 16.0726C15.577 14.9266 16.4266 13.7689 17.6167 13.6005C17.8933 13.5617 18.1753 13.5752 18.4519 13.5599C18.523 13.9041 18.5609 14.3879 18.5609 14.9987Z" fill="#09090B"/>
</svg>
