<svg width="330" height="66" viewBox="0 0 330 66" fill="none" xmlns="http://www.w3.org/2000/svg">
<path d="M59.1001 55.003C59.0558 55.003 58.9393 55.011 58.895 55.015C58.3724 55.0753 57.9141 55.3849 57.5202 55.9477C55.8358 58.5045 53.5684 59.7467 50.5855 59.7467C48.2619 59.7467 46.268 59.1356 44.4871 57.8813C42.6419 56.5788 40.9574 54.8743 39.4861 52.808C37.9826 50.6975 36.6318 48.3618 35.47 45.8734C34.2922 43.3488 33.1866 40.8282 32.1696 38.3599C31.8721 37.6965 31.5987 37.0372 31.3454 36.3659C30.5856 34.5086 29.5364 32.9247 28.2259 31.6503C27.5304 30.975 26.6621 30.4041 25.6289 29.9499C27.2249 29.3991 28.7324 28.7277 30.1394 27.9398C32.5474 26.5931 34.5012 24.8725 35.9524 22.8263C37.4359 20.7399 38.1876 18.2353 38.1876 15.3932C38.1876 12.0283 37.1826 9.19419 35.2007 6.96707C33.267 4.79221 30.7786 3.16006 27.8038 2.11484C24.8852 1.08972 21.8862 0.571126 18.8872 0.571126H1.85817C1.18682 0.571126 0.63607 0.892732 0.390845 1.43544C0.201901 1.86157 0.201901 2.3078 0.390845 2.72991C0.515467 3.00729 0.845114 3.49372 1.70541 3.65453C3.0441 3.83543 3.76771 4.46658 4.05314 5.69672C4.41494 7.25651 4.59987 9.51982 4.59987 12.4263V41.3629C4.59987 44.2694 4.41494 46.5327 4.05314 48.0925C3.76771 49.3226 3.0441 49.9538 1.64511 50.1427C0.841094 50.2955 0.515467 50.7819 0.386825 51.0593C0.197881 51.4854 0.197881 51.9316 0.386825 52.3537C0.63205 52.8924 1.17878 53.214 1.85013 53.214H14.7747C15.4501 53.214 15.9968 52.8924 16.238 52.3497C16.4269 51.9276 16.4269 51.4814 16.238 51.0512C16.1134 50.7779 15.7837 50.2914 14.9234 50.1306C13.5847 49.9497 12.8611 49.3186 12.5757 48.0884C12.2139 46.5287 12.029 44.2613 12.029 41.3588V32.0202H12.3425C16.0772 32.0202 18.7747 32.3579 20.3545 33.0212C21.7897 33.6242 22.9274 35.0554 23.7314 37.2624C23.7917 37.4352 23.8761 37.6322 23.9927 37.8573C25.251 41.0211 26.6058 44.2171 28.0208 47.3608C29.452 50.5487 31.0801 53.5075 32.853 56.1527C34.662 58.8502 36.7725 61.0572 39.1203 62.7135C41.5484 64.4301 44.3584 65.2984 47.466 65.2984C50.3483 65.2984 52.9855 64.5627 55.3051 63.1074C57.6207 61.6522 59.3493 59.7065 60.4789 57.2341C60.7282 56.5226 60.5714 56.0241 60.3945 55.7306C60.1171 55.2683 59.6428 55.003 59.096 55.003H59.1001ZM12.037 12.4263C12.037 9.12585 12.1737 6.75401 12.439 5.37512C12.6521 4.25754 13.1667 4.02839 13.8702 4.02839H18.8108C22.2279 4.02839 25.0219 4.96507 27.3535 6.89471C29.6409 8.78414 30.7545 11.4495 30.7545 15.0354C30.7545 18.0625 29.9143 20.5911 28.254 22.5409C26.5575 24.5348 24.2902 26.0504 21.5204 27.0433C18.6902 28.0564 15.5787 28.571 12.2742 28.571H12.037V12.4263Z" fill="black"/>
<path d="M72.5914 46.9146C72.5472 46.9106 72.4387 46.9025 72.3945 46.9025C72.0728 46.9025 71.5864 46.999 71.108 47.4533C70.0427 48.4663 69.3553 48.6794 68.9653 48.6794C68.7121 48.6794 68.0447 48.6794 68.0447 46.6452V28.7036C68.0447 24.3137 66.7744 20.7841 64.2659 18.2152C61.7372 15.6263 58.1272 14.3158 53.5322 14.3158C50.4328 14.3158 47.6871 14.9027 45.3635 16.0565C42.8187 17.3228 41.5283 18.9992 41.5283 21.0333C41.5283 22.5569 42.3082 23.775 43.7795 24.5509C45.07 25.2343 46.7142 25.584 48.6639 25.584C50.0147 25.584 50.2921 24.8484 50.3524 24.5227C50.4368 24.0283 50.2358 23.5579 49.8137 23.2403C48.7363 22.1871 48.6157 21.1378 49.4197 19.8474C50.288 18.4524 51.7835 17.773 53.9865 17.773C56.1895 17.773 57.8659 18.7178 58.8991 20.6554C60.0327 22.7941 60.6116 25.4996 60.6116 28.7036V30.0825C59.892 29.3388 59.088 28.6715 58.1996 28.0926C56.3302 26.8705 54.1473 26.2514 51.7112 26.2514C48.1815 26.2514 45.0298 27.6222 42.3524 30.3277C39.6911 33.0172 38.3404 36.4624 38.3404 40.5669C38.3404 44.6714 39.6027 47.7869 42.0951 50.2352C44.5956 52.6955 47.5745 53.9417 50.9514 53.9417C53.5483 53.9417 55.892 53.2341 57.9182 51.8311C59.0237 51.0673 60.0006 50.2191 60.8488 49.2945C61.0699 50.412 61.4518 51.3125 61.9985 52.012C62.9754 53.2743 64.3623 53.9377 66.0025 53.9377C68.7281 53.9377 71.2648 52.4382 73.5965 49.399C73.9703 48.808 73.9502 48.3055 73.8658 47.9839C73.709 47.3889 73.2346 46.9869 72.5914 46.9065V46.9146ZM45.7735 40.5669C45.7735 37.6644 46.473 35.2684 47.8519 33.4513C49.1745 31.7106 50.883 30.8664 53.078 30.8664C54.5212 30.8664 55.9966 31.3529 57.4558 32.3137C58.8589 33.2383 59.9202 34.8945 60.6116 37.2302V41.6523C60.6116 43.6905 59.7915 45.387 58.1071 46.8382C56.3905 48.3176 54.4971 49.0372 52.3182 49.0372C50.3122 49.0372 48.7725 48.3377 47.6067 46.8945C46.3886 45.395 45.7735 43.2643 45.7735 40.5629V40.5669Z" fill="black"/>
<path d="M143.088 52.3578C142.846 52.9005 142.308 53.2221 141.632 53.2221H128.708C128.032 53.2221 127.482 52.9005 127.24 52.3578C127.051 51.9357 127.051 51.4854 127.24 51.0633C127.369 50.7819 127.695 50.2995 128.499 50.1507C129.894 49.9618 130.621 49.3266 130.907 48.1005C131.264 46.5327 131.457 44.2734 131.457 41.3669V27.984C131.457 25.6644 131.076 23.8434 130.34 22.577C129.612 21.3429 128.724 20.4665 127.711 19.9841C126.645 19.4735 125.548 19.2203 124.458 19.2203C122.887 19.2203 121.343 19.6826 119.835 20.6072C119.486 20.8162 119.14 21.0494 118.802 21.3107C118.054 21.8816 117.347 22.5971 116.692 23.4413C116.68 23.4534 116.672 23.4614 116.672 23.4735C115.723 24.6996 114.867 26.1951 114.115 27.9639V41.3669C114.115 44.2694 114.296 46.5327 114.654 48.1005C114.939 49.3266 115.667 49.9578 117.009 50.1387C117.866 50.2995 118.203 50.7819 118.32 51.0633C118.509 51.4854 118.509 51.9357 118.32 52.3578C118.079 52.9005 117.54 53.2221 116.865 53.2221H103.94C103.265 53.2221 102.714 52.9005 102.473 52.3578C102.284 51.9357 102.284 51.4854 102.473 51.0633C102.597 50.7819 102.927 50.2995 103.731 50.1507C105.126 49.9618 105.854 49.3266 106.139 48.1005C106.497 46.5327 106.69 44.2734 106.69 41.3669V39.5096C102.561 46.6854 96.4908 53.9457 87.8436 53.9457C84.8245 53.9457 81.9622 53.1336 79.3532 51.5256C76.7442 49.9296 74.6216 47.6462 73.0497 44.7518C71.4658 41.8694 70.6739 38.4443 70.6739 34.5649C70.6739 29.0373 72.298 24.2454 75.51 20.3177C78.7623 16.3379 83.0276 14.3198 88.1893 14.3198C91.2084 14.3198 93.9421 15.0354 96.3179 16.4384C98.8747 17.9459 100.173 19.964 100.173 22.4082C100.173 23.9841 99.6224 25.3629 98.5491 26.5167C97.4637 27.6705 96.0767 28.2654 94.4325 28.2654C93.7571 28.2654 93.3029 28.0242 93.0818 27.5539C92.9772 27.3328 92.8687 26.9428 93.0376 26.4403C93.8416 23.7268 93.5762 21.7087 92.2255 20.2615C90.7783 18.7338 89.0054 17.9901 86.8105 17.9901C83.8758 17.9901 81.5522 19.2564 79.7271 21.8574C77.8497 24.5107 76.8969 27.9157 76.8969 31.9639C76.8969 36.9488 78.2276 41.0654 80.8447 44.2131C83.4738 47.3688 86.4728 48.8965 89.9984 48.8965C94.5893 48.8965 98.2234 45.592 101.17 41.592C103.325 38.6573 105.118 35.3528 106.641 32.6996C106.662 32.6714 106.674 32.6393 106.694 32.6111V12.4304C106.694 9.52786 106.505 7.26456 106.143 5.69672C105.858 4.4706 105.13 3.83945 103.787 3.65855C102.931 3.49774 102.605 3.00729 102.477 2.73393C102.288 2.31182 102.288 1.86157 102.477 1.43946C102.718 0.896752 103.269 0.575146 103.944 0.575146H113.066C113.644 0.575146 114.123 1.02539 114.123 1.58017V20.8404C115.265 19.365 116.563 18.0866 117.998 17.0213C120.438 15.2324 123.297 14.3198 126.521 14.3198C129.93 14.3198 132.877 15.4454 135.272 17.6766C137.681 19.9157 138.907 23.3851 138.907 27.984V41.3669C138.907 44.2694 139.088 46.5327 139.445 48.1005C139.731 49.3266 140.458 49.9578 141.801 50.1387C142.657 50.2995 142.995 50.7819 143.112 51.0633C143.313 51.4854 143.313 51.9357 143.112 52.3578H143.088Z" fill="black"/>
<path d="M119.827 20.6072C118.73 21.3589 117.685 22.3238 116.68 23.4413C117.335 22.5971 118.042 21.8856 118.79 21.3107C119.128 21.0494 119.478 20.8203 119.823 20.6072H119.827Z" fill="black"/>
<path d="M175.783 42.0221C175.445 42.0221 174.935 42.1226 174.428 42.6051C174.392 42.6412 174.356 42.6774 174.324 42.7216C172.985 44.4503 171.337 45.9377 169.423 47.1477C167.582 48.3095 165.399 48.8965 162.935 48.8965C159.63 48.8965 156.772 47.791 154.187 45.5116C151.775 43.385 150.095 40.5307 149.178 37.0131L170.239 27.6865C175.441 25.7368 175.136 22.6494 174.472 20.9328C173.676 19.1439 172.068 17.572 169.696 16.2615C167.361 14.971 164.498 14.3158 161.186 14.3158C157.343 14.3158 153.91 15.2484 150.987 17.0856C148.08 18.9107 145.789 21.3911 144.165 24.4544C142.553 27.4976 141.733 30.9026 141.733 34.5649C141.733 38.4362 142.609 41.8654 144.342 44.7558C146.074 47.6462 148.402 49.9216 151.26 51.5256C154.123 53.1296 157.258 53.9457 160.575 53.9457C164.113 53.9457 167.321 53.0774 170.119 51.3608C172.856 49.6804 175.232 47.4854 177.17 44.8442C177.905 43.8674 177.499 43.0995 177.29 42.8141C176.916 42.3036 176.378 42.0262 175.779 42.0262L175.783 42.0221ZM159.212 18.0625C161.126 18.0625 162.862 18.6253 164.515 19.7831C165.994 20.8203 167.377 22.4444 168.635 24.6192L148.623 33.4915C148.583 32.977 148.563 32.4664 148.563 31.9559C148.563 27.9036 149.592 24.5107 151.626 21.8816C153.612 19.3087 156.092 18.0585 159.212 18.0585V18.0625Z" fill="black"/>
<path d="M191.759 46.9146C191.714 46.9106 191.606 46.9025 191.562 46.9025C191.236 46.9025 190.754 46.999 190.275 47.4533C189.21 48.4663 188.522 48.6794 188.132 48.6794C187.903 48.6794 187.212 48.6794 187.212 46.5729V1.57615C187.212 1.02137 186.738 0.571126 186.155 0.571126H177.033C176.358 0.571126 175.811 0.892732 175.57 1.43544C175.377 1.86157 175.377 2.31182 175.57 2.72991C175.694 3.00729 176.024 3.49774 176.884 3.65855C178.223 3.83945 178.951 4.4706 179.236 5.70074C179.598 7.26456 179.783 9.52786 179.783 12.4304V46.5769C179.783 49.0412 180.237 50.8221 181.166 52.0201C182.143 53.2824 183.53 53.9457 185.17 53.9457C187.895 53.9457 190.432 52.4462 192.764 49.407C193.137 48.8161 193.117 48.3176 193.033 47.992C192.876 47.397 192.402 46.995 191.759 46.9146Z" fill="black"/>
<path d="M292.767 41.2181C292.429 41.2181 291.919 41.3186 291.412 41.801C291.376 41.8372 291.34 41.8734 291.308 41.9136C289.969 43.6422 288.321 45.1337 286.407 46.3397C284.566 47.5015 282.383 48.0884 279.919 48.0884C276.614 48.0884 273.756 46.9829 271.171 44.7035C268.759 42.5769 267.079 39.7227 266.162 36.2051L287.223 26.8785C292.425 24.9288 292.12 21.8414 291.457 20.1248C290.657 18.3358 289.053 16.764 286.681 15.4535C284.345 14.163 281.483 13.5077 278.166 13.5077C274.323 13.5077 270.89 14.4404 267.967 16.2776C265.061 18.1027 262.765 20.5831 261.145 23.6464C259.533 26.6896 258.713 30.0946 258.713 33.7569C258.713 33.9981 258.725 34.2272 258.733 34.4644C250.102 35.5378 241.314 35.5056 232.695 34.3398C232.711 25.7127 232.723 17.0856 232.739 8.45852C232.739 6.87461 232.84 5.07763 234.098 4.04045C235.023 3.27664 236.603 2.80227 236.522 1.64047C236.446 0.530925 234.914 0.193238 233.744 0.169118C230.448 0.0927365 227.151 0.0203751 223.855 0.00429478C221.917 -0.00374538 219.955 0.00831485 218.086 0.486704C213.728 1.59625 210.404 5.14195 208.671 9.10575C206.187 14.7821 206.617 21.5398 209.809 26.8906C212.997 32.2373 218.874 36.0564 225.27 36.9367C225.358 39.9317 225.27 42.9307 225.001 45.9176C224.888 47.1719 224.627 48.607 223.485 49.2422C222.609 49.7286 221.29 49.7085 220.896 50.597C220.611 51.2402 221.077 52.008 221.724 52.3377C222.371 52.6673 223.143 52.6754 223.879 52.6754C231.461 52.6673 239.039 52.6633 246.621 52.6553C248.466 52.6553 250.307 52.6553 252.152 52.6512C253.366 52.6512 256.293 53.1819 257.322 52.5347C258.351 51.8834 258.299 49.5799 258.508 48.5065C258.862 46.6774 259.22 44.8523 259.577 43.0231C259.702 42.3799 259.827 41.7046 259.638 41.0734C259.449 40.4423 258.842 39.8714 258.154 39.9317C257.467 39.992 257.004 40.6111 256.671 41.186C255.304 43.5618 254.375 46.388 251.971 47.8352C250.536 48.6995 248.791 48.9246 247.099 49.0533C243.244 49.3467 239.372 49.2422 235.509 49.1417C234.858 49.1256 234.138 49.0814 233.676 48.6432C233.27 48.2613 233.173 47.6784 233.105 47.1397C232.723 44.0563 232.582 40.9448 232.687 37.8413C232.735 37.8413 232.783 37.8413 232.832 37.8453C241.575 38.187 250.428 38.9468 259.031 37.6322C259.429 39.9478 260.184 42.0664 261.314 43.9478C263.047 46.8382 265.374 49.1176 268.233 50.7176C271.095 52.3216 274.231 53.1377 277.547 53.1377C281.085 53.1377 284.293 52.2693 287.091 50.5527C289.828 48.8724 292.204 46.6774 294.142 44.0362C294.874 43.0593 294.472 42.2955 294.259 42.0061C293.881 41.4995 293.346 41.2181 292.751 41.2181H292.767ZM225.274 33.3267C223.216 32.784 221.294 31.9921 219.606 30.8142C214.898 27.5378 211.561 22.2032 211.771 16.6555C211.959 11.5419 215.75 6.37612 221.061 5.62436C222.295 5.45552 223.553 5.51582 224.788 5.44346C225.105 6.97913 225.274 9.14193 225.274 11.8635V33.3267ZM268.606 21.0816C270.592 18.5087 273.073 17.2585 276.192 17.2585C278.106 17.2585 279.843 17.8213 281.495 18.9791C282.974 20.0162 284.357 21.6404 285.615 23.8152L265.603 32.6875C265.563 32.173 265.543 31.6624 265.543 31.1519C265.543 27.0996 266.572 23.7067 268.606 21.0775V21.0816Z" fill="black"/>
<path d="M328.879 40.3217C328.469 39.8392 327.915 39.594 327.32 39.6302C326.982 39.6503 326.479 39.787 326.009 40.3016C325.973 40.3377 325.945 40.3779 325.913 40.4222C324.699 42.2312 323.155 43.8231 321.33 45.1457C319.573 46.4201 317.438 47.1477 314.978 47.3005C311.682 47.5096 308.751 46.5849 306.013 44.4744C303.46 42.5086 301.579 39.7629 300.421 36.3136L320.783 25.6765C325.836 23.4011 325.318 20.3378 324.538 18.6695C323.617 16.9369 321.905 15.4695 319.448 14.3118C317.028 13.17 314.126 12.6997 310.817 12.9087C306.982 13.1499 303.625 14.2997 300.835 16.3178C298.066 18.3238 295.947 20.9409 294.54 24.1006C293.141 27.2403 292.562 30.6855 292.819 34.3398C293.089 38.2031 294.206 41.5719 296.136 44.3417C298.066 47.1156 300.546 49.2422 303.513 50.6613C306.48 52.0804 309.663 52.6954 312.976 52.4864C316.506 52.2613 319.645 51.1919 322.319 49.3065C324.936 47.4573 327.151 45.1176 328.9 42.3558C329.563 41.3347 329.109 40.595 328.875 40.3217H328.879ZM299.452 31.3127C299.171 27.2685 299.959 23.8192 301.804 21.0655C303.605 18.372 305.997 16.969 309.109 16.772C311.018 16.6514 312.787 17.1017 314.52 18.1549C316.067 19.0956 317.559 20.6273 318.966 22.7218L299.617 32.8403C299.541 32.3297 299.485 31.8192 299.448 31.3127H299.452Z" fill="black"/>
</svg>
