<svg width="214" height="43" viewBox="0 0 214 43" fill="none" xmlns="http://www.w3.org/2000/svg">
<path d="M38.7238 35.6714C38.6951 35.6714 38.6197 35.6766 38.591 35.6792C38.2527 35.7183 37.956 35.9187 37.7009 36.283C36.6104 37.9383 35.1425 38.7426 33.2113 38.7426C31.707 38.7426 30.4161 38.3469 29.2631 37.5349C28.0685 36.6917 26.9779 35.5881 26.0254 34.2504C25.052 32.884 24.1775 31.3718 23.4253 29.7608C22.6627 28.1263 21.947 26.4944 21.2885 24.8964C21.0959 24.4669 20.9189 24.0401 20.755 23.6055C20.2631 22.403 19.5838 21.3776 18.7353 20.5525C18.285 20.1153 17.7229 19.7457 17.054 19.4516C18.0872 19.095 19.0632 18.6604 19.9742 18.1503C21.5332 17.2784 22.7981 16.1644 23.7376 14.8397C24.698 13.4889 25.1847 11.8674 25.1847 10.0274C25.1847 7.84893 24.534 6.01405 23.2509 4.57217C21.9991 3.16413 20.388 2.10745 18.462 1.43076C16.5725 0.76708 14.6309 0.431336 12.6893 0.431336H1.66444C1.22979 0.431336 0.873226 0.639549 0.714464 0.990909C0.592139 1.26679 0.592139 1.55569 0.714464 1.82897C0.795146 2.00855 1.00856 2.32347 1.56553 2.42758C2.43222 2.5447 2.9007 2.95332 3.08549 3.74973C3.31973 4.75957 3.43945 6.22487 3.43945 8.10659V26.8406C3.43945 28.7223 3.31973 30.1876 3.08549 31.1974C2.9007 31.9938 2.43222 32.4025 1.5265 32.5248C1.00596 32.6237 0.795146 32.9386 0.711861 33.1182C0.589536 33.3941 0.589536 33.683 0.711861 33.9563C0.870624 34.305 1.22459 34.5132 1.65923 34.5132H10.0268C10.464 34.5132 10.818 34.305 10.9742 33.9537C11.0965 33.6804 11.0965 33.3915 10.9742 33.113C10.8935 32.936 10.6801 32.6211 10.1231 32.517C9.25641 32.3999 8.78793 31.9912 8.60314 31.1948C8.3689 30.185 8.24918 28.7171 8.24918 26.838V20.792H8.45218C10.8701 20.792 12.6164 21.0106 13.6393 21.44C14.5684 21.8304 15.305 22.757 15.8255 24.1859C15.8646 24.2978 15.9192 24.4253 15.9947 24.571C16.8093 26.6193 17.6864 28.6885 18.6026 30.7237C19.5291 32.7877 20.5832 34.7032 21.731 36.4158C22.9022 38.1622 24.2686 39.591 25.7885 40.6633C27.3605 41.7747 29.1798 42.3368 31.1917 42.3368C33.0578 42.3368 34.7651 41.8605 36.2669 40.9184C37.766 39.9762 38.8851 38.7165 39.6165 37.1159C39.7779 36.6552 39.6763 36.3325 39.5618 36.1425C39.3822 35.8432 39.0751 35.6714 38.7212 35.6714H38.7238ZM8.25438 8.10659C8.25438 5.96981 8.34287 4.43423 8.51465 3.54152C8.65259 2.81798 8.98573 2.66963 9.4412 2.66963H12.6399C14.8521 2.66963 16.661 3.27605 18.1705 4.52533C19.6514 5.74858 20.3724 7.47415 20.3724 9.79572C20.3724 11.7555 19.8284 13.3926 18.7535 14.6549C17.6552 15.9458 16.1873 16.927 14.3941 17.5699C12.5618 18.2258 10.5473 18.5589 8.40794 18.5589H8.25438V8.10659Z" fill="black"/>
<path d="M47.4583 30.4348C47.4297 30.4322 47.3594 30.427 47.3308 30.427C47.1226 30.427 46.8076 30.4895 46.4979 30.7836C45.8082 31.4395 45.3632 31.5774 45.1107 31.5774C44.9467 31.5774 44.5147 31.5774 44.5147 30.2605V18.6448C44.5147 15.8027 43.6923 13.5175 42.0682 11.8544C40.4311 10.1783 38.0939 9.32984 35.1191 9.32984C33.1124 9.32984 31.3348 9.70983 29.8305 10.4568C28.183 11.2766 27.3475 12.3619 27.3475 13.6789C27.3475 14.6653 27.8524 15.4539 28.805 15.9562C29.6405 16.3987 30.705 16.6251 31.9673 16.6251C32.8418 16.6251 33.0213 16.1488 33.0604 15.938C33.115 15.6179 32.9849 15.3134 32.7116 15.1078C32.0141 14.4259 31.936 13.7466 32.4566 12.9111C33.0187 12.008 33.9869 11.5681 35.4132 11.5681C36.8394 11.5681 37.9248 12.1798 38.5936 13.4342C39.3276 14.8189 39.7024 16.5705 39.7024 18.6448V19.5375C39.2365 19.056 38.716 18.624 38.1408 18.2492C36.9305 17.458 35.5173 17.0572 33.9401 17.0572C31.6549 17.0572 29.6144 17.9447 27.8811 19.6963C26.1581 21.4374 25.2836 23.6679 25.2836 26.3252C25.2836 28.9826 26.1008 30.9996 27.7145 32.5846C29.3334 34.1775 31.2619 34.9843 33.4482 34.9843C35.1295 34.9843 36.6468 34.5262 37.9586 33.6179C38.6743 33.1234 39.3068 32.5742 39.8559 31.9756C39.9991 32.6992 40.2463 33.2822 40.6003 33.735C41.2327 34.5523 42.1307 34.9817 43.1925 34.9817C44.9572 34.9817 46.5994 34.0109 48.109 32.0433C48.351 31.6607 48.338 31.3354 48.2834 31.1272C48.1819 30.742 47.8747 30.4817 47.4583 30.4296V30.4348ZM30.0959 26.3252C30.0959 24.4461 30.5488 22.8949 31.4415 21.7185C32.2978 20.5916 33.4039 20.045 34.825 20.045C35.7593 20.045 36.7145 20.3599 37.6593 20.982C38.5676 21.5806 39.2547 22.6529 39.7024 24.165V27.028C39.7024 28.3475 39.1714 29.4458 38.0809 30.3854C36.9696 31.3432 35.7437 31.8091 34.3331 31.8091C33.0343 31.8091 32.0375 31.3562 31.2828 30.4218C30.4941 29.451 30.0959 28.0716 30.0959 26.3226V26.3252Z" fill="black"/>
<path d="M93.0986 33.9589C92.9425 34.3102 92.5937 34.5184 92.1565 34.5184H83.7889C83.3517 34.5184 82.9951 34.3102 82.8389 33.9589C82.7166 33.6856 82.7166 33.3941 82.8389 33.1208C82.9222 32.9386 83.133 32.6263 83.6536 32.53C84.5567 32.4077 85.0278 31.9964 85.2126 31.2026C85.4442 30.1876 85.5691 28.7249 85.5691 26.8432V18.1789C85.5691 16.6772 85.3219 15.4982 84.8456 14.6783C84.3745 13.8793 83.7993 13.3119 83.1434 12.9996C82.4537 12.6691 81.7432 12.5051 81.0379 12.5051C80.0202 12.5051 79.0208 12.8044 78.0448 13.403C77.8184 13.5384 77.5946 13.6893 77.3759 13.8585C76.8918 14.2281 76.4338 14.6913 76.0095 15.2379C76.0017 15.2457 75.9965 15.2509 75.9965 15.2587C75.3823 16.0525 74.8279 17.0207 74.3412 18.1659V26.8432C74.3412 28.7223 74.4584 30.1876 74.69 31.2026C74.8748 31.9964 75.3459 32.4051 76.2152 32.5222C76.7695 32.6263 76.9881 32.9386 77.0636 33.1208C77.186 33.3941 77.186 33.6856 77.0636 33.9589C76.9075 34.3102 76.5587 34.5184 76.1215 34.5184H67.7539C67.3166 34.5184 66.9601 34.3102 66.8039 33.9589C66.6816 33.6856 66.6816 33.3941 66.8039 33.1208C66.8846 32.9386 67.098 32.6263 67.6186 32.53C68.5217 32.4077 68.9928 31.9964 69.1775 31.2026C69.4092 30.1876 69.5341 28.7249 69.5341 26.8432V25.6407C66.8612 30.2865 62.9312 34.9869 57.3328 34.9869C55.3782 34.9869 53.5251 34.4612 51.836 33.4201C50.1469 32.3869 48.7727 30.9085 47.755 29.0346C46.7296 27.1685 46.2168 24.951 46.2168 22.4395C46.2168 18.8608 47.2683 15.7584 49.3478 13.2156C51.4534 10.639 54.2148 9.33245 57.5566 9.33245C59.5113 9.33245 61.2811 9.79572 62.8192 10.7041C64.4745 11.6801 65.3152 12.9866 65.3152 14.569C65.3152 15.5893 64.9586 16.482 64.2637 17.2289C63.561 17.9759 62.6631 18.3611 61.5986 18.3611C61.1613 18.3611 60.8672 18.2049 60.7241 17.9004C60.6564 17.7573 60.5862 17.5048 60.6955 17.1795C61.216 15.4227 61.0442 14.1161 60.1697 13.1792C59.2328 12.1902 58.085 11.7087 56.6639 11.7087C54.764 11.7087 53.2597 12.5285 52.078 14.2124C50.8626 15.9302 50.2458 18.1347 50.2458 20.7555C50.2458 23.9828 51.1072 26.648 52.8016 28.6859C54.5037 30.729 56.4453 31.718 58.7278 31.718C61.7001 31.718 64.0529 29.5786 65.9607 26.9889C67.3557 25.089 68.5165 22.9496 69.5029 21.2318C69.5159 21.2136 69.5237 21.1928 69.5367 21.1746V8.1092C69.5367 6.23007 69.4144 4.76477 69.1802 3.74973C68.9954 2.95592 68.5243 2.5473 67.655 2.43018C67.1006 2.32608 66.8898 2.00855 66.8065 1.83157C66.6842 1.55829 66.6842 1.26679 66.8065 0.993511C66.9627 0.642152 67.3192 0.433939 67.7565 0.433939H73.6619C74.0367 0.433939 74.3464 0.725437 74.3464 1.0846V13.554C75.0856 12.5988 75.9263 11.7711 76.8554 11.0814C78.4352 9.92325 80.2857 9.33245 82.3731 9.33245C84.5801 9.33245 86.4879 10.0612 88.0391 11.5057C89.5981 12.9554 90.3919 15.2015 90.3919 18.1789V26.8432C90.3919 28.7223 90.509 30.1876 90.7406 31.2026C90.9254 31.9964 91.3965 32.4051 92.2658 32.5222C92.8201 32.6263 93.0388 32.9386 93.1143 33.1208C93.2444 33.3941 93.2444 33.6856 93.1143 33.9589H93.0986Z" fill="black"/>
<path d="M78.0396 13.403C77.3291 13.8897 76.6524 14.5144 76.0017 15.2379C76.426 14.6913 76.884 14.2307 77.3681 13.8585C77.5868 13.6893 77.8132 13.541 78.037 13.403H78.0396Z" fill="black"/>
<path d="M114.266 27.2674C114.047 27.2674 113.717 27.3325 113.389 27.6448C113.366 27.6682 113.342 27.6916 113.321 27.7203C112.455 28.8394 111.388 29.8024 110.149 30.5858C108.957 31.338 107.543 31.718 105.948 31.718C103.809 31.718 101.958 31.0022 100.285 29.5265C98.723 28.1497 97.6351 26.3018 97.0417 24.0245L110.677 17.9863C114.045 16.724 113.847 14.7252 113.418 13.6138C112.902 12.4556 111.861 11.438 110.326 10.5895C108.814 9.75408 106.96 9.32984 104.816 9.32984C102.328 9.32984 100.105 9.93366 98.2129 11.1231C96.3311 12.3047 94.8476 13.9105 93.7961 15.8938C92.7525 17.864 92.2215 20.0684 92.2215 22.4395C92.2215 24.9458 92.7889 27.1659 93.9107 29.0372C95.0324 30.9085 96.5394 32.3816 98.3899 33.4201C100.243 34.4586 102.273 34.9869 104.42 34.9869C106.711 34.9869 108.787 34.4247 110.599 33.3134C112.371 32.2255 113.91 30.8044 115.164 29.0945C115.64 28.462 115.377 27.9649 115.242 27.7801C115 27.4496 114.651 27.27 114.264 27.27L114.266 27.2674ZM103.538 11.7555C104.777 11.7555 105.901 12.1199 106.971 12.8695C107.929 13.541 108.824 14.5924 109.639 16.0005L96.6825 21.7446C96.6565 21.4114 96.6435 21.0809 96.6435 20.7503C96.6435 18.1269 97.3097 15.9302 98.6267 14.2281C99.9124 12.5624 101.518 11.7529 103.538 11.7529V11.7555Z" fill="black"/>
<path d="M124.609 30.4348C124.58 30.4322 124.51 30.427 124.482 30.427C124.271 30.427 123.958 30.4895 123.649 30.7836C122.959 31.4395 122.514 31.5774 122.261 31.5774C122.113 31.5774 121.665 31.5774 121.665 30.2136V1.082C121.665 0.722834 121.358 0.431336 120.981 0.431336H115.076C114.638 0.431336 114.284 0.639549 114.128 0.990909C114.003 1.26679 114.003 1.55829 114.128 1.82897C114.209 2.00855 114.422 2.32608 114.979 2.43018C115.846 2.5473 116.317 2.95592 116.502 3.75234C116.736 4.76477 116.856 6.23007 116.856 8.1092V30.2162C116.856 31.8117 117.15 32.9646 117.751 33.7402C118.384 34.5575 119.281 34.9869 120.343 34.9869C122.108 34.9869 123.75 34.0161 125.26 32.0485C125.502 31.6659 125.489 31.3432 125.434 31.1324C125.333 30.7472 125.026 30.4869 124.609 30.4348Z" fill="black"/>
<path d="M190.004 26.7469C189.785 26.7469 189.454 26.8119 189.127 27.1243C189.103 27.1477 189.08 27.1711 189.059 27.1971C188.192 28.3163 187.125 29.2819 185.886 30.0627C184.694 30.8148 183.281 31.1948 181.686 31.1948C179.546 31.1948 177.696 30.4791 176.022 29.0034C174.461 27.6266 173.373 25.7787 172.779 23.5014L186.415 17.4632C189.782 16.2009 189.585 14.202 189.155 13.0907C188.637 11.9325 187.599 10.9149 186.063 10.0664C184.551 9.23094 182.698 8.80671 180.551 8.80671C178.063 8.80671 175.84 9.41053 173.948 10.5999C172.066 11.7816 170.58 13.3874 169.531 15.3706C168.487 17.3408 167.956 19.5453 167.956 21.9163C167.956 22.0725 167.964 22.2208 167.969 22.3744C162.382 23.0693 156.692 23.0485 151.112 22.2937C151.122 16.7084 151.13 11.1231 151.141 5.53776C151.141 4.51231 151.206 3.34892 152.02 2.67744C152.619 2.18293 153.642 1.87581 153.59 1.12364C153.54 0.405309 152.549 0.186686 151.791 0.17107C149.657 0.121619 147.523 0.074771 145.389 0.0643603C144.134 0.059155 142.864 0.066963 141.654 0.37668C138.833 1.09502 136.68 3.39057 135.559 5.95679C133.95 9.63175 134.229 14.0068 136.295 17.471C138.359 20.9325 142.164 23.4051 146.305 23.975C146.362 25.914 146.305 27.8556 146.131 29.7894C146.058 30.6014 145.888 31.5306 145.149 31.9418C144.582 32.2567 143.728 32.2437 143.473 32.8189C143.288 33.2353 143.59 33.7324 144.009 33.9458C144.428 34.1593 144.928 34.1645 145.404 34.1645C150.313 34.1593 155.219 34.1567 160.128 34.1515C161.322 34.1515 162.514 34.1515 163.709 34.1489C164.495 34.1489 166.39 34.4924 167.056 34.0734C167.722 33.6517 167.688 32.1604 167.824 31.4655C168.053 30.2813 168.284 29.0997 168.516 27.9155C168.597 27.499 168.677 27.0618 168.555 26.6532C168.433 26.2446 168.04 25.875 167.595 25.914C167.15 25.9531 166.85 26.3539 166.634 26.7261C165.749 28.2642 165.148 30.0939 163.592 31.0309C162.663 31.5904 161.533 31.7362 160.437 31.8195C157.941 32.0095 155.435 31.9418 152.934 31.8767C152.512 31.8663 152.046 31.8377 151.747 31.554C151.484 31.3067 151.422 30.9294 151.377 30.5806C151.13 28.5844 151.039 26.5699 151.107 24.5606C151.138 24.5606 151.169 24.5606 151.201 24.5632C156.861 24.7845 162.592 25.2764 168.162 24.4253C168.42 25.9244 168.909 27.296 169.64 28.5141C170.762 30.3854 172.269 31.8611 174.12 32.897C175.973 33.9354 178.003 34.4638 180.15 34.4638C182.44 34.4638 184.517 33.9016 186.329 32.7903C188.101 31.7023 189.639 30.2813 190.894 28.5713C191.367 27.9389 191.107 27.4444 190.969 27.257C190.725 26.9291 190.378 26.7469 189.993 26.7469H190.004ZM146.308 21.6378C144.975 21.2865 143.731 20.7738 142.638 20.0112C139.59 17.89 137.43 14.4363 137.565 10.8446C137.687 7.53401 140.142 4.18958 143.58 3.70288C144.379 3.59357 145.194 3.63261 145.993 3.58577C146.198 4.57998 146.308 5.98022 146.308 7.74222V21.6378ZM174.362 13.7101C175.647 12.0444 177.253 11.235 179.273 11.235C180.512 11.235 181.636 11.5994 182.706 12.3489C183.664 13.0204 184.559 14.0719 185.373 15.4799L172.417 21.224C172.391 20.8909 172.378 20.5603 172.378 20.2298C172.378 17.6063 173.045 15.4097 174.362 13.7075V13.7101Z" fill="black"/>
<path d="M213.383 26.1665C213.118 25.8542 212.759 25.6954 212.374 25.7188C212.155 25.7318 211.83 25.8203 211.525 26.1535C211.502 26.1769 211.483 26.2029 211.463 26.2315C210.677 27.4027 209.677 28.4334 208.496 29.2897C207.358 30.1147 205.976 30.5858 204.383 30.6847C202.249 30.82 200.352 30.2214 198.579 28.855C196.927 27.5823 195.709 25.8047 194.959 23.5716L208.142 16.685C211.413 15.2119 211.077 13.2286 210.572 12.1485C209.976 11.0268 208.868 10.0768 207.278 9.32724C205.711 8.58809 203.832 8.28357 201.69 8.41891C199.207 8.57507 197.033 9.31943 195.227 10.626C193.434 11.9247 192.062 13.619 191.151 15.6647C190.246 17.6974 189.871 19.9279 190.037 22.2937C190.212 24.7949 190.935 26.9759 192.185 28.7691C193.434 30.565 195.04 31.9418 196.961 32.8605C198.881 33.7793 200.943 34.1775 203.087 34.0421C205.372 33.8964 207.405 33.2041 209.136 31.9834C210.83 30.7862 212.264 29.2715 213.396 27.4834C213.826 26.8224 213.532 26.3435 213.381 26.1665H213.383ZM194.332 20.3339C194.15 17.7156 194.66 15.4825 195.854 13.6997C197.02 11.9559 198.569 11.0476 200.583 10.9201C201.82 10.842 202.965 11.1335 204.087 11.8154C205.089 12.4244 206.054 13.416 206.965 14.772L194.439 21.3229C194.389 20.9924 194.353 20.6618 194.329 20.3339H194.332Z" fill="black"/>
</svg>
