<svg width="145" height="30" viewBox="0 0 145 30" fill="none" xmlns="http://www.w3.org/2000/svg">
<path d="M26.2602 24.6936C26.2409 24.6936 26.1898 24.6971 26.1705 24.6989C25.9417 24.7252 25.7412 24.8607 25.5687 25.1071C24.8315 26.2261 23.8391 26.7698 22.5335 26.7698C21.5165 26.7698 20.6437 26.5024 19.8643 25.9534C19.0566 25.3833 18.3194 24.6373 17.6754 23.7329C17.0173 22.8091 16.4261 21.7868 15.9176 20.6976C15.402 19.5926 14.9182 18.4894 14.473 17.409C14.3428 17.1187 14.2232 16.8302 14.1123 16.5363C13.7797 15.7234 13.3205 15.0301 12.7469 14.4724C12.4425 14.1768 12.0624 13.9269 11.6102 13.7281C12.3088 13.487 12.9686 13.1932 13.5844 12.8483C14.6384 12.2589 15.4935 11.5058 16.1287 10.6102C16.778 9.69695 17.1071 8.60075 17.1071 7.35675C17.1071 5.88401 16.6672 4.64353 15.7997 3.66874C14.9534 2.71682 13.8642 2.00245 12.5621 1.54497C11.2847 1.09628 9.97209 0.869299 8.65946 0.869299H1.20602C0.912174 0.869299 0.671116 1.01006 0.563784 1.2476C0.481085 1.43411 0.481085 1.62942 0.563784 1.81418C0.61833 1.93559 0.762612 2.14849 1.13916 2.21887C1.72509 2.29805 2.0418 2.5743 2.16673 3.11272C2.32509 3.79543 2.40603 4.78605 2.40603 6.0582V18.7234C2.40603 19.9956 2.32509 20.9862 2.16673 21.6689C2.0418 22.2073 1.72509 22.4836 1.11276 22.5663C0.760853 22.6331 0.61833 22.846 0.562024 22.9675C0.479325 23.154 0.479325 23.3493 0.562024 23.534C0.669356 23.7698 0.908655 23.9106 1.2025 23.9106H6.85945C7.15505 23.9106 7.39435 23.7698 7.49992 23.5323C7.58262 23.3475 7.58262 23.1522 7.49992 22.9639C7.44538 22.8443 7.30109 22.6314 6.92455 22.561C6.33862 22.4818 6.0219 22.2056 5.89697 21.6672C5.73861 20.9844 5.65767 19.9921 5.65767 18.7217V14.6342H5.79492C7.42954 14.6342 8.6102 14.782 9.3017 15.0724C9.92986 15.3363 10.4278 15.9627 10.7797 16.9287C10.8061 17.0044 10.8431 17.0906 10.8941 17.1891C11.4448 18.5739 12.0378 19.9727 12.6572 21.3487C13.2836 22.744 13.9962 24.039 14.7721 25.1968C15.5639 26.3775 16.4877 27.3435 17.5153 28.0684C18.578 28.8197 19.808 29.1998 21.1681 29.1998C22.4297 29.1998 23.5839 28.8778 24.5992 28.2408C25.6127 27.6039 26.3693 26.7522 26.8637 25.6701C26.9728 25.3587 26.9042 25.1405 26.8268 25.012C26.7054 24.8097 26.4978 24.6936 26.2585 24.6936H26.2602ZM5.66119 6.0582C5.66119 4.61362 5.72102 3.57548 5.83715 2.97196C5.9304 2.4828 6.15563 2.38251 6.46355 2.38251H8.62603C10.1216 2.38251 11.3445 2.79248 12.3651 3.63707C13.3663 4.46405 13.8536 5.63063 13.8536 7.20015C13.8536 8.52509 13.4859 9.63185 12.7592 10.4852C12.0167 11.358 11.0243 12.0213 9.81197 12.4559C8.57325 12.8993 7.21136 13.1245 5.76501 13.1245H5.66119V6.0582Z" fill="black"/>
<path d="M32.1653 21.1534C32.1459 21.1516 32.0984 21.1481 32.079 21.1481C31.9383 21.1481 31.7254 21.1903 31.516 21.3891C31.0497 21.8325 30.7488 21.9258 30.5781 21.9258C30.4673 21.9258 30.1752 21.9258 30.1752 21.0355V13.1826C30.1752 11.2612 29.6192 9.7163 28.5212 8.59195C27.4145 7.4588 25.8344 6.88519 23.8232 6.88519C22.4666 6.88519 21.2649 7.14209 20.2478 7.64708C19.1341 8.20133 18.5692 8.93507 18.5692 9.8254C18.5692 10.4923 18.9106 11.0254 19.5546 11.365C20.1194 11.6641 20.8391 11.8172 21.6924 11.8172C22.2836 11.8172 22.405 11.4952 22.4314 11.3527C22.4684 11.1363 22.3804 10.9304 22.1957 10.7914C21.7241 10.3304 21.6713 9.87114 22.0232 9.30633C22.4033 8.69577 23.0578 8.3984 24.0221 8.3984C24.9863 8.3984 25.72 8.8119 26.1722 9.66C26.6684 10.5961 26.9218 11.7803 26.9218 13.1826V13.7861C26.6068 13.4606 26.2549 13.1685 25.8661 12.9152C25.0479 12.3803 24.0925 12.1093 23.0262 12.1093C21.4813 12.1093 20.1018 12.7093 18.9299 13.8935C17.7651 15.0706 17.1739 16.5785 17.1739 18.375C17.1739 20.1715 17.7264 21.5352 18.8173 22.6067C19.9118 23.6836 21.2156 24.2291 22.6936 24.2291C23.8303 24.2291 24.8561 23.9194 25.7429 23.3053C26.2268 22.971 26.6544 22.5997 27.0256 22.195C27.1224 22.6842 27.2896 23.0783 27.5289 23.3845C27.9564 23.937 28.5635 24.2273 29.2814 24.2273C30.4743 24.2273 31.5846 23.571 32.6051 22.2408C32.7688 21.9821 32.76 21.7622 32.723 21.6214C32.6544 21.361 32.4468 21.185 32.1653 21.1498V21.1534ZM20.4273 18.375C20.4273 17.1046 20.7335 16.056 21.337 15.2606C21.9159 14.4988 22.6637 14.1292 23.6244 14.1292C24.2561 14.1292 24.9018 14.3422 25.5406 14.7627C26.1546 15.1674 26.6192 15.8923 26.9218 16.9146V18.8501C26.9218 19.7422 26.5629 20.4847 25.8256 21.1199C25.0743 21.7674 24.2455 22.0824 23.2919 22.0824C22.4138 22.0824 21.7399 21.7762 21.2297 21.1446C20.6965 20.4883 20.4273 19.5557 20.4273 18.3733V18.375Z" fill="black"/>
<path d="M63.0207 23.5358C62.9151 23.7733 62.6793 23.9141 62.3837 23.9141H56.7268C56.4312 23.9141 56.1901 23.7733 56.0846 23.5358C56.0019 23.351 56.0019 23.154 56.0846 22.9692C56.1409 22.846 56.2834 22.6349 56.6353 22.5698C57.2459 22.4871 57.5643 22.2091 57.6893 21.6724C57.8459 20.9862 57.9303 19.9973 57.9303 18.7252V12.8677C57.9303 11.8524 57.7632 11.0553 57.4412 10.5011C57.1227 9.96088 56.7338 9.5773 56.2904 9.36616C55.8241 9.14269 55.3438 9.03184 54.8669 9.03184C54.179 9.03184 53.5033 9.23419 52.8435 9.63888C52.6904 9.73038 52.5391 9.83244 52.3913 9.94681C52.064 10.1967 51.7543 10.5099 51.4675 10.8794C51.4622 10.8846 51.4587 10.8882 51.4587 10.8934C51.0435 11.4301 50.6687 12.0847 50.3396 12.8589V18.7252C50.3396 19.9956 50.4188 20.9862 50.5754 21.6724C50.7003 22.2091 51.0188 22.4853 51.6065 22.5645C51.9813 22.6349 52.1291 22.846 52.1801 22.9692C52.2628 23.154 52.2628 23.351 52.1801 23.5358C52.0745 23.7733 51.8388 23.9141 51.5432 23.9141H45.8862C45.5906 23.9141 45.3496 23.7733 45.244 23.5358C45.1613 23.351 45.1613 23.154 45.244 22.9692C45.2985 22.846 45.4428 22.6349 45.7947 22.5698C46.4053 22.4871 46.7238 22.2091 46.8487 21.6724C47.0053 20.9862 47.0897 19.9973 47.0897 18.7252V17.9123C45.2827 21.0531 42.6258 24.2308 38.841 24.2308C37.5196 24.2308 36.2668 23.8754 35.1248 23.1716C33.9829 22.473 33.0538 21.4736 32.3658 20.2067C31.6726 18.9451 31.326 17.446 31.326 15.748C31.326 13.3287 32.0368 11.2313 33.4427 9.5122C34.8662 7.77025 36.733 6.88695 38.9923 6.88695C40.3137 6.88695 41.5102 7.20015 42.5501 7.81423C43.6692 8.47406 44.2375 9.35736 44.2375 10.4272C44.2375 11.1169 43.9965 11.7204 43.5267 12.2254C43.0516 12.7304 42.4445 12.9908 41.7249 12.9908C41.4293 12.9908 41.2305 12.8852 41.1337 12.6794C41.0879 12.5826 41.0404 12.4119 41.1143 12.192C41.4662 11.0043 41.3501 10.121 40.7589 9.48756C40.1255 8.81894 39.3495 8.49342 38.3888 8.49342C37.1043 8.49342 36.0873 9.04768 35.2885 10.1861C34.4667 11.3474 34.0497 12.8377 34.0497 14.6096C34.0497 16.7914 34.6321 18.5932 35.7776 19.9709C36.9284 21.3522 38.241 22.0208 39.7841 22.0208C41.7935 22.0208 43.3841 20.5745 44.6739 18.8237C45.617 17.5393 46.4018 16.0929 47.0686 14.9316C47.0774 14.9193 47.0827 14.9052 47.0915 14.8929V6.05996C47.0915 4.78957 47.0088 3.79895 46.8504 3.11272C46.7255 2.57606 46.407 2.29981 45.8194 2.22063C45.4446 2.15025 45.302 1.93558 45.2457 1.81594C45.163 1.63118 45.163 1.43411 45.2457 1.24936C45.3513 1.01182 45.5924 0.871059 45.888 0.871059H49.8804C50.1338 0.871059 50.3432 1.06813 50.3432 1.31095V9.74094C50.8429 9.09519 51.4112 8.53565 52.0394 8.06937C53.1074 7.28637 54.3584 6.88695 55.7696 6.88695C57.2617 6.88695 58.5514 7.37963 59.6001 8.35617C60.6541 9.33624 61.1908 10.8547 61.1908 12.8677V18.7252C61.1908 19.9956 61.2699 20.9862 61.4265 21.6724C61.5515 22.2091 61.8699 22.4853 62.4576 22.5645C62.8324 22.6349 62.9802 22.846 63.0312 22.9692C63.1192 23.154 63.1192 23.351 63.0312 23.5358H63.0207Z" fill="black"/>
<path d="M52.84 9.63888C52.3596 9.96792 51.9021 10.3902 51.4622 10.8794C51.749 10.5099 52.0587 10.1984 52.386 9.94681C52.5338 9.83243 52.6869 9.73214 52.8382 9.63888H52.84Z" fill="black"/>
<path d="M77.3311 19.012C77.1833 19.012 76.9598 19.056 76.7381 19.2671C76.7223 19.283 76.7065 19.2988 76.6924 19.3182C76.1065 20.0748 75.385 20.7258 74.5475 21.2554C73.7416 21.7639 72.7862 22.0208 71.7076 22.0208C70.2612 22.0208 69.0102 21.5369 67.8788 20.5393C66.8231 19.6085 66.0876 18.3592 65.6864 16.8196L74.9047 12.7374C77.1815 11.8841 77.0478 10.5327 76.7575 9.78141C76.4091 8.99841 75.7053 8.31043 74.6671 7.73681C73.6448 7.172 72.392 6.88519 70.9422 6.88519C69.26 6.88519 67.7574 7.29341 66.4782 8.09752C65.206 8.89636 64.2031 9.982 63.4922 11.3228C62.7867 12.6547 62.4277 14.1451 62.4277 15.748C62.4277 17.4425 62.8113 18.9434 63.5697 20.2085C64.328 21.4736 65.3468 22.4695 66.5979 23.1716C67.8507 23.8736 69.2231 24.2308 70.6747 24.2308C72.2231 24.2308 73.6272 23.8508 74.8519 23.0994C76.0501 22.3639 77.09 21.4032 77.9381 20.2472C78.2601 19.8196 78.0824 19.4836 77.9909 19.3586C77.8273 19.1352 77.5915 19.0138 77.3293 19.0138L77.3311 19.012ZM70.0782 8.52509C70.9158 8.52509 71.6759 8.77143 72.3991 9.27818C73.0466 9.73214 73.6519 10.443 74.2026 11.3949L65.4436 15.2782C65.426 15.053 65.4172 14.8296 65.4172 14.6061C65.4172 12.8325 65.8676 11.3474 66.758 10.1967C67.6272 9.07055 68.7128 8.52333 70.0782 8.52333V8.52509Z" fill="black"/>
<path d="M84.3235 21.1534C84.3042 21.1516 84.2567 21.1481 84.2373 21.1481C84.0948 21.1481 83.8837 21.1903 83.6743 21.3891C83.208 21.8325 82.9071 21.9258 82.7364 21.9258C82.6361 21.9258 82.3335 21.9258 82.3335 21.0038V1.30919C82.3335 1.06637 82.1259 0.869299 81.8707 0.869299H77.8783C77.5827 0.869299 77.3434 1.01006 77.2378 1.2476C77.1534 1.43411 77.1534 1.63118 77.2378 1.81418C77.2924 1.93559 77.4367 2.15025 77.8132 2.22063C78.3991 2.29981 78.7176 2.57606 78.8425 3.11448C79.0009 3.79895 79.0818 4.78957 79.0818 6.05996V21.0056C79.0818 22.0842 79.2807 22.8636 79.6871 23.388C80.1147 23.9405 80.7217 24.2308 81.4396 24.2308C82.6326 24.2308 83.7429 23.5745 84.7634 22.2443C84.9271 21.9856 84.9183 21.7674 84.8813 21.6249C84.8127 21.3645 84.6051 21.1886 84.3235 21.1534Z" fill="black"/>
<path d="M128.534 18.6601C128.386 18.6601 128.163 18.7041 127.941 18.9152C127.925 18.9311 127.909 18.9469 127.895 18.9645C127.309 19.7211 126.588 20.3739 125.75 20.9017C124.944 21.4103 123.989 21.6672 122.91 21.6672C121.464 21.6672 120.213 21.1833 119.082 20.1856C118.026 19.2548 117.29 18.0055 116.889 16.4659L126.108 12.3838C128.384 11.5304 128.251 10.1791 127.96 9.42774C127.61 8.64474 126.908 7.95676 125.87 7.38314C124.848 6.81833 123.595 6.53152 122.143 6.53152C120.461 6.53152 118.958 6.93974 117.679 7.74385C116.407 8.54269 115.402 9.62833 114.693 10.9691C113.988 12.3011 113.629 13.7914 113.629 15.3944C113.629 15.4999 113.634 15.6002 113.638 15.704C109.86 16.1738 106.013 16.1598 102.241 15.6495C102.248 11.8735 102.253 8.09752 102.26 4.32153C102.26 3.62827 102.304 2.84175 102.855 2.38779C103.26 2.05347 103.951 1.84585 103.916 1.33734C103.883 0.851704 103.212 0.703902 102.7 0.693344C101.257 0.659913 99.8146 0.628241 98.3718 0.621203C97.5237 0.617684 96.665 0.622963 95.8468 0.832349C93.9395 1.31798 92.4843 2.8699 91.726 4.60482C90.6386 7.0893 90.8268 10.0471 92.2239 12.3891C93.6192 14.7293 96.1917 16.4008 98.9911 16.7862C99.0298 18.097 98.9911 19.4097 98.8732 20.717C98.824 21.266 98.7096 21.8941 98.2099 22.1721C97.8263 22.385 97.2492 22.3762 97.0767 22.7651C96.9518 23.0466 97.1559 23.3827 97.4392 23.527C97.7225 23.6713 98.0603 23.6748 98.3823 23.6748C101.701 23.6713 105.018 23.6695 108.336 23.666C109.144 23.666 109.95 23.666 110.757 23.6642C111.289 23.6642 112.57 23.8965 113.02 23.6132C113.47 23.3282 113.448 22.3199 113.539 21.8501C113.694 21.0496 113.851 20.2507 114.007 19.4501C114.062 19.1686 114.116 18.873 114.033 18.5967C113.951 18.3205 113.685 18.0706 113.384 18.097C113.083 18.1234 112.881 18.3944 112.735 18.646C112.137 19.6859 111.73 20.9229 110.678 21.5563C110.05 21.9346 109.286 22.0331 108.545 22.0894C106.858 22.2179 105.164 22.1721 103.473 22.1282C103.188 22.1211 102.873 22.1018 102.67 21.91C102.493 21.7428 102.45 21.4877 102.42 21.2519C102.253 19.9023 102.192 18.5404 102.237 17.1821C102.259 17.1821 102.28 17.1821 102.301 17.1838C106.128 17.3334 110.002 17.6659 113.768 17.0906C113.942 18.1041 114.273 19.0313 114.767 19.8548C115.526 21.1199 116.544 22.1176 117.795 22.8179C119.048 23.52 120.421 23.8771 121.872 23.8771C123.421 23.8771 124.825 23.4971 126.049 22.7458C127.248 22.0103 128.288 21.0496 129.136 19.8935C129.456 19.466 129.28 19.1316 129.187 19.005C129.021 18.7833 128.787 18.6601 128.527 18.6601H128.534ZM98.9929 15.2061C98.092 14.9686 97.2509 14.6219 96.5119 14.1064C94.4515 12.6723 92.9911 10.3374 93.0826 7.90925C93.1653 5.6711 94.8245 3.41009 97.1489 3.08105C97.6891 3.00715 98.2398 3.03354 98.78 3.00187C98.919 3.67402 98.9929 4.62065 98.9929 5.81187V15.2061ZM117.959 9.84651C118.828 8.7204 119.914 8.17318 121.279 8.17318C122.117 8.17318 122.877 8.41952 123.6 8.92627C124.248 9.38023 124.853 10.0911 125.404 11.043L116.645 14.9263C116.627 14.7011 116.618 14.4776 116.618 14.2542C116.618 12.4806 117.069 10.9955 117.959 9.84475V9.84651Z" fill="black"/>
<path d="M144.34 18.2677C144.16 18.0566 143.918 17.9492 143.657 17.9651C143.509 17.9739 143.29 18.0337 143.084 18.2589C143.068 18.2747 143.055 18.2923 143.041 18.3117C142.51 19.1035 141.834 19.8003 141.036 20.3792C140.267 20.9369 139.332 21.2554 138.255 21.3223C136.813 21.4138 135.53 21.0091 134.332 20.0853C133.214 19.2249 132.391 18.0231 131.884 16.5134L140.796 11.8577C143.008 10.8618 142.781 9.52099 142.44 8.79078C142.037 8.03242 141.287 7.39018 140.212 6.88343C139.153 6.38372 137.882 6.17785 136.434 6.26935C134.756 6.37492 133.286 6.87815 132.065 7.76145C130.853 8.63946 129.926 9.78493 129.31 11.1679C128.698 12.5421 128.444 14.0501 128.557 15.6495C128.675 17.3404 129.164 18.8149 130.008 20.0273C130.853 21.2413 131.939 22.1721 133.237 22.7933C134.536 23.4144 135.929 23.6836 137.379 23.5921C138.924 23.4936 140.298 23.0255 141.468 22.2003C142.614 21.3909 143.583 20.3668 144.349 19.158C144.639 18.7111 144.44 18.3874 144.338 18.2677H144.34ZM131.46 14.3246C131.337 12.5545 131.682 11.0448 132.489 9.83947C133.278 8.66058 134.325 8.04649 135.686 7.96028C136.522 7.90749 137.296 8.10456 138.055 8.56556C138.732 8.97729 139.385 9.64768 140.001 10.5644L131.532 14.9932C131.499 14.7697 131.474 14.5463 131.458 14.3246H131.46Z" fill="black"/>
</svg>
