<svg width="108" height="28" viewBox="0 0 108 28" fill="none" xmlns="http://www.w3.org/2000/svg">
<path d="M54.3464 24.3777V26.3546H53.4364V20.9417H55.2799C56.5272 20.9417 57.2724 21.5379 57.2724 22.6519C57.2724 23.7658 56.535 24.3777 55.2799 24.3777H54.3464ZM55.1857 23.5932C56.0173 23.5932 56.3624 23.2716 56.3624 22.6519C56.3624 22.0322 56.0173 21.7341 55.1857 21.7341H54.3464V23.5932H55.1857Z" fill="black"/>
<path d="M59.0989 24.0404H59.9461V23.7109C59.9461 23.2167 59.7579 23.0833 59.1695 23.0833C58.7459 23.0833 58.5341 23.1304 58.3458 23.4363L57.7418 23.0127C58.0242 22.5499 58.4478 22.3616 59.2244 22.3616C60.2286 22.3616 60.7698 22.6754 60.7698 23.7188V26.3546H59.9461V25.9937C59.7579 26.2996 59.5147 26.4252 59.0362 26.4252C58.1733 26.4252 57.6398 25.9859 57.6398 25.2014C57.6398 24.362 58.2595 24.0404 59.0989 24.0404ZM59.9461 24.6836H59.1617C58.6675 24.6836 58.4635 24.8562 58.4635 25.2014C58.4635 25.5466 58.7302 25.7113 59.1303 25.7113C59.6402 25.7113 59.9461 25.5544 59.9461 24.8719V24.6836Z" fill="black"/>
<path d="M61.1908 22.4322H61.6929V21.5693H62.5244V22.4322H63.356V23.1539H62.5244V24.9504C62.5244 25.4054 62.595 25.6015 63.0343 25.6015H63.356V26.3546H62.9716C62.0302 26.3546 61.6929 26.0329 61.6929 25.1073V23.1539H61.1908V22.4322Z" fill="black"/>
<path d="M63.8672 20.9417H64.785V21.7968H63.8672V20.9417ZM63.9064 22.4322H64.7458V26.3546H63.9064V22.4322Z" fill="black"/>
<path d="M68.4811 25.7584C68.2066 26.2369 67.7673 26.4252 67.0769 26.4252C65.9551 26.4252 65.359 25.6956 65.359 24.6523V24.1188C65.359 22.9657 65.9238 22.3616 66.9514 22.3616C67.9791 22.3616 68.536 23.0049 68.536 24.1659V24.5974H66.1905V24.613C66.1905 25.2249 66.4258 25.7035 67.0456 25.7035C67.5084 25.7035 67.6967 25.5622 67.8536 25.3191L68.4811 25.7584ZM66.1983 23.9541H67.6967C67.6653 23.3814 67.4299 23.0912 66.9514 23.0912C66.4729 23.0912 66.2376 23.4207 66.1983 23.9541Z" fill="black"/>
<path d="M69.1309 22.4322H69.9546V22.7852C70.1272 22.5499 70.4096 22.3616 70.9273 22.3616C71.7353 22.3616 72.3551 22.7696 72.3551 23.8992V26.3546H71.5235V23.9933C71.5235 23.303 71.2098 23.1069 70.7783 23.1069C70.2606 23.1069 69.9703 23.4599 69.9703 23.9855V26.3546H69.1309V22.4322Z" fill="black"/>
<path d="M72.7578 22.4322H73.2598V21.5693H74.0914V22.4322H74.9229V23.1539H74.0914V24.9504C74.0914 25.4054 74.162 25.6015 74.6013 25.6015H74.9229V26.3546H74.5385C73.5971 26.3546 73.2598 26.0329 73.2598 25.1073V23.1539H72.7578V22.4322Z" fill="black"/>
<path d="M77.1115 26.3546L78.9943 20.9417H79.8572L81.7399 26.3546H80.775L80.4063 25.2328H78.453L78.0843 26.3546H77.1115ZM78.704 24.4483H80.1474L79.4257 22.2596L78.704 24.4483Z" fill="black"/>
<path d="M84.3992 20.9417H85.2308V26.3546H84.3992V26.08C84.1874 26.2996 83.8893 26.4252 83.4579 26.4252C82.4145 26.4252 81.8968 25.6799 81.8968 24.6523V24.1188C81.8968 22.9892 82.5087 22.3616 83.4579 22.3616C83.8658 22.3616 84.1796 22.4793 84.3992 22.7068V20.9417ZM84.3992 24.613V24.111C84.3992 23.4677 84.109 23.0912 83.5677 23.0912C83.0264 23.0912 82.7283 23.4756 82.7283 24.1581V24.613C82.7283 25.2249 82.9637 25.7035 83.5677 25.7035C84.1717 25.7035 84.3992 25.2249 84.3992 24.613Z" fill="black"/>
<path d="M89.5283 22.4322L87.9986 26.3546H87.1985L85.6374 22.4322H86.563L87.5829 25.2328L88.5948 22.4322H89.5283Z" fill="black"/>
<path d="M92.9669 24.6366C92.9669 25.6799 92.457 26.4252 91.3038 26.4252C90.1507 26.4252 89.6329 25.7191 89.6329 24.6366V24.1424C89.6329 22.9892 90.2448 22.3616 91.3038 22.3616C92.3629 22.3616 92.9669 22.9892 92.9669 24.1424V24.6366ZM92.1354 24.613V24.1581C92.1354 23.4756 91.8608 23.0912 91.3038 23.0912C90.7469 23.0912 90.4645 23.4834 90.4645 24.1581V24.613C90.4645 25.2249 90.6684 25.7035 91.3038 25.7035C91.9 25.7035 92.1354 25.2249 92.1354 24.613Z" fill="black"/>
<path d="M96.5323 25.7584C96.2734 26.2212 95.8106 26.4252 95.1359 26.4252C94.0377 26.4252 93.4101 25.7191 93.4101 24.6523V24.1188C93.4101 22.9892 94.0455 22.3616 95.1673 22.3616C95.7635 22.3616 96.2577 22.5813 96.5323 22.997L95.889 23.4442C95.74 23.2324 95.4889 23.0912 95.1516 23.0912C94.5397 23.0912 94.2417 23.4834 94.2417 24.1581V24.613C94.2417 25.2249 94.4613 25.7035 95.1516 25.7035C95.4811 25.7035 95.7478 25.5858 95.8969 25.3191L96.5323 25.7584Z" fill="black"/>
<path d="M98.2908 24.0404H99.138V23.7109C99.138 23.2167 98.9498 23.0833 98.3614 23.0833C97.9378 23.0833 97.726 23.1304 97.5377 23.4363L96.9337 23.0127C97.2161 22.5499 97.6397 22.3616 98.4163 22.3616C99.4204 22.3616 99.9617 22.6754 99.9617 23.7188V26.3546H99.138V25.9937C98.9497 26.2996 98.7066 26.4252 98.228 26.4252C97.3651 26.4252 96.8317 25.9859 96.8317 25.2014C96.8317 24.362 97.4514 24.0404 98.2908 24.0404ZM99.138 24.6836H98.3535C97.8593 24.6836 97.6554 24.8562 97.6554 25.2014C97.6554 25.5466 97.9221 25.7113 98.3222 25.7113C98.8321 25.7113 99.138 25.5544 99.138 24.8719V24.6836Z" fill="black"/>
<path d="M103.653 25.7584C103.394 26.2212 102.931 26.4252 102.256 26.4252C101.158 26.4252 100.53 25.7191 100.53 24.6523V24.1188C100.53 22.9892 101.166 22.3616 102.288 22.3616C102.884 22.3616 103.378 22.5813 103.653 22.997L103.009 23.4442C102.86 23.2324 102.609 23.0912 102.272 23.0912C101.66 23.0912 101.362 23.4834 101.362 24.1581V24.613C101.362 25.2249 101.582 25.7035 102.272 25.7035C102.601 25.7035 102.868 25.5858 103.017 25.3191L103.653 25.7584Z" fill="black"/>
<path d="M104.696 22.4322L105.692 25.1935L106.587 22.4322H107.449L106.069 26.5114C105.731 27.5156 105.441 27.845 104.343 27.845V27.0763C104.892 27.0763 105.112 26.99 105.308 26.4016L103.81 22.4322H104.696Z" fill="black"/>
<path d="M19.8312 18.3622C19.8168 18.3622 19.7789 18.3648 19.7645 18.3661C19.5946 18.3857 19.4455 18.4864 19.3174 18.6694C18.7696 19.5009 18.0322 19.9049 17.0621 19.9049C16.3064 19.9049 15.6579 19.7062 15.0787 19.2983C14.4785 18.8747 13.9307 18.3203 13.4522 17.6483C12.9632 16.9619 12.5239 16.2023 12.1461 15.393C11.763 14.5719 11.4034 13.7521 11.0727 12.9494C10.9759 12.7336 10.887 12.5192 10.8046 12.3009C10.5575 11.6968 10.2163 11.1817 9.79006 10.7672C9.56387 10.5476 9.28147 10.3619 8.94546 10.2142C9.46451 10.0351 9.9548 9.81672 10.4124 9.56047C11.1956 9.12247 11.831 8.56289 12.303 7.8974C12.7854 7.21884 13.0299 6.4043 13.0299 5.47994C13.0299 4.38561 12.703 3.46387 12.0585 2.73954C11.4296 2.03222 10.6203 1.5014 9.65278 1.16146C8.70358 0.828063 7.72823 0.659403 6.75288 0.659403H1.21455C0.99621 0.659403 0.81709 0.763998 0.737336 0.940503C0.675886 1.07909 0.675886 1.22422 0.737336 1.3615C0.777867 1.45171 0.885077 1.60991 1.16487 1.66221C1.60025 1.72105 1.83559 1.92631 1.92842 2.32639C2.04609 2.83368 2.10623 3.56977 2.10623 4.51505V13.926C2.10623 14.8713 2.04609 15.6074 1.92842 16.1147C1.83559 16.5147 1.60025 16.72 1.14526 16.7815C0.88377 16.8311 0.777867 16.9893 0.736029 17.0796C0.674579 17.2182 0.674579 17.3633 0.736029 17.5006C0.815783 17.6758 0.993595 17.7804 1.21194 17.7804H5.41536C5.63501 17.7804 5.81283 17.6758 5.89127 17.4993C5.95272 17.362 5.95272 17.2168 5.89127 17.0769C5.85074 16.988 5.74353 16.8298 5.46374 16.7775C5.02836 16.7187 4.79302 16.5134 4.70019 16.1134C4.58252 15.6061 4.52238 14.8687 4.52238 13.9247V10.8875H4.62436C5.83897 10.8875 6.71627 10.9973 7.23009 11.2131C7.69685 11.4092 8.06685 11.8746 8.32834 12.5924C8.34795 12.6486 8.37541 12.7127 8.41333 12.7859C8.82256 13.8149 9.26316 14.8543 9.72338 15.8767C10.1888 16.9135 10.7183 17.8758 11.2949 18.7361C11.8833 19.6134 12.5697 20.3312 13.3332 20.8698C14.1229 21.4281 15.0368 21.7105 16.0475 21.7105C16.9849 21.7105 17.8426 21.4713 18.597 20.998C19.3501 20.5247 19.9123 19.8919 20.2797 19.0878C20.3607 18.8564 20.3097 18.6943 20.2522 18.5988C20.162 18.4485 20.0077 18.3622 19.8299 18.3622H19.8312ZM4.52499 4.51505C4.52499 3.44164 4.56945 2.67025 4.65574 2.2218C4.72503 1.85833 4.89239 1.7838 5.12119 1.7838H6.72803C7.83936 1.7838 8.74803 2.08844 9.50635 2.71601C10.2503 3.33051 10.6124 4.19734 10.6124 5.36358C10.6124 6.34808 10.3392 7.17046 9.79921 7.80457C9.24747 8.45306 8.51008 8.94597 7.60925 9.26891C6.68881 9.59838 5.67685 9.76573 4.60213 9.76573H4.52499V4.51505Z" fill="black"/>
<path d="M24.219 15.7316C24.2046 15.7303 24.1693 15.7277 24.1549 15.7277C24.0503 15.7277 23.8921 15.759 23.7365 15.9068C23.3901 16.2363 23.1665 16.3056 23.0397 16.3056C22.9573 16.3056 22.7403 16.3056 22.7403 15.644V9.80888C22.7403 8.38115 22.3271 7.23322 21.5113 6.39776C20.6889 5.55577 19.5148 5.12955 18.0204 5.12955C17.0124 5.12955 16.1194 5.32043 15.3637 5.69567C14.5361 6.10751 14.1164 6.65272 14.1164 7.31428C14.1164 7.8098 14.37 8.20596 14.8486 8.45829C15.2682 8.68056 15.803 8.79431 16.4371 8.79431C16.8764 8.79431 16.9666 8.55504 16.9862 8.44914C17.0137 8.28833 16.9483 8.13535 16.811 8.03207C16.4606 7.68952 16.4214 7.34827 16.6829 6.92859C16.9653 6.4749 17.4517 6.25395 18.1681 6.25395C18.8846 6.25395 19.4298 6.56119 19.7658 7.19138C20.1345 7.88694 20.3228 8.76685 20.3228 9.80888V10.2573C20.0888 10.0155 19.8273 9.79842 19.5383 9.61015C18.9304 9.21269 18.2204 9.01134 17.4281 9.01134C16.2802 9.01134 15.2552 9.45718 14.3844 10.3371C13.5189 11.2118 13.0796 12.3322 13.0796 13.6671C13.0796 15.002 13.4901 16.0153 14.3007 16.8115C15.114 17.6117 16.0828 18.017 17.181 18.017C18.0256 18.017 18.7879 17.7869 19.4468 17.3306C19.8064 17.0822 20.1241 16.8063 20.4 16.5056C20.4719 16.8691 20.5961 17.1619 20.7739 17.3894C21.0916 17.8 21.5427 18.0157 22.0761 18.0157C22.9625 18.0157 23.7875 17.528 24.5458 16.5396C24.6674 16.3474 24.6609 16.184 24.6334 16.0794C24.5825 15.8859 24.4282 15.7551 24.219 15.729V15.7316ZM15.497 13.6671C15.497 12.7232 15.7245 11.9439 16.173 11.353C16.6031 10.7868 17.1588 10.5123 17.8727 10.5123C18.342 10.5123 18.8219 10.6705 19.2965 10.983C19.7528 11.2837 20.0979 11.8223 20.3228 12.582V14.0201C20.3228 14.683 20.0561 15.2348 19.5083 15.7067C18.95 16.1879 18.3342 16.4219 17.6256 16.4219C16.9731 16.4219 16.4724 16.1944 16.0932 15.7251C15.6971 15.2374 15.497 14.5444 15.497 13.6658V13.6671Z" fill="black"/>
<path d="M47.1463 17.5019C47.0678 17.6784 46.8926 17.783 46.673 17.783H42.4696C42.2499 17.783 42.0708 17.6784 41.9924 17.5019C41.9309 17.3646 41.9309 17.2182 41.9924 17.0809C42.0342 16.9894 42.1401 16.8325 42.4016 16.7841C42.8553 16.7226 43.0919 16.5161 43.1847 16.1173C43.3011 15.6074 43.3639 14.8726 43.3639 13.9273V9.57485C43.3639 8.82045 43.2397 8.22818 43.0004 7.81634C42.7637 7.41495 42.4748 7.12993 42.1453 6.97304C41.7989 6.80699 41.4419 6.72463 41.0876 6.72463C40.5764 6.72463 40.0743 6.87498 39.584 7.17569C39.4703 7.24368 39.3579 7.31951 39.248 7.40449C39.0048 7.59015 38.7747 7.82288 38.5616 8.09744C38.5577 8.10136 38.5551 8.10398 38.5551 8.1079C38.2465 8.50667 37.968 8.99304 37.7236 9.56831V13.9273C37.7236 14.8713 37.7824 15.6074 37.8988 16.1173C37.9916 16.5161 38.2282 16.7213 38.6649 16.7802C38.9434 16.8325 39.0532 16.9894 39.0911 17.0809C39.1526 17.2182 39.1526 17.3646 39.0911 17.5019C39.0127 17.6784 38.8375 17.783 38.6178 17.783H34.4144C34.1948 17.783 34.0157 17.6784 33.9372 17.5019C33.8758 17.3646 33.8758 17.2182 33.9372 17.0809C33.9777 16.9894 34.0849 16.8325 34.3464 16.7841C34.8001 16.7226 35.0368 16.5161 35.1296 16.1173C35.246 15.6074 35.3087 14.8726 35.3087 13.9273V13.3233C33.966 15.6571 31.9917 18.0183 29.1794 18.0183C28.1975 18.0183 27.2666 17.7542 26.4181 17.2312C25.5696 16.7122 24.8792 15.9695 24.368 15.0282C23.8529 14.0908 23.5953 12.9768 23.5953 11.7151C23.5953 9.9174 24.1235 8.35893 25.1682 7.08156C26.2259 5.78719 27.6131 5.13085 29.2919 5.13085C30.2738 5.13085 31.1628 5.36358 31.9355 5.81988C32.767 6.31017 33.1893 6.9665 33.1893 7.76143C33.1893 8.27394 33.0102 8.7224 32.6611 9.09763C32.3081 9.47287 31.8571 9.66637 31.3223 9.66637C31.1027 9.66637 30.9549 9.58792 30.883 9.43495C30.849 9.36304 30.8137 9.23622 30.8686 9.07279C31.1301 8.19027 31.0438 7.53393 30.6045 7.06325C30.1339 6.56642 29.5573 6.32455 28.8434 6.32455C27.889 6.32455 27.1333 6.73639 26.5397 7.58231C25.9291 8.44522 25.6193 9.55262 25.6193 10.8692C25.6193 12.4904 26.052 13.8293 26.9032 14.853C27.7582 15.8793 28.7336 16.3762 29.8802 16.3762C31.3733 16.3762 32.5552 15.3014 33.5136 14.0005C34.2144 13.0461 34.7975 11.9714 35.293 11.1085C35.2996 11.0993 35.3035 11.0889 35.31 11.0797V4.51636C35.31 3.57238 35.2486 2.83629 35.1309 2.32639C35.0381 1.92762 34.8014 1.72235 34.3647 1.66352C34.0863 1.61122 33.9803 1.45171 33.9385 1.36281C33.8771 1.22552 33.8771 1.07909 33.9385 0.94181C34.017 0.765305 34.1961 0.66071 34.4157 0.66071H37.3823C37.5706 0.66071 37.7262 0.807144 37.7262 0.98757V7.25152C38.0975 6.77169 38.5198 6.35593 38.9865 6.00945C39.7802 5.42764 40.7098 5.13085 41.7583 5.13085C42.867 5.13085 43.8254 5.49694 44.6046 6.22257C45.3878 6.95081 45.7866 8.07913 45.7866 9.57485V13.9273C45.7866 14.8713 45.8454 15.6074 45.9617 16.1173C46.0546 16.5161 46.2912 16.7213 46.7279 16.7802C47.0064 16.8325 47.1162 16.9894 47.1541 17.0809C47.2195 17.2182 47.2195 17.3646 47.1541 17.5019H47.1463Z" fill="black"/>
<path d="M39.5814 7.17569C39.2245 7.42018 38.8846 7.73397 38.5577 8.09744C38.7708 7.82288 39.0009 7.59146 39.2441 7.40449C39.3539 7.31951 39.4677 7.24499 39.5801 7.17569H39.5814Z" fill="black"/>
<path d="M57.7797 14.1404C57.6699 14.1404 57.5038 14.1731 57.3391 14.33C57.3273 14.3418 57.3156 14.3535 57.3051 14.3679C56.8697 14.9301 56.3337 15.4139 55.7113 15.8074C55.1125 16.1853 54.4026 16.3762 53.6011 16.3762C52.5264 16.3762 51.5968 16.0166 50.7561 15.2753C49.9717 14.5837 49.4252 13.6554 49.1271 12.5114L55.9768 9.4781C57.6686 8.84399 57.5692 7.83987 57.3535 7.2816C57.0946 6.69978 56.5716 6.18857 55.8002 5.76235C55.0406 5.34266 54.1097 5.12955 53.0324 5.12955C51.7825 5.12955 50.6659 5.43287 49.7154 6.03037C48.7701 6.62395 48.0249 7.43064 47.4967 8.42691C46.9724 9.41665 46.7057 10.5241 46.7057 11.7151C46.7057 12.9742 46.9907 14.0894 47.5542 15.0295C48.1177 15.9695 48.8747 16.7096 49.8043 17.2312C50.7352 17.7529 51.755 18.0183 52.8337 18.0183C53.9842 18.0183 55.0275 17.7359 55.9375 17.1776C56.8279 16.6311 57.6006 15.9172 58.2308 15.0583C58.47 14.7406 58.338 14.4908 58.27 14.398C58.1484 14.232 57.9732 14.1417 57.7784 14.1417L57.7797 14.1404ZM52.3904 6.34808C53.0128 6.34808 53.5776 6.53112 54.115 6.90767C54.5961 7.24499 55.0459 7.77319 55.4551 8.48052L48.9466 11.366C48.9336 11.1987 48.927 11.0326 48.927 10.8666C48.927 9.5487 49.2617 8.44522 49.9233 7.59015C50.5692 6.75339 51.3759 6.34677 52.3904 6.34677V6.34808Z" fill="black"/>
<path d="M62.9755 15.7316C62.9611 15.7303 62.9258 15.7277 62.9114 15.7277C62.8055 15.7277 62.6486 15.759 62.493 15.9068C62.1466 16.2363 61.923 16.3056 61.7962 16.3056C61.7217 16.3056 61.4968 16.3056 61.4968 15.6205V0.986263C61.4968 0.805836 61.3425 0.659403 61.1529 0.659403H58.1863C57.9667 0.659403 57.7889 0.763998 57.7104 0.940503C57.6477 1.07909 57.6477 1.22552 57.7104 1.3615C57.7509 1.45171 57.8582 1.61122 58.138 1.66352C58.5733 1.72235 58.81 1.92762 58.9028 2.3277C59.0205 2.83629 59.0806 3.57238 59.0806 4.51636V15.6218C59.0806 16.4232 59.2284 17.0024 59.5304 17.392C59.8481 17.8026 60.2992 18.0183 60.8326 18.0183C61.719 18.0183 62.544 17.5306 63.3024 16.5422C63.4239 16.35 63.4174 16.1879 63.3899 16.082C63.339 15.8885 63.1847 15.7577 62.9755 15.7316Z" fill="black"/>
<path d="M95.8263 13.8789C95.7164 13.8789 95.5504 13.9116 95.3857 14.0685C95.3739 14.0803 95.3621 14.0921 95.3517 14.1051C94.9163 14.6673 94.3802 15.1524 93.7579 15.5446C93.1591 15.9225 92.4491 16.1134 91.6477 16.1134C90.573 16.1134 89.6434 15.7538 88.8027 15.0125C88.0182 14.3209 87.4717 13.3926 87.1736 12.2486L94.0233 9.2153C95.7151 8.58119 95.6158 7.57708 95.4 7.0188C95.1399 6.43699 94.6182 5.92578 93.8468 5.49955C93.0872 5.07986 92.1563 4.86675 91.0776 4.86675C89.8277 4.86675 88.7112 5.17008 87.7607 5.76758C86.8154 6.36116 86.0688 7.16785 85.5419 8.16412C85.0176 9.15385 84.7509 10.2613 84.7509 11.4523C84.7509 11.5308 84.7548 11.6053 84.7575 11.6824C81.9504 12.0315 79.0923 12.0211 76.2892 11.6419C76.2944 8.83614 76.2983 6.03037 76.3035 3.2246C76.3035 2.70947 76.3362 2.12504 76.7455 1.78772C77.0462 1.53931 77.56 1.38503 77.5338 1.00718C77.509 0.646328 77.0109 0.536503 76.6304 0.528658C75.5583 0.503817 74.4862 0.480283 73.4141 0.475053C72.7839 0.472438 72.1459 0.476361 71.5379 0.631946C70.1207 0.9928 69.0394 2.14596 68.4759 3.4351C67.6679 5.28121 67.8078 7.47902 68.8459 9.21922C69.8827 10.9581 71.7942 12.2002 73.8743 12.4865C73.9031 13.4606 73.8743 14.4359 73.7867 15.4073C73.7501 15.8153 73.6651 16.282 73.2938 16.4886C73.0088 16.6468 72.58 16.6403 72.4518 16.9292C72.359 17.1384 72.5107 17.3881 72.7212 17.4953C72.9317 17.6025 73.1827 17.6052 73.422 17.6052C75.8878 17.6025 78.3523 17.6012 80.8181 17.5986C81.4183 17.5986 82.0171 17.5986 82.6172 17.5973C83.012 17.5973 83.9638 17.7699 84.2986 17.5594C84.6333 17.3476 84.6163 16.5984 84.6842 16.2493C84.7993 15.6545 84.9157 15.0609 85.032 14.466C85.0726 14.2568 85.1131 14.0371 85.0516 13.8319C84.9902 13.6266 84.7928 13.441 84.5692 13.4606C84.3456 13.4802 84.1953 13.6815 84.0867 13.8685C83.6422 14.6412 83.3402 15.5603 82.5583 16.031C82.0916 16.3121 81.5242 16.3853 80.9737 16.4272C79.7199 16.5226 78.4608 16.4886 77.2044 16.4559C76.9926 16.4507 76.7585 16.4363 76.6082 16.2938C76.4761 16.1696 76.4447 15.98 76.4225 15.8048C76.2983 14.802 76.2526 13.79 76.2866 12.7807C76.3022 12.7807 76.3179 12.7807 76.3336 12.782C79.1773 12.8931 82.0563 13.1402 84.8542 12.7127C84.9836 13.4658 85.2295 14.1548 85.5968 14.7667C86.1604 15.7067 86.9174 16.4481 87.8469 16.9684C88.7778 17.4901 89.7977 17.7555 90.8763 17.7555C92.0268 17.7555 93.0702 17.4731 93.9802 16.9148C94.8705 16.3683 95.6432 15.6545 96.2734 14.7955C96.5114 14.4778 96.3806 14.2293 96.3113 14.1352C96.1884 13.9705 96.0145 13.8789 95.821 13.8789H95.8263ZM73.8756 11.3124C73.2062 11.1359 72.5813 10.8784 72.0321 10.4953C70.5011 9.42972 69.4159 7.69475 69.4839 5.89048C69.5454 4.22741 70.7783 2.54735 72.5054 2.30286C72.9068 2.24794 73.316 2.26756 73.7174 2.24402C73.8207 2.74346 73.8756 3.44687 73.8756 4.33201V11.3124ZM87.9685 7.32997C88.6144 6.49321 89.4211 6.08659 90.4357 6.08659C91.058 6.08659 91.6228 6.26964 92.1602 6.64618C92.6413 6.9835 93.0911 7.5117 93.5003 8.21903L86.9919 11.1046C86.9788 10.9372 86.9723 10.7712 86.9723 10.6051C86.9723 9.28721 87.307 8.18373 87.9685 7.32866V7.32997Z" fill="black"/>
<path d="M107.571 13.5874C107.438 13.4305 107.257 13.3507 107.064 13.3625C106.954 13.369 106.79 13.4135 106.638 13.5808C106.626 13.5926 106.617 13.6057 106.606 13.6201C106.211 14.2084 105.709 14.7262 105.116 15.1563C104.544 15.5708 103.85 15.8074 103.05 15.8571C101.978 15.9251 101.025 15.6244 100.134 14.938C99.3041 14.2986 98.6922 13.4057 98.3156 12.2839L104.938 8.82438C106.581 8.08436 106.413 7.08809 106.159 6.54551C105.86 5.982 105.303 5.50478 104.504 5.12824C103.717 4.75692 102.773 4.60395 101.697 4.67194C100.449 4.75039 99.3577 5.12432 98.4503 5.78065C97.5495 6.43307 96.8605 7.28421 96.4028 8.31186C95.9479 9.33297 95.7596 10.4534 95.8433 11.6419C95.9309 12.8984 96.2943 13.994 96.9219 14.8948C97.5495 15.797 98.3562 16.4886 99.3211 16.9501C100.286 17.4117 101.321 17.6117 102.399 17.5437C103.547 17.4705 104.568 17.1227 105.437 16.5095C106.288 15.9081 107.009 15.1472 107.578 14.249C107.793 13.9169 107.646 13.6763 107.57 13.5874H107.571ZM98.0005 10.6574C97.909 9.34212 98.1653 8.22034 98.7654 7.32474C99.3511 6.44875 100.129 5.99246 101.141 5.92839C101.762 5.88917 102.337 6.0356 102.901 6.37815C103.404 6.68409 103.889 7.18223 104.347 7.86341L98.0541 11.1542C98.0293 10.9882 98.011 10.8221 97.9992 10.6574H98.0005Z" fill="black"/>
</svg>
