<svg width="107" height="22" viewBox="0 0 107 22" fill="none" xmlns="http://www.w3.org/2000/svg">
<path d="M19.1413 17.8905C19.1269 17.8905 19.089 17.8931 19.0746 17.8944C18.9046 17.914 18.7556 18.0147 18.6274 18.1977C18.0796 19.0293 17.3422 19.4333 16.3721 19.4333C15.6164 19.4333 14.9679 19.2345 14.3887 18.8266C13.7886 18.403 13.2408 17.8486 12.7623 17.1766C12.2733 16.4902 11.834 15.7306 11.4561 14.9213C11.0731 14.1002 10.7135 13.2804 10.3827 12.4777C10.286 12.2619 10.1971 12.0475 10.1147 11.8292C9.86759 11.2251 9.52635 10.71 9.10012 10.2956C8.87393 10.0759 8.59153 9.89025 8.25551 9.74251C8.77457 9.56339 9.26486 9.34504 9.72246 9.08879C10.5056 8.65079 11.141 8.09121 11.613 7.42572C12.0955 6.74716 12.34 5.93262 12.34 5.00826C12.34 3.91393 12.0131 2.99219 11.3685 2.26786C10.7397 1.56054 9.93035 1.02972 8.96284 0.689781C8.01364 0.356383 7.03829 0.187723 6.06293 0.187723H0.524611C0.306268 0.187723 0.127149 0.292318 0.0473948 0.468823C-0.014055 0.607412 -0.014055 0.752538 0.0473948 0.889819C0.0879255 0.980033 0.195136 1.13823 0.474928 1.19053C0.910306 1.24937 1.14565 1.45463 1.23847 1.85471C1.35614 2.362 1.41629 3.09809 1.41629 4.04337V13.4543C1.41629 14.3996 1.35614 15.1357 1.23847 15.643C1.14565 16.0431 0.910306 16.2483 0.455317 16.3098C0.193828 16.3595 0.0879255 16.5177 0.0460873 16.6079C-0.0153624 16.7465 -0.0153624 16.8916 0.0460873 17.0289C0.125841 17.2041 0.303653 17.3087 0.521996 17.3087H4.72542C4.94507 17.3087 5.12288 17.2041 5.20133 17.0276C5.26278 16.8903 5.26278 16.7452 5.20133 16.6053C5.1608 16.5164 5.05359 16.3582 4.7738 16.3059C4.33842 16.247 4.10308 16.0418 4.01025 15.6417C3.89258 15.1344 3.83244 14.397 3.83244 13.453V10.4158H3.93442C5.14903 10.4158 6.02633 10.5257 6.54015 10.7414C7.00691 10.9375 7.37691 11.403 7.6384 12.1207C7.65801 12.177 7.68547 12.241 7.72339 12.3142C8.13261 13.3432 8.57322 14.3826 9.03344 15.405C9.49889 16.4418 10.0284 17.4041 10.605 18.2644C11.1933 19.1417 11.8797 19.8595 12.6433 20.3982C13.433 20.9564 14.3469 21.2388 15.3575 21.2388C16.295 21.2388 17.1527 20.9996 17.907 20.5263C18.6601 20.053 19.2223 19.4202 19.5897 18.6161C19.6708 18.3847 19.6198 18.2226 19.5623 18.1271C19.4721 17.9768 19.3178 17.8905 19.14 17.8905H19.1413ZM3.83505 4.04337C3.83505 2.96996 3.87951 2.19857 3.9658 1.75012C4.03509 1.38665 4.20244 1.31212 4.43125 1.31212H6.03809C7.14942 1.31212 8.05809 1.61676 8.81641 2.24433C9.56034 2.85883 9.9225 3.72566 9.9225 4.8919C9.9225 5.8764 9.64925 6.69878 9.10927 7.33289C8.55753 7.98138 7.82014 8.47429 6.91931 8.79723C5.99887 9.1267 4.98691 9.29405 3.91219 9.29405H3.83505V4.04337Z" fill="black"/>
<path d="M23.529 15.2599C23.5147 15.2586 23.4794 15.256 23.465 15.256C23.3604 15.256 23.2022 15.2874 23.0466 15.4351C22.7001 15.7646 22.4766 15.8339 22.3497 15.8339C22.2674 15.8339 22.0503 15.8339 22.0503 15.1723V9.3372C22.0503 7.90947 21.6372 6.76154 20.8213 5.92608C19.999 5.08409 18.8249 4.65787 17.3305 4.65787C16.3224 4.65787 15.4294 4.84875 14.6737 5.22399C13.8461 5.63583 13.4264 6.18104 13.4264 6.8426C13.4264 7.33812 13.6801 7.73428 14.1586 7.98661C14.5783 8.20888 15.113 8.32263 15.7472 8.32263C16.1865 8.32263 16.2767 8.08336 16.2963 7.97746C16.3237 7.81665 16.2584 7.66367 16.1211 7.56039C15.7707 7.21784 15.7315 6.87659 15.993 6.45691C16.2754 6.00322 16.7617 5.78227 17.4782 5.78227C18.1947 5.78227 18.7399 6.08951 19.0759 6.7197C19.4446 7.41526 19.6329 8.29517 19.6329 9.3372V9.78565C19.3988 9.54378 19.1374 9.32674 18.8484 9.13847C18.2404 8.74101 17.5305 8.53966 16.7382 8.53966C15.5903 8.53966 14.5652 8.9855 13.6945 9.86541C12.8289 10.7401 12.3896 11.8606 12.3896 13.1955C12.3896 14.5304 12.8002 15.5436 13.6108 16.3399C14.424 17.14 15.3928 17.5453 16.4911 17.5453C17.3357 17.5453 18.0979 17.3152 18.7569 16.8589C19.1164 16.6105 19.4341 16.3346 19.71 16.0339C19.7819 16.3974 19.9061 16.6903 20.0839 16.9177C20.4016 17.3283 20.8527 17.544 21.3862 17.544C22.2726 17.544 23.0976 17.0563 23.8559 16.0679C23.9775 15.8757 23.971 15.7123 23.9435 15.6077C23.8925 15.4142 23.7382 15.2834 23.529 15.2573V15.2599ZM14.8071 13.1955C14.8071 12.2515 15.0346 11.4723 15.4831 10.8813C15.9132 10.3152 16.4689 10.0406 17.1827 10.0406C17.6521 10.0406 18.1319 10.1988 18.6065 10.5113C19.0628 10.812 19.408 11.3507 19.6329 12.1103V13.5485C19.6329 14.2113 19.3662 14.7631 18.8183 15.2351C18.2601 15.7162 17.6443 15.9502 16.9356 15.9502C16.2832 15.9502 15.7825 15.7227 15.4033 15.2534C15.0071 14.7657 14.8071 14.0728 14.8071 13.1942V13.1955Z" fill="black"/>
<path d="M46.4563 17.0302C46.3779 17.2067 46.2027 17.3113 45.9831 17.3113H41.7796C41.56 17.3113 41.3809 17.2067 41.3024 17.0302C41.241 16.8929 41.241 16.7465 41.3024 16.6092C41.3443 16.5177 41.4502 16.3608 41.7116 16.3124C42.1653 16.251 42.402 16.0444 42.4948 15.6456C42.6112 15.1357 42.6739 14.4009 42.6739 13.4556V9.10317C42.6739 8.34877 42.5497 7.7565 42.3105 7.34466C42.0738 6.94328 41.7849 6.65825 41.4554 6.50136C41.1089 6.33531 40.752 6.25295 40.3977 6.25295C39.8865 6.25295 39.3844 6.4033 38.8941 6.70401C38.7804 6.772 38.6679 6.84783 38.5581 6.93282C38.3149 7.11847 38.0848 7.3512 37.8717 7.62576C37.8678 7.62968 37.8651 7.6323 37.8651 7.63622C37.5566 8.03499 37.2781 8.52136 37.0336 9.09663V13.4556C37.0336 14.3996 37.0924 15.1357 37.2088 15.6456C37.3016 16.0444 37.5383 16.2496 37.975 16.3085C38.2535 16.3608 38.3633 16.5177 38.4012 16.6092C38.4627 16.7465 38.4627 16.8929 38.4012 17.0302C38.3228 17.2067 38.1476 17.3113 37.9279 17.3113H33.7245C33.5048 17.3113 33.3257 17.2067 33.2473 17.0302C33.1858 16.8929 33.1858 16.7465 33.2473 16.6092C33.2878 16.5177 33.395 16.3608 33.6565 16.3124C34.1102 16.251 34.3468 16.0444 34.4397 15.6456C34.556 15.1357 34.6188 14.4009 34.6188 13.4556V12.8516C33.276 15.1854 31.3018 17.5466 28.4895 17.5466C27.5076 17.5466 26.5767 17.2825 25.7282 16.7595C24.8796 16.2405 24.1893 15.4979 23.6781 14.5565C23.163 13.6191 22.9054 12.5051 22.9054 11.2435C22.9054 9.44572 23.4336 7.88725 24.4783 6.60988C25.536 5.31551 26.9232 4.65917 28.6019 4.65917C29.5838 4.65917 30.4729 4.8919 31.2456 5.3482C32.0771 5.83849 32.4994 6.49482 32.4994 7.28975C32.4994 7.80226 32.3203 8.25072 31.9712 8.62595C31.6182 9.00119 31.1671 9.19469 30.6324 9.19469C30.4127 9.19469 30.265 9.11624 30.1931 8.96327C30.1591 8.89136 30.1238 8.76454 30.1787 8.60111C30.4402 7.71859 30.3539 7.06225 29.9146 6.59157C29.4439 6.09475 28.8673 5.85287 28.1535 5.85287C27.199 5.85287 26.4433 6.26471 25.8498 7.11063C25.2392 7.97354 24.9293 9.08094 24.9293 10.3975C24.9293 12.0188 25.3621 13.3576 26.2132 14.3813C27.0683 15.4077 28.0436 15.9045 29.1903 15.9045C30.6834 15.9045 31.8653 14.8298 32.8237 13.5289C33.5244 12.5744 34.1076 11.4997 34.6031 10.6368C34.6096 10.6276 34.6135 10.6172 34.6201 10.608V4.04468C34.6201 3.1007 34.5586 2.36461 34.441 1.85471C34.3481 1.45594 34.1115 1.25067 33.6748 1.19184C33.3963 1.13954 33.2904 0.980033 33.2486 0.891127C33.1871 0.753845 33.1871 0.607412 33.2486 0.47013C33.327 0.293626 33.5061 0.18903 33.7258 0.18903H36.6924C36.8806 0.18903 37.0362 0.335464 37.0362 0.515891V6.77984C37.4075 6.30001 37.8298 5.88425 38.2966 5.53778C39.0902 4.95596 40.0198 4.65917 41.0684 4.65917C42.1771 4.65917 43.1354 5.02526 43.9147 5.75089C44.6978 6.47913 45.0966 7.60745 45.0966 9.10317V13.4556C45.0966 14.3996 45.1554 15.1357 45.2718 15.6456C45.3646 16.0444 45.6013 16.2496 46.038 16.3085C46.3165 16.3608 46.4263 16.5177 46.4642 16.6092C46.5296 16.7465 46.5296 16.8929 46.4642 17.0302H46.4563Z" fill="black"/>
<path d="M38.8915 6.70401C38.5346 6.9485 38.1946 7.26229 37.8678 7.62576C38.0809 7.3512 38.311 7.11978 38.5542 6.93281C38.664 6.84783 38.7777 6.77331 38.8902 6.70401H38.8915Z" fill="black"/>
<path d="M57.0898 13.6688C56.9799 13.6688 56.8139 13.7014 56.6492 13.8583C56.6374 13.8701 56.6256 13.8819 56.6152 13.8962C56.1798 14.4584 55.6437 14.9422 55.0214 15.3357C54.4226 15.7136 53.7126 15.9045 52.9112 15.9045C51.8365 15.9045 50.9069 15.5449 50.0662 14.8036C49.2817 14.112 48.7352 13.1837 48.4371 12.0397L55.2868 9.00642C56.9786 8.37231 56.8793 7.36819 56.6635 6.80992C56.4047 6.2281 55.8817 5.71689 55.1103 5.29067C54.3507 4.87098 53.4198 4.65787 52.3424 4.65787C51.0925 4.65787 49.976 4.96119 49.0255 5.55869C48.0802 6.15227 47.3349 6.95896 46.8067 7.95523C46.2825 8.94497 46.0157 10.0524 46.0157 11.2435C46.0157 12.5025 46.3008 13.6178 46.8643 14.5578C47.4278 15.4979 48.1848 16.2379 49.1144 16.7595C50.0453 17.2812 51.0651 17.5466 52.1437 17.5466C53.2943 17.5466 54.3376 17.2642 55.2476 16.7059C56.138 16.1594 56.9107 15.4456 57.5408 14.5866C57.7801 14.2689 57.6481 14.0191 57.5801 13.9263C57.4585 13.7603 57.2833 13.6701 57.0885 13.6701L57.0898 13.6688ZM51.7005 5.8764C52.3228 5.8764 52.8877 6.05944 53.425 6.43599C53.9061 6.77331 54.3559 7.30151 54.7651 8.00884L48.2567 10.8944C48.2436 10.727 48.2371 10.561 48.2371 10.3949C48.2371 9.07702 48.5718 7.97354 49.2334 7.11847C49.8792 6.28171 50.6859 5.87509 51.7005 5.87509V5.8764Z" fill="black"/>
<path d="M62.2855 15.2599C62.2712 15.2586 62.2359 15.256 62.2215 15.256C62.1156 15.256 61.9587 15.2874 61.8031 15.4351C61.4566 15.7646 61.2331 15.8339 61.1062 15.8339C61.0317 15.8339 60.8068 15.8339 60.8068 15.1488V0.514583C60.8068 0.334156 60.6526 0.187723 60.463 0.187723H57.4964C57.2767 0.187723 57.0989 0.292318 57.0205 0.468823C56.9577 0.607412 56.9577 0.753845 57.0205 0.889819C57.061 0.980033 57.1682 1.13954 57.448 1.19184C57.8834 1.25067 58.12 1.45594 58.2129 1.85602C58.3305 2.36461 58.3907 3.1007 58.3907 4.04468V15.1501C58.3907 15.9515 58.5384 16.5307 58.8404 16.9204C59.1581 17.3309 59.6092 17.5466 60.1426 17.5466C61.0291 17.5466 61.8541 17.059 62.6124 16.0705C62.734 15.8783 62.7275 15.7162 62.7 15.6103C62.649 15.4168 62.4947 15.2861 62.2855 15.2599Z" fill="black"/>
<path d="M95.1363 13.4073C95.0265 13.4073 94.8605 13.44 94.6957 13.5968C94.684 13.6086 94.6722 13.6204 94.6617 13.6335C94.2263 14.1957 93.6903 14.6807 93.068 15.0729C92.4691 15.4508 91.7592 15.6417 90.9577 15.6417C89.883 15.6417 88.9534 15.2821 88.1127 14.5408C87.3283 13.8492 86.7818 12.9209 86.4837 11.7769L93.3334 8.74362C95.0252 8.10951 94.9258 7.1054 94.7101 6.54712C94.4499 5.96531 93.9283 5.4541 93.1569 5.02787C92.3972 4.60818 91.4663 4.39507 90.3877 4.39507C89.1378 4.39507 88.0212 4.6984 87.0707 5.2959C86.1254 5.88948 85.3789 6.69617 84.852 7.69244C84.3277 8.68217 84.061 9.78957 84.061 10.9807C84.061 11.0591 84.0649 11.1336 84.0675 11.2108C81.2604 11.5599 78.4024 11.5494 75.5992 11.1702C75.6045 8.36446 75.6084 5.55869 75.6136 2.75292C75.6136 2.23779 75.6463 1.65337 76.0555 1.31605C76.3562 1.06763 76.8701 0.913353 76.8439 0.535502C76.8191 0.174649 76.3209 0.0648234 75.9405 0.0569788C74.8684 0.0321374 73.7963 0.00860342 72.7242 0.00337365C72.094 0.00075877 71.4559 0.00468109 70.848 0.160267C69.4307 0.521121 68.3495 1.67428 67.786 2.96342C66.978 4.80953 67.1179 7.00734 68.156 8.74754C69.1928 10.4864 71.1042 11.7285 73.1844 12.0148C73.2131 12.9889 73.1844 13.9642 73.0968 14.9357C73.0602 15.3436 72.9752 15.8103 72.6039 16.0169C72.3189 16.1751 71.89 16.1686 71.7619 16.4575C71.6691 16.6667 71.8207 16.9164 72.0312 17.0237C72.2417 17.1309 72.4927 17.1335 72.732 17.1335C75.1978 17.1309 77.6624 17.1296 80.1282 17.1269C80.7283 17.1269 81.3271 17.1269 81.9272 17.1256C82.3221 17.1256 83.2739 17.2982 83.6086 17.0877C83.9433 16.8759 83.9263 16.1267 83.9943 15.7777C84.1094 15.1828 84.2257 14.5892 84.3421 13.9943C84.3826 13.7851 84.4231 13.5655 84.3617 13.3602C84.3002 13.1549 84.1028 12.9693 83.8793 12.9889C83.6557 13.0085 83.5053 13.2098 83.3968 13.3968C82.9523 14.1695 82.6503 15.0886 81.8684 15.5593C81.4016 15.8404 80.8342 15.9136 80.2838 15.9555C79.0299 16.0509 77.7709 16.0169 76.5144 15.9842C76.3026 15.979 76.0686 15.9646 75.9182 15.8221C75.7862 15.6979 75.7548 15.5083 75.7326 15.3331C75.6084 14.3303 75.5626 13.3184 75.5966 12.309C75.6123 12.309 75.628 12.309 75.6437 12.3103C78.4874 12.4215 81.3663 12.6686 84.1643 12.241C84.2937 12.9941 84.5395 13.6831 84.9069 14.295C85.4704 15.2351 86.2274 15.9764 87.157 16.4968C88.0879 17.0184 89.1077 17.2838 90.1864 17.2838C91.3369 17.2838 92.3802 17.0014 93.2902 16.4431C94.1806 15.8966 94.9533 15.1828 95.5835 14.3238C95.8214 14.0061 95.6907 13.7577 95.6214 13.6635C95.4985 13.4988 95.3246 13.4073 95.1311 13.4073H95.1363ZM73.1857 10.8408C72.5163 10.6643 71.8913 10.4067 71.3422 10.0236C69.8112 8.95804 68.726 7.22307 68.794 5.4188C68.8554 3.75573 70.0884 2.07567 71.8155 1.83118C72.2169 1.77626 72.6261 1.79588 73.0275 1.77234C73.1308 2.27179 73.1857 2.97519 73.1857 3.86033V10.8408ZM87.2786 6.85829C87.9245 6.02153 88.7312 5.61491 89.7457 5.61491C90.3681 5.61491 90.9329 5.79796 91.4703 6.1745C91.9514 6.51182 92.4012 7.04002 92.8104 7.74735L86.3019 10.6329C86.2889 10.4655 86.2823 10.2995 86.2823 10.1334C86.2823 8.81553 86.617 7.71205 87.2786 6.85698V6.85829Z" fill="black"/>
<path d="M106.881 13.1157C106.748 12.9588 106.567 12.8791 106.374 12.8908C106.264 12.8974 106.101 12.9418 105.948 13.1092C105.936 13.1209 105.927 13.134 105.916 13.1484C105.521 13.7367 105.019 14.2545 104.426 14.6846C103.854 15.0991 103.16 15.3357 102.36 15.3854C101.288 15.4534 100.335 15.1527 99.4444 14.4663C98.6141 13.827 98.0022 12.934 97.6257 11.8122L104.248 8.3527C105.891 7.61268 105.723 6.61641 105.469 6.07383C105.17 5.51032 104.613 5.0331 103.814 4.65656C103.027 4.28525 102.083 4.13227 101.007 4.20026C99.7594 4.27871 98.6677 4.65264 97.7604 5.30897C96.8595 5.96139 96.1705 6.81253 95.7129 7.84018C95.2579 8.86129 95.0696 9.98177 95.1533 11.1702C95.2409 12.4267 95.6044 13.5223 96.232 14.4231C96.8595 15.3253 97.6662 16.0169 98.6311 16.4784C99.596 16.94 100.632 17.14 101.709 17.072C102.857 16.9988 103.878 16.651 104.747 16.0378C105.598 15.4364 106.319 14.6755 106.888 13.7773C107.103 13.4452 106.956 13.2046 106.88 13.1157H106.881ZM97.3106 10.1857C97.2191 8.87044 97.4753 7.74866 98.0755 6.85306C98.6612 5.97707 99.4391 5.52078 100.451 5.45671C101.072 5.41749 101.647 5.56392 102.211 5.90647C102.714 6.21241 103.199 6.71055 103.657 7.39173L97.3642 10.6826C97.3394 10.5165 97.3211 10.3505 97.3093 10.1857H97.3106Z" fill="black"/>
</svg>
