<svg width="330" height="85" viewBox="0 0 330 85" fill="none" xmlns="http://www.w3.org/2000/svg">
<path d="M165.636 73.5775V79.6558H162.838V63.0127H168.507C172.342 63.0127 174.633 64.8459 174.633 68.271C174.633 71.6961 172.366 73.5775 168.507 73.5775H165.636ZM168.217 71.1654C170.774 71.1654 171.835 70.1765 171.835 68.271C171.835 66.3655 170.774 65.4489 168.217 65.4489H165.636V71.1654H168.217Z" fill="black"/>
<path d="M180.249 72.5403H182.854V71.5272C182.854 70.0077 182.275 69.5976 180.466 69.5976C179.164 69.5976 178.513 69.7423 177.934 70.683L176.076 69.3805C176.945 67.9574 178.247 67.3785 180.635 67.3785C183.723 67.3785 185.387 68.3433 185.387 71.5514V79.6558H182.854V78.5463C182.275 79.487 181.528 79.8729 180.056 79.8729C177.403 79.8729 175.763 78.5222 175.763 76.1101C175.763 73.5292 177.668 72.5403 180.249 72.5403ZM182.854 74.5182H180.442C178.923 74.5182 178.295 75.0488 178.295 76.1101C178.295 77.1714 179.116 77.678 180.346 77.678C181.914 77.678 182.854 77.1956 182.854 75.0971V74.5182Z" fill="black"/>
<path d="M186.681 67.5956H188.225V64.9424H190.782V67.5956H193.339V69.8147H190.782V75.3383C190.782 76.7373 190.999 77.3403 192.35 77.3403H193.339V79.6558H192.157C189.262 79.6558 188.225 78.6669 188.225 75.8207V69.8147H186.681V67.5956Z" fill="black"/>
<path d="M194.91 63.0127H197.733V65.6419H194.91V63.0127ZM195.031 67.5956H197.612V79.6558H195.031V67.5956Z" fill="black"/>
<path d="M209.097 77.8227C208.253 79.294 206.902 79.8729 204.78 79.8729C201.331 79.8729 199.497 77.6297 199.497 74.4217V72.7815C199.497 69.2358 201.234 67.3785 204.394 67.3785C207.554 67.3785 209.266 69.3564 209.266 72.9262V74.2529H202.054V74.3011C202.054 76.1825 202.778 77.6538 204.683 77.6538C206.106 77.6538 206.685 77.2197 207.168 76.4719L209.097 77.8227ZM202.078 72.275H206.685C206.589 70.5142 205.865 69.6217 204.394 69.6217C202.922 69.6217 202.199 70.6348 202.078 72.275Z" fill="black"/>
<path d="M211.095 67.5956H213.628V68.681C214.159 67.9574 215.027 67.3785 216.619 67.3785C219.103 67.3785 221.009 68.6328 221.009 72.1061V79.6558H218.452V72.3956C218.452 70.273 217.487 69.67 216.161 69.67C214.569 69.67 213.676 70.7554 213.676 72.3715V79.6558H211.095V67.5956Z" fill="black"/>
<path d="M222.247 67.5956H223.791V64.9424H226.347V67.5956H228.904V69.8147H226.347V75.3383C226.347 76.7373 226.565 77.3403 227.915 77.3403H228.904V79.6558H227.722C224.828 79.6558 223.791 78.6669 223.791 75.8207V69.8147H222.247V67.5956Z" fill="black"/>
<path d="M235.634 79.6558L241.423 63.0127H244.076L249.865 79.6558H246.898L245.764 76.2066H239.758L238.625 79.6558H235.634ZM240.53 73.7946H244.968L242.749 67.065L240.53 73.7946Z" fill="black"/>
<path d="M258.042 63.0127H260.599V79.6558H258.042V78.8116C257.39 79.487 256.474 79.8729 255.147 79.8729C251.939 79.8729 250.347 77.5815 250.347 74.4217V72.7815C250.347 69.3082 252.229 67.3785 255.147 67.3785C256.402 67.3785 257.366 67.7403 258.042 68.4398V63.0127ZM258.042 74.3011V72.7574C258.042 70.7795 257.149 69.6217 255.485 69.6217C253.821 69.6217 252.904 70.8036 252.904 72.9021V74.3011C252.904 76.1825 253.628 77.6538 255.485 77.6538C257.342 77.6538 258.042 76.1825 258.042 74.3011Z" fill="black"/>
<path d="M273.813 67.5956L269.109 79.6558H266.649L261.849 67.5956H264.695L267.831 76.2066L270.942 67.5956H273.813Z" fill="black"/>
<path d="M284.385 74.3735C284.385 77.5815 282.817 79.8729 279.272 79.8729C275.726 79.8729 274.134 77.7021 274.134 74.3735V72.8539C274.134 69.3082 276.016 67.3785 279.272 67.3785C282.528 67.3785 284.385 69.3082 284.385 72.8539V74.3735ZM281.829 74.3011V72.9021C281.829 70.8036 280.984 69.6217 279.272 69.6217C277.559 69.6217 276.691 70.8278 276.691 72.9021V74.3011C276.691 76.1825 277.318 77.6538 279.272 77.6538C281.105 77.6538 281.829 76.1825 281.829 74.3011Z" fill="black"/>
<path d="M295.348 77.8227C294.552 79.2458 293.129 79.8729 291.055 79.8729C287.678 79.8729 285.748 77.7021 285.748 74.4217V72.7815C285.748 69.3082 287.702 67.3785 291.151 67.3785C292.984 67.3785 294.504 68.0539 295.348 69.3323L293.37 70.7071C292.912 70.0559 292.14 69.6217 291.103 69.6217C289.221 69.6217 288.305 70.8278 288.305 72.9021V74.3011C288.305 76.1825 288.98 77.6538 291.103 77.6538C292.116 77.6538 292.936 77.292 293.394 76.4719L295.348 77.8227Z" fill="black"/>
<path d="M300.755 72.5403H303.36V71.5272C303.36 70.0077 302.781 69.5976 300.972 69.5976C299.67 69.5976 299.018 69.7423 298.44 70.683L296.582 69.3805C297.451 67.9574 298.753 67.3785 301.141 67.3785C304.228 67.3785 305.893 68.3433 305.893 71.5514V79.6558H303.36V78.5463C302.781 79.487 302.033 79.8729 300.562 79.8729C297.909 79.8729 296.269 78.5222 296.269 76.1101C296.269 73.5292 298.174 72.5403 300.755 72.5403ZM303.36 74.5182H300.948C299.428 74.5182 298.801 75.0488 298.801 76.1101C298.801 77.1714 299.621 77.678 300.852 77.678C302.419 77.678 303.36 77.1956 303.36 75.0971V74.5182Z" fill="black"/>
<path d="M317.241 77.8227C316.445 79.2458 315.022 79.8729 312.948 79.8729C309.571 79.8729 307.641 77.7021 307.641 74.4217V72.7815C307.641 69.3082 309.595 67.3785 313.044 67.3785C314.878 67.3785 316.397 68.0539 317.241 69.3323L315.264 70.7071C314.805 70.0559 314.033 69.6217 312.996 69.6217C311.115 69.6217 310.198 70.8278 310.198 72.9021V74.3011C310.198 76.1825 310.874 77.6538 312.996 77.6538C314.009 77.6538 314.829 77.292 315.288 76.4719L317.241 77.8227Z" fill="black"/>
<path d="M320.449 67.5956L323.513 76.086L326.262 67.5956H328.916L324.671 80.1383C323.633 83.2257 322.741 84.2387 319.364 84.2387V81.8749C321.052 81.8749 321.728 81.6096 322.331 79.8006L317.724 67.5956H320.449Z" fill="black"/>
<path d="M59.5102 55.0811C59.466 55.0811 59.3494 55.0891 59.3052 55.0932C58.7826 55.1535 58.3243 55.463 57.9303 56.0258C56.2459 58.5826 53.9786 59.8248 50.9957 59.8248C48.6721 59.8248 46.6781 59.2137 44.8972 57.9595C43.052 56.657 41.3676 54.9525 39.8963 52.8861C38.3927 50.7756 37.042 48.4399 35.8802 45.9515C34.7023 43.4269 33.5968 40.9063 32.5797 38.438C32.2822 37.7747 32.0089 37.1154 31.7556 36.444C30.9958 34.5867 29.9466 33.0028 28.636 31.7285C27.9405 31.0531 27.0722 30.4822 26.039 30.028C27.635 29.4772 29.1425 28.8059 30.5496 28.0179C32.9576 26.6712 34.9114 24.9506 36.3626 22.9044C37.846 20.818 38.5978 18.3135 38.5978 15.4713C38.5978 12.1065 37.5928 9.27232 35.6109 7.04519C33.6772 4.87033 31.1888 3.23818 28.2139 2.19296C25.2953 1.16784 22.2964 0.649251 19.2974 0.649251H2.26833C1.59698 0.649251 1.04623 0.970857 0.801001 1.51357C0.612058 1.9397 0.612058 2.38592 0.801001 2.80803C0.925624 3.08542 1.25527 3.57185 2.11557 3.73265C3.45425 3.91355 4.17787 4.54471 4.46329 5.77485C4.8251 7.33464 5.01002 9.59794 5.01002 12.5045V41.441C5.01002 44.3475 4.8251 46.6108 4.46329 48.1706C4.17787 49.4007 3.45425 50.0319 2.05527 50.2208C1.25125 50.3736 0.925624 50.86 0.796981 51.1374C0.608038 51.5635 0.608038 52.0098 0.796981 52.4319C1.04221 52.9706 1.58894 53.2922 2.26029 53.2922H15.1848C15.8602 53.2922 16.4069 52.9706 16.6481 52.4279C16.8371 52.0057 16.8371 51.5595 16.6481 51.1294C16.5235 50.856 16.1939 50.3696 15.3336 50.2088C13.9949 50.0279 13.2713 49.3967 12.9859 48.1666C12.624 46.6068 12.4391 44.3395 12.4391 41.437V32.0983H12.7527C16.4873 32.0983 19.1848 32.436 20.7647 33.0993C22.1999 33.7023 23.3376 35.1335 24.1416 37.3405C24.2019 37.5134 24.2863 37.7104 24.4029 37.9355C25.6612 41.0993 27.0159 44.2952 28.431 47.4389C29.8621 50.6269 31.4903 53.5856 33.2631 56.2308C35.0722 58.9283 37.1827 61.1353 39.5304 62.7916C41.9586 64.5082 44.7686 65.3765 47.8761 65.3765C50.7585 65.3765 53.3957 64.6408 55.7153 63.1856C58.0308 61.7303 59.7595 59.7846 60.8891 57.3122C61.1383 56.6007 60.9816 56.1022 60.8047 55.8087C60.5273 55.3464 60.0529 55.0811 59.5062 55.0811H59.5102ZM12.4472 12.5045C12.4472 9.20398 12.5838 6.83213 12.8492 5.45324C13.0622 4.33566 13.5768 4.10652 14.2803 4.10652H19.221C22.6381 4.10652 25.432 5.0432 27.7637 6.97283C30.0511 8.86227 31.1646 11.5276 31.1646 15.1135C31.1646 18.1406 30.3245 20.6692 28.6642 22.619C26.9677 24.6129 24.7004 26.1285 21.9305 27.1215C19.1004 28.1345 15.9889 28.6491 12.6844 28.6491H12.4472V12.5045Z" fill="black"/>
<path d="M73.0016 46.9927C72.9574 46.9887 72.8488 46.9806 72.8046 46.9806C72.483 46.9806 71.9966 47.0771 71.5182 47.5314C70.4529 48.5445 69.7654 48.7575 69.3755 48.7575C69.1222 48.7575 68.4549 48.7575 68.4549 46.7234V28.7818C68.4549 24.3918 67.1845 20.8622 64.676 18.2934C62.1474 15.7044 58.5374 14.3939 53.9424 14.3939C50.8429 14.3939 48.0972 14.9808 45.7736 16.1346C43.2289 17.4009 41.9385 19.0773 41.9385 21.1114C41.9385 22.6351 42.7183 23.8531 44.1897 24.629C45.4801 25.3124 47.1244 25.6622 49.0741 25.6622C50.4248 25.6622 50.7022 24.9265 50.7625 24.6009C50.8469 24.1064 50.6459 23.6361 50.2238 23.3185C49.1465 22.2652 49.0258 21.216 49.8299 19.9255C50.6982 18.5306 52.1937 17.8512 54.3967 17.8512C56.5997 17.8512 58.276 18.7959 59.3092 20.7336C60.4429 22.8722 61.0218 25.5778 61.0218 28.7818V30.1606C60.3022 29.4169 59.4982 28.7496 58.6097 28.1707C56.7404 26.9486 54.5575 26.3295 52.1213 26.3295C48.5917 26.3295 45.4399 27.7004 42.7626 30.4059C40.1013 33.0953 38.7505 36.5405 38.7505 40.645C38.7505 44.7495 40.0128 47.8651 42.5053 50.3133C45.0058 52.7736 47.9847 54.0198 51.3615 54.0198C53.9585 54.0198 56.3022 53.3123 58.3283 51.9093C59.4338 51.1455 60.4107 50.2972 61.2589 49.3726C61.4801 50.4902 61.862 51.3907 62.4087 52.0902C63.3856 53.3525 64.7725 54.0158 66.4127 54.0158C69.1383 54.0158 71.675 52.5163 74.0066 49.4771C74.3805 48.8862 74.3604 48.3837 74.276 48.062C74.1192 47.4671 73.6448 47.0651 73.0016 46.9847V46.9927ZM46.1837 40.645C46.1837 37.7425 46.8832 35.3465 48.262 33.5295C49.5846 31.7888 51.2932 30.9446 53.4881 30.9446C54.9313 30.9446 56.4067 31.431 57.866 32.3918C59.269 33.3164 60.3303 34.9727 61.0218 37.3083V41.7304C61.0218 43.7686 60.2017 45.4651 58.5173 46.9163C56.8007 48.3957 54.9072 49.1153 52.7283 49.1153C50.7223 49.1153 49.1826 48.4158 48.0168 46.9726C46.7987 45.4731 46.1837 43.3425 46.1837 40.641V40.645Z" fill="black"/>
<path d="M143.498 52.4359C143.256 52.9786 142.718 53.3002 142.042 53.3002H129.118C128.442 53.3002 127.892 52.9786 127.651 52.4359C127.462 52.0138 127.462 51.5635 127.651 51.1414C127.779 50.86 128.105 50.3776 128.909 50.2289C130.304 50.0399 131.031 49.4048 131.317 48.1786C131.675 46.6108 131.868 44.3515 131.868 41.445V28.0622C131.868 25.7426 131.486 23.9215 130.75 22.6552C130.022 21.421 129.134 20.5446 128.121 20.0622C127.056 19.5517 125.958 19.2984 124.869 19.2984C123.297 19.2984 121.753 19.7607 120.246 20.6853C119.896 20.8944 119.55 21.1275 119.212 21.3888C118.465 21.9597 117.757 22.6753 117.102 23.5195C117.09 23.5315 117.082 23.5396 117.082 23.5516C116.133 24.7778 115.277 26.2732 114.525 28.0421V41.445C114.525 44.3475 114.706 46.6108 115.064 48.1786C115.349 49.4048 116.077 50.0359 117.419 50.2168C118.276 50.3776 118.613 50.86 118.73 51.1414C118.919 51.5635 118.919 52.0138 118.73 52.4359C118.489 52.9786 117.95 53.3002 117.275 53.3002H104.35C103.675 53.3002 103.124 52.9786 102.883 52.4359C102.694 52.0138 102.694 51.5635 102.883 51.1414C103.007 50.86 103.337 50.3776 104.141 50.2289C105.536 50.0399 106.264 49.4048 106.549 48.1786C106.907 46.6108 107.1 44.3515 107.1 41.445V39.5877C102.971 46.7636 96.901 54.0238 88.2538 54.0238C85.2347 54.0238 82.3724 53.2118 79.7634 51.6037C77.1543 50.0078 75.0317 47.7244 73.4599 44.8299C71.876 41.9475 71.084 38.5224 71.084 34.643C71.084 29.1154 72.7081 24.3235 75.9202 20.3959C79.1724 16.416 83.4377 14.3979 88.5995 14.3979C91.6186 14.3979 94.3522 15.1135 96.7281 16.5165C99.2849 18.024 100.583 20.0421 100.583 22.4863C100.583 24.0622 100.033 25.4411 98.9592 26.5948C97.8738 27.7486 96.4869 28.3436 94.8427 28.3436C94.1673 28.3436 93.713 28.1024 93.4919 27.632C93.3874 27.4109 93.2789 27.021 93.4477 26.5185C94.2517 23.8049 93.9864 21.7868 92.6356 20.3396C91.1884 18.812 89.4156 18.0683 87.2206 18.0683C84.286 18.0683 81.9623 19.3346 80.1372 21.9356C78.2599 24.5888 77.3071 27.9938 77.3071 32.042C77.3071 37.0269 78.6377 41.1435 81.2548 44.2912C83.8839 47.447 86.8829 48.9746 90.4085 48.9746C94.9995 48.9746 98.6336 45.6701 101.58 41.6701C103.735 38.7355 105.528 35.431 107.052 32.7777C107.072 32.7496 107.084 32.7174 107.104 32.6893V12.5085C107.104 9.60598 106.915 7.34268 106.553 5.77485C106.268 4.54873 105.54 3.91757 104.197 3.73667C103.341 3.57587 103.015 3.08542 102.887 2.81205C102.698 2.38994 102.698 1.9397 102.887 1.51759C103.128 0.974877 103.679 0.653271 104.354 0.653271H113.476C114.055 0.653271 114.533 1.10352 114.533 1.65829V20.9185C115.675 19.4431 116.973 18.1647 118.408 17.0994C120.849 15.3105 123.707 14.3979 126.931 14.3979C130.34 14.3979 133.287 15.5235 135.683 17.7547C138.091 19.9939 139.317 23.4632 139.317 28.0622V41.445C139.317 44.3475 139.498 46.6108 139.855 48.1786C140.141 49.4048 140.869 50.0359 142.211 50.2168C143.068 50.3776 143.405 50.86 143.522 51.1414C143.723 51.5635 143.723 52.0138 143.522 52.4359H143.498Z" fill="black"/>
<path d="M120.238 20.6853C119.14 21.4371 118.095 22.4019 117.09 23.5195C117.745 22.6753 118.453 21.9637 119.2 21.3888C119.538 21.1275 119.888 20.8984 120.233 20.6853H120.238Z" fill="black"/>
<path d="M176.193 42.1003C175.855 42.1003 175.345 42.2008 174.838 42.6832C174.802 42.7194 174.766 42.7555 174.734 42.7998C173.395 44.5284 171.747 46.0158 169.833 47.2259C167.992 48.3877 165.809 48.9746 163.345 48.9746C160.04 48.9746 157.182 47.8691 154.597 45.5897C152.185 43.4631 150.505 40.6088 149.588 37.0913L170.649 27.7647C175.851 25.8149 175.546 22.7275 174.882 21.0109C174.086 19.222 172.478 17.6502 170.107 16.3396C167.771 15.0492 164.909 14.3939 161.596 14.3939C157.753 14.3939 154.32 15.3266 151.397 17.1637C148.491 18.9888 146.199 21.4692 144.575 24.5325C142.963 27.5757 142.143 30.9807 142.143 34.643C142.143 38.5144 143.019 41.9435 144.752 44.8339C146.485 47.7244 148.812 49.9997 151.671 51.6037C154.533 53.2078 157.668 54.0238 160.985 54.0238C164.523 54.0238 167.731 53.1555 170.529 51.4389C173.266 49.7585 175.642 47.5636 177.58 44.9224C178.316 43.9455 177.91 43.1777 177.701 42.8922C177.327 42.3817 176.788 42.1043 176.189 42.1043L176.193 42.1003ZM159.622 18.1406C161.536 18.1406 163.272 18.7034 164.925 19.8612C166.404 20.8984 167.787 22.5225 169.045 24.6974L149.033 33.5697C148.993 33.0551 148.973 32.5445 148.973 32.034C148.973 27.9818 150.002 24.5888 152.036 21.9597C154.022 19.3868 156.503 18.1366 159.622 18.1366V18.1406Z" fill="black"/>
<path d="M192.169 46.9927C192.125 46.9887 192.016 46.9806 191.972 46.9806C191.646 46.9806 191.164 47.0771 190.685 47.5314C189.62 48.5445 188.933 48.7575 188.543 48.7575C188.314 48.7575 187.622 48.7575 187.622 46.651V1.65427C187.622 1.0995 187.148 0.649251 186.565 0.649251H177.443C176.768 0.649251 176.221 0.970857 175.98 1.51357C175.787 1.9397 175.787 2.38994 175.98 2.80803C176.105 3.08542 176.434 3.57587 177.294 3.73667C178.633 3.91757 179.361 4.54873 179.646 5.77887C180.008 7.34268 180.193 9.60598 180.193 12.5085V46.655C180.193 49.1193 180.647 50.9002 181.576 52.0982C182.553 53.3605 183.94 54.0238 185.58 54.0238C188.305 54.0238 190.842 52.5243 193.174 49.4852C193.548 48.8942 193.528 48.3957 193.443 48.0701C193.286 47.4751 192.812 47.0731 192.169 46.9927Z" fill="black"/>
<path d="M293.177 41.2963C292.84 41.2963 292.329 41.3968 291.822 41.8792C291.786 41.9154 291.75 41.9515 291.718 41.9917C290.379 43.7204 288.731 45.2118 286.817 46.4178C284.976 47.5796 282.793 48.1666 280.329 48.1666C277.025 48.1666 274.166 47.0611 271.581 44.7817C269.169 42.655 267.489 39.8008 266.572 36.2832L287.634 26.9566C292.836 25.0069 292.53 21.9195 291.867 20.2029C291.067 18.414 289.463 16.8421 287.091 15.5316C284.755 14.2411 281.893 13.5859 278.576 13.5859C274.733 13.5859 271.3 14.5185 268.377 16.3557C265.471 18.1808 263.175 20.6612 261.555 23.7245C259.943 26.7677 259.123 30.1727 259.123 33.835C259.123 34.0762 259.135 34.3053 259.143 34.5425C250.512 35.6159 241.724 35.5837 233.105 34.4179C233.121 25.7908 233.133 17.1637 233.149 8.53664C233.149 6.95273 233.25 5.15576 234.508 4.11858C235.433 3.35476 237.013 2.88039 236.932 1.71859C236.856 0.60905 235.324 0.271363 234.154 0.247243C230.858 0.170861 227.562 0.0985001 224.265 0.0824198C222.327 0.0743796 220.366 0.0864398 218.496 0.564829C214.138 1.67437 210.814 5.22008 209.081 9.18388C206.597 14.8602 207.027 21.618 210.219 26.9687C213.407 32.3154 219.284 36.1345 225.68 37.0149C225.769 40.0098 225.68 43.0088 225.411 45.9957C225.298 47.25 225.037 48.6852 223.895 49.3203C223.019 49.8068 221.7 49.7867 221.306 50.6751C221.021 51.3183 221.487 52.0861 222.134 52.4158C222.782 52.7454 223.554 52.7535 224.289 52.7535C231.871 52.7454 239.449 52.7414 247.031 52.7334C248.876 52.7334 250.717 52.7334 252.562 52.7294C253.776 52.7294 256.703 53.26 257.732 52.6128C258.761 51.9615 258.709 49.658 258.918 48.5847C259.272 46.7555 259.63 44.9304 259.987 43.1013C260.112 42.4581 260.237 41.7827 260.048 41.1515C259.859 40.5204 259.252 39.9495 258.564 40.0098C257.877 40.0701 257.415 40.6892 257.081 41.2641C255.714 43.64 254.785 46.4661 252.381 47.9133C250.946 48.7776 249.202 49.0027 247.509 49.1314C243.654 49.4249 239.783 49.3203 235.919 49.2198C235.268 49.2038 234.548 49.1595 234.086 48.7213C233.68 48.3394 233.584 47.7565 233.515 47.2178C233.133 44.1344 232.993 41.0229 233.097 37.9194C233.145 37.9194 233.194 37.9194 233.242 37.9234C241.986 38.2651 250.838 39.0249 259.441 37.7103C259.839 40.0259 260.595 42.1445 261.724 44.0259C263.457 46.9163 265.784 49.1957 268.643 50.7957C271.505 52.3997 274.641 53.2158 277.957 53.2158C281.495 53.2158 284.703 52.3475 287.501 50.6309C290.239 48.9505 292.614 46.7555 294.552 44.1143C295.284 43.1375 294.882 42.3736 294.669 42.0842C294.291 41.5777 293.756 41.2963 293.161 41.2963H293.177ZM225.684 33.4048C223.626 32.8621 221.704 32.0702 220.016 30.8923C215.308 27.6159 211.972 22.2813 212.181 16.7336C212.37 11.62 216.161 6.45424 221.471 5.70249C222.705 5.53365 223.964 5.59395 225.198 5.52159C225.515 7.05725 225.684 9.22006 225.684 11.9416V33.4048ZM269.017 21.1597C271.002 18.5868 273.483 17.3366 276.602 17.3366C278.516 17.3366 280.253 17.8994 281.905 19.0572C283.384 20.0944 284.767 21.7185 286.026 23.8933L266.014 32.7657C265.973 32.2511 265.953 31.7405 265.953 31.23C265.953 27.1777 266.982 23.7848 269.017 21.1557V21.1597Z" fill="black"/>
<path d="M329.29 40.3998C328.88 39.9174 328.325 39.6721 327.73 39.7083C327.392 39.7284 326.89 39.8651 326.419 40.3797C326.383 40.4159 326.355 40.4561 326.323 40.5003C325.109 42.3093 323.565 43.9013 321.74 45.2239C319.983 46.4982 317.848 47.2259 315.388 47.3786C312.092 47.5877 309.161 46.6631 306.423 44.5525C303.871 42.5867 301.989 39.841 300.831 36.3918L321.193 25.7546C326.246 23.4793 325.728 20.416 324.948 18.7476C324.027 17.015 322.315 15.5477 319.858 14.3899C317.438 13.2482 314.536 12.7778 311.227 12.9869C307.392 13.2281 304.035 14.3778 301.246 16.3959C298.476 18.4019 296.357 21.019 294.95 24.1788C293.551 27.3184 292.972 30.7637 293.229 34.4179C293.499 38.2812 294.616 41.65 296.546 44.4199C298.476 47.1937 300.956 49.3203 303.923 50.7394C306.89 52.1585 310.074 52.7736 313.386 52.5645C316.916 52.3394 320.055 51.2701 322.729 49.3847C325.346 47.5354 327.561 45.1957 329.31 42.4339C329.973 41.4128 329.519 40.6731 329.286 40.3998H329.29ZM299.863 31.3908C299.581 27.3466 300.369 23.8974 302.214 21.1436C304.015 18.4502 306.407 17.0471 309.519 16.8502C311.428 16.7296 313.197 17.1798 314.93 18.2331C316.478 19.1738 317.969 20.7054 319.376 22.7999L300.027 32.9184C299.951 32.4079 299.895 31.8973 299.859 31.3908H299.863Z" fill="black"/>
</svg>
