<svg width="501" height="129" viewBox="0 0 501 129" fill="none" xmlns="http://www.w3.org/2000/svg">
<path d="M251.041 111.907V121.144H246.789V95.8508H255.403C261.232 95.8508 264.714 98.6367 264.714 103.842C264.714 109.047 261.268 111.907 255.403 111.907H251.041ZM254.963 108.241C258.849 108.241 260.462 106.738 260.462 103.842C260.462 100.946 258.849 99.5532 254.963 99.5532H251.041V108.241H254.963Z" fill="black"/>
<path d="M273.249 110.33H277.208V108.791C277.208 106.481 276.328 105.858 273.579 105.858C271.6 105.858 270.61 106.078 269.73 107.508L266.908 105.528C268.227 103.366 270.207 102.486 273.836 102.486C278.528 102.486 281.057 103.952 281.057 108.827V121.144H277.208V119.458C276.328 120.888 275.192 121.474 272.956 121.474C268.924 121.474 266.431 119.421 266.431 115.756C266.431 111.833 269.327 110.33 273.249 110.33ZM277.208 113.336H273.542C271.233 113.336 270.28 114.143 270.28 115.756C270.28 117.369 271.526 118.138 273.396 118.138C275.779 118.138 277.208 117.405 277.208 114.216V113.336Z" fill="black"/>
<path d="M283.024 102.816H285.371V98.7834H289.256V102.816H293.142V106.188H289.256V114.583C289.256 116.709 289.586 117.625 291.639 117.625H293.142V121.144H291.346C286.947 121.144 285.371 119.641 285.371 115.316V106.188H283.024V102.816Z" fill="black"/>
<path d="M295.531 95.8508H299.82V99.8464H295.531V95.8508ZM295.714 102.816H299.636V121.144H295.714V102.816Z" fill="black"/>
<path d="M317.091 118.358C315.808 120.594 313.755 121.474 310.53 121.474C305.288 121.474 302.502 118.065 302.502 113.19V110.697C302.502 105.308 305.141 102.486 309.943 102.486C314.745 102.486 317.348 105.492 317.348 110.917V112.933H306.387V113.006C306.387 115.866 307.487 118.102 310.383 118.102C312.546 118.102 313.426 117.442 314.159 116.306L317.091 118.358ZM306.424 109.927H313.426C313.279 107.251 312.179 105.895 309.943 105.895C307.707 105.895 306.607 107.434 306.424 109.927Z" fill="black"/>
<path d="M320.128 102.816H323.977V104.465C324.783 103.366 326.103 102.486 328.522 102.486C332.298 102.486 335.194 104.392 335.194 109.671V121.144H331.308V110.11C331.308 106.885 329.842 105.968 327.826 105.968C325.406 105.968 324.05 107.618 324.05 110.074V121.144H320.128V102.816Z" fill="black"/>
<path d="M337.076 102.816H339.422V98.7834H343.307V102.816H347.193V106.188H343.307V114.583C343.307 116.709 343.637 117.625 345.69 117.625H347.193V121.144H345.397C340.998 121.144 339.422 119.641 339.422 115.316V106.188H337.076V102.816Z" fill="black"/>
<path d="M357.42 121.144L366.218 95.8508H370.25L379.048 121.144H374.539L372.816 115.902H363.689L361.966 121.144H357.42ZM364.862 112.237H371.607L368.234 102.009L364.862 112.237Z" fill="black"/>
<path d="M391.475 95.8508H395.361V121.144H391.475V119.861C390.485 120.888 389.092 121.474 387.076 121.474C382.201 121.474 379.781 117.992 379.781 113.19V110.697C379.781 105.418 382.641 102.486 387.076 102.486C388.982 102.486 390.449 103.036 391.475 104.099V95.8508ZM391.475 113.006V110.66C391.475 107.654 390.119 105.895 387.589 105.895C385.06 105.895 383.667 107.691 383.667 110.88V113.006C383.667 115.866 384.767 118.102 387.589 118.102C390.412 118.102 391.475 115.866 391.475 113.006Z" fill="black"/>
<path d="M415.443 102.816L408.294 121.144H404.555L397.261 102.816H401.586L406.352 115.902L411.08 102.816H415.443Z" fill="black"/>
<path d="M431.511 113.116C431.511 117.992 429.128 121.474 423.739 121.474C418.351 121.474 415.931 118.175 415.931 113.116V110.807C415.931 105.418 418.791 102.486 423.739 102.486C428.688 102.486 431.511 105.418 431.511 110.807V113.116ZM427.625 113.006V110.88C427.625 107.691 426.342 105.895 423.739 105.895C421.137 105.895 419.817 107.728 419.817 110.88V113.006C419.817 115.866 420.77 118.102 423.739 118.102C426.525 118.102 427.625 115.866 427.625 113.006Z" fill="black"/>
<path d="M448.171 118.358C446.962 120.521 444.799 121.474 441.646 121.474C436.514 121.474 433.582 118.175 433.582 113.19V110.697C433.582 105.418 436.551 102.486 441.793 102.486C444.579 102.486 446.888 103.512 448.171 105.455L445.166 107.544C444.469 106.555 443.296 105.895 441.72 105.895C438.861 105.895 437.468 107.728 437.468 110.88V113.006C437.468 115.866 438.494 118.102 441.72 118.102C443.259 118.102 444.506 117.552 445.202 116.306L448.171 118.358Z" fill="black"/>
<path d="M456.389 110.33H460.348V108.791C460.348 106.481 459.468 105.858 456.719 105.858C454.739 105.858 453.749 106.078 452.87 107.508L450.047 105.528C451.367 103.366 453.346 102.486 456.975 102.486C461.667 102.486 464.197 103.952 464.197 108.827V121.144H460.348V119.458C459.468 120.888 458.332 121.474 456.096 121.474C452.063 121.474 449.571 119.421 449.571 115.756C449.571 111.833 452.466 110.33 456.389 110.33ZM460.348 113.336H456.682C454.373 113.336 453.42 114.143 453.42 115.756C453.42 117.369 454.666 118.138 456.535 118.138C458.918 118.138 460.348 117.405 460.348 114.216V113.336Z" fill="black"/>
<path d="M481.444 118.358C480.234 120.521 478.072 121.474 474.919 121.474C469.787 121.474 466.854 118.175 466.854 113.19V110.697C466.854 105.418 469.824 102.486 475.066 102.486C477.852 102.486 480.161 103.512 481.444 105.455L478.438 107.544C477.742 106.555 476.569 105.895 474.992 105.895C472.133 105.895 470.74 107.728 470.74 110.88V113.006C470.74 115.866 471.767 118.102 474.992 118.102C476.532 118.102 477.778 117.552 478.475 116.306L481.444 118.358Z" fill="black"/>
<path d="M486.319 102.816L490.975 115.719L495.154 102.816H499.186L492.734 121.877C491.158 126.57 489.802 128.109 484.67 128.109V124.517C487.236 124.517 488.262 124.114 489.179 121.364L482.177 102.816H486.319Z" fill="black"/>
<path d="M89.7553 83.7967C89.6881 83.7967 89.5109 83.8089 89.4437 83.815C88.6494 83.9066 87.9529 84.3771 87.3542 85.2324C84.7943 89.1181 81.3485 91.0059 76.8152 91.0059C73.2839 91.0059 70.2536 90.0773 67.5471 88.1711C64.7428 86.1916 62.1829 83.6012 59.9468 80.4608C57.6618 77.2533 55.609 73.7037 53.8434 69.9219C52.0533 66.0851 50.3732 62.2544 48.8274 58.5032C48.3753 57.4951 47.9599 56.4931 47.575 55.4728C46.4203 52.6502 44.8257 50.2431 42.834 48.3063C41.777 47.2799 40.4574 46.4124 38.8872 45.722C41.3127 44.885 43.6038 43.8647 45.7421 42.6672C49.4017 40.6205 52.371 38.0057 54.5765 34.8959C56.8309 31.725 57.9734 27.9188 57.9734 23.5994C57.9734 18.4857 56.446 14.1784 53.434 10.7938C50.4954 7.4885 46.7135 5.00802 42.1925 3.41954C37.757 1.86161 33.1992 1.07348 28.6415 1.07348H2.76151C1.74122 1.07348 0.904211 1.56224 0.531529 2.38703C0.244381 3.03464 0.244381 3.7128 0.531529 4.3543C0.720925 4.77586 1.22191 5.51512 2.52935 5.7595C4.56383 6.03443 5.66354 6.99363 6.09732 8.86314C6.64718 11.2336 6.92822 14.6733 6.92822 19.0905V63.067C6.92822 67.4842 6.64718 70.9239 6.09732 73.2944C5.66354 75.1639 4.56383 76.1231 2.43771 76.4102C1.2158 76.6424 0.720925 77.3816 0.52542 77.8032C0.238271 78.4508 0.238271 79.129 0.52542 79.7705C0.898102 80.5891 1.729 81.0779 2.74929 81.0779H22.3915C23.4179 81.0779 24.2488 80.5891 24.6153 79.7644C24.9025 79.1229 24.9025 78.4447 24.6153 77.791C24.4259 77.3755 23.925 76.6363 22.6175 76.3919C20.583 76.117 19.4833 75.1578 19.0495 73.2882C18.4997 70.9177 18.2186 67.472 18.2186 63.0609V48.8684H18.6952C24.371 48.8684 28.4705 49.3816 30.8715 50.3897C33.0526 51.3061 34.7816 53.4811 36.0035 56.8353C36.0952 57.098 36.2235 57.3973 36.4006 57.7395C38.3129 62.5477 40.3718 67.4048 42.5224 72.1824C44.6974 77.0273 47.1718 81.5239 49.8661 85.544C52.6154 89.6435 55.8229 92.9976 59.3908 95.5148C63.081 98.1235 67.3516 99.4432 72.0742 99.4432C76.4548 99.4432 80.4626 98.3251 83.9878 96.1135C87.5069 93.9018 90.1341 90.9448 91.8508 87.1874C92.2296 86.1061 91.9913 85.3485 91.7225 84.9025C91.301 84.1999 90.58 83.7967 89.7491 83.7967H89.7553ZM18.2309 19.0905C18.2309 14.0746 18.4386 10.47 18.8418 8.37438C19.1656 6.67593 19.9477 6.32769 21.0168 6.32769H28.5254C33.7186 6.32769 37.9647 7.75121 41.5082 10.6838C44.9845 13.5553 46.6769 17.6059 46.6769 23.0556C46.6769 27.6561 45.4 31.499 42.8768 34.4621C40.2985 37.4925 36.8527 39.7957 32.6433 41.3048C28.3422 42.8444 23.6134 43.6264 18.5913 43.6264H18.2309V19.0905Z" fill="black"/>
<path d="M110.259 71.5043C110.192 71.4982 110.027 71.4859 109.96 71.4859C109.471 71.4859 108.731 71.6326 108.004 72.3229C106.385 73.8625 105.341 74.1864 104.748 74.1864C104.363 74.1864 103.349 74.1863 103.349 71.0949V43.828C103.349 37.1564 101.418 31.7922 97.606 27.8883C93.7631 23.9537 88.2767 21.962 81.2935 21.962C76.5831 21.962 72.4103 22.854 68.879 24.6074C65.0116 26.5319 63.0505 29.0796 63.0505 32.171C63.0505 34.4866 64.2357 36.3377 66.4718 37.5169C68.433 38.5555 70.9318 39.087 73.8949 39.087C75.9477 39.087 76.3693 37.969 76.4609 37.4741C76.5892 36.7226 76.2837 36.0078 75.6422 35.5252C74.0049 33.9245 73.8216 32.3299 75.0435 30.3687C76.3631 28.2487 78.6359 27.2162 81.9839 27.2162C85.3319 27.2162 87.8796 28.6519 89.4498 31.5967C91.1727 34.847 92.0524 38.9587 92.0524 43.828V45.9236C90.9588 44.7934 89.7369 43.7792 88.3867 42.8994C85.5458 41.0421 82.2283 40.1012 78.5259 40.1012C73.1617 40.1012 68.3719 42.1846 64.3029 46.2963C60.2584 50.3836 58.2056 55.6195 58.2056 61.8573C58.2056 68.0951 60.124 72.83 63.9119 76.5507C67.712 80.2898 72.2392 82.1837 77.3712 82.1837C81.318 82.1837 84.8798 81.1085 87.959 78.9762C89.6392 77.8154 91.1238 76.5263 92.4129 75.1211C92.7489 76.8196 93.3293 78.1881 94.1602 79.2512C95.6449 81.1696 97.7526 82.1776 100.245 82.1776C104.388 82.1776 108.243 79.8988 111.786 75.28C112.354 74.3819 112.324 73.6182 112.196 73.1294C111.957 72.2252 111.236 71.6142 110.259 71.492V71.5043ZM69.5021 61.8573C69.5021 57.4462 70.5652 53.8049 72.6608 51.0434C74.6708 48.398 77.2674 47.115 80.6032 47.115C82.7965 47.115 85.0387 47.8542 87.2565 49.3144C89.3887 50.7196 91.0016 53.2367 92.0524 56.7864V63.5069C92.0524 66.6044 90.8061 69.1826 88.2462 71.3882C85.6374 73.6365 82.7598 74.7301 79.4485 74.7301C76.3998 74.7301 74.0598 73.667 72.2881 71.4737C70.4369 69.1949 69.5021 65.9568 69.5021 61.8512V61.8573Z" fill="black"/>
<path d="M217.396 79.7766C217.029 80.6014 216.211 81.0901 215.184 81.0901H195.542C194.516 81.0901 193.679 80.6014 193.312 79.7766C193.025 79.1351 193.025 78.4508 193.312 77.8093C193.507 77.3816 194.002 76.6485 195.224 76.4224C197.344 76.1353 198.45 75.17 198.884 73.3066C199.428 70.9239 199.721 67.4903 199.721 63.0731V42.7344C199.721 39.2092 199.14 36.4416 198.022 34.5171C196.917 32.6415 195.566 31.3096 194.027 30.5765C192.408 29.8005 190.74 29.4156 189.084 29.4156C186.695 29.4156 184.349 30.1182 182.058 31.5234C181.527 31.8411 181.001 32.1955 180.488 32.5926C179.352 33.4602 178.276 34.5477 177.281 35.8307C177.262 35.849 177.25 35.8612 177.25 35.8795C175.808 37.7429 174.507 40.0157 173.364 42.7039V63.0731C173.364 67.4842 173.639 70.9239 174.183 73.3066C174.617 75.17 175.723 76.1292 177.763 76.4041C179.065 76.6485 179.578 77.3816 179.755 77.8093C180.042 78.4508 180.042 79.1351 179.755 79.7766C179.388 80.6014 178.57 81.0901 177.543 81.0901H157.901C156.875 81.0901 156.038 80.6014 155.671 79.7766C155.384 79.1351 155.384 78.4508 155.671 77.8093C155.86 77.3816 156.361 76.6485 157.583 76.4224C159.703 76.1353 160.809 75.17 161.243 73.3066C161.787 70.9239 162.08 67.4903 162.08 63.0731V60.2505C155.806 71.156 146.58 82.1898 133.438 82.1898C128.85 82.1898 124.5 80.9557 120.535 78.5119C116.57 76.0864 113.344 72.6162 110.955 68.2173C108.548 63.8368 107.345 58.6315 107.345 52.7358C107.345 44.3351 109.813 37.0526 114.694 31.0835C119.637 25.0351 126.119 21.9681 133.964 21.9681C138.552 21.9681 142.707 23.0556 146.317 25.1878C150.203 27.4789 152.176 30.5459 152.176 34.2605C152.176 36.6554 151.339 38.751 149.708 40.5045C148.059 42.2579 145.951 43.1621 143.452 43.1621C142.426 43.1621 141.735 42.7955 141.399 42.0807C141.24 41.7447 141.075 41.1521 141.332 40.3884C142.554 36.2644 142.151 33.1974 140.098 30.998C137.898 28.6764 135.204 27.5461 131.868 27.5461C127.408 27.5461 123.877 29.4706 121.103 33.4235C118.25 37.4558 116.802 42.6306 116.802 48.7829C116.802 56.3587 118.824 62.6149 122.802 67.3987C126.797 72.1946 131.355 74.5163 136.713 74.5163C143.69 74.5163 149.213 69.4942 153.692 63.4152C156.966 58.9553 159.691 53.9332 162.007 49.9009C162.037 49.8582 162.056 49.8093 162.086 49.7665V19.0966C162.086 14.6855 161.799 11.2459 161.249 8.86314C160.815 6.99974 159.709 6.04054 157.669 5.76561C156.368 5.52123 155.873 4.77586 155.677 4.36041C155.39 3.71891 155.39 3.03464 155.677 2.39314C156.044 1.56835 156.881 1.07959 157.907 1.07959H171.77C172.65 1.07959 173.377 1.76386 173.377 2.60698V31.8778C175.112 29.6356 177.085 27.6928 179.266 26.0737C182.975 23.355 187.319 21.9681 192.218 21.9681C197.399 21.9681 201.878 23.6788 205.519 27.0696C209.178 30.4726 211.042 35.7451 211.042 42.7344V63.0731C211.042 67.4842 211.317 70.9239 211.861 73.3066C212.294 75.17 213.4 76.1292 215.441 76.4041C216.742 76.6485 217.255 77.3816 217.432 77.8093C217.738 78.4508 217.738 79.1351 217.432 79.7766H217.396Z" fill="black"/>
<path d="M182.046 31.5234C180.378 32.6659 178.79 34.1322 177.262 35.8307C178.258 34.5477 179.333 33.4663 180.47 32.5926C180.983 32.1955 181.514 31.8472 182.04 31.5234H182.046Z" fill="black"/>
<path d="M267.085 64.069C266.571 64.069 265.796 64.2217 265.026 64.9548C264.971 65.0098 264.916 65.0648 264.867 65.132C262.832 67.7591 260.328 70.0196 257.419 71.8586C254.621 73.6243 251.304 74.5163 247.559 74.5163C242.537 74.5163 238.193 72.8361 234.264 69.372C230.599 66.1401 228.045 61.8023 226.652 56.4565L258.66 42.2823C266.565 39.3192 266.101 34.6271 265.093 32.0183C263.883 29.2996 261.439 26.9107 257.835 24.919C254.285 22.9579 249.935 21.962 244.901 21.962C239.06 21.962 233.843 23.3794 229.401 26.1715C224.984 28.9452 221.501 32.7148 219.033 37.3703C216.583 41.9952 215.337 47.17 215.337 52.7358C215.337 58.6192 216.669 63.8307 219.302 68.2234C221.935 72.6162 225.473 76.0742 229.816 78.5119C234.166 80.9496 238.932 82.1898 243.972 82.1898C249.349 82.1898 254.224 80.8702 258.476 78.2614C262.637 75.7076 266.248 72.3718 269.192 68.3579C270.311 66.8732 269.693 65.7063 269.376 65.2725C268.808 64.4966 267.989 64.0751 267.079 64.0751L267.085 64.069ZM241.901 27.6561C244.809 27.6561 247.449 28.5114 249.96 30.271C252.208 31.8472 254.31 34.3155 256.222 37.6208L225.809 51.1045C225.748 50.3225 225.717 49.5466 225.717 48.7707C225.717 42.6122 227.281 37.4558 230.372 33.4602C233.391 29.55 237.16 27.65 241.901 27.65V27.6561Z" fill="black"/>
<path d="M291.364 71.5043C291.297 71.4982 291.132 71.4859 291.065 71.4859C290.57 71.4859 289.837 71.6326 289.11 72.3229C287.491 73.8625 286.446 74.1864 285.853 74.1864C285.505 74.1864 284.454 74.1863 284.454 70.9849V2.60087C284.454 1.75775 283.733 1.07348 282.847 1.07348H268.985C267.958 1.07348 267.127 1.56224 266.761 2.38703C266.468 3.03464 266.468 3.71891 266.761 4.3543C266.95 4.77586 267.451 5.52123 268.759 5.76561C270.793 6.04054 271.899 6.99974 272.333 8.86925C272.883 11.2459 273.164 14.6855 273.164 19.0966V70.9911C273.164 74.7362 273.854 77.4427 275.265 79.2634C276.75 81.1818 278.858 82.1898 281.35 82.1898C285.493 82.1898 289.348 79.911 292.891 75.2922C293.46 74.3941 293.429 73.6365 293.301 73.1416C293.062 72.2374 292.342 71.6265 291.364 71.5043Z" fill="black"/>
<path d="M444.872 62.847C444.359 62.847 443.583 62.9998 442.813 63.7329C442.758 63.7879 442.703 63.8429 442.655 63.904C440.62 66.5311 438.115 68.7977 435.207 70.6306C432.409 72.3963 429.091 73.2882 425.346 73.2882C420.324 73.2882 415.98 71.6081 412.052 68.144C408.386 64.9121 405.832 60.5743 404.439 55.2284L436.447 41.0543C444.353 38.0912 443.889 33.3991 442.881 30.7903C441.665 28.0715 439.227 25.6827 435.622 23.691C432.073 21.7298 427.723 20.734 422.682 20.734C416.842 20.734 411.624 22.1514 407.183 24.9435C402.765 27.7172 399.277 31.4868 396.815 36.1422C394.365 40.7672 393.118 45.9419 393.118 51.5077C393.118 51.8743 393.137 52.2226 393.149 52.583C380.032 54.2143 366.676 54.1654 353.577 52.3936C353.602 39.2825 353.62 26.1715 353.645 13.0604C353.645 10.6532 353.797 7.92228 355.71 6.34601C357.115 5.1852 359.516 4.46428 359.394 2.69862C359.278 1.01239 356.95 0.499184 355.172 0.462527C350.162 0.346445 345.152 0.236474 340.143 0.212036C337.198 0.199816 334.216 0.218145 331.375 0.94518C324.753 2.63141 319.7 8.02003 317.067 14.044C313.291 22.6707 313.945 32.9408 318.796 41.0726C323.641 49.1983 332.573 55.0024 342.293 56.3404C342.428 60.892 342.293 65.4497 341.884 69.9891C341.713 71.8953 341.316 74.0764 339.58 75.0417C338.249 75.7809 336.245 75.7504 335.646 77.1006C335.212 78.0781 335.921 79.2451 336.904 79.746C337.888 80.247 339.061 80.2592 340.179 80.2592C351.702 80.247 363.218 80.2409 374.741 80.2287C377.545 80.2287 380.343 80.2287 383.148 80.2226C384.993 80.2226 389.44 81.029 391.004 80.0454C392.569 79.0557 392.489 75.5549 392.807 73.9236C393.344 71.1438 393.888 68.3701 394.432 65.5902C394.621 64.6127 394.811 63.5863 394.524 62.6271C394.236 61.6679 393.314 60.8003 392.269 60.892C391.224 60.9836 390.522 61.9245 390.015 62.7982C387.937 66.4089 386.526 70.7039 382.873 72.9033C380.692 74.2169 378.04 74.559 375.468 74.7545C369.609 75.2005 363.725 75.0417 357.854 74.889C356.864 74.8645 355.771 74.7973 355.068 74.1314C354.451 73.551 354.304 72.6651 354.201 71.8464C353.62 67.1604 353.406 62.4316 353.565 57.715C353.639 57.715 353.712 57.715 353.785 57.7211C367.073 58.2404 380.527 59.3952 393.601 57.3973C394.206 60.9164 395.354 64.1362 397.071 66.9954C399.704 71.3882 403.242 74.8523 407.586 77.2839C411.936 79.7216 416.701 80.9618 421.742 80.9618C427.118 80.9618 431.993 79.6422 436.246 77.0334C440.406 74.4796 444.017 71.1438 446.962 67.1298C448.074 65.6452 447.463 64.4844 447.139 64.0445C446.565 63.2747 445.752 62.847 444.848 62.847H444.872ZM342.299 50.854C339.171 50.0292 336.251 48.8256 333.685 47.0356C326.531 42.0563 321.46 33.9489 321.777 25.5178C322.064 17.7464 327.826 9.89566 335.896 8.75317C337.772 8.49657 339.684 8.58822 341.56 8.47824C342.043 10.8121 342.299 14.099 342.299 18.2352V50.854ZM408.154 32.2444C411.172 28.3343 414.942 26.4342 419.683 26.4342C422.591 26.4342 425.23 27.2895 427.741 29.0491C429.989 30.6253 432.091 33.0936 434.003 36.3988L403.59 49.8826C403.529 49.1006 403.498 48.3247 403.498 47.5488C403.498 41.3903 405.063 36.2339 408.154 32.2382V32.2444Z" fill="black"/>
<path d="M499.754 61.4846C499.131 60.7515 498.288 60.3788 497.384 60.4338C496.871 60.4643 496.107 60.672 495.392 61.4541C495.337 61.5091 495.294 61.5702 495.245 61.6374C493.4 64.3866 491.054 66.806 488.281 68.8161C485.611 70.7528 482.367 71.8586 478.628 72.0908C473.618 72.4085 469.164 71.0033 465.003 67.7958C461.124 64.8082 458.264 60.6354 456.505 55.3934L487.45 39.2276C495.129 35.7696 494.341 31.1141 493.156 28.5786C491.757 25.9454 489.154 23.7154 485.421 21.9559C481.743 20.2208 477.332 19.506 472.304 19.8237C466.476 20.1902 461.374 21.9376 457.134 25.0046C452.925 28.0532 449.705 32.0305 447.567 36.8326C445.44 41.6042 444.561 46.8401 444.952 52.3936C445.361 58.2649 447.06 63.3847 449.992 67.5942C452.925 71.8097 456.694 75.0417 461.203 77.1984C465.712 79.355 470.551 80.2898 475.585 79.9721C480.949 79.6299 485.721 78.0048 489.784 75.1394C493.761 72.3291 497.127 68.7733 499.785 64.576C500.793 63.0242 500.103 61.9001 499.748 61.4846H499.754ZM455.032 47.7931C454.605 41.6469 455.802 36.405 458.607 32.2199C461.344 28.1265 464.979 25.9943 469.708 25.6949C472.61 25.5116 475.298 26.1959 477.931 27.7966C480.283 29.2262 482.55 31.554 484.688 34.737L455.283 50.1148C455.167 49.3389 455.081 48.5629 455.026 47.7931H455.032Z" fill="black"/>
</svg>
