<svg width="145" height="38" viewBox="0 0 145 38" fill="none" xmlns="http://www.w3.org/2000/svg">
<path d="M73.0557 32.9108V35.5713H71.8311V28.2867H74.3121C75.9907 28.2867 76.9936 29.0891 76.9936 30.5882C76.9936 32.0874 76.0012 32.9108 74.3121 32.9108H73.0557ZM74.1854 31.8551C75.3044 31.8551 75.769 31.4223 75.769 30.5882C75.769 29.7542 75.3044 29.353 74.1854 29.353H73.0557V31.8551H74.1854Z" fill="black"/>
<path d="M79.4517 32.4569H80.5919V32.0135C80.5919 31.3484 80.3385 31.1689 79.5467 31.1689C78.9766 31.1689 78.6916 31.2322 78.4382 31.644L77.6253 31.0739C78.0053 30.451 78.5754 30.1976 79.6206 30.1976C80.9719 30.1976 81.7004 30.6199 81.7004 32.024V35.5713H80.5919V35.0856C80.3385 35.4974 80.0112 35.6663 79.3672 35.6663C78.2059 35.6663 77.488 35.0751 77.488 34.0194C77.488 32.8897 78.3221 32.4569 79.4517 32.4569ZM80.5919 33.3226H79.5361C78.871 33.3226 78.5966 33.5548 78.5966 34.0194C78.5966 34.4839 78.9555 34.7056 79.4939 34.7056C80.1801 34.7056 80.5919 34.4944 80.5919 33.576V33.3226Z" fill="black"/>
<path d="M82.267 30.2926H82.9426V29.1313H84.0617V30.2926H85.1808V31.2639H84.0617V33.6815C84.0617 34.2938 84.1567 34.5578 84.7479 34.5578H85.1808V35.5713H84.6635C83.3966 35.5713 82.9426 35.1384 82.9426 33.8927V31.2639H82.267V30.2926Z" fill="black"/>
<path d="M85.8688 28.2867H87.104V29.4375H85.8688V28.2867ZM85.9215 30.2926H87.0512V35.5713H85.9215V30.2926Z" fill="black"/>
<path d="M92.0782 34.7689C91.7087 35.4129 91.1175 35.6663 90.1885 35.6663C88.6788 35.6663 87.8764 34.6845 87.8764 33.2803V32.5624C87.8764 31.0105 88.6365 30.1976 90.0195 30.1976C91.4025 30.1976 92.1521 31.0633 92.1521 32.6258V33.2064H88.9955V33.2276C88.9955 34.051 89.3122 34.695 90.1462 34.695C90.7691 34.695 91.0225 34.505 91.2336 34.1777L92.0782 34.7689ZM89.006 32.3407H91.0225C90.9802 31.5701 90.6635 31.1794 90.0195 31.1794C89.3755 31.1794 89.0588 31.6229 89.006 32.3407Z" fill="black"/>
<path d="M92.9527 30.2926H94.0612V30.7677C94.2935 30.451 94.6735 30.1976 95.3703 30.1976C96.4577 30.1976 97.2917 30.7466 97.2917 32.2668V35.5713H96.1727V32.3935C96.1727 31.4645 95.7504 31.2006 95.1697 31.2006C94.473 31.2006 94.0823 31.6756 94.0823 32.383V35.5713H92.9527V30.2926Z" fill="black"/>
<path d="M97.8337 30.2926H98.5094V29.1313H99.6284V30.2926H100.748V31.2639H99.6284V33.6815C99.6284 34.2938 99.7234 34.5578 100.315 34.5578H100.748V35.5713H100.23C98.9633 35.5713 98.5094 35.1384 98.5094 33.8927V31.2639H97.8337V30.2926Z" fill="black"/>
<path d="M103.693 35.5713L106.227 28.2867H107.388L109.922 35.5713H108.623L108.127 34.0616H105.498L105.002 35.5713H103.693ZM105.836 33.0059H107.779L106.807 30.0604L105.836 33.0059Z" fill="black"/>
<path d="M113.501 28.2867H114.62V35.5713H113.501V35.2018C113.216 35.4974 112.814 35.6663 112.234 35.6663C110.83 35.6663 110.133 34.6634 110.133 33.2803V32.5624C110.133 31.0422 110.956 30.1976 112.234 30.1976C112.783 30.1976 113.205 30.356 113.501 30.6621V28.2867ZM113.501 33.2276V32.5519C113.501 31.6862 113.11 31.1794 112.382 31.1794C111.653 31.1794 111.252 31.6968 111.252 32.6152V33.2276C111.252 34.051 111.569 34.695 112.382 34.695C113.195 34.695 113.501 34.051 113.501 33.2276Z" fill="black"/>
<path d="M120.403 30.2926L118.345 35.5713H117.268L115.167 30.2926H116.413L117.785 34.0616L119.147 30.2926H120.403Z" fill="black"/>
<path d="M125.031 33.2592C125.031 34.6634 124.345 35.6663 122.793 35.6663C121.241 35.6663 120.544 34.7161 120.544 33.2592V32.5941C120.544 31.0422 121.368 30.1976 122.793 30.1976C124.218 30.1976 125.031 31.0422 125.031 32.5941V33.2592ZM123.912 33.2276V32.6152C123.912 31.6968 123.542 31.1794 122.793 31.1794C122.043 31.1794 121.663 31.7073 121.663 32.6152V33.2276C121.663 34.051 121.938 34.695 122.793 34.695C123.595 34.695 123.912 34.051 123.912 33.2276Z" fill="black"/>
<path d="M129.829 34.7689C129.481 35.3918 128.858 35.6663 127.95 35.6663C126.472 35.6663 125.627 34.7161 125.627 33.2803V32.5624C125.627 31.0422 126.483 30.1976 127.992 30.1976C128.795 30.1976 129.46 30.4932 129.829 31.0528L128.964 31.6545C128.763 31.3695 128.425 31.1794 127.971 31.1794C127.148 31.1794 126.747 31.7073 126.747 32.6152V33.2276C126.747 34.051 127.042 34.695 127.971 34.695C128.415 34.695 128.774 34.5367 128.974 34.1777L129.829 34.7689Z" fill="black"/>
<path d="M132.196 32.4569H133.336V32.0135C133.336 31.3484 133.083 31.1689 132.291 31.1689C131.721 31.1689 131.436 31.2322 131.182 31.644L130.369 31.0739C130.75 30.451 131.32 30.1976 132.365 30.1976C133.716 30.1976 134.445 30.6199 134.445 32.024V35.5713H133.336V35.0856C133.083 35.4974 132.755 35.6663 132.111 35.6663C130.95 35.6663 130.232 35.0751 130.232 34.0194C130.232 32.8897 131.066 32.4569 132.196 32.4569ZM133.336 33.3226H132.28C131.615 33.3226 131.341 33.5548 131.341 34.0194C131.341 34.4839 131.7 34.7056 132.238 34.7056C132.924 34.7056 133.336 34.4944 133.336 33.576V33.3226Z" fill="black"/>
<path d="M139.412 34.7689C139.063 35.3918 138.441 35.6663 137.533 35.6663C136.055 35.6663 135.21 34.7161 135.21 33.2803V32.5624C135.21 31.0422 136.065 30.1976 137.575 30.1976C138.377 30.1976 139.042 30.4932 139.412 31.0528L138.546 31.6545C138.346 31.3695 138.008 31.1794 137.554 31.1794C136.73 31.1794 136.329 31.7073 136.329 32.6152V33.2276C136.329 34.051 136.625 34.695 137.554 34.695C137.997 34.695 138.356 34.5367 138.557 34.1777L139.412 34.7689Z" fill="black"/>
<path d="M140.816 30.2926L142.157 34.0088L143.36 30.2926H144.522L142.663 35.7824C142.209 37.1338 141.819 37.5772 140.341 37.5772V36.5425C141.08 36.5425 141.375 36.4264 141.639 35.6346L139.623 30.2926H140.816Z" fill="black"/>
<path d="M26.6054 24.8152C26.5861 24.8152 26.5351 24.8187 26.5157 24.8204C26.287 24.8468 26.0864 24.9823 25.9139 25.2287C25.1767 26.3477 24.1843 26.8914 22.8787 26.8914C21.8617 26.8914 20.989 26.624 20.2095 26.075C19.4018 25.5049 18.6646 24.7589 18.0206 23.8544C17.3625 22.9307 16.7713 21.9084 16.2628 20.8192C15.7473 19.7142 15.2634 18.611 14.8182 17.5306C14.688 17.2403 14.5684 16.9517 14.4575 16.6579C14.125 15.845 13.6657 15.1517 13.0921 14.5939C12.7877 14.2983 12.4076 14.0485 11.9554 13.8497C12.654 13.6086 13.3138 13.3148 13.9297 12.9699C14.9836 12.3804 15.8388 11.6273 16.474 10.7317C17.1232 9.81853 17.4523 8.72233 17.4523 7.47833C17.4523 6.00559 17.0124 4.76511 16.1449 3.79032C15.2986 2.83841 14.2094 2.12403 12.9074 1.66655C11.6299 1.21786 10.3173 0.990881 9.00468 0.990881H1.55123C1.25739 0.990881 1.01633 1.13165 0.908998 1.36918C0.8263 1.5557 0.8263 1.75101 0.908998 1.93576C0.963544 2.05717 1.10783 2.27007 1.48437 2.34045C2.0703 2.41963 2.38702 2.69588 2.51195 3.2343C2.67031 3.91701 2.75124 4.90763 2.75124 6.17979V18.845C2.75124 20.1172 2.67031 21.1078 2.51195 21.7905C2.38702 22.3289 2.0703 22.6052 1.45798 22.6879C1.10607 22.7547 0.963544 22.9676 0.907239 23.089C0.82454 23.2756 0.82454 23.4709 0.907239 23.6556C1.01457 23.8914 1.25387 24.0322 1.54771 24.0322H7.20466C7.50026 24.0322 7.73956 23.8914 7.84514 23.6539C7.92783 23.4691 7.92783 23.2738 7.84514 23.0855C7.79059 22.9659 7.64631 22.753 7.26976 22.6826C6.68383 22.6034 6.36712 22.3272 6.24219 21.7887C6.08383 21.106 6.00289 20.1136 6.00289 18.8433V14.7558H6.14013C7.77475 14.7558 8.95541 14.9036 9.64691 15.194C10.2751 15.4579 10.773 16.0843 11.1249 17.0503C11.1513 17.1259 11.1883 17.2122 11.2393 17.3107C11.79 18.6955 12.383 20.0943 13.0024 21.4703C13.6288 22.8656 14.3414 24.1606 15.1173 25.3184C15.9091 26.499 16.8329 27.465 17.8605 28.19C18.9232 28.9413 20.1532 29.3214 21.5133 29.3214C22.7749 29.3214 23.9292 28.9994 24.9444 28.3624C25.9579 27.7255 26.7145 26.8738 27.209 25.7917C27.3181 25.4803 27.2494 25.2621 27.172 25.1336C27.0506 24.9313 26.843 24.8152 26.6037 24.8152H26.6054ZM6.00641 6.17979C6.00641 4.7352 6.06623 3.69707 6.18236 3.09354C6.27562 2.60439 6.50084 2.50409 6.80876 2.50409H8.97125C10.4669 2.50409 11.6897 2.91407 12.7103 3.75865C13.7115 4.58564 14.1989 5.75222 14.1989 7.32173C14.1989 8.64667 13.8311 9.75343 13.1044 10.6068C12.3619 11.4795 11.3695 12.1429 10.1572 12.5775C8.91846 13.0209 7.55657 13.2461 6.11022 13.2461H6.00641V6.17979Z" fill="black"/>
<path d="M32.5105 21.2749C32.4911 21.2732 32.4436 21.2697 32.4243 21.2697C32.2835 21.2697 32.0706 21.3119 31.8612 21.5107C31.3949 21.9541 31.094 22.0474 30.9234 22.0474C30.8125 22.0474 30.5204 22.0474 30.5204 21.1571V13.3042C30.5204 11.3828 29.9644 9.83789 28.8665 8.71354C27.7597 7.58039 26.1796 7.00678 24.1685 7.00678C22.8118 7.00678 21.6101 7.26367 20.5931 7.76866C19.4793 8.32292 18.9144 9.05665 18.9144 9.94698C18.9144 10.6138 19.2558 11.147 19.8998 11.4866C20.4646 11.7857 21.1843 11.9388 22.0376 11.9388C22.6289 11.9388 22.7503 11.6168 22.7767 11.4743C22.8136 11.2578 22.7256 11.052 22.5409 10.913C22.0693 10.452 22.0165 9.99273 22.3684 9.42791C22.7485 8.81735 23.4031 8.51999 24.3673 8.51999C25.3315 8.51999 26.0653 8.93348 26.5175 9.78158C27.0136 10.7177 27.267 11.9018 27.267 13.3042V13.9077C26.9521 13.5822 26.6002 13.2901 26.2113 13.0367C25.3931 12.5018 24.4377 12.2309 23.3714 12.2309C21.8265 12.2309 20.447 12.8309 19.2752 14.0151C18.1103 15.1922 17.5191 16.7001 17.5191 18.4966C17.5191 20.2931 18.0716 21.6568 19.1625 22.7283C20.257 23.8052 21.5608 24.3506 23.0388 24.3506C24.1755 24.3506 25.2013 24.041 26.0881 23.4269C26.572 23.0926 26.9996 22.7213 27.3708 22.3166C27.4676 22.8058 27.6348 23.1999 27.8741 23.5061C28.3016 24.0586 28.9087 24.3489 29.6266 24.3489C30.8195 24.3489 31.9298 23.6926 32.9504 22.3624C33.114 22.1037 33.1052 21.8838 33.0683 21.743C32.9996 21.4826 32.792 21.3066 32.5105 21.2714V21.2749ZM20.7725 18.4966C20.7725 17.2262 21.0787 16.1775 21.6822 15.3822C22.2611 14.6203 23.0089 14.2508 23.9696 14.2508C24.6013 14.2508 25.2471 14.4637 25.8858 14.8843C26.4999 15.289 26.9644 16.0139 27.267 17.0362V18.9717C27.267 19.8638 26.9081 20.6063 26.1708 21.2415C25.4195 21.889 24.5908 22.204 23.6371 22.204C22.7591 22.204 22.0852 21.8978 21.5749 21.2662C21.0417 20.6098 20.7725 19.6773 20.7725 18.4949V18.4966Z" fill="black"/>
<path d="M63.3659 23.6574C63.2603 23.8949 63.0246 24.0357 62.729 24.0357H57.072C56.7764 24.0357 56.5353 23.8949 56.4298 23.6574C56.3471 23.4726 56.3471 23.2756 56.4298 23.0908C56.4861 22.9676 56.6286 22.7565 56.9805 22.6914C57.5911 22.6087 57.9096 22.3307 58.0345 21.794C58.1911 21.1078 58.2755 20.1189 58.2755 18.8468V12.9892C58.2755 11.974 58.1084 11.1769 57.7864 10.6226C57.4679 10.0825 57.079 9.69888 56.6356 9.48774C56.1694 9.26428 55.689 9.15342 55.2122 9.15342C54.5242 9.15342 53.8485 9.35577 53.1887 9.76047C53.0356 9.85196 52.8843 9.95402 52.7365 10.0684C52.4092 10.3182 52.0995 10.6314 51.8127 11.0009C51.8074 11.0062 51.8039 11.0097 51.8039 11.015C51.3887 11.5517 51.0139 12.2062 50.6848 12.9804V18.8468C50.6848 20.1172 50.764 21.1078 50.9206 21.794C51.0456 22.3307 51.364 22.6069 51.9517 22.6861C52.3265 22.7565 52.4743 22.9676 52.5253 23.0908C52.608 23.2756 52.608 23.4726 52.5253 23.6574C52.4198 23.8949 52.184 24.0357 51.8884 24.0357H46.2314C45.9358 24.0357 45.6948 23.8949 45.5892 23.6574C45.5065 23.4726 45.5065 23.2756 45.5892 23.0908C45.6437 22.9676 45.788 22.7565 46.1399 22.6914C46.7505 22.6087 47.069 22.3307 47.1939 21.794C47.3505 21.1078 47.435 20.1189 47.435 18.8468V18.0339C45.6279 21.1747 42.971 24.3524 39.1862 24.3524C37.8648 24.3524 36.612 23.997 35.47 23.2932C34.3281 22.5946 33.399 21.5952 32.7111 20.3283C32.0178 19.0667 31.6712 17.5676 31.6712 15.8696C31.6712 13.4502 32.382 11.3529 33.7879 9.63378C35.2114 7.89183 37.0783 7.00854 39.3375 7.00854C40.6589 7.00854 41.8554 7.32174 42.8953 7.93582C44.0144 8.59565 44.5827 9.47894 44.5827 10.5487C44.5827 11.2385 44.3417 11.842 43.8719 12.347C43.3968 12.852 42.7898 13.1124 42.0701 13.1124C41.7745 13.1124 41.5757 13.0068 41.4789 12.801C41.4331 12.7042 41.3856 12.5335 41.4595 12.3136C41.8114 11.1259 41.6953 10.2426 41.1041 9.60915C40.4707 8.94052 39.6947 8.615 38.734 8.615C37.4495 8.615 36.4325 9.16926 35.6337 10.3077C34.812 11.469 34.395 12.9593 34.395 14.7312C34.395 16.913 34.9774 18.7148 36.1228 20.0925C37.2736 21.4738 38.5862 22.1424 40.1293 22.1424C42.1387 22.1424 43.7294 20.6961 45.0191 18.9453C45.9622 17.6608 46.747 16.2145 47.4138 15.0532C47.4226 15.0409 47.4279 15.0268 47.4367 15.0145V6.18155C47.4367 4.91115 47.354 3.92053 47.1957 3.2343C47.0707 2.69764 46.7523 2.42139 46.1646 2.34221C45.7898 2.27183 45.6473 2.05717 45.591 1.93752C45.5083 1.75277 45.5083 1.5557 45.591 1.37094C45.6965 1.1334 45.9376 0.992641 46.2332 0.992641H50.2256C50.479 0.992641 50.6884 1.18971 50.6884 1.43253V9.86252C51.1881 9.21677 51.7564 8.65723 52.3846 8.19095C53.4526 7.40795 54.7037 7.00854 56.1148 7.00854C57.6069 7.00854 58.8967 7.50121 59.9453 8.47776C60.9993 9.45783 61.536 10.9763 61.536 12.9892V18.8468C61.536 20.1172 61.6152 21.1078 61.7718 21.794C61.8967 22.3307 62.2152 22.6069 62.8028 22.6861C63.1776 22.7565 63.3254 22.9676 63.3765 23.0908C63.4644 23.2756 63.4644 23.4726 63.3765 23.6574H63.3659Z" fill="black"/>
<path d="M53.1852 9.76047C52.7048 10.0895 52.2473 10.5118 51.8074 11.0009C52.0942 10.6314 52.4039 10.32 52.7312 10.0684C52.879 9.95402 53.0321 9.85372 53.1834 9.76047H53.1852Z" fill="black"/>
<path d="M77.6763 19.1336C77.5285 19.1336 77.305 19.1776 77.0833 19.3887C77.0675 19.4046 77.0517 19.4204 77.0376 19.4397C76.4517 20.1963 75.7303 20.8474 74.8927 21.377C74.0868 21.8855 73.1314 22.1424 72.0528 22.1424C70.6064 22.1424 69.3554 21.6585 68.224 20.6609C67.1683 19.7301 66.4328 18.4808 66.0316 16.9412L75.2499 12.859C77.5267 12.0057 77.393 10.6543 77.1027 9.90299C76.7543 9.11999 76.0505 8.43201 75.0124 7.8584C73.9901 7.29358 72.7373 7.00678 71.2874 7.00678C69.6053 7.00678 68.1026 7.41499 66.8234 8.2191C65.5513 9.01794 64.5483 10.1036 63.8375 11.4444C63.1319 12.7763 62.7729 14.2667 62.7729 15.8696C62.7729 17.5641 63.1565 19.065 63.9149 20.3301C64.6732 21.5952 65.692 22.5911 66.9431 23.2932C68.1959 23.9952 69.5683 24.3524 71.0199 24.3524C72.5683 24.3524 73.9725 23.9723 75.1971 23.221C76.3954 22.4855 77.4353 21.5248 78.2834 20.3688C78.6053 19.9412 78.4276 19.6051 78.3361 19.4802C78.1725 19.2567 77.9367 19.1353 77.6746 19.1353L77.6763 19.1336ZM70.4235 8.64667C71.261 8.64667 72.0211 8.89301 72.7443 9.39976C73.3918 9.85372 73.9971 10.5646 74.5478 11.5165L65.7888 15.3998C65.7712 15.1746 65.7624 14.9511 65.7624 14.7277C65.7624 12.954 66.2129 11.469 67.1032 10.3182C67.9724 9.19213 69.058 8.64491 70.4235 8.64491V8.64667Z" fill="black"/>
<path d="M84.6688 21.2749C84.6494 21.2732 84.6019 21.2697 84.5825 21.2697C84.44 21.2697 84.2289 21.3119 84.0195 21.5107C83.5532 21.9541 83.2523 22.0474 83.0816 22.0474C82.9813 22.0474 82.6787 22.0474 82.6787 21.1254V1.43077C82.6787 1.18795 82.4711 0.990881 82.2159 0.990881H78.2235C77.9279 0.990881 77.6886 1.13165 77.5831 1.36918C77.4986 1.5557 77.4986 1.75277 77.5831 1.93576C77.6376 2.05717 77.7819 2.27183 78.1584 2.34221C78.7444 2.42139 79.0628 2.69764 79.1878 3.23606C79.3461 3.92053 79.4271 4.91115 79.4271 6.18155V21.1271C79.4271 22.2057 79.6259 22.9852 80.0323 23.5096C80.4599 24.0621 81.067 24.3524 81.7849 24.3524C82.9778 24.3524 84.0881 23.6961 85.1086 22.3659C85.2723 22.1072 85.2635 21.889 85.2265 21.7465C85.1579 21.4861 84.9503 21.3101 84.6688 21.2749Z" fill="black"/>
<path d="M128.879 18.7817C128.731 18.7817 128.508 18.8257 128.286 19.0368C128.27 19.0526 128.255 19.0685 128.24 19.0861C127.655 19.8427 126.933 20.4955 126.096 21.0233C125.29 21.5318 124.334 21.7887 123.256 21.7887C121.809 21.7887 120.558 21.3049 119.427 20.3072C118.371 19.3764 117.636 18.1271 117.234 16.5875L126.453 12.5054C128.73 11.652 128.596 10.3006 128.306 9.54932C127.955 8.76632 127.253 8.07834 126.215 7.50473C125.193 6.93991 123.94 6.65311 122.488 6.65311C120.806 6.65311 119.304 7.06132 118.025 7.86543C116.752 8.66427 115.748 9.74991 115.039 11.0907C114.333 12.4227 113.974 13.913 113.974 15.5159C113.974 15.6215 113.979 15.7218 113.983 15.8256C110.205 16.2954 106.359 16.2814 102.586 15.7711C102.593 11.9951 102.599 8.2191 102.606 4.44311C102.606 3.74985 102.65 2.96333 103.2 2.50937C103.605 2.17506 104.297 1.96743 104.261 1.45892C104.228 0.973286 103.557 0.825484 103.045 0.814926C101.603 0.781495 100.16 0.749823 98.717 0.742785C97.8689 0.739266 97.0102 0.744545 96.192 0.953931C94.2847 1.43957 92.8295 2.99149 92.0712 4.7264C90.9838 7.21088 91.172 10.1687 92.5691 12.5106C93.9644 14.8508 96.5369 16.5224 99.3363 16.9078C99.375 18.2186 99.3363 19.5312 99.2185 20.8386C99.1692 21.3876 99.0548 22.0157 98.5551 22.2937C98.1715 22.5066 97.5944 22.4978 97.422 22.8867C97.297 23.1682 97.5011 23.5043 97.7844 23.6486C98.0677 23.7929 98.4055 23.7964 98.7275 23.7964C102.046 23.7929 105.363 23.7911 108.681 23.7876C109.489 23.7876 110.295 23.7876 111.102 23.7858C111.634 23.7858 112.915 24.0181 113.365 23.7348C113.816 23.4498 113.793 22.4415 113.884 21.9717C114.039 21.1711 114.196 20.3723 114.352 19.5717C114.407 19.2902 114.461 18.9946 114.379 18.7183C114.296 18.4421 114.03 18.1922 113.729 18.2186C113.429 18.245 113.226 18.516 113.08 18.7676C112.482 19.8075 112.075 21.0444 111.023 21.6779C110.395 22.0562 109.631 22.1547 108.891 22.211C107.203 22.3395 105.509 22.2937 103.818 22.2497C103.533 22.2427 103.218 22.2233 103.016 22.0316C102.838 21.8644 102.796 21.6093 102.766 21.3735C102.599 20.0239 102.537 18.662 102.583 17.3037C102.604 17.3037 102.625 17.3036 102.646 17.3054C106.473 17.455 110.348 17.7875 114.113 17.2122C114.287 18.2257 114.618 19.1529 115.112 19.9764C115.871 21.2415 116.89 22.2392 118.141 22.9395C119.393 23.6415 120.766 23.9987 122.218 23.9987C123.766 23.9987 125.17 23.6187 126.395 22.8673C127.593 22.1318 128.633 21.1711 129.481 20.0151C129.801 19.5875 129.625 19.2532 129.532 19.1265C129.367 18.9048 129.133 18.7817 128.872 18.7817H128.879ZM99.3381 15.3277C98.4372 15.0901 97.5962 14.7435 96.8571 14.228C94.7967 12.7939 93.3363 10.459 93.4278 8.03083C93.5105 5.79269 95.1697 3.53167 97.4941 3.20263C98.0343 3.12873 98.585 3.15513 99.1252 3.12345C99.2642 3.7956 99.3381 4.74224 99.3381 5.93345V15.3277ZM118.304 9.96809C119.173 8.84198 120.259 8.29476 121.625 8.29476C122.462 8.29476 123.222 8.5411 123.945 9.04785C124.593 9.50181 125.198 10.2127 125.749 11.1646L116.99 15.0479C116.972 14.8227 116.963 14.5992 116.963 14.3758C116.963 12.6021 117.414 11.1171 118.304 9.96633V9.96809Z" fill="black"/>
<path d="M144.685 18.3893C144.506 18.1781 144.263 18.0708 144.002 18.0866C143.855 18.0954 143.635 18.1553 143.429 18.3805C143.413 18.3963 143.401 18.4139 143.387 18.4333C142.855 19.2251 142.18 19.9219 141.381 20.5007C140.612 21.0585 139.677 21.377 138.601 21.4439C137.158 21.5354 135.875 21.1307 134.677 20.2069C133.56 19.3465 132.736 18.1447 132.229 16.635L141.141 11.9793C143.353 10.9834 143.126 9.64258 142.785 8.91237C142.382 8.154 141.632 7.51177 140.557 7.00502C139.498 6.5053 138.228 6.29944 136.78 6.39093C135.101 6.49651 133.632 6.99974 132.411 7.88303C131.198 8.76104 130.271 9.90651 129.655 11.2895C129.043 12.6637 128.789 14.1717 128.902 15.7711C129.02 17.462 129.509 18.9365 130.354 20.1488C131.198 21.3629 132.284 22.2937 133.582 22.9148C134.881 23.536 136.275 23.8052 137.724 23.7137C139.269 23.6151 140.643 23.1471 141.814 22.3219C142.959 21.5125 143.929 20.4884 144.694 19.2796C144.984 18.8327 144.785 18.5089 144.683 18.3893H144.685ZM131.805 14.4461C131.682 12.676 132.027 11.1663 132.835 9.96106C133.623 8.78216 134.67 8.16808 136.032 8.08186C136.867 8.02907 137.642 8.22614 138.4 8.68714C139.077 9.09888 139.73 9.76927 140.346 10.686L131.877 15.1148C131.844 14.8913 131.819 14.6678 131.804 14.4461H131.805Z" fill="black"/>
</svg>
