<svg width="213" height="56" viewBox="0 0 213 56" fill="none" xmlns="http://www.w3.org/2000/svg">
<path d="M106.811 48.4998V52.435H105V41.66H108.67C111.153 41.66 112.636 42.8468 112.636 45.0643C112.636 47.2817 111.168 48.4998 108.67 48.4998H106.811ZM108.482 46.9382C110.138 46.9382 110.825 46.2979 110.825 45.0643C110.825 43.8306 110.138 43.2372 108.482 43.2372H106.811V46.9382H108.482Z" fill="black"/>
<path d="M116.272 47.8283H117.959V47.1724C117.959 46.1886 117.584 45.9232 116.413 45.9232C115.569 45.9232 115.148 46.0168 114.773 46.6259L113.571 45.7826C114.133 44.8613 114.976 44.4865 116.522 44.4865C118.521 44.4865 119.598 45.1111 119.598 47.188V52.435H117.959V51.7167C117.584 52.3257 117.1 52.5756 116.147 52.5756C114.429 52.5756 113.368 51.7011 113.368 50.1395C113.368 48.4686 114.601 47.8283 116.272 47.8283ZM117.959 49.1088H116.397C115.413 49.1088 115.007 49.4524 115.007 50.1395C115.007 50.8266 115.538 51.1545 116.335 51.1545C117.35 51.1545 117.959 50.8422 117.959 49.4836V49.1088Z" fill="black"/>
<path d="M120.436 44.627H121.436V42.9093H123.091V44.627H124.746V46.0637H123.091V49.6398C123.091 50.5455 123.232 50.9359 124.106 50.9359H124.746V52.435H123.981C122.107 52.435 121.436 51.7948 121.436 49.9521V46.0637H120.436V44.627Z" fill="black"/>
<path d="M125.764 41.66H127.591V43.3621H125.764V41.66ZM125.842 44.627H127.513V52.435H125.842V44.627Z" fill="black"/>
<path d="M134.949 51.2482C134.402 52.2008 133.528 52.5756 132.154 52.5756C129.92 52.5756 128.734 51.1233 128.734 49.0463V47.9845C128.734 45.6889 129.858 44.4865 131.904 44.4865C133.949 44.4865 135.058 45.767 135.058 48.0782V48.937H130.389V48.9683C130.389 50.1863 130.857 51.1389 132.091 51.1389C133.012 51.1389 133.387 50.8578 133.7 50.3737L134.949 51.2482ZM130.405 47.6565H133.387C133.325 46.5166 132.856 45.9388 131.904 45.9388C130.951 45.9388 130.483 46.5946 130.405 47.6565Z" fill="black"/>
<path d="M136.242 44.627H137.882V45.3297C138.226 44.8613 138.788 44.4865 139.818 44.4865C141.427 44.4865 142.66 45.2985 142.66 47.5472V52.435H141.005V47.7346C141.005 46.3604 140.381 45.97 139.522 45.97C138.491 45.97 137.913 46.6727 137.913 47.719V52.435H136.242V44.627Z" fill="black"/>
<path d="M143.462 44.627H144.462V42.9093H146.117V44.627H147.772V46.0637H146.117V49.6398C146.117 50.5455 146.257 50.9359 147.132 50.9359H147.772V52.435H147.007C145.133 52.435 144.462 51.7948 144.462 49.9521V46.0637H143.462V44.627Z" fill="black"/>
<path d="M152.129 52.435L155.877 41.66H157.595L161.342 52.435H159.422L158.688 50.2019H154.799L154.065 52.435H152.129ZM155.299 48.6403H158.172L156.736 44.2835L155.299 48.6403Z" fill="black"/>
<path d="M166.636 41.66H168.292V52.435H166.636V51.8885C166.215 52.3257 165.621 52.5756 164.762 52.5756C162.685 52.5756 161.655 51.092 161.655 49.0463V47.9845C161.655 45.7358 162.873 44.4865 164.762 44.4865C165.574 44.4865 166.199 44.7207 166.636 45.1736V41.66ZM166.636 48.9683V47.9688C166.636 46.6883 166.058 45.9388 164.981 45.9388C163.903 45.9388 163.31 46.704 163.31 48.0625V48.9683C163.31 50.1863 163.779 51.1389 164.981 51.1389C166.183 51.1389 166.636 50.1863 166.636 48.9683Z" fill="black"/>
<path d="M176.846 44.627L173.801 52.435H172.209L169.101 44.627H170.944L172.974 50.2019L174.988 44.627H176.846Z" fill="black"/>
<path d="M183.691 49.0151C183.691 51.092 182.676 52.5756 180.381 52.5756C178.085 52.5756 177.055 51.1701 177.055 49.0151V48.0313C177.055 45.7358 178.273 44.4865 180.381 44.4865C182.489 44.4865 183.691 45.7358 183.691 48.0313V49.0151ZM182.036 48.9683V48.0625C182.036 46.704 181.49 45.9388 180.381 45.9388C179.272 45.9388 178.71 46.7196 178.71 48.0625V48.9683C178.71 50.1863 179.116 51.1389 180.381 51.1389C181.568 51.1389 182.036 50.1863 182.036 48.9683Z" fill="black"/>
<path d="M190.789 51.2482C190.274 52.1695 189.352 52.5756 188.009 52.5756C185.823 52.5756 184.574 51.1701 184.574 49.0463V47.9845C184.574 45.7358 185.839 44.4865 188.072 44.4865C189.259 44.4865 190.242 44.9237 190.789 45.7514L189.508 46.6415C189.212 46.2199 188.712 45.9388 188.041 45.9388C186.822 45.9388 186.229 46.7196 186.229 48.0625V48.9683C186.229 50.1863 186.666 51.1389 188.041 51.1389C188.696 51.1389 189.227 50.9047 189.524 50.3737L190.789 51.2482Z" fill="black"/>
<path d="M194.29 47.8283H195.976V47.1724C195.976 46.1886 195.601 45.9232 194.43 45.9232C193.587 45.9232 193.165 46.0168 192.79 46.6259L191.588 45.7826C192.15 44.8613 192.993 44.4865 194.539 44.4865C196.538 44.4865 197.616 45.1111 197.616 47.188V52.435H195.976V51.7167C195.601 52.3257 195.117 52.5756 194.165 52.5756C192.447 52.5756 191.385 51.7011 191.385 50.1395C191.385 48.4686 192.619 47.8283 194.29 47.8283ZM195.976 49.1088H194.414C193.431 49.1088 193.025 49.4524 193.025 50.1395C193.025 50.8266 193.556 51.1545 194.352 51.1545C195.367 51.1545 195.976 50.8422 195.976 49.4836V49.1088Z" fill="black"/>
<path d="M204.963 51.2482C204.448 52.1695 203.526 52.5756 202.183 52.5756C199.997 52.5756 198.748 51.1701 198.748 49.0463V47.9845C198.748 45.7358 200.013 44.4865 202.246 44.4865C203.433 44.4865 204.417 44.9237 204.963 45.7514L203.683 46.6415C203.386 46.2199 202.886 45.9388 202.215 45.9388C200.997 45.9388 200.403 46.7196 200.403 48.0625V48.9683C200.403 50.1863 200.84 51.1389 202.215 51.1389C202.871 51.1389 203.401 50.9047 203.698 50.3737L204.963 51.2482Z" fill="black"/>
<path d="M207.04 44.627L209.023 50.1239L210.803 44.627H212.521L209.773 52.7473C209.101 54.7462 208.524 55.4021 206.337 55.4021V53.8717C207.43 53.8717 207.868 53.6999 208.258 52.5287L205.275 44.627H207.04Z" fill="black"/>
<path d="M38.1037 36.5249C38.075 36.5249 37.9995 36.5301 37.9709 36.5327C37.6326 36.5718 37.3359 36.7722 37.0808 37.1366C35.9903 38.7918 34.5224 39.5961 32.5912 39.5961C31.0869 39.5961 29.796 39.2005 28.643 38.3884C27.4483 37.5452 26.3578 36.4416 25.4053 35.1039C24.4319 33.7375 23.5574 32.2253 22.8052 30.6143C22.0426 28.9798 21.3269 27.3479 20.6684 25.7499C20.4758 25.3205 20.2988 24.8936 20.1349 24.459C19.643 23.2565 18.9637 22.2311 18.1152 21.4061C17.6649 20.9688 17.1028 20.5992 16.4339 20.3051C17.4671 19.9486 18.4431 19.5139 19.3541 19.0038C20.9131 18.1319 22.178 17.018 23.1175 15.6932C24.0779 14.3424 24.5646 12.721 24.5646 10.8809C24.5646 8.70245 23.9139 6.86757 22.6308 5.42569C21.3789 4.01765 19.7679 2.96097 17.8419 2.28427C15.9524 1.6206 14.0108 1.28485 12.0692 1.28485H1.04432C0.609674 1.28485 0.253109 1.49306 0.0943466 1.84442C-0.0279786 2.12031 -0.0279786 2.4092 0.0943466 2.68248C0.175029 2.86207 0.388448 3.17699 0.945418 3.2811C1.8121 3.39822 2.28058 3.80683 2.46537 4.60325C2.69961 5.61308 2.81934 7.07838 2.81934 8.96011V27.6941C2.81934 29.5758 2.69961 31.0411 2.46537 32.0509C2.28058 32.8474 1.8121 33.256 0.906378 33.3783C0.385845 33.4772 0.175029 33.7921 0.0917439 33.9717C-0.0305813 34.2476 -0.0305813 34.5365 0.0917439 34.8098C0.250506 35.1585 0.604469 35.3667 1.03911 35.3667H9.40668C9.84393 35.3667 10.1979 35.1585 10.354 34.8072C10.4764 34.5339 10.4764 34.245 10.354 33.9665C10.2734 33.7895 10.0599 33.4746 9.50298 33.3705C8.63629 33.2534 8.16781 32.8448 7.98302 32.0483C7.74878 31.0385 7.62906 29.5706 7.62906 27.6915V21.6455H7.83207C10.2499 21.6455 11.9963 21.8641 13.0192 22.2936C13.9483 22.684 14.6849 23.6105 15.2054 25.0394C15.2445 25.1513 15.2991 25.2788 15.3746 25.4246C16.1892 27.4729 17.0663 29.542 17.9825 31.5773C18.909 33.6412 19.9631 35.5567 21.1109 37.2693C22.2821 39.0157 23.6485 40.4445 25.1684 41.5168C26.7404 42.6282 28.5597 43.1904 30.5715 43.1904C32.4377 43.1904 34.145 42.7141 35.6467 41.7719C37.1459 40.8297 38.265 39.57 38.9964 37.9694C39.1577 37.5087 39.0562 37.186 38.9417 36.996C38.7621 36.6967 38.455 36.5249 38.1011 36.5249H38.1037ZM7.63426 8.96011C7.63426 6.82332 7.72276 5.28775 7.89453 4.39504C8.03247 3.6715 8.36561 3.52314 8.82108 3.52314H12.0198C14.232 3.52314 16.0409 4.12956 17.5504 5.37884C19.0313 6.60209 19.7523 8.32766 19.7523 10.6492C19.7523 12.609 19.2083 14.2461 18.1334 15.5084C17.0351 16.7993 15.5672 17.7805 13.7739 18.4234C11.9417 19.0793 9.92721 19.4124 7.78782 19.4124H7.63426V8.96011Z" fill="black"/>
<path d="M46.8382 31.2884C46.8096 31.2858 46.7393 31.2806 46.7107 31.2806C46.5025 31.2806 46.1875 31.343 45.8778 31.6371C45.1881 32.293 44.743 32.4309 44.4906 32.4309C44.3266 32.4309 43.8946 32.4309 43.8946 31.114V19.4983C43.8946 16.6562 43.0721 14.371 41.4481 12.7079C39.811 11.0318 37.4738 10.1834 34.499 10.1834C32.4923 10.1834 30.7147 10.5634 29.2104 11.3103C27.5629 12.1302 26.7274 13.2155 26.7274 14.5324C26.7274 15.5188 27.2323 16.3074 28.1849 16.8097C29.0204 17.2522 30.0848 17.4786 31.3471 17.4786C32.2216 17.4786 32.4012 17.0023 32.4403 16.7915C32.4949 16.4714 32.3648 16.1669 32.0915 15.9613C31.394 15.2794 31.3159 14.6001 31.8364 13.7646C32.3986 12.8615 33.3668 12.4217 34.7931 12.4217C36.2193 12.4217 37.3046 13.0333 37.9735 14.2878C38.7075 15.6724 39.0823 17.424 39.0823 19.4983V20.391C38.6164 19.9095 38.0958 19.4775 37.5207 19.1027C36.3104 18.3115 34.8972 17.9107 33.32 17.9107C31.0348 17.9107 28.9943 18.7982 27.261 20.5498C25.538 22.291 24.6635 24.5214 24.6635 27.1788C24.6635 29.8361 25.4807 31.8531 27.0944 33.4382C28.7132 35.031 30.6418 35.8378 32.8281 35.8378C34.5094 35.8378 36.0267 35.3798 37.3385 34.4714C38.0542 33.9769 38.6867 33.4278 39.2358 32.8291C39.379 33.5527 39.6262 34.1357 39.9802 34.5885C40.6126 35.4058 41.5105 35.8352 42.5724 35.8352C44.337 35.8352 45.9793 34.8644 47.4889 32.8968C47.7309 32.5142 47.7179 32.1889 47.6632 31.9807C47.5617 31.5955 47.2546 31.3352 46.8382 31.2832V31.2884ZM29.4758 27.1788C29.4758 25.2996 29.9287 23.7484 30.8214 22.572C31.6777 21.4451 32.7838 20.8985 34.2049 20.8985C35.1392 20.8985 36.0944 21.2135 37.0392 21.8355C37.9475 22.4341 38.6346 23.5064 39.0823 25.0185V27.8815C39.0823 29.201 38.5513 30.2994 37.4608 31.2389C36.3495 32.1967 35.1236 32.6626 33.713 32.6626C32.4142 32.6626 31.4174 32.2097 30.6626 31.2754C29.874 30.3046 29.4758 28.9251 29.4758 27.1762V27.1788Z" fill="black"/>
<path d="M92.4785 34.8124C92.3224 35.1637 91.9736 35.372 91.5364 35.372H83.1688C82.7315 35.372 82.375 35.1637 82.2188 34.8124C82.0965 34.5391 82.0965 34.2476 82.2188 33.9743C82.3021 33.7921 82.5129 33.4798 83.0334 33.3835C83.9366 33.2612 84.4077 32.85 84.5924 32.0562C84.8241 31.0411 84.949 29.5784 84.949 27.6967V19.0324C84.949 17.5307 84.7018 16.3517 84.2255 15.5318C83.7544 14.7328 83.1792 14.1654 82.5233 13.8531C81.8336 13.5226 81.1231 13.3586 80.4178 13.3586C79.4001 13.3586 78.4007 13.6579 77.4247 14.2565C77.1983 14.3919 76.9744 14.5428 76.7558 14.712C76.2717 15.0816 75.8137 15.5449 75.3894 16.0914C75.3816 16.0992 75.3764 16.1044 75.3764 16.1122C74.7622 16.906 74.2078 17.8742 73.7211 19.0194V27.6967C73.7211 29.5758 73.8382 31.0411 74.0699 32.0562C74.2547 32.85 74.7257 33.2586 75.595 33.3757C76.1494 33.4798 76.368 33.7921 76.4435 33.9743C76.5658 34.2476 76.5658 34.5391 76.4435 34.8124C76.2873 35.1637 75.9386 35.372 75.5013 35.372H67.1338C66.6965 35.372 66.34 35.1637 66.1838 34.8124C66.0615 34.5391 66.0615 34.2476 66.1838 33.9743C66.2645 33.7921 66.4779 33.4798 66.9984 33.3835C67.9016 33.2612 68.3726 32.85 68.5574 32.0562C68.7891 31.0411 68.914 29.5784 68.914 27.6967V26.4943C66.2411 31.14 62.311 35.8404 56.7127 35.8404C54.7581 35.8404 52.905 35.3147 51.2159 34.2736C49.5267 33.2404 48.1525 31.7621 47.1349 29.8881C46.1094 28.022 45.5967 25.8046 45.5967 23.293C45.5967 19.7143 46.6482 16.6119 48.7277 14.0691C50.8333 11.4925 53.5947 10.186 56.9365 10.186C58.8911 10.186 60.6609 10.6492 62.1991 11.5576C63.8544 12.5336 64.6951 13.8401 64.6951 15.4225C64.6951 16.4428 64.3385 17.3355 63.6436 18.0824C62.9409 18.8294 62.043 19.2146 60.9785 19.2146C60.5412 19.2146 60.2471 19.0584 60.104 18.7539C60.0363 18.6108 59.966 18.3583 60.0753 18.033C60.5959 16.2762 60.4241 14.9697 59.5496 14.0327C58.6126 13.0437 57.4649 12.5622 56.0438 12.5622C54.1439 12.5622 52.6395 13.382 51.4579 15.066C50.2425 16.7837 49.6256 18.9882 49.6256 21.6091C49.6256 24.8364 50.4871 27.5015 52.1815 29.5394C53.8836 31.5825 55.8252 32.5715 58.1077 32.5715C61.08 32.5715 63.4328 30.4321 65.3405 27.8424C66.7356 25.9425 67.8964 23.8031 68.8828 22.0853C68.8958 22.0671 68.9036 22.0463 68.9166 22.0281V8.96271C68.9166 7.08359 68.7943 5.61829 68.56 4.60325C68.3752 3.80944 67.9042 3.40082 67.0349 3.2837C66.4805 3.17959 66.2697 2.86207 66.1864 2.68509C66.0641 2.41181 66.0641 2.12031 66.1864 1.84703C66.3426 1.49567 66.6991 1.28745 67.1364 1.28745H73.0418C73.4166 1.28745 73.7263 1.57895 73.7263 1.93812V14.4075C74.4655 13.4523 75.3061 12.6247 76.2353 11.935C77.8151 10.7768 79.6656 10.186 81.7529 10.186C83.96 10.186 85.8678 10.9147 87.4189 12.3592C88.9779 13.8089 89.7717 16.055 89.7717 19.0324V27.6967C89.7717 29.5758 89.8889 31.0411 90.1205 32.0562C90.3053 32.85 90.7764 33.2586 91.6457 33.3757C92.2 33.4798 92.4187 33.7921 92.4941 33.9743C92.6243 34.2476 92.6243 34.5391 92.4941 34.8124H92.4785Z" fill="black"/>
<path d="M77.4195 14.2565C76.709 14.7432 76.0323 15.3679 75.3816 16.0914C75.8059 15.5449 76.2639 15.0842 76.748 14.712C76.9666 14.5428 77.1931 14.3945 77.4169 14.2565H77.4195Z" fill="black"/>
<path d="M113.646 28.1209C113.427 28.1209 113.097 28.186 112.769 28.4983C112.745 28.5217 112.722 28.5452 112.701 28.5738C111.835 29.6929 110.767 30.6559 109.529 31.4393C108.337 32.1915 106.923 32.5715 105.328 32.5715C103.188 32.5715 101.338 31.8557 99.6645 30.38C98.1029 29.0032 97.015 27.1553 96.4216 24.878L110.057 18.8398C113.425 17.5775 113.227 15.5787 112.798 14.4673C112.282 13.3092 111.241 12.2915 109.706 11.4431C108.193 10.6076 106.34 10.1834 104.196 10.1834C101.708 10.1834 99.4849 10.7872 97.5928 11.9766C95.711 13.1582 94.2275 14.7641 93.176 16.7473C92.1324 18.7175 91.6014 20.922 91.6014 23.293C91.6014 25.7993 92.1688 28.0194 93.2905 29.8907C94.4123 31.7621 95.9192 33.2352 97.7697 34.2736C99.6228 35.3121 101.653 35.8404 103.8 35.8404C106.09 35.8404 108.167 35.2783 109.979 34.1669C111.751 33.079 113.289 31.6579 114.544 29.948C115.02 29.3155 114.757 28.8184 114.622 28.6336C114.38 28.3031 114.031 28.1235 113.643 28.1235L113.646 28.1209ZM102.918 12.609C104.157 12.609 105.281 12.9734 106.351 13.723C107.308 14.3945 108.204 15.4459 109.018 16.854L96.0624 22.5981C96.0364 22.2649 96.0233 21.9344 96.0233 21.6039C96.0233 18.9804 96.6896 16.7837 98.0066 15.0816C99.2923 13.4159 100.898 12.6064 102.918 12.6064V12.609Z" fill="black"/>
<path d="M123.989 31.2884C123.96 31.2858 123.89 31.2806 123.861 31.2806C123.651 31.2806 123.338 31.343 123.029 31.6371C122.339 32.293 121.894 32.4309 121.641 32.4309C121.493 32.4309 121.045 32.4309 121.045 31.0671V1.93552C121.045 1.57635 120.738 1.28485 120.361 1.28485H114.455C114.018 1.28485 113.664 1.49306 113.508 1.84442C113.383 2.12031 113.383 2.41181 113.508 2.68248C113.589 2.86207 113.802 3.17959 114.359 3.2837C115.226 3.40082 115.697 3.80944 115.882 4.60585C116.116 5.61829 116.236 7.08359 116.236 8.96271V31.0697C116.236 32.6652 116.53 33.8182 117.131 34.5938C117.763 35.411 118.661 35.8404 119.723 35.8404C121.488 35.8404 123.13 34.8696 124.64 32.902C124.882 32.5194 124.869 32.1967 124.814 31.9859C124.713 31.6007 124.405 31.3404 123.989 31.2884Z" fill="black"/>
<path d="M189.384 27.6004C189.165 27.6004 188.834 27.6655 188.506 27.9778C188.483 28.0012 188.46 28.0246 188.439 28.0507C187.572 29.1698 186.505 30.1354 185.266 30.9162C184.074 31.6684 182.661 32.0483 181.065 32.0483C178.926 32.0483 177.076 31.3326 175.402 29.8569C173.84 28.4801 172.752 26.6322 172.159 24.3549L185.794 18.3167C189.162 17.0544 188.964 15.0555 188.535 13.9442C188.017 12.786 186.979 11.7684 185.443 10.9199C183.931 10.0845 182.078 9.66023 179.931 9.66023C177.442 9.66023 175.22 10.264 173.328 11.4535C171.446 12.6351 169.96 14.2409 168.911 16.2241C167.867 18.1944 167.336 20.3988 167.336 22.7698C167.336 22.926 167.344 23.0744 167.349 23.2279C161.761 23.9228 156.072 23.902 150.492 23.1472C150.502 17.5619 150.51 11.9766 150.521 6.39128C150.521 5.36583 150.586 4.20244 151.4 3.53095C151.999 3.03644 153.022 2.72933 152.97 1.97716C152.92 1.25883 151.929 1.0402 151.171 1.02459C149.037 0.975135 146.903 0.928287 144.769 0.917876C143.514 0.912671 142.244 0.920479 141.034 1.2302C138.213 1.94853 136.06 4.24408 134.938 6.81031C133.33 10.4853 133.608 14.8603 135.675 18.3245C137.739 21.786 141.544 24.2586 145.685 24.8286C145.742 26.7675 145.685 28.7091 145.51 30.6429C145.438 31.4549 145.268 32.3841 144.529 32.7953C143.962 33.1102 143.108 33.0972 142.853 33.6724C142.668 34.0888 142.97 34.5859 143.389 34.7994C143.808 35.0128 144.308 35.018 144.784 35.018C149.693 35.0128 154.599 35.0102 159.508 35.005C160.702 35.005 161.894 35.005 163.089 35.0024C163.875 35.0024 165.77 35.3459 166.436 34.9269C167.102 34.5053 167.068 33.0139 167.204 32.319C167.433 31.1348 167.664 29.9532 167.896 28.769C167.977 28.3526 168.057 27.9153 167.935 27.5067C167.813 27.0981 167.42 26.7285 166.975 26.7675C166.53 26.8066 166.23 27.2074 166.014 27.5796C165.129 29.1177 164.528 30.9474 162.972 31.8844C162.043 32.444 160.913 32.5897 159.817 32.673C157.321 32.863 154.815 32.7953 152.314 32.7302C151.892 32.7198 151.426 32.6912 151.127 32.4075C150.864 32.1603 150.802 31.7829 150.757 31.4341C150.51 29.4379 150.419 27.4234 150.487 25.4142C150.518 25.4142 150.549 25.4142 150.58 25.4168C156.241 25.638 161.972 26.1299 167.542 25.2788C167.8 26.778 168.289 28.1496 169.02 29.3676C170.142 31.2389 171.649 32.7146 173.499 33.7505C175.353 34.789 177.383 35.3173 179.53 35.3173C181.82 35.3173 183.897 34.7551 185.709 33.6438C187.481 32.5559 189.019 31.1348 190.274 29.4249C190.747 28.7924 190.487 28.2979 190.349 28.1105C190.104 27.7826 189.758 27.6004 189.373 27.6004H189.384ZM145.687 22.4914C144.355 22.14 143.111 21.6273 142.018 20.8647C138.97 18.7435 136.81 15.2898 136.945 11.6981C137.067 8.38752 139.522 5.0431 142.96 4.5564C143.759 4.44709 144.573 4.48613 145.372 4.43928C145.578 5.4335 145.687 6.83373 145.687 8.59574V22.4914ZM173.741 14.5636C175.027 12.8979 176.633 12.0885 178.653 12.0885C179.892 12.0885 181.016 12.4529 182.086 13.2025C183.043 13.8739 183.939 14.9254 184.753 16.3335L171.797 22.0775C171.771 21.7444 171.758 21.4139 171.758 21.0833C171.758 18.4598 172.425 16.2632 173.741 14.561V14.5636Z" fill="black"/>
<path d="M212.763 27.02C212.498 26.7077 212.139 26.5489 211.753 26.5723C211.535 26.5854 211.209 26.6738 210.905 27.007C210.882 27.0304 210.863 27.0564 210.842 27.0851C210.056 28.2563 209.057 29.2869 207.875 30.1432C206.738 30.9682 205.356 31.4393 203.763 31.5382C201.629 31.6736 199.732 31.075 197.959 29.7086C196.307 28.4358 195.089 26.6582 194.339 24.4251L207.521 17.5385C210.793 16.0654 210.457 14.0822 209.952 13.002C209.356 11.8803 208.248 10.9303 206.657 10.1808C205.091 9.4416 203.211 9.13709 201.069 9.27243C198.587 9.42859 196.413 10.173 194.607 11.4795C192.814 12.7782 191.442 14.4726 190.531 16.5182C189.626 18.5509 189.251 20.7814 189.417 23.1472C189.592 25.6484 190.315 27.8294 191.565 29.6227C192.814 31.4185 194.42 32.7953 196.34 33.7141C198.261 34.6328 200.323 35.031 202.467 34.8957C204.752 34.7499 206.785 34.0576 208.516 32.837C210.21 31.6397 211.644 30.125 212.776 28.3369C213.206 27.6759 212.912 27.197 212.761 27.02H212.763ZM193.712 21.1874C193.53 18.5691 194.04 16.3361 195.234 14.5532C196.4 12.8094 197.949 11.9011 199.963 11.7736C201.2 11.6955 202.345 11.987 203.467 12.6689C204.469 13.2779 205.434 14.2695 206.345 15.6255L193.818 22.1764C193.769 21.8459 193.733 21.5154 193.709 21.1874H193.712Z" fill="black"/>
</svg>
