<svg width="501" height="100" viewBox="0 0 501 100" fill="none" xmlns="http://www.w3.org/2000/svg">
<path d="M89.6854 83.6204C89.6182 83.6204 89.4411 83.6326 89.3738 83.6387C88.5796 83.7304 87.8831 84.2008 87.2844 85.0561C84.7245 88.9418 81.2787 90.8296 76.7454 90.8296C73.2141 90.8296 70.1838 89.901 67.4773 87.9948C64.673 86.0153 62.1131 83.4249 59.877 80.2846C57.592 77.0771 55.5392 73.5274 53.7736 69.7456C51.9835 65.9088 50.3033 62.0782 48.7576 58.3269C48.3055 57.3188 47.8901 56.3169 47.5052 55.2966C46.3505 52.4739 44.7559 50.0668 42.7642 48.1301C41.7072 47.1037 40.3876 46.2361 38.8174 45.5457C41.2429 44.7087 43.534 43.6884 45.6723 42.491C49.3319 40.4443 52.3012 37.8294 54.5067 34.7196C56.7611 31.5488 57.9036 27.7425 57.9036 23.4231C57.9036 18.3094 56.3762 14.0022 53.3642 10.6175C50.4255 7.31223 46.6437 4.83176 42.1227 3.24327C37.6871 1.68534 33.1294 0.897211 28.5717 0.897211H2.69169C1.67139 0.897211 0.834387 1.38597 0.461705 2.21076C0.174557 2.85837 0.174557 3.53653 0.461705 4.17803C0.651101 4.59959 1.15208 5.33885 2.45952 5.58323C4.494 5.85816 5.59372 6.81736 6.0275 8.68688C6.57736 11.0574 6.85839 14.497 6.85839 18.9142V62.8907C6.85839 67.3079 6.57736 70.7476 6.0275 73.1181C5.59372 74.9876 4.494 75.9468 2.36788 76.234C1.14597 76.4661 0.651101 77.2054 0.455596 77.6269C0.168447 78.2745 0.168447 78.9527 0.455596 79.5942C0.828278 80.4129 1.65918 80.9016 2.67947 80.9016H22.3216C23.348 80.9016 24.1789 80.4129 24.5455 79.5881C24.8327 78.9466 24.8327 78.2684 24.5455 77.6147C24.3561 77.1993 23.8551 76.46 22.5477 76.2156C20.5132 75.9407 19.4135 74.9815 18.9797 73.112C18.4299 70.7415 18.1488 67.2957 18.1488 62.8846V48.6921H18.6254C24.3011 48.6921 28.4006 49.2053 30.8017 50.2134C32.9828 51.1299 34.7118 53.3048 35.9337 56.659C36.0253 56.9217 36.1536 57.2211 36.3308 57.5632C38.2431 62.3714 40.302 67.2285 42.4526 72.0062C44.6276 76.851 47.1019 81.3476 49.7962 85.3677C52.5455 89.4672 55.753 92.8214 59.321 95.3385C63.0112 97.9473 67.2817 99.2669 72.0044 99.2669C76.385 99.2669 80.3928 98.1489 83.918 95.9372C87.4371 93.7256 90.0642 90.7685 91.781 87.0112C92.1598 85.9298 91.9215 85.1722 91.6527 84.7262C91.2311 84.0236 90.5102 83.6204 89.6793 83.6204H89.6854ZM18.161 18.9142C18.161 13.8983 18.3688 10.2937 18.772 8.19811C19.0958 6.49966 19.8778 6.15142 20.947 6.15142H28.4556C33.6487 6.15142 37.8949 7.57494 41.4384 10.5075C44.9147 13.379 46.6071 17.4296 46.6071 22.8793C46.6071 27.4798 45.3302 31.3227 42.8069 34.2859C40.2287 37.3162 36.7829 39.6195 32.5735 41.1285C28.2723 42.6681 23.5435 43.4502 18.5215 43.4502H18.161V18.9142Z" fill="black"/>
<path d="M110.189 71.328C110.122 71.3219 109.957 71.3097 109.89 71.3097C109.401 71.3097 108.662 71.4563 107.935 72.1467C106.316 73.6863 105.271 74.0101 104.678 74.0101C104.293 74.0101 103.279 74.0101 103.279 70.9187V43.6518C103.279 36.9802 101.349 31.616 97.5362 27.712C93.6933 23.7774 88.2069 21.7857 81.2237 21.7857C76.5133 21.7857 72.3404 22.6777 68.8091 24.4312C64.9418 26.3557 62.9806 28.9033 62.9806 31.9948C62.9806 34.3103 64.1659 36.1615 66.402 37.3406C68.3631 38.3792 70.8619 38.9108 73.8251 38.9108C75.8779 38.9108 76.2994 37.7927 76.3911 37.2979C76.5194 36.5464 76.2139 35.8316 75.5724 35.3489C73.935 33.7482 73.7517 32.1536 74.9737 30.1925C76.2933 28.0724 78.5661 27.0399 81.9141 27.0399C85.2621 27.0399 87.8098 28.4757 89.38 31.4205C91.1028 34.6707 91.9826 38.7825 91.9826 43.6518V45.7473C90.889 44.6171 89.6671 43.6029 88.3169 42.7231C85.476 40.8658 82.1585 39.925 78.4561 39.925C73.0919 39.925 68.302 42.0083 64.2331 46.12C60.1886 50.2073 58.1358 55.4432 58.1358 61.681C58.1358 67.9189 60.0542 72.6538 63.8421 76.3745C67.6422 80.1135 72.1694 82.0075 77.3014 82.0075C81.2482 82.0075 84.81 80.9322 87.8892 78.8C89.5693 77.6392 91.054 76.35 92.3431 74.9448C92.6791 76.6433 93.2595 78.0118 94.0904 79.0749C95.575 80.9933 97.6828 82.0014 100.176 82.0014C104.318 82.0014 108.173 79.7225 111.716 75.1037C112.285 74.2056 112.254 73.4419 112.126 72.9531C111.887 72.0489 111.167 71.438 110.189 71.3158V71.328ZM69.4323 61.681C69.4323 57.2699 70.4954 53.6287 72.5909 50.8671C74.601 48.2217 77.1975 46.9387 80.5333 46.9387C82.7267 46.9387 84.9689 47.678 87.1866 49.1381C89.3189 50.5433 90.9318 53.0605 91.9826 56.6101V63.3306C91.9826 66.4281 90.7363 69.0064 88.1764 71.2119C85.5676 73.4602 82.69 74.5538 79.3786 74.5538C76.33 74.5538 73.99 73.4908 72.2183 71.2974C70.3671 69.0186 69.4323 65.7805 69.4323 61.6749V61.681Z" fill="black"/>
<path d="M217.326 79.6003C216.959 80.4251 216.141 80.9139 215.114 80.9139H195.472C194.446 80.9139 193.609 80.4251 193.242 79.6003C192.955 78.9588 192.955 78.2745 193.242 77.633C193.438 77.2054 193.933 76.4722 195.154 76.2462C197.274 75.959 198.38 74.9937 198.814 73.1303C199.358 70.7476 199.651 67.314 199.651 62.8968V42.5582C199.651 39.033 199.071 36.2653 197.953 34.3408C196.847 32.4652 195.497 31.1333 193.957 30.4002C192.338 29.6243 190.67 29.2394 189.014 29.2394C186.626 29.2394 184.279 29.942 181.988 31.3472C181.457 31.6649 180.931 32.0192 180.418 32.4163C179.282 33.2839 178.207 34.3714 177.211 35.6544C177.192 35.6727 177.18 35.6849 177.18 35.7033C175.738 37.5667 174.437 39.8394 173.294 42.5276V62.8968C173.294 67.3079 173.569 70.7476 174.113 73.1303C174.547 74.9937 175.653 75.9529 177.693 76.2278C178.995 76.4722 179.508 77.2054 179.685 77.633C179.972 78.2745 179.972 78.9588 179.685 79.6003C179.319 80.4251 178.5 80.9139 177.473 80.9139H157.831C156.805 80.9139 155.968 80.4251 155.601 79.6003C155.314 78.9588 155.314 78.2745 155.601 77.633C155.791 77.2054 156.292 76.4722 157.514 76.2462C159.634 75.959 160.739 74.9937 161.173 73.1303C161.717 70.7476 162.01 67.314 162.01 62.8968V60.0742C155.736 70.9797 146.51 82.0136 133.369 82.0136C128.78 82.0136 124.43 80.7795 120.465 78.3356C116.5 75.9102 113.274 72.4399 110.886 68.0411C108.478 63.6605 107.275 58.4552 107.275 52.5595C107.275 44.1589 109.743 36.8763 114.625 30.9073C119.567 24.8588 126.049 21.7918 133.894 21.7918C138.482 21.7918 142.637 22.8793 146.248 25.0116C150.133 27.3026 152.107 30.3696 152.107 34.0842C152.107 36.4792 151.27 38.5747 149.638 40.3282C147.989 42.0816 145.881 42.9858 143.382 42.9858C142.356 42.9858 141.665 42.6193 141.329 41.9044C141.171 41.5684 141.006 40.9758 141.262 40.2121C142.484 36.0882 142.081 33.0212 140.028 30.8217C137.829 28.5001 135.134 27.3699 131.798 27.3699C127.339 27.3699 123.807 29.2944 121.033 33.2472C118.18 37.2795 116.732 42.4543 116.732 48.6066C116.732 56.1824 118.755 62.4386 122.732 67.2224C126.728 72.0184 131.285 74.34 136.643 74.34C143.62 74.34 149.143 69.318 153.622 63.239C156.896 58.779 159.621 53.757 161.937 49.7247C161.967 49.6819 161.986 49.633 162.016 49.5902V18.9204C162.016 14.5093 161.729 11.0696 161.179 8.68688C160.746 6.82347 159.64 5.86427 157.599 5.58934C156.298 5.34496 155.803 4.59959 155.607 4.18414C155.32 3.54264 155.32 2.85837 155.607 2.21687C155.974 1.39208 156.811 0.903321 157.837 0.903321H171.7C172.58 0.903321 173.307 1.58759 173.307 2.43071V31.7015C175.042 29.4593 177.015 27.5165 179.196 25.8975C182.905 23.1787 187.249 21.7918 192.149 21.7918C197.329 21.7918 201.808 23.5025 205.449 26.8933C209.109 30.2963 210.972 35.5689 210.972 42.5582V62.8968C210.972 67.3079 211.247 70.7476 211.791 73.1303C212.224 74.9937 213.33 75.9529 215.371 76.2278C216.672 76.4722 217.185 77.2054 217.363 77.633C217.668 78.2745 217.668 78.9588 217.363 79.6003H217.326Z" fill="black"/>
<path d="M181.976 31.3472C180.308 32.4896 178.72 33.9559 177.192 35.6544C178.188 34.3714 179.264 33.29 180.4 32.4163C180.913 32.0192 181.445 31.671 181.97 31.3472H181.976Z" fill="black"/>
<path d="M267.015 63.8927C266.502 63.8927 265.726 64.0454 264.956 64.7786C264.901 64.8336 264.846 64.8885 264.797 64.9557C262.763 67.5828 260.258 69.8434 257.35 71.6823C254.551 73.448 251.234 74.34 247.489 74.34C242.467 74.34 238.123 72.6599 234.194 69.1958C230.529 65.9638 227.975 61.626 226.582 56.2802L258.59 42.1061C266.496 39.1429 266.031 34.4508 265.023 31.842C263.813 29.1233 261.37 26.7345 257.765 24.7427C254.215 22.7816 249.865 21.7857 244.831 21.7857C238.99 21.7857 233.773 23.2031 229.331 25.9952C224.914 28.7689 221.432 32.5385 218.963 37.194C216.513 41.8189 215.267 46.9937 215.267 52.5595C215.267 58.443 216.599 63.6544 219.232 68.0472C221.865 72.4399 225.403 75.8979 229.747 78.3356C234.097 80.7733 238.862 82.0136 243.902 82.0136C249.279 82.0136 254.154 80.6939 258.407 78.0851C262.567 75.5314 266.178 72.1955 269.123 68.1816C270.241 66.697 269.624 65.53 269.306 65.0963C268.738 64.3203 267.919 63.8988 267.009 63.8988L267.015 63.8927ZM241.831 27.4798C244.739 27.4798 247.379 28.3352 249.89 30.0947C252.138 31.671 254.24 34.1392 256.152 37.4445L225.739 50.9282C225.678 50.1462 225.647 49.3703 225.647 48.5944C225.647 42.436 227.211 37.2795 230.303 33.2839C233.321 29.3738 237.09 27.4737 241.831 27.4737V27.4798Z" fill="black"/>
<path d="M291.294 71.328C291.227 71.3219 291.062 71.3097 290.995 71.3097C290.5 71.3097 289.767 71.4563 289.04 72.1467C287.421 73.6863 286.376 74.0101 285.783 74.0101C285.435 74.0101 284.384 74.0101 284.384 70.8087V2.4246C284.384 1.58148 283.663 0.897211 282.777 0.897211H268.915C267.889 0.897211 267.058 1.38597 266.691 2.21076C266.398 2.85837 266.398 3.54264 266.691 4.17803C266.88 4.59959 267.381 5.34496 268.689 5.58934C270.723 5.86427 271.829 6.82347 272.263 8.69299C272.813 11.0696 273.094 14.5093 273.094 18.9204V70.8148C273.094 74.5599 273.784 77.2665 275.196 79.0871C276.68 81.0055 278.788 82.0136 281.281 82.0136C285.423 82.0136 289.278 79.7347 292.822 75.1159C293.39 74.2178 293.359 73.4602 293.231 72.9654C292.993 72.0611 292.272 71.4502 291.294 71.328Z" fill="black"/>
<path d="M444.802 62.6708C444.289 62.6708 443.513 62.8235 442.744 63.5567C442.689 63.6116 442.634 63.6666 442.585 63.7277C440.55 66.3548 438.045 68.6215 435.137 70.4543C432.339 72.22 429.022 73.112 425.276 73.112C420.254 73.112 415.91 71.4319 411.982 67.9677C408.316 64.7358 405.763 60.398 404.37 55.0522L436.377 40.878C444.283 37.9149 443.819 33.2228 442.811 30.614C441.595 27.8953 439.157 25.5064 435.553 23.5147C432.003 21.5536 427.653 20.5577 422.613 20.5577C416.772 20.5577 411.554 21.9751 407.113 24.7672C402.696 27.5409 399.207 31.3105 396.745 35.966C394.295 40.5909 393.049 45.7657 393.049 51.3315C393.049 51.698 393.067 52.0463 393.079 52.4067C379.962 54.038 366.606 53.9891 353.508 52.2174C353.532 39.1063 353.55 25.9952 353.575 12.8841C353.575 10.477 353.728 7.74601 355.64 6.16974C357.045 5.00893 359.446 4.28801 359.324 2.52235C359.208 0.836116 356.88 0.322914 355.102 0.286257C350.092 0.170176 345.083 0.0602042 340.073 0.035766C337.128 0.0235469 334.146 0.0418755 331.306 0.768911C324.683 2.45514 319.63 7.84376 316.997 13.8678C313.221 22.4944 313.875 32.7646 318.726 40.8964C323.571 49.0221 332.503 54.8261 342.223 56.1641C342.358 60.7157 342.223 65.2734 341.814 69.8128C341.643 71.719 341.246 73.9001 339.511 74.8654C338.179 75.6047 336.175 75.5741 335.576 76.9243C335.142 77.9019 335.851 79.0688 336.835 79.5698C337.818 80.0707 338.991 80.083 340.109 80.083C351.632 80.0708 363.148 80.0646 374.671 80.0524C377.475 80.0524 380.274 80.0524 383.078 80.0463C384.923 80.0463 389.371 80.8528 390.935 79.8691C392.499 78.8794 392.419 75.3786 392.737 73.7474C393.275 70.9675 393.818 68.1938 394.362 65.414C394.552 64.4364 394.741 63.41 394.454 62.4508C394.167 61.4916 393.244 60.6241 392.199 60.7157C391.155 60.8074 390.452 61.7482 389.945 62.6219C387.868 66.2326 386.456 70.5276 382.803 72.7271C380.622 74.0406 377.97 74.3828 375.398 74.5783C369.539 75.0243 363.656 74.8654 357.784 74.7127C356.795 74.6882 355.701 74.621 354.998 73.9551C354.381 73.3747 354.235 72.4888 354.131 71.6701C353.55 66.9841 353.337 62.2553 353.495 57.5388C353.569 57.5388 353.642 57.5388 353.715 57.5449C367.004 58.0642 380.457 59.2189 393.531 57.2211C394.136 60.7402 395.285 63.9599 397.001 66.8192C399.635 71.2119 403.172 74.676 407.516 77.1076C411.866 79.5453 416.631 80.7856 421.672 80.7856C427.048 80.7856 431.924 79.4659 436.176 76.8571C440.336 74.3033 443.947 70.9675 446.892 66.9536C448.004 65.4689 447.393 64.3081 447.069 63.8682C446.495 63.0984 445.682 62.6708 444.778 62.6708H444.802ZM342.229 50.6777C339.101 49.853 336.181 48.6494 333.615 46.8593C326.461 41.88 321.39 33.7726 321.707 25.3415C321.995 17.5701 327.756 9.71939 335.827 8.5769C337.702 8.3203 339.615 8.41195 341.49 8.30197C341.973 10.6358 342.229 13.9228 342.229 18.0589V50.6777ZM408.084 32.0681C411.102 28.158 414.872 26.2579 419.613 26.2579C422.521 26.2579 425.16 27.1132 427.671 28.8728C429.92 30.4491 432.021 32.9173 433.934 36.2226L403.52 49.7063C403.459 48.9243 403.429 48.1484 403.429 47.3725C403.429 41.2141 404.993 36.0576 408.084 32.062V32.0681Z" fill="black"/>
<path d="M499.684 61.3083C499.061 60.5752 498.218 60.2025 497.314 60.2575C496.801 60.2881 496.037 60.4958 495.322 61.2778C495.267 61.3328 495.225 61.3939 495.176 61.4611C493.331 64.2104 490.984 66.6298 488.211 68.6398C485.541 70.5765 482.297 71.6823 478.558 71.9145C473.548 72.2322 469.094 70.827 464.933 67.6195C461.054 64.6319 458.195 60.4591 456.435 55.2171L487.38 39.0513C495.06 35.5933 494.271 30.9378 493.086 28.4024C491.687 25.7692 489.084 23.5392 485.352 21.7796C481.674 20.0445 477.262 19.3297 472.234 19.6474C466.406 20.014 461.304 21.7613 457.064 24.8283C452.855 27.8769 449.635 31.8543 447.497 36.6564C445.371 41.4279 444.491 46.6638 444.882 52.2174C445.291 58.0886 446.99 63.2084 449.922 67.4179C452.855 71.6335 456.624 74.8654 461.133 77.0221C465.642 79.1788 470.481 80.1135 475.515 79.7958C480.879 79.4537 485.651 77.8285 489.714 74.9632C493.691 72.1528 497.057 68.597 499.715 64.3998C500.723 62.848 500.033 61.7238 499.678 61.3083H499.684ZM454.963 47.6169C454.535 41.4707 455.732 36.2287 458.537 32.0436C461.274 27.9503 464.909 25.818 469.638 25.5187C472.54 25.3354 475.228 26.0196 477.861 27.6203C480.213 29.05 482.48 31.3777 484.618 34.5608L455.213 49.9385C455.097 49.1626 455.012 48.3867 454.957 47.6169H454.963Z" fill="black"/>
</svg>
