<svg width="33" height="32" viewBox="0 0 33 32" fill="none" xmlns="http://www.w3.org/2000/svg">
<path d="M26.5791 21.3187C26.5341 21.2962 26.4845 21.2836 26.4323 21.2881C26.2782 21.3016 26.1746 21.4403 26.0998 21.5692C25.7944 22.1016 25.5854 22.735 25.0466 23.0593C24.7259 23.253 24.334 23.3034 23.9547 23.3323C23.0916 23.398 22.2231 23.3755 21.3573 23.3521C21.2114 23.3485 21.0501 23.3386 20.9456 23.2404C20.8546 23.1548 20.833 23.0241 20.8186 22.9034C20.733 22.2124 20.7312 16.169 20.7348 14.2356C20.7348 13.8806 20.7573 13.4779 21.0393 13.2455C21.2474 13.0752 21.6006 12.968 21.5835 12.7076C21.5664 12.4581 21.2231 12.3833 20.9609 12.3779C20.2222 12.3608 19.4834 12.3437 18.7447 12.3401C18.3104 12.3383 17.8708 12.3419 17.4518 12.4482C16.4752 12.6977 15.7302 13.4914 15.3419 14.3798C14.7851 15.6519 14.8815 17.1663 15.5968 18.3655C16.268 19.4907 17.4698 20.3133 18.7996 20.5727C18.4609 20.9124 18.0401 21.0799 17.5239 21.0799C17.0077 21.0799 16.5563 20.943 16.1572 20.6619C15.7428 20.37 15.3662 19.988 15.0364 19.5249C14.6995 19.052 14.3968 18.5285 14.1373 17.9709C13.8733 17.4051 13.6256 16.8411 13.3968 16.2879C13.3301 16.1393 13.2688 15.9906 13.213 15.8411C13.0427 15.4248 12.8076 15.0699 12.5139 14.7843C12.358 14.6329 12.1634 14.505 11.931 14.4032C12.2895 14.2798 12.6274 14.1284 12.9418 13.9518C13.4814 13.65 13.9193 13.2644 14.2445 12.8058C14.577 12.3383 14.7454 11.7779 14.7454 11.14C14.7454 10.386 14.5202 9.7508 14.0761 9.25169C13.6418 8.76429 13.0841 8.39851 12.4184 8.16427C11.7643 7.93453 11.0913 7.81831 10.4201 7.81831H6.60378C6.45242 7.81831 6.32989 7.89039 6.27494 8.01201C6.23259 8.10751 6.23259 8.20751 6.27494 8.30211C6.30287 8.36428 6.37674 8.47419 6.56954 8.50932C6.87045 8.55077 7.03262 8.69131 7.09658 8.9679C7.17767 9.31746 7.21821 9.82468 7.21821 10.4751V16.96C7.21821 17.6114 7.17767 18.1186 7.09658 18.4682C7.03262 18.7438 6.87045 18.8853 6.55693 18.9276C6.37674 18.9628 6.30287 19.0709 6.27494 19.1339C6.23259 19.2285 6.23259 19.3294 6.27494 19.424C6.32989 19.5448 6.45242 19.6168 6.60378 19.6168H9.49935C9.65071 19.6168 9.77323 19.5448 9.82819 19.424C9.87053 19.3294 9.87053 19.2285 9.82819 19.1321C9.80116 19.0709 9.72729 18.9628 9.53359 18.9258C9.23358 18.8853 9.07141 18.7438 9.00745 18.4682C8.92636 18.1177 8.88492 17.6105 8.88492 16.96V14.8672H8.95519C9.79305 14.8672 10.3967 14.9419 10.7507 15.0906C11.0724 15.2257 11.3273 15.5474 11.5075 16.042C11.521 16.0798 11.54 16.1249 11.5661 16.1753C11.8481 16.8834 12.1526 17.6006 12.4688 18.3051C12.7895 19.0195 13.1544 19.6826 13.5517 20.2754C13.9571 20.879 14.4301 21.3737 14.9563 21.7448C15.5004 22.1295 16.1302 22.3241 16.8266 22.3241C17.4726 22.3241 18.0636 22.1593 18.5834 21.8331C18.7591 21.7232 18.9194 21.5989 19.0645 21.4628C19.0564 21.852 19.0366 22.2412 19.0023 22.6295C18.9771 22.9106 18.9185 23.2323 18.6636 23.3746C18.4672 23.4836 18.1717 23.4791 18.0834 23.6782C18.0194 23.8224 18.1239 23.9944 18.269 24.0683C18.4149 24.1422 18.587 24.144 18.7519 24.144C20.451 24.1422 22.1493 24.1413 23.8484 24.1395C24.2619 24.1395 24.6746 24.1386 25.0881 24.1386C25.3602 24.1377 26.016 24.2575 26.2467 24.1116C26.4773 23.9656 26.4656 23.4494 26.5124 23.2088C26.5917 22.7989 26.6719 22.3899 26.7512 21.98C26.7539 21.9692 26.7557 21.9593 26.7575 21.9484C26.689 21.7412 26.6296 21.5313 26.58 21.3187H26.5791ZM11.0093 13.75C10.3751 13.977 9.67774 14.0924 8.93717 14.0924H8.88402V10.4751C8.88402 9.73549 8.91465 9.20394 8.97411 8.89492C9.02276 8.64446 9.13718 8.59311 9.29484 8.59311H10.403C11.1688 8.59311 11.7949 8.80303 12.3175 9.23457C12.8301 9.65891 13.0796 10.2553 13.0796 11.0589C13.0796 11.7373 12.8904 12.304 12.5184 12.741C12.1382 13.1887 11.6309 13.5284 11.0093 13.75ZM19.0609 19.8078C18.5996 19.6862 18.169 19.5087 17.7897 19.2448C16.7347 18.5105 15.9869 17.315 16.0347 16.0726C16.077 14.9266 16.9266 13.7689 18.1167 13.6005C18.3933 13.5617 18.6753 13.5752 18.9519 13.5599C19.023 13.9041 19.0609 14.3879 19.0609 14.9987V19.8078Z" fill="#09090B"/>
<path d="M16.4995 0.000976562C7.67768 0.000976562 0.5 7.17866 0.5 16.0014C0.5 24.8242 7.67768 32.0019 16.4995 32.0019C25.3214 32.0019 32.5 24.8242 32.5 16.0014C32.5 7.17866 25.3223 0.000976562 16.4995 0.000976562ZM16.4995 31.101C8.17409 31.101 1.40093 24.3269 1.40093 16.0014C1.40093 7.67597 8.17409 0.901903 16.4995 0.901903C24.825 0.901903 31.5991 7.67597 31.5991 16.0014C31.5991 24.3269 24.8259 31.101 16.4995 31.101Z" fill="#09090B"/>
<path d="M16.4995 0.901903C8.17409 0.901903 1.40093 7.67597 1.40093 16.0014C1.40093 24.3269 8.17409 31.101 16.4995 31.101C24.825 31.101 31.5991 24.3269 31.5991 16.0014C31.5991 7.67597 24.8259 0.901903 16.4995 0.901903ZM26.7503 21.98C26.671 22.3899 26.5908 22.7989 26.5115 23.2088C26.4647 23.4494 26.4764 23.9656 26.2458 24.1116C26.0151 24.2575 25.3593 24.1377 25.0872 24.1386C24.6737 24.1386 24.261 24.1395 23.8475 24.1395C22.1484 24.1413 20.4501 24.1422 18.751 24.144C18.5861 24.144 18.414 24.1422 18.2681 24.0683C18.123 23.9944 18.0185 23.8224 18.0825 23.6782C18.1708 23.4791 18.4663 23.4836 18.6627 23.3746C18.9176 23.2323 18.9762 22.9106 19.0014 22.6295C19.0357 22.2412 19.0555 21.852 19.0636 21.4628C18.9185 21.5989 18.7582 21.7232 18.5825 21.8331C18.0627 22.1593 17.4717 22.3241 16.8257 22.3241C16.1293 22.3241 15.4995 22.1295 14.9554 21.7448C14.4292 21.3737 13.9562 20.879 13.5508 20.2754C13.1535 19.6826 12.7886 19.0195 12.4679 18.3051C12.1517 17.6006 11.8472 16.8834 11.5652 16.1753C11.539 16.1249 11.5201 16.0798 11.5066 16.042C11.3264 15.5474 11.0715 15.2257 10.7498 15.0906C10.3958 14.9419 9.79215 14.8672 8.95429 14.8672H8.88402V16.96C8.88402 17.6105 8.92546 18.1177 9.00655 18.4682C9.07051 18.7438 9.23268 18.8853 9.53269 18.9258C9.72639 18.9628 9.80026 19.0709 9.82729 19.1321C9.87053 19.2285 9.87053 19.3294 9.82729 19.424C9.77233 19.5448 9.64981 19.6168 9.49845 19.6168H6.60287C6.45152 19.6168 6.32899 19.5448 6.27404 19.424C6.23169 19.3294 6.23169 19.2285 6.27404 19.1339C6.30196 19.0709 6.37584 18.9628 6.55603 18.9276C6.86955 18.8853 7.03172 18.7438 7.09568 18.4682C7.17676 18.1186 7.21731 17.6114 7.21731 16.96V10.4751C7.21731 9.82468 7.17676 9.31746 7.09568 8.9679C7.03172 8.69131 6.86955 8.55077 6.56864 8.50932C6.37584 8.47419 6.30196 8.36428 6.27404 8.30211C6.23169 8.20751 6.23169 8.10751 6.27404 8.01201C6.32899 7.89039 6.45152 7.81831 6.60287 7.81831H10.4192C11.0904 7.81831 11.7634 7.93453 12.4175 8.16427C13.0832 8.39851 13.6409 8.76429 14.0752 9.25169C14.5193 9.7508 14.7445 10.386 14.7445 11.14C14.7445 11.7779 14.5761 12.3383 14.2436 12.8058C13.9184 13.2644 13.4805 13.65 12.9409 13.9518C12.6265 14.1284 12.2886 14.2798 11.9301 14.4032C12.1625 14.505 12.3571 14.6329 12.513 14.7843C12.8067 15.0699 13.0418 15.4248 13.2121 15.8411C13.2679 15.9906 13.3292 16.1393 13.3959 16.2879C13.6247 16.8411 13.8724 17.4051 14.1364 17.9709C14.3959 18.5285 14.6986 19.052 15.0355 19.525C15.3653 19.988 15.7419 20.37 16.1563 20.6619C16.5554 20.943 17.0023 21.0799 17.523 21.0799C18.0437 21.0799 18.46 20.9124 18.7987 20.5727C17.4689 20.3133 16.2671 19.4907 15.5959 18.3655C14.8806 17.1663 14.7842 15.6519 15.341 14.3798C15.7293 13.4914 16.4743 12.6977 17.4509 12.4482C17.8699 12.3419 18.3095 12.3383 18.7438 12.3401C19.4825 12.3437 20.2213 12.3608 20.96 12.3779C21.2222 12.3833 21.5655 12.4581 21.5826 12.7076C21.5997 12.968 21.2465 13.0752 21.0384 13.2455C20.7564 13.4779 20.7339 13.8806 20.7339 14.2356C20.7303 16.169 20.7321 22.2124 20.8177 22.9034C20.8321 23.0241 20.8537 23.1548 20.9447 23.2404C21.0492 23.3386 21.2105 23.3485 21.3564 23.3521C22.2222 23.3755 23.0907 23.398 23.9538 23.3323C24.3331 23.3034 24.725 23.253 25.0457 23.0593C25.5845 22.735 25.7935 22.1016 26.0989 21.5692C26.1737 21.4403 26.2773 21.3016 26.4314 21.2881C26.4836 21.2836 26.5332 21.2962 26.5782 21.3187C26.6278 21.5313 26.6872 21.7412 26.7557 21.9484C26.7539 21.9593 26.7521 21.9692 26.7494 21.98H26.7503Z" fill="#FAFAFA"/>
<path d="M13.0796 11.0589C13.0796 11.7373 12.8904 12.304 12.5184 12.741C12.1382 13.1887 11.6309 13.5284 11.0093 13.75C10.3751 13.977 9.67774 14.0924 8.93717 14.0924H8.88402V10.4751C8.88402 9.73549 8.91465 9.20394 8.97411 8.89492C9.02276 8.64446 9.13718 8.59311 9.29484 8.59311H10.403C11.1688 8.59311 11.7949 8.80303 12.3175 9.23457C12.8301 9.65891 13.0796 10.2553 13.0796 11.0589Z" fill="#FAFAFA"/>
<path d="M19.0609 14.9987V19.8078C18.5996 19.6862 18.169 19.5087 17.7897 19.2448C16.7347 18.5105 15.9869 17.315 16.0347 16.0726C16.077 14.9266 16.9266 13.7689 18.1167 13.6005C18.3933 13.5617 18.6753 13.5752 18.9519 13.5599C19.023 13.9041 19.0609 14.3879 19.0609 14.9987Z" fill="#FAFAFA"/>
</svg>
