<svg width="49" height="48" viewBox="0 0 49 48" fill="none" xmlns="http://www.w3.org/2000/svg">
<path d="M39.2388 31.9776C39.1712 31.9438 39.0969 31.9248 39.0185 31.9316C38.7874 31.9519 38.632 32.16 38.5198 32.3532C38.0617 33.1519 37.7482 34.1019 36.9401 34.5884C36.459 34.879 35.8711 34.9547 35.3022 34.9979C34.0076 35.0966 32.7048 35.0628 31.4061 35.0276C31.1872 35.0222 30.9453 35.0074 30.7885 34.8601C30.6521 34.7317 30.6196 34.5357 30.598 34.3546C30.4696 33.3181 30.4669 24.253 30.4723 21.3529C30.4723 20.8205 30.5061 20.2164 30.9291 19.8678C31.2413 19.6123 31.771 19.4515 31.7453 19.061C31.7197 18.6866 31.2048 18.5745 30.8115 18.5664C29.7034 18.5407 28.5952 18.515 27.4871 18.5096C26.8357 18.5069 26.1763 18.5123 25.5479 18.6718C24.083 19.0461 22.9654 20.2367 22.3829 21.5692C21.5477 23.4773 21.6923 25.749 22.7654 27.5477C23.7721 29.2356 25.5749 30.4694 27.5695 30.8586C27.0614 31.3681 26.4303 31.6194 25.656 31.6194C24.8816 31.6194 24.2046 31.414 23.6059 30.9924C22.9843 30.5545 22.4194 29.9816 21.9248 29.2869C21.4194 28.5775 20.9653 27.7923 20.5761 26.9558C20.1801 26.1071 19.8085 25.2611 19.4653 24.4314C19.3653 24.2084 19.2734 23.9854 19.1896 23.7611C18.9342 23.1368 18.5814 22.6043 18.1409 22.1759C17.9071 21.9489 17.6152 21.757 17.2665 21.6043C17.8044 21.4191 18.3112 21.1921 18.7828 20.9272C19.5923 20.4745 20.2491 19.8961 20.7369 19.2083C21.2356 18.5069 21.4883 17.6663 21.4883 16.7096C21.4883 15.5784 21.1504 14.6257 20.4842 13.877C19.8328 13.1459 18.9963 12.5973 17.9976 12.2459C17.0165 11.9013 16.0071 11.727 15.0003 11.727H9.27578C9.04875 11.727 8.86496 11.8351 8.78252 12.0175C8.71901 12.1608 8.71901 12.3108 8.78252 12.4527C8.82442 12.5459 8.93523 12.7108 9.22443 12.7635C9.67579 12.8257 9.91904 13.0365 10.015 13.4514C10.1366 13.9757 10.1974 14.7365 10.1974 15.7122V25.4395C10.1974 26.4166 10.1366 27.1774 10.015 27.7018C9.91904 28.1153 9.67579 28.3275 9.20551 28.391C8.93523 28.4437 8.82442 28.6058 8.78252 28.7004C8.71901 28.8423 8.71901 28.9937 8.78252 29.1356C8.86496 29.3167 9.04875 29.4248 9.27578 29.4248H13.6191C13.8462 29.4248 14.03 29.3167 14.1124 29.1356C14.1759 28.9937 14.1759 28.8423 14.1124 28.6977C14.0719 28.6058 13.961 28.4437 13.6705 28.3883C13.2205 28.3275 12.9772 28.1153 12.8813 27.7018C12.7597 27.1761 12.6975 26.4152 12.6975 25.4395V22.3003H12.8029C14.0597 22.3003 14.9651 22.4124 15.4962 22.6354C15.9787 22.8381 16.3611 23.3206 16.6314 24.0625C16.6517 24.1192 16.68 24.1868 16.7192 24.2625C17.1422 25.3247 17.599 26.4004 18.0733 27.4572C18.5544 28.5288 19.1017 29.5234 19.6977 30.4126C20.3058 31.3181 21.0153 32.06 21.8045 32.6168C22.6208 33.1938 23.5654 33.4857 24.61 33.4857C25.5789 33.4857 26.4655 33.2384 27.2452 32.7492C27.5087 32.5843 27.7493 32.3978 27.9668 32.1938C27.9547 32.7776 27.925 33.3614 27.8736 33.9438C27.8358 34.3655 27.7479 34.8479 27.3655 35.0614C27.0709 35.2249 26.6276 35.2182 26.4952 35.5168C26.3992 35.7331 26.556 35.9912 26.7736 36.102C26.9925 36.2128 27.2506 36.2155 27.4979 36.2155C30.0466 36.2128 32.594 36.2115 35.1427 36.2088C35.763 36.2088 36.382 36.2074 37.0022 36.2074C37.4104 36.2061 38.3942 36.3858 38.7401 36.1669C39.0861 35.9479 39.0685 35.1736 39.1388 34.8128C39.2577 34.1979 39.378 33.5844 39.4969 32.9695C39.501 32.9533 39.5037 32.9384 39.5064 32.9222C39.4037 32.6114 39.3145 32.2965 39.2401 31.9776H39.2388ZM15.8841 20.6245C14.9327 20.9651 13.8867 21.1381 12.7759 21.1381H12.6961V15.7122C12.6961 14.6027 12.7421 13.8054 12.8313 13.3419C12.9043 12.9662 13.0759 12.8892 13.3124 12.8892H14.9746C16.1233 12.8892 17.0625 13.2041 17.8463 13.8514C18.6152 14.4879 18.9896 15.3825 18.9896 16.5879C18.9896 17.6055 18.7058 18.4556 18.1477 19.111C17.5774 19.7826 16.8165 20.2921 15.8841 20.6245ZM27.9614 29.7113C27.2695 29.5288 26.6236 29.2626 26.0546 28.8667C24.4722 27.7653 23.3505 25.972 23.4221 24.1084C23.4856 22.3894 24.76 20.6529 26.5452 20.4002C26.9601 20.3421 27.383 20.3624 27.7979 20.3394C27.9047 20.8556 27.9614 21.5813 27.9614 22.4976V29.7113Z" fill="#09090B"/>
<path d="M24.1194 0.000976562C10.8866 0.000976562 0.120117 10.7675 0.120117 24.0017C0.120117 37.2358 10.8866 48.0023 24.1194 48.0023C37.3522 48.0023 48.1201 37.2358 48.1201 24.0017C48.1201 10.7675 37.3536 0.000976562 24.1194 0.000976562ZM24.1194 46.6509C11.6313 46.6509 1.47151 36.4898 1.47151 24.0017C1.47151 11.5135 11.6313 1.35237 24.1194 1.35237C36.6076 1.35237 46.7687 11.5135 46.7687 24.0017C46.7687 36.4898 36.609 46.6509 24.1194 46.6509Z" fill="#09090B"/>
<path d="M24.1194 1.35237C11.6313 1.35237 1.47151 11.5135 1.47151 24.0017C1.47151 36.4898 11.6313 46.6509 24.1194 46.6509C36.6076 46.6509 46.7687 36.4898 46.7687 24.0017C46.7687 11.5135 36.609 1.35237 24.1194 1.35237ZM39.4956 32.9695C39.3766 33.5844 39.2564 34.1979 39.1374 34.8128C39.0672 35.1736 39.0847 35.9479 38.7388 36.1669C38.3928 36.3858 37.409 36.2061 37.0009 36.2074C36.3806 36.2074 35.7617 36.2088 35.1414 36.2088C32.5927 36.2115 30.0453 36.2128 27.4966 36.2155C27.2493 36.2155 26.9911 36.2128 26.7722 36.102C26.5546 35.9912 26.3979 35.7331 26.4938 35.5168C26.6263 35.2182 27.0695 35.2249 27.3641 35.0614C27.7466 34.8479 27.8344 34.3655 27.8723 33.9438C27.9236 33.3614 27.9533 32.7776 27.9655 32.1938C27.7479 32.3978 27.5074 32.5843 27.2439 32.7492C26.4641 33.2384 25.5776 33.4857 24.6086 33.4857C23.564 33.4857 22.6194 33.1938 21.8032 32.6168C21.0139 32.06 20.3045 31.3181 19.6963 30.4126C19.1004 29.5234 18.5531 28.5288 18.072 27.4572C17.5976 26.4004 17.1409 25.3247 16.7179 24.2625C16.6787 24.1868 16.6503 24.1192 16.63 24.0625C16.3598 23.3206 15.9773 22.8381 15.4949 22.6354C14.9638 22.4124 14.0583 22.3003 12.8016 22.3003H12.6961V25.4395C12.6961 26.4152 12.7583 27.1761 12.8799 27.7018C12.9759 28.1153 13.2191 28.3275 13.6691 28.3883C13.9597 28.4437 14.0705 28.6058 14.1111 28.6977C14.1759 28.8423 14.1759 28.9937 14.1111 29.1356C14.0286 29.3167 13.8448 29.4248 13.6178 29.4248H9.27443C9.0474 29.4248 8.86361 29.3167 8.78117 29.1356C8.71766 28.9937 8.71766 28.8423 8.78117 28.7004C8.82306 28.6058 8.93388 28.4437 9.20416 28.391C9.67444 28.3275 9.91769 28.1153 10.0136 27.7018C10.1353 27.1774 10.1961 26.4166 10.1961 25.4395V15.7122C10.1961 14.7365 10.1353 13.9757 10.0136 13.4514C9.91769 13.0365 9.67444 12.8257 9.22308 12.7635C8.93388 12.7108 8.82306 12.5459 8.78117 12.4527C8.71766 12.3108 8.71766 12.1608 8.78117 12.0175C8.86361 11.8351 9.0474 11.727 9.27443 11.727H14.9989C16.0057 11.727 17.0152 11.9013 17.9963 12.2459C18.995 12.5973 19.8315 13.1459 20.4829 13.877C21.1491 14.6257 21.4869 15.5784 21.4869 16.7096C21.4869 17.6663 21.2342 18.5069 20.7356 19.2083C20.2477 19.8961 19.5909 20.4745 18.7815 20.9272C18.3098 21.1921 17.803 21.4191 17.2652 21.6043C17.6139 21.757 17.9058 21.9489 18.1395 22.1759C18.5801 22.6043 18.9328 23.1368 19.1882 23.7611C19.272 23.9854 19.3639 24.2084 19.4639 24.4314C19.8072 25.2611 20.1788 26.1071 20.5747 26.9558C20.9639 27.7923 21.418 28.5775 21.9234 29.2869C22.418 29.9816 22.9829 30.5545 23.6046 30.9924C24.2032 31.414 24.8735 31.6194 25.6546 31.6194C26.4357 31.6194 27.0601 31.3681 27.5682 30.8586C25.5735 30.4694 23.7708 29.2356 22.764 27.5477C21.691 25.749 21.5464 23.4773 22.3816 21.5692C22.964 20.2367 24.0816 19.0461 25.5465 18.6718C26.1749 18.5123 26.8344 18.5069 27.4858 18.5096C28.5939 18.515 29.702 18.5407 30.8102 18.5664C31.2034 18.5745 31.7183 18.6866 31.744 19.061C31.7697 19.4515 31.2399 19.6123 30.9277 19.8678C30.5048 20.2164 30.471 20.8205 30.471 21.3529C30.4656 24.253 30.4683 33.3181 30.5967 34.3546C30.6183 34.5357 30.6507 34.7317 30.7872 34.8601C30.944 35.0074 31.1859 35.0222 31.4048 35.0276C32.7035 35.0628 34.0062 35.0966 35.3008 34.9979C35.8698 34.9547 36.4576 34.879 36.9387 34.5884C37.7469 34.1019 38.0604 33.1519 38.5185 32.3532C38.6307 32.16 38.7861 31.9519 39.0172 31.9316C39.0955 31.9248 39.1699 31.9438 39.2374 31.9776C39.3118 32.2965 39.401 32.6114 39.5037 32.9222C39.501 32.9384 39.4983 32.9533 39.4942 32.9695H39.4956Z" fill="#FAFAFA"/>
<path d="M18.9896 16.5879C18.9896 17.6055 18.7058 18.4556 18.1477 19.111C17.5774 19.7826 16.8165 20.2921 15.8841 20.6245C14.9327 20.9651 13.8867 21.1381 12.7759 21.1381H12.6961V15.7122C12.6961 14.6027 12.7421 13.8054 12.8313 13.3419C12.9043 12.9662 13.0759 12.8892 13.3124 12.8892H14.9746C16.1233 12.8892 17.0625 13.2041 17.8463 13.8514C18.6152 14.4879 18.9896 15.3825 18.9896 16.5879Z" fill="#FAFAFA"/>
<path d="M27.9614 22.4976V29.7113C27.2695 29.5288 26.6236 29.2626 26.0546 28.8667C24.4722 27.7653 23.3505 25.972 23.4221 24.1084C23.4856 22.3894 24.76 20.6529 26.5452 20.4002C26.9601 20.3421 27.383 20.3624 27.7979 20.3394C27.9047 20.8556 27.9614 21.5813 27.9614 22.4976Z" fill="#FAFAFA"/>
</svg>
