<svg width="97" height="96" viewBox="0 0 97 96" fill="none" xmlns="http://www.w3.org/2000/svg">
<path d="M78.4776 63.9532C78.3424 63.8856 78.1938 63.8477 78.037 63.8613C77.5748 63.9018 77.264 64.318 77.0397 64.7045C76.1235 66.3019 75.4964 68.2019 73.8801 69.1749C72.918 69.756 71.7422 69.9074 70.6044 69.9939C68.0151 70.1912 65.4096 70.1236 62.8123 70.0533C62.3744 70.0425 61.8906 70.0128 61.5771 69.7182C61.3041 69.4614 61.2393 69.0695 61.196 68.7073C60.9392 66.6343 60.9338 48.5041 60.9446 42.7039C60.9446 41.639 61.0122 40.4309 61.8582 39.7336C62.4825 39.2227 63.542 38.9011 63.4907 38.12C63.4393 37.3713 62.4096 37.147 61.623 37.1308C59.4068 37.0794 57.1905 37.0281 54.9742 37.0173C53.6715 37.0119 52.3525 37.0227 51.0957 37.3416C48.1659 38.0903 45.9307 40.4714 44.7658 43.1364C43.0955 46.9527 43.3847 51.496 45.5307 55.0934C47.5443 58.4692 51.1498 60.9369 55.1391 61.7153C54.1228 62.7342 52.8606 63.2369 51.3119 63.2369C49.7633 63.2369 48.4092 62.8261 47.2118 61.9828C45.9685 61.1071 44.8388 59.9611 43.8496 58.5719C42.8387 57.153 41.9306 55.5826 41.1522 53.9096C40.3603 52.2123 39.617 50.5203 38.9305 48.8608C38.7305 48.4149 38.5467 47.9689 38.3791 47.5203C37.8683 46.2716 37.1629 45.2067 36.2818 44.3499C35.8142 43.8958 35.2304 43.512 34.5331 43.2066C35.6088 42.8363 36.6223 42.3823 37.5656 41.8525C39.1846 40.9471 40.4981 39.7903 41.4738 38.4146C42.4712 37.0119 42.9766 35.3307 42.9766 33.4172C42.9766 31.1549 42.3009 29.2495 40.9684 27.7521C39.6657 26.2899 37.9926 25.1926 35.9953 24.4899C34.0331 23.8007 32.0141 23.452 30.0005 23.452H18.5516C18.0975 23.452 17.7299 23.6682 17.565 24.0331C17.438 24.3196 17.438 24.6196 17.565 24.9034C17.6488 25.0899 17.8705 25.4196 18.4489 25.525C19.3516 25.6494 19.8381 26.071 20.03 26.9008C20.2732 27.9494 20.3949 29.4711 20.3949 31.4225V50.8771C20.3949 52.8312 20.2732 54.3529 20.03 55.4016C19.8381 56.2286 19.3516 56.6529 18.411 56.78C17.8705 56.8854 17.6488 57.2097 17.565 57.3989C17.438 57.6827 17.438 57.9854 17.565 58.2692C17.7299 58.6314 18.0975 58.8476 18.5516 58.8476H27.2383C27.6924 58.8476 28.0599 58.6314 28.2248 58.2692C28.3518 57.9854 28.3518 57.6827 28.2248 57.3935C28.1437 57.2097 27.9221 56.8854 27.341 56.7746C26.441 56.6529 25.9545 56.2286 25.7626 55.4016C25.5193 54.3502 25.395 52.8285 25.395 50.8771V44.5986H25.6058C28.1194 44.5986 29.9303 44.8229 30.9925 45.2688C31.9573 45.6743 32.7222 46.6392 33.2628 48.123C33.3033 48.2365 33.3601 48.3716 33.4385 48.523C34.2844 50.6474 35.198 52.7988 36.1467 54.9124C37.1088 57.0557 38.2035 59.0449 39.3954 60.8233C40.6116 62.6342 42.0306 64.118 43.609 65.2316C45.2415 66.3857 47.1307 66.9695 49.22 66.9695C51.1579 66.9695 52.9309 66.4748 54.4904 65.4964C55.0175 65.1667 55.4985 64.7937 55.9337 64.3856C55.9094 65.5532 55.8499 66.7208 55.7472 67.8857C55.6715 68.729 55.4958 69.6939 54.731 70.1209C54.1418 70.4479 53.2552 70.4344 52.9904 71.0317C52.7985 71.4642 53.112 71.9804 53.5471 72.202C53.985 72.4237 54.5012 72.4291 54.9958 72.4291C60.0933 72.4237 65.188 72.421 70.2855 72.4156C71.526 72.4156 72.7639 72.4129 74.0045 72.4129C74.8207 72.4102 76.7883 72.7696 77.4802 72.3318C78.1722 71.8939 78.137 70.3452 78.2776 69.6236C78.5154 68.3938 78.756 67.1668 78.9938 65.937C79.0019 65.9046 79.0073 65.8748 79.0127 65.8424C78.8073 65.2208 78.6289 64.591 78.4803 63.9532H78.4776ZM31.7682 41.2471C29.8654 41.9282 27.7734 42.2742 25.5518 42.2742H25.3923V31.4225C25.3923 29.2035 25.4842 27.6089 25.6626 26.6818C25.8085 25.9305 26.1518 25.7764 26.6248 25.7764H29.9492C32.2465 25.7764 34.125 26.4061 35.6926 27.7008C37.2305 28.9738 37.9791 30.763 37.9791 33.1739C37.9791 35.2091 37.4116 36.9091 36.2953 38.22C35.1547 39.5633 33.6331 40.5822 31.7682 41.2471ZM55.9229 59.4206C54.5391 59.0557 53.2471 58.5233 52.1093 57.7314C48.9443 55.5286 46.701 51.942 46.8442 48.2149C46.9713 44.7769 49.52 41.3039 53.0904 40.7984C53.9201 40.6822 54.7661 40.7228 55.5958 40.6768C55.8094 41.7093 55.9229 43.1607 55.9229 44.9932V59.4206Z" fill="#09090B"/>
<path d="M48.2389 0C21.7733 0 0.240234 21.533 0.240234 48.0014C0.240234 74.4697 21.7733 96.0027 48.2389 96.0027C74.7045 96.0027 96.2402 74.4697 96.2402 48.0014C96.2402 21.533 74.7072 0 48.2389 0ZM48.2389 93.2999C23.2625 93.2999 2.94301 72.9777 2.94301 48.0014C2.94301 23.025 23.2625 2.70278 48.2389 2.70278C73.2153 2.70278 93.5375 23.025 93.5375 48.0014C93.5375 72.9777 73.218 93.2999 48.2389 93.2999Z" fill="#09090B"/>
<path d="M48.2389 2.70278C23.2625 2.70278 2.94301 23.025 2.94301 48.0014C2.94301 72.9777 23.2625 93.2999 48.2389 93.2999C73.2153 93.2999 93.5375 72.9777 93.5375 48.0014C93.5375 23.025 73.218 2.70278 48.2389 2.70278ZM78.9911 65.937C78.7533 67.1668 78.5127 68.3938 78.2749 69.6236C78.1343 70.3452 78.1695 71.8939 77.4775 72.3318C76.7856 72.7696 74.818 72.4102 74.0018 72.4129C72.7612 72.4129 71.5233 72.4156 70.2827 72.4156C65.1853 72.421 60.0906 72.4237 54.9931 72.4291C54.4985 72.4291 53.9823 72.4237 53.5444 72.202C53.1093 71.9804 52.7958 71.4642 52.9877 71.0317C53.2525 70.4344 54.1391 70.4479 54.7283 70.1209C55.4931 69.6939 55.6688 68.729 55.7445 67.8857C55.8472 66.7208 55.9067 65.5532 55.931 64.3856C55.4958 64.7937 55.0148 65.1667 54.4877 65.4964C52.9282 66.4748 51.1552 66.9695 49.2173 66.9695C47.128 66.9695 45.2388 66.3857 43.6063 65.2316C42.0279 64.118 40.6089 62.6342 39.3927 60.8233C38.2008 59.0449 37.1061 57.0557 36.1439 54.9124C35.1953 52.7988 34.2817 50.6474 33.4358 48.523C33.3574 48.3716 33.3006 48.2365 33.2601 48.123C32.7195 46.6392 31.9546 45.6743 30.9897 45.2688C29.9276 44.8229 28.1167 44.5986 25.6031 44.5986H25.3923V50.8771C25.3923 52.8285 25.5166 54.3502 25.7599 55.4016C25.9518 56.2286 26.4383 56.6529 27.3383 56.7746C27.9194 56.8854 28.141 57.2097 28.2221 57.3935C28.3518 57.6827 28.3518 57.9854 28.2221 58.2692C28.0572 58.6314 27.6897 58.8476 27.2356 58.8476H18.5489C18.0948 58.8476 17.7272 58.6314 17.5623 58.2692C17.4353 57.9854 17.4353 57.6827 17.5623 57.3989C17.6461 57.2097 17.8678 56.8854 18.4083 56.78C19.3489 56.6529 19.8354 56.2286 20.0273 55.4016C20.2705 54.3529 20.3922 52.8312 20.3922 50.8771V31.4225C20.3922 29.4711 20.2705 27.9494 20.0273 26.9008C19.8354 26.071 19.3489 25.6494 18.4462 25.525C17.8678 25.4196 17.6461 25.0899 17.5623 24.9034C17.4353 24.6196 17.4353 24.3196 17.5623 24.0331C17.7272 23.6682 18.0948 23.452 18.5489 23.452H29.9978C32.0114 23.452 34.0304 23.8007 35.9926 24.4899C37.9899 25.1926 39.663 26.2899 40.9657 27.7521C42.2982 29.2495 42.9739 31.1549 42.9739 33.4172C42.9739 35.3307 42.4685 37.0119 41.4711 38.4146C40.4954 39.7903 39.1819 40.9471 37.5629 41.8525C36.6196 42.3823 35.6061 42.8363 34.5304 43.2066C35.2277 43.512 35.8115 43.8958 36.2791 44.3499C37.1602 45.2067 37.8656 46.2716 38.3764 47.5203C38.544 47.9689 38.7278 48.4149 38.9278 48.8608C39.6143 50.5203 40.3576 52.2123 41.1495 53.9096C41.9279 55.5826 42.836 57.153 43.8469 58.5719C44.8361 59.9612 45.9658 61.1071 47.2091 61.9828C48.4065 62.8261 49.747 63.2369 51.3092 63.2369C52.8714 63.2369 54.1201 62.7342 55.1364 61.7153C51.1471 60.9369 47.5416 58.4692 45.528 55.0934C43.382 51.496 43.0928 46.9527 44.7631 43.1364C45.928 40.4714 48.1632 38.0903 51.093 37.3416C52.3498 37.0227 53.6688 37.0119 54.9715 37.0173C57.1878 37.0281 59.4041 37.0794 61.6203 37.1308C62.4069 37.147 63.4366 37.3713 63.488 38.12C63.5393 38.9011 62.4798 39.2227 61.8555 39.7336C61.0095 40.4309 60.9419 41.639 60.9419 42.7039C60.9311 48.5041 60.9365 66.6343 61.1933 68.7073C61.2365 69.0695 61.3014 69.4614 61.5744 69.7182C61.8879 70.0128 62.3717 70.0425 62.8096 70.0533C65.4069 70.1236 68.0124 70.1912 70.6017 69.9939C71.7395 69.9074 72.9153 69.756 73.8774 69.1749C75.4937 68.2019 76.1208 66.3019 77.037 64.7045C77.2613 64.318 77.5721 63.9018 78.0343 63.8613C78.1911 63.8477 78.3397 63.8856 78.4749 63.9532C78.6235 64.591 78.8019 65.2208 79.0073 65.8424C79.0019 65.8748 78.9965 65.9046 78.9884 65.937H78.9911Z" fill="#FAFAFA"/>
<path d="M37.9791 33.1739C37.9791 35.2091 37.4116 36.9091 36.2953 38.22C35.1547 39.5633 33.6331 40.5822 31.7682 41.2471C29.8654 41.9282 27.7734 42.2742 25.5518 42.2742H25.3923V31.4225C25.3923 29.2035 25.4842 27.6089 25.6626 26.6818C25.8085 25.9305 26.1518 25.7764 26.6248 25.7764H29.9492C32.2465 25.7764 34.125 26.4061 35.6926 27.7008C37.2305 28.9738 37.9791 30.763 37.9791 33.1739Z" fill="#FAFAFA"/>
<path d="M55.9229 44.9932V59.4206C54.5391 59.0557 53.2471 58.5233 52.1093 57.7314C48.9443 55.5286 46.701 51.942 46.8442 48.2149C46.9713 44.7769 49.52 41.3039 53.0904 40.7984C53.9201 40.6822 54.7661 40.7228 55.5958 40.6768C55.8094 41.7093 55.9229 43.1607 55.9229 44.9932Z" fill="#FAFAFA"/>
</svg>
