<svg width="25" height="24" viewBox="0 0 25 24" fill="none" xmlns="http://www.w3.org/2000/svg">
<path d="M20.0593 15.9893C20.0256 15.9724 19.9884 15.9629 19.9492 15.9663C19.8337 15.9764 19.7559 16.0805 19.6999 16.1771C19.4708 16.5764 19.314 17.0515 18.91 17.2947C18.6694 17.44 18.3755 17.4778 18.091 17.4994C17.4437 17.5488 16.7924 17.5319 16.143 17.5143C16.0335 17.5116 15.9126 17.5042 15.8342 17.4305C15.766 17.3663 15.7498 17.2684 15.7389 17.1778C15.6748 16.6596 15.6734 12.127 15.6761 10.677C15.6761 10.4107 15.693 10.1087 15.9045 9.93436C16.0606 9.80666 16.3254 9.72625 16.3126 9.53097C16.2998 9.34381 16.0423 9.28773 15.8457 9.28367C15.2916 9.27083 14.7376 9.25799 14.1835 9.25529C13.8578 9.25394 13.5281 9.25664 13.2139 9.33638C12.4814 9.52354 11.9226 10.1188 11.6314 10.7851C11.2138 11.7391 11.2861 12.875 11.8226 13.7743C12.326 14.6183 13.2274 15.2352 14.2247 15.4298C13.9706 15.6845 13.6551 15.8102 13.2679 15.8102C12.8808 15.8102 12.5422 15.7075 12.2429 15.4967C11.9321 15.2778 11.6496 14.9913 11.4023 14.644C11.1496 14.2892 10.9226 13.8966 10.728 13.4784C10.53 13.054 10.3442 12.6311 10.1726 12.2162C10.1226 12.1047 10.0766 11.9932 10.0347 11.881C9.90702 11.5689 9.73067 11.3026 9.51039 11.0885C9.39349 10.9749 9.24754 10.879 9.07321 10.8026C9.34214 10.7101 9.59553 10.5965 9.83134 10.4641C10.2361 10.2378 10.5645 9.94855 10.8084 9.60463C11.0577 9.25394 11.1841 8.83366 11.1841 8.35527C11.1841 7.78971 11.0152 7.31334 10.682 6.93901C10.3564 6.57346 9.9381 6.29913 9.43876 6.12345C8.94821 5.95114 8.44347 5.86398 7.94007 5.86398H5.07783C4.96432 5.86398 4.87242 5.91804 4.8312 6.00925C4.79945 6.08088 4.79945 6.15588 4.8312 6.22683C4.85215 6.27345 4.90756 6.35589 5.05216 6.38224C5.27784 6.41332 5.39946 6.51873 5.44744 6.72617C5.50825 6.98834 5.53866 7.36875 5.53866 7.8566V12.7203C5.53866 13.2088 5.50825 13.5892 5.44744 13.8514C5.39946 14.0581 5.27784 14.1642 5.0427 14.196C4.90756 14.2223 4.85215 14.3034 4.8312 14.3507C4.79945 14.4217 4.79945 14.4973 4.8312 14.5683C4.87242 14.6588 4.96432 14.7129 5.07783 14.7129H7.24951C7.36303 14.7129 7.45493 14.6588 7.49614 14.5683C7.5279 14.4973 7.5279 14.4217 7.49614 14.3494C7.47587 14.3034 7.42047 14.2223 7.27519 14.1946C7.05018 14.1642 6.92856 14.0581 6.88059 13.8514C6.81977 13.5885 6.78869 13.2081 6.78869 12.7203V11.1506H6.84139C7.46979 11.1506 7.92251 11.2067 8.18805 11.3182C8.42928 11.4195 8.6205 11.6608 8.75564 12.0317C8.76577 12.0601 8.77996 12.0939 8.79956 12.1317C9.01105 12.6628 9.23944 13.2007 9.4766 13.7291C9.71715 14.2649 9.99081 14.7622 10.2888 15.2068C10.5929 15.6595 10.9476 16.0305 11.3422 16.3089C11.7503 16.5974 12.2226 16.7433 12.7449 16.7433C13.2294 16.7433 13.6727 16.6197 14.0625 16.3751C14.1943 16.2927 14.3146 16.1994 14.4234 16.0974C14.4173 16.3893 14.4024 16.6812 14.3767 16.9724C14.3578 17.1832 14.3139 17.4244 14.1227 17.5312C13.9754 17.613 13.7538 17.6096 13.6875 17.7589C13.6396 17.867 13.7179 17.9961 13.8267 18.0515C13.9362 18.1069 14.0652 18.1082 14.1889 18.1082C15.4633 18.1069 16.7369 18.1062 18.0113 18.1049C18.3214 18.1049 18.6309 18.1042 18.9411 18.1042C19.1451 18.1035 19.637 18.1934 19.81 18.0839C19.983 17.9745 19.9742 17.5873 20.0093 17.4069C20.0688 17.0994 20.1289 16.7927 20.1884 16.4852C20.1904 16.4771 20.1918 16.4697 20.1931 16.4616C20.1418 16.3062 20.0972 16.1487 20.06 15.9893H20.0593ZM8.38198 10.3128C7.90629 10.483 7.3833 10.5695 6.82788 10.5695H6.78801V7.8566C6.78801 7.30186 6.81099 6.9032 6.85558 6.67143C6.89207 6.48359 6.97789 6.44508 7.09613 6.44508H7.92724C8.50158 6.44508 8.97118 6.60251 9.36309 6.92617C9.74756 7.24442 9.93473 7.69173 9.93473 8.29445C9.93473 8.80325 9.79283 9.22826 9.51377 9.55598C9.22862 9.8918 8.84821 10.1465 8.38198 10.3128ZM14.4207 14.8561C14.0747 14.7649 13.7517 14.6318 13.4673 14.4338C12.676 13.8831 12.1152 12.9865 12.151 12.0547C12.1828 11.1952 12.8199 10.3269 13.7125 10.2006C13.92 10.1715 14.1315 10.1817 14.3389 10.1702C14.3923 10.4283 14.4207 10.7911 14.4207 11.2493V14.8561Z" fill="#09090B"/>
<path d="M12.4997 0.000976562C5.88326 0.000976562 0.5 5.38424 0.5 12.0013C0.5 18.6184 5.88326 24.0017 12.4997 24.0017C19.1161 24.0017 24.5 18.6184 24.5 12.0013C24.5 5.38424 19.1167 0.000976562 12.4997 0.000976562ZM12.4997 23.326C6.25557 23.326 1.17569 18.2454 1.17569 12.0013C1.17569 5.75722 6.25557 0.676671 12.4997 0.676671C18.7438 0.676671 23.8243 5.75722 23.8243 12.0013C23.8243 18.2454 18.7444 23.326 12.4997 23.326Z" fill="#09090B"/>
<path d="M12.4997 0.676671C6.25557 0.676671 1.17569 5.75722 1.17569 12.0013C1.17569 18.2454 6.25557 23.326 12.4997 23.326C18.7438 23.326 23.8243 18.2454 23.8243 12.0013C23.8243 5.75722 18.7444 0.676671 12.4997 0.676671ZM20.1877 16.4852C20.1283 16.7927 20.0681 17.0994 20.0087 17.4069C19.9735 17.5873 19.9823 17.9745 19.8093 18.0839C19.6363 18.1934 19.1444 18.1035 18.9404 18.1042C18.6302 18.1042 18.3208 18.1049 18.0106 18.1049C16.7363 18.1062 15.4626 18.1069 14.1882 18.1082C14.0646 18.1082 13.9355 18.1069 13.8261 18.0515C13.7173 17.9961 13.6389 17.867 13.6869 17.7589C13.7531 17.6096 13.9747 17.613 14.122 17.5312C14.3132 17.4244 14.3571 17.1832 14.3761 16.9724C14.4017 16.6812 14.4166 16.3893 14.4227 16.0974C14.3139 16.1994 14.1936 16.2927 14.0619 16.3751C13.672 16.6197 13.2287 16.7433 12.7443 16.7433C12.222 16.7433 11.7496 16.5974 11.3415 16.3089C10.9469 16.0305 10.5922 15.6595 10.2881 15.2068C9.99013 14.7622 9.71648 14.2649 9.47593 13.7291C9.23876 13.2007 9.01037 12.6628 8.79888 12.1317C8.77929 12.0939 8.7651 12.0601 8.75496 12.0317C8.61982 11.6608 8.4286 11.4195 8.18738 11.3182C7.92183 11.2067 7.46912 11.1506 6.84072 11.1506H6.78801V12.7203C6.78801 13.2081 6.8191 13.5885 6.87991 13.8514C6.92788 14.0581 7.04951 14.1642 7.27452 14.1946C7.41979 14.2223 7.4752 14.3034 7.49547 14.3494C7.5279 14.4217 7.5279 14.4973 7.49547 14.5683C7.45425 14.6588 7.36236 14.7129 7.24884 14.7129H5.07716C4.96364 14.7129 4.87174 14.6588 4.83053 14.5683C4.79877 14.4973 4.79877 14.4217 4.83053 14.3507C4.85147 14.3034 4.90688 14.2223 5.04202 14.196C5.27716 14.1642 5.39879 14.0581 5.44676 13.8514C5.50757 13.5892 5.53798 13.2088 5.53798 12.7203V7.8566C5.53798 7.36875 5.50757 6.98834 5.44676 6.72617C5.39879 6.51873 5.27716 6.41332 5.05148 6.38224C4.90688 6.35589 4.85147 6.27345 4.83053 6.22683C4.79877 6.15588 4.79877 6.08088 4.83053 6.00925C4.87174 5.91804 4.96364 5.86398 5.07716 5.86398H7.9394C8.44279 5.86398 8.94754 5.95114 9.43809 6.12345C9.93743 6.29913 10.3557 6.57346 10.6814 6.93901C11.0145 7.31334 11.1834 7.78971 11.1834 8.35527C11.1834 8.83366 11.0571 9.25394 10.8077 9.60463C10.5638 9.94855 10.2354 10.2378 9.83067 10.4641C9.59485 10.5965 9.34147 10.7101 9.07254 10.8026C9.24687 10.879 9.39282 10.9749 9.50971 11.0885C9.72999 11.3026 9.90635 11.5689 10.0341 11.881C10.0759 11.9932 10.1219 12.1047 10.1719 12.2162C10.3435 12.6311 10.5293 13.054 10.7273 13.4784C10.9219 13.8966 11.1489 14.2892 11.4017 14.644C11.649 14.9913 11.9314 15.2778 12.2422 15.4967C12.5416 15.7075 12.8767 15.8102 13.2673 15.8102C13.6578 15.8102 13.97 15.6845 14.224 15.4298C13.2267 15.2352 12.3253 14.6183 11.8219 13.7743C11.2854 12.875 11.2131 11.7391 11.6307 10.7851C11.9219 10.1188 12.4807 9.52354 13.2132 9.33638C13.5274 9.25664 13.8571 9.25394 14.1828 9.25529C14.7369 9.25799 15.291 9.27083 15.845 9.28367C16.0417 9.28773 16.2991 9.34381 16.3119 9.53097C16.3248 9.72625 16.0599 9.80666 15.9038 9.93436C15.6923 10.1087 15.6754 10.4107 15.6754 10.677C15.6727 12.127 15.6741 16.6596 15.7383 17.1778C15.7491 17.2684 15.7653 17.3663 15.8335 17.4305C15.9119 17.5042 16.0329 17.5116 16.1423 17.5143C16.7917 17.5319 17.443 17.5488 18.0904 17.4994C18.3748 17.4778 18.6688 17.44 18.9093 17.2947C19.3134 17.0515 19.4701 16.5764 19.6992 16.1771C19.7553 16.0805 19.833 15.9764 19.9485 15.9663C19.9877 15.9629 20.0249 15.9724 20.0587 15.9893C20.0958 16.1487 20.1404 16.3062 20.1918 16.4616C20.1904 16.4697 20.1891 16.4771 20.187 16.4852H20.1877Z" fill="#FAFAFA"/>
<path d="M9.93473 8.29445C9.93473 8.80325 9.79283 9.22826 9.51377 9.55598C9.22862 9.8918 8.84821 10.1465 8.38198 10.3128C7.90629 10.483 7.3833 10.5695 6.82788 10.5695H6.78801V7.8566C6.78801 7.30186 6.81099 6.9032 6.85558 6.67143C6.89207 6.48359 6.97789 6.44508 7.09613 6.44508H7.92724C8.50158 6.44508 8.97118 6.60251 9.36309 6.92617C9.74756 7.24442 9.93473 7.69173 9.93473 8.29445Z" fill="#FAFAFA"/>
<path d="M14.4207 11.2493V14.8561C14.0747 14.7649 13.7517 14.6318 13.4673 14.4338C12.676 13.8831 12.1152 12.9865 12.151 12.0547C12.1828 11.1952 12.8199 10.3269 13.7125 10.2006C13.92 10.1715 14.1315 10.1817 14.3389 10.1702C14.3923 10.4283 14.4207 10.7911 14.4207 11.2493Z" fill="#FAFAFA"/>
</svg>
