<svg width="501" height="128" viewBox="0 0 501 128" fill="none" xmlns="http://www.w3.org/2000/svg">
<path d="M251.041 111.763V121.001H246.789V95.7072H255.403C261.232 95.7072 264.714 98.4932 264.714 103.699C264.714 108.904 261.268 111.763 255.403 111.763H251.041ZM254.963 108.097C258.849 108.097 260.462 106.594 260.462 103.699C260.462 100.803 258.849 99.4096 254.963 99.4096H251.041V108.097H254.963Z" fill="white"/>
<path d="M273.249 110.187H277.208V108.647C277.208 106.338 276.328 105.715 273.579 105.715C271.6 105.715 270.61 105.935 269.73 107.364L266.908 105.385C268.227 103.222 270.207 102.342 273.836 102.342C278.528 102.342 281.057 103.808 281.057 108.684V121.001H277.208V119.314C276.328 120.744 275.192 121.331 272.956 121.331C268.924 121.331 266.431 119.278 266.431 115.612C266.431 111.69 269.327 110.187 273.249 110.187ZM277.208 113.193H273.542C271.233 113.193 270.28 113.999 270.28 115.612C270.28 117.225 271.526 117.995 273.396 117.995C275.779 117.995 277.208 117.262 277.208 114.073V113.193Z" fill="white"/>
<path d="M283.024 102.672H285.371V98.6398H289.256V102.672H293.142V106.045H289.256V114.439C289.256 116.565 289.586 117.482 291.639 117.482H293.142V121.001H291.346C286.947 121.001 285.371 119.498 285.371 115.172V106.045H283.024V102.672Z" fill="white"/>
<path d="M295.531 95.7072H299.82V99.7029H295.531V95.7072ZM295.714 102.672H299.636V121.001H295.714V102.672Z" fill="white"/>
<path d="M317.091 118.215C315.808 120.451 313.755 121.331 310.53 121.331C305.288 121.331 302.502 117.922 302.502 113.046V110.553C302.502 105.165 305.141 102.342 309.943 102.342C314.745 102.342 317.348 105.348 317.348 110.773V112.79H306.387V112.863C306.387 115.722 307.487 117.958 310.383 117.958C312.546 117.958 313.426 117.298 314.159 116.162L317.091 118.215ZM306.424 109.784H313.426C313.279 107.108 312.179 105.751 309.943 105.751C307.707 105.751 306.607 107.291 306.424 109.784Z" fill="white"/>
<path d="M320.128 102.672H323.977V104.322C324.783 103.222 326.103 102.342 328.522 102.342C332.298 102.342 335.194 104.248 335.194 109.527V121.001H331.308V109.967C331.308 106.741 329.842 105.825 327.826 105.825C325.406 105.825 324.05 107.474 324.05 109.93V121.001H320.128V102.672Z" fill="white"/>
<path d="M337.076 102.672H339.422V98.6398H343.307V102.672H347.193V106.045H343.307V114.439C343.307 116.565 343.637 117.482 345.69 117.482H347.193V121.001H345.397C340.998 121.001 339.422 119.498 339.422 115.172V106.045H337.076V102.672Z" fill="white"/>
<path d="M357.42 121.001L366.218 95.7072H370.25L379.048 121.001H374.539L372.816 115.759H363.689L361.966 121.001H357.42ZM364.862 112.093H371.607L368.234 101.866L364.862 112.093Z" fill="white"/>
<path d="M391.475 95.7072H395.361V121.001H391.475V119.718C390.485 120.744 389.092 121.331 387.076 121.331C382.201 121.331 379.781 117.848 379.781 113.046V110.553C379.781 105.275 382.641 102.342 387.076 102.342C388.982 102.342 390.449 102.892 391.475 103.955V95.7072ZM391.475 112.863V110.517C391.475 107.511 390.119 105.751 387.589 105.751C385.06 105.751 383.667 107.548 383.667 110.737V112.863C383.667 115.722 384.767 117.958 387.589 117.958C390.412 117.958 391.475 115.722 391.475 112.863Z" fill="white"/>
<path d="M415.443 102.672L408.294 121.001H404.555L397.261 102.672H401.586L406.352 115.759L411.08 102.672H415.443Z" fill="white"/>
<path d="M431.511 112.973C431.511 117.848 429.128 121.331 423.739 121.331C418.351 121.331 415.931 118.031 415.931 112.973V110.663C415.931 105.275 418.791 102.342 423.739 102.342C428.688 102.342 431.511 105.275 431.511 110.663V112.973ZM427.625 112.863V110.737C427.625 107.548 426.342 105.751 423.739 105.751C421.137 105.751 419.817 107.584 419.817 110.737V112.863C419.817 115.722 420.77 117.958 423.739 117.958C426.525 117.958 427.625 115.722 427.625 112.863Z" fill="white"/>
<path d="M448.171 118.215C446.962 120.378 444.799 121.331 441.646 121.331C436.514 121.331 433.582 118.031 433.582 113.046V110.553C433.582 105.275 436.551 102.342 441.793 102.342C444.579 102.342 446.888 103.369 448.171 105.311L445.166 107.401C444.469 106.411 443.296 105.751 441.72 105.751C438.861 105.751 437.468 107.584 437.468 110.737V112.863C437.468 115.722 438.494 117.958 441.72 117.958C443.259 117.958 444.506 117.408 445.202 116.162L448.171 118.215Z" fill="white"/>
<path d="M456.389 110.187H460.348V108.647C460.348 106.338 459.468 105.715 456.719 105.715C454.739 105.715 453.749 105.935 452.87 107.364L450.047 105.385C451.367 103.222 453.346 102.342 456.975 102.342C461.667 102.342 464.197 103.808 464.197 108.684V121.001H460.348V119.314C459.468 120.744 458.332 121.331 456.096 121.331C452.063 121.331 449.571 119.278 449.571 115.612C449.571 111.69 452.466 110.187 456.389 110.187ZM460.348 113.193H456.682C454.373 113.193 453.42 113.999 453.42 115.612C453.42 117.225 454.666 117.995 456.535 117.995C458.918 117.995 460.348 117.262 460.348 114.073V113.193Z" fill="white"/>
<path d="M481.444 118.215C480.234 120.378 478.072 121.331 474.919 121.331C469.787 121.331 466.854 118.031 466.854 113.046V110.553C466.854 105.275 469.824 102.342 475.066 102.342C477.852 102.342 480.161 103.369 481.444 105.311L478.438 107.401C477.742 106.411 476.569 105.751 474.992 105.751C472.133 105.751 470.74 107.584 470.74 110.737V112.863C470.74 115.722 471.767 117.958 474.992 117.958C476.532 117.958 477.778 117.408 478.475 116.162L481.444 118.215Z" fill="white"/>
<path d="M486.319 102.672L490.975 115.575L495.154 102.672H499.186L492.734 121.734C491.158 126.426 489.802 127.966 484.67 127.966V124.373C487.236 124.373 488.262 123.97 489.179 121.221L482.177 102.672H486.319Z" fill="white"/>
<path d="M89.7553 83.6531C89.6881 83.6531 89.5109 83.6653 89.4437 83.6714C88.6494 83.7631 87.9529 84.2335 87.3542 85.0888C84.7943 88.9745 81.3485 90.8624 76.8152 90.8624C73.2839 90.8624 70.2536 89.9337 67.5471 88.0275C64.7428 86.048 62.1829 83.4576 59.9468 80.3173C57.6618 77.1098 55.609 73.5601 53.8434 69.7783C52.0533 65.9415 50.3732 62.1109 48.8274 58.3596C48.3753 57.3515 47.9599 56.3496 47.575 55.3293C46.4203 52.5067 44.8257 50.0995 42.834 48.1628C41.777 47.1364 40.4574 46.2688 38.8872 45.5784C41.3127 44.7414 43.6038 43.7211 45.7421 42.5237C49.4017 40.477 52.371 37.8621 54.5765 34.7523C56.8309 31.5815 57.9734 27.7752 57.9734 23.4558C57.9734 18.3421 56.446 14.0349 53.434 10.6502C50.4954 7.34494 46.7135 4.86447 42.1925 3.27599C37.757 1.71806 33.1992 0.929926 28.6415 0.929926H2.76151C1.74122 0.929926 0.904211 1.41869 0.531529 2.24348C0.244381 2.89109 0.244381 3.56925 0.531529 4.21075C0.720925 4.63231 1.22191 5.37156 2.52935 5.61594C4.56383 5.89087 5.66354 6.85007 6.09732 8.71959C6.64718 11.0901 6.92822 14.5298 6.92822 18.947V62.9234C6.92822 67.3406 6.64718 70.7803 6.09732 73.1508C5.66354 75.0203 4.56383 75.9795 2.43771 76.2667C1.2158 76.4988 0.720925 77.2381 0.52542 77.6596C0.238271 78.3073 0.238271 78.9854 0.52542 79.6269C0.898102 80.4456 1.729 80.9344 2.74929 80.9344H22.3915C23.4179 80.9344 24.2488 80.4456 24.6153 79.6208C24.9025 78.9793 24.9025 78.3011 24.6153 77.6474C24.4259 77.232 23.925 76.4927 22.6175 76.2483C20.583 75.9734 19.4833 75.0142 19.0495 73.1447C18.4997 70.7742 18.2186 67.3284 18.2186 62.9173V48.7249H18.6952C24.371 48.7249 28.4705 49.2381 30.8715 50.2461C33.0526 51.1626 34.7816 53.3376 36.0035 56.6917C36.0952 56.9544 36.2235 57.2538 36.4006 57.5959C38.3129 62.4041 40.3718 67.2612 42.5224 72.0389C44.6974 76.8837 47.1718 81.3803 49.8661 85.4004C52.6154 89.4999 55.8229 92.8541 59.3908 95.3712C63.081 97.98 67.3516 99.2996 72.0742 99.2996C76.4548 99.2996 80.4626 98.1816 83.9878 95.9699C87.5069 93.7583 90.1341 90.8013 91.8508 87.0439C92.2296 85.9625 91.9913 85.2049 91.7225 84.7589C91.301 84.0563 90.58 83.6531 89.7491 83.6531H89.7553ZM18.2309 18.947C18.2309 13.931 18.4386 10.3264 18.8418 8.23083C19.1656 6.53237 19.9477 6.18413 21.0168 6.18413H28.5254C33.7186 6.18413 37.9647 7.60765 41.5082 10.5402C44.9845 13.4117 46.6769 17.4623 46.6769 22.9121C46.6769 27.5125 45.4 31.3554 42.8768 34.3186C40.2985 37.3489 36.8527 39.6522 32.6433 41.1613C28.3422 42.7009 23.6134 43.4829 18.5913 43.4829H18.2309V18.947Z" fill="white"/>
<path d="M110.259 71.3607C110.192 71.3546 110.027 71.3424 109.96 71.3424C109.471 71.3424 108.731 71.489 108.004 72.1794C106.385 73.719 105.341 74.0428 104.748 74.0428C104.363 74.0428 103.349 74.0428 103.349 70.9514V43.6845C103.349 37.0129 101.418 31.6487 97.606 27.7447C93.7631 23.8102 88.2767 21.8184 81.2935 21.8184C76.5831 21.8184 72.4103 22.7104 68.879 24.4639C65.0116 26.3884 63.0505 28.9361 63.0505 32.0275C63.0505 34.343 64.2357 36.1942 66.4718 37.3733C68.433 38.412 70.9318 38.9435 73.8949 38.9435C75.9477 38.9435 76.3693 37.8254 76.4609 37.3306C76.5892 36.5791 76.2837 35.8643 75.6422 35.3816C74.0049 33.7809 73.8216 32.1863 75.0435 30.2252C76.3631 28.1052 78.6359 27.0726 81.9839 27.0726C85.3319 27.0726 87.8796 28.5084 89.4498 31.4532C91.1727 34.7035 92.0524 38.8152 92.0524 43.6845V45.7801C90.9588 44.6498 89.7369 43.6356 88.3867 42.7558C85.5458 40.8985 82.2283 39.9577 78.5259 39.9577C73.1617 39.9577 68.3719 42.041 64.3029 46.1527C60.2584 50.24 58.2056 55.4759 58.2056 61.7137C58.2056 67.9516 60.124 72.6865 63.9119 76.4072C67.712 80.1462 72.2392 82.0402 77.3712 82.0402C81.318 82.0402 84.8798 80.9649 87.959 78.8327C89.6392 77.6719 91.1238 76.3828 92.4129 74.9776C92.7489 76.676 93.3293 78.0445 94.1602 79.1076C95.6449 81.026 97.7526 82.0341 100.245 82.0341C104.388 82.0341 108.243 79.7552 111.786 75.1364C112.354 74.2383 112.324 73.4746 112.196 72.9858C111.957 72.0816 111.236 71.4707 110.259 71.3485V71.3607ZM69.5021 61.7137C69.5021 57.3027 70.5652 53.6614 72.6608 50.8999C74.6708 48.2544 77.2674 46.9714 80.6032 46.9714C82.7965 46.9714 85.0387 47.7107 87.2565 49.1709C89.3887 50.5761 91.0016 53.0932 92.0524 56.6428V63.3633C92.0524 66.4609 90.8061 69.0391 88.2462 71.2446C85.6374 73.4929 82.7598 74.5865 79.4485 74.5865C76.3998 74.5865 74.0598 73.5235 72.2881 71.3302C70.4369 69.0513 69.5021 65.8132 69.5021 61.7076V61.7137Z" fill="white"/>
<path d="M217.396 79.633C217.029 80.4578 216.211 80.9466 215.184 80.9466H195.542C194.516 80.9466 193.679 80.4578 193.312 79.633C193.025 78.9915 193.025 78.3073 193.312 77.6658C193.507 77.2381 194.002 76.5049 195.224 76.2789C197.344 75.9917 198.45 75.0264 198.884 73.163C199.428 70.7803 199.721 67.3467 199.721 62.9295V42.5909C199.721 39.0657 199.14 36.2981 198.022 34.3736C196.917 32.4979 195.566 31.166 194.027 30.4329C192.408 29.657 190.74 29.2721 189.084 29.2721C186.695 29.2721 184.349 29.9747 182.058 31.3799C181.527 31.6976 181.001 32.0519 180.488 32.449C179.352 33.3166 178.276 34.4041 177.281 35.6871C177.262 35.7054 177.25 35.7177 177.25 35.736C175.808 37.5994 174.507 39.8721 173.364 42.5603V62.9295C173.364 67.3406 173.639 70.7803 174.183 73.163C174.617 75.0264 175.723 75.9856 177.763 76.2606C179.065 76.5049 179.578 77.2381 179.755 77.6658C180.042 78.3073 180.042 78.9915 179.755 79.633C179.388 80.4578 178.57 80.9466 177.543 80.9466H157.901C156.875 80.9466 156.038 80.4578 155.671 79.633C155.384 78.9915 155.384 78.3073 155.671 77.6658C155.86 77.2381 156.361 76.5049 157.583 76.2789C159.703 75.9917 160.809 75.0264 161.243 73.163C161.787 70.7803 162.08 67.3467 162.08 62.9295V60.1069C155.806 71.0125 146.58 82.0463 133.438 82.0463C128.85 82.0463 124.5 80.8122 120.535 78.3684C116.57 75.9429 113.344 72.4726 110.955 68.0738C108.548 63.6932 107.345 58.4879 107.345 52.5922C107.345 44.1916 109.813 36.909 114.694 30.94C119.637 24.8915 126.119 21.8246 133.964 21.8246C138.552 21.8246 142.707 22.9121 146.317 25.0443C150.203 27.3354 152.176 30.4024 152.176 34.117C152.176 36.5119 151.339 38.6075 149.708 40.3609C148.059 42.1143 145.951 43.0186 143.452 43.0186C142.426 43.0186 141.735 42.652 141.399 41.9372C141.24 41.6011 141.075 41.0085 141.332 40.2448C142.554 36.1209 142.151 33.0539 140.098 30.8545C137.898 28.5328 135.204 27.4026 131.868 27.4026C127.408 27.4026 123.877 29.3271 121.103 33.2799C118.25 37.3122 116.802 42.487 116.802 48.6393C116.802 56.2152 118.824 62.4713 122.802 67.2551C126.797 72.0511 131.355 74.3727 136.713 74.3727C143.69 74.3727 149.213 69.3507 153.692 63.2717C156.966 58.8117 159.691 53.7897 162.007 49.7574C162.037 49.7146 162.056 49.6657 162.086 49.623V18.9531C162.086 14.542 161.799 11.1023 161.249 8.71959C160.815 6.85618 159.709 5.89698 157.669 5.62205C156.368 5.37767 155.873 4.63231 155.677 4.21686C155.39 3.57536 155.39 2.89109 155.677 2.24959C156.044 1.4248 156.881 0.936036 157.907 0.936036H171.77C172.65 0.936036 173.377 1.6203 173.377 2.46342V31.7342C175.112 29.492 177.085 27.5492 179.266 25.9302C182.975 23.2114 187.319 21.8246 192.218 21.8246C197.399 21.8246 201.878 23.5352 205.519 26.926C209.178 30.329 211.042 35.6016 211.042 42.5909V62.9295C211.042 67.3406 211.317 70.7803 211.861 73.163C212.294 75.0264 213.4 75.9856 215.441 76.2606C216.742 76.5049 217.255 77.2381 217.432 77.6658C217.738 78.3073 217.738 78.9915 217.432 79.633H217.396Z" fill="white"/>
<path d="M182.046 31.3799C180.378 32.5224 178.79 33.9886 177.262 35.6871C178.258 34.4041 179.333 33.3227 180.47 32.449C180.983 32.0519 181.514 31.7037 182.04 31.3799H182.046Z" fill="white"/>
<path d="M267.085 63.9254C266.571 63.9254 265.796 64.0781 265.026 64.8113C264.971 64.8663 264.916 64.9213 264.867 64.9885C262.832 67.6156 260.328 69.8761 257.419 71.7151C254.621 73.4807 251.304 74.3727 247.559 74.3727C242.537 74.3727 238.193 72.6926 234.264 69.2285C230.599 65.9965 228.045 61.6588 226.652 56.3129L258.66 42.1388C266.565 39.1756 266.101 34.4835 265.093 31.8747C263.883 29.156 261.439 26.7672 257.835 24.7755C254.285 22.8143 249.935 21.8184 244.901 21.8184C239.06 21.8184 233.843 23.2359 229.401 26.0279C224.984 28.8017 221.501 32.5712 219.033 37.2267C216.583 41.8516 215.337 47.0264 215.337 52.5922C215.337 58.4757 216.669 63.6871 219.302 68.0799C221.935 72.4726 225.473 75.9307 229.816 78.3684C234.166 80.8061 238.932 82.0463 243.972 82.0463C249.349 82.0463 254.224 80.7266 258.476 78.1179C262.637 75.5641 266.248 72.2283 269.192 68.2143C270.311 66.7297 269.693 65.5628 269.376 65.129C268.808 64.3531 267.989 63.9315 267.079 63.9315L267.085 63.9254ZM241.901 27.5125C244.809 27.5125 247.449 28.3679 249.96 30.1274C252.208 31.7037 254.31 34.1719 256.222 37.4772L225.809 50.961C225.748 50.1789 225.717 49.403 225.717 48.6271C225.717 42.4687 227.281 37.3122 230.372 33.3166C233.391 29.4065 237.16 27.5064 241.901 27.5064V27.5125Z" fill="white"/>
<path d="M291.364 71.3607C291.297 71.3546 291.132 71.3424 291.065 71.3424C290.57 71.3424 289.837 71.489 289.11 72.1794C287.491 73.719 286.446 74.0428 285.853 74.0428C285.505 74.0428 284.454 74.0428 284.454 70.8414V2.45731C284.454 1.61419 283.733 0.929926 282.847 0.929926H268.985C267.958 0.929926 267.127 1.41869 266.761 2.24348C266.468 2.89109 266.468 3.57536 266.761 4.21075C266.95 4.63231 267.451 5.37767 268.759 5.62205C270.793 5.89698 271.899 6.85618 272.333 8.7257C272.883 11.1023 273.164 14.542 273.164 18.9531V70.8475C273.164 74.5927 273.854 77.2992 275.265 79.1198C276.75 81.0382 278.858 82.0463 281.35 82.0463C285.493 82.0463 289.348 79.7674 292.891 75.1486C293.46 74.2505 293.429 73.4929 293.301 72.9981C293.062 72.0939 292.342 71.4829 291.364 71.3607Z" fill="white"/>
<path d="M444.872 62.7035C444.359 62.7035 443.583 62.8562 442.813 63.5894C442.758 63.6444 442.703 63.6993 442.655 63.7604C440.62 66.3875 438.115 68.6542 435.207 70.487C432.409 72.2527 429.091 73.1447 425.346 73.1447C420.324 73.1447 415.98 71.4646 412.052 68.0005C408.386 64.7685 405.832 60.4307 404.439 55.0849L436.447 40.9108C444.353 37.9476 443.889 33.2555 442.881 30.6467C441.665 27.928 439.227 25.5392 435.622 23.5474C432.073 21.5863 427.723 20.5904 422.682 20.5904C416.842 20.5904 411.624 22.0078 407.183 24.7999C402.765 27.5736 399.277 31.3432 396.815 35.9987C394.365 40.6236 393.118 45.7984 393.118 51.3642C393.118 51.7308 393.137 52.079 393.149 52.4395C380.032 54.0707 366.676 54.0218 353.577 52.2501C353.602 39.139 353.62 26.0279 353.645 12.9168C353.645 10.5097 353.797 7.77872 355.71 6.20246C357.115 5.04165 359.516 4.32072 359.394 2.55506C359.278 0.868831 356.95 0.355629 355.172 0.318972C350.162 0.202891 345.152 0.092919 340.143 0.0684809C337.198 0.0562618 334.216 0.0745904 331.375 0.801626C324.753 2.48786 319.7 7.87647 317.067 13.9005C313.291 22.5272 313.945 32.7973 318.796 40.9291C323.641 49.0548 332.573 54.8588 342.293 56.1968C342.428 60.7484 342.293 65.3062 341.884 69.8455C341.713 71.7517 341.316 73.9328 339.58 74.8981C338.249 75.6374 336.245 75.6068 335.646 76.957C335.212 77.9346 335.921 79.1015 336.904 79.6025C337.888 80.1035 339.061 80.1157 340.179 80.1157C351.702 80.1035 363.218 80.0974 374.741 80.0851C377.545 80.0851 380.343 80.0851 383.148 80.079C384.993 80.079 389.44 80.8855 391.004 79.9018C392.569 78.9121 392.489 75.4113 392.807 73.7801C393.344 71.0002 393.888 68.2265 394.432 65.4467C394.621 64.4691 394.811 63.4427 394.524 62.4835C394.236 61.5244 393.314 60.6568 392.269 60.7484C391.224 60.8401 390.522 61.781 390.015 62.6546C387.937 66.2654 386.526 70.5604 382.873 72.7598C380.692 74.0733 378.04 74.4155 375.468 74.611C369.609 75.057 363.725 74.8981 357.854 74.7454C356.864 74.721 355.771 74.6537 355.068 73.9878C354.451 73.4074 354.304 72.5215 354.201 71.7028C353.62 67.0168 353.406 62.288 353.565 57.5715C353.639 57.5715 353.712 57.5715 353.785 57.5776C367.073 58.0969 380.527 59.2516 393.601 57.2538C394.206 60.7729 395.354 63.9926 397.071 66.8519C399.704 71.2446 403.242 74.7087 407.586 77.1403C411.936 79.578 416.701 80.8183 421.742 80.8183C427.118 80.8183 431.993 79.4986 436.246 76.8898C440.406 74.3361 444.017 71.0002 446.962 66.9863C448.074 65.5017 447.463 64.3408 447.139 63.901C446.565 63.1312 445.752 62.7035 444.848 62.7035H444.872ZM342.299 50.7105C339.171 49.8857 336.251 48.6821 333.685 46.892C326.531 41.9127 321.46 33.8054 321.777 25.3742C322.064 17.6029 327.826 9.7521 335.896 8.60962C337.772 8.35302 339.684 8.44466 341.56 8.33469C342.043 10.6685 342.299 13.9555 342.299 18.0916V50.7105ZM408.154 32.1008C411.172 28.1907 414.942 26.2906 419.683 26.2906C422.591 26.2906 425.23 27.146 427.741 28.9055C429.989 30.4818 432.091 32.95 434.003 36.2553L403.59 49.739C403.529 48.957 403.498 48.1811 403.498 47.4052C403.498 41.2468 405.063 36.0903 408.154 32.0947V32.1008Z" fill="white"/>
<path d="M499.754 61.3411C499.131 60.6079 498.288 60.2352 497.384 60.2902C496.871 60.3208 496.107 60.5285 495.392 61.3105C495.337 61.3655 495.294 61.4266 495.245 61.4938C493.4 64.2431 491.054 66.6625 488.281 68.6725C485.611 70.6092 482.367 71.7151 478.628 71.9472C473.618 72.2649 469.164 70.8597 465.003 67.6522C461.124 64.6647 458.264 60.4918 456.505 55.2498L487.45 39.084C495.129 35.626 494.341 30.9705 493.156 28.4351C491.757 25.8019 489.154 23.5719 485.421 21.8123C481.743 20.0772 477.332 19.3624 472.304 19.6801C466.476 20.0467 461.374 21.794 457.134 24.861C452.925 27.9097 449.705 31.887 447.567 36.6891C445.44 41.4606 444.561 46.6965 444.952 52.2501C445.361 58.1213 447.06 63.2411 449.992 67.4506C452.925 71.6662 456.694 74.8981 461.203 77.0548C465.712 79.2115 470.551 80.1462 475.585 79.8285C480.949 79.4864 485.721 77.8613 489.784 74.9959C493.761 72.1855 497.127 68.6297 499.785 64.4325C500.793 62.8807 500.103 61.7565 499.748 61.3411H499.754ZM455.032 47.6496C454.605 41.5034 455.802 36.2614 458.607 32.0764C461.344 27.983 464.979 25.8507 469.708 25.5514C472.61 25.3681 475.298 26.0524 477.931 27.6531C480.283 29.0827 482.55 31.4104 484.688 34.5935L455.283 49.9712C455.167 49.1953 455.081 48.4194 455.026 47.6496H455.032Z" fill="white"/>
</svg>
