<svg width="501" height="100" viewBox="0 0 501 100" fill="none" xmlns="http://www.w3.org/2000/svg">
<path d="M89.6854 83.8845C89.6182 83.8845 89.4411 83.8968 89.3738 83.9029C88.5796 83.9945 87.8831 84.465 87.2844 85.3203C84.7245 89.206 81.2787 91.0938 76.7454 91.0938C73.2141 91.0938 70.1838 90.1652 67.4773 88.259C64.673 86.2795 62.1131 83.689 59.877 80.5487C57.592 77.3412 55.5392 73.7916 53.7736 70.0098C51.9835 66.173 50.3033 62.3423 48.7576 58.5911C48.3055 57.583 47.8901 56.581 47.5052 55.5607C46.3505 52.7381 44.7559 50.331 42.7642 48.3942C41.7072 47.3678 40.3876 46.5003 38.8174 45.8099C41.2429 44.9729 43.534 43.9526 45.6723 42.7551C49.3319 40.7084 52.3012 38.0935 54.5067 34.9838C56.7611 31.8129 57.9036 28.0067 57.9036 23.6872C57.9036 18.5736 56.3762 14.2663 53.3642 10.8816C50.4255 7.57639 46.6437 5.09592 42.1227 3.50744C37.6871 1.9495 33.1294 1.16137 28.5717 1.16137H2.69169C1.67139 1.16137 0.834387 1.65013 0.461705 2.47492C0.174557 3.12253 0.174557 3.80069 0.461705 4.44219C0.651101 4.86375 1.15208 5.60301 2.45952 5.84739C4.494 6.12232 5.59372 7.08152 6.0275 8.95104C6.57736 11.3215 6.85839 14.7612 6.85839 19.1784V63.1549C6.85839 67.5721 6.57736 71.0117 6.0275 73.3823C5.59372 75.2518 4.494 76.211 2.36788 76.4981C1.14597 76.7303 0.651101 77.4695 0.455596 77.8911C0.168447 78.5387 0.168447 79.2169 0.455596 79.8584C0.828278 80.677 1.65918 81.1658 2.67947 81.1658H22.3216C23.348 81.1658 24.1789 80.677 24.5455 79.8523C24.8327 79.2107 24.8327 78.5326 24.5455 77.8789C24.3561 77.4634 23.8551 76.7242 22.5477 76.4798C20.5132 76.2049 19.4135 75.2457 18.9797 73.3761C18.4299 71.0056 18.1488 67.5599 18.1488 63.1488V48.9563H18.6254C24.3011 48.9563 28.4006 49.4695 30.8017 50.4776C32.9828 51.394 34.7118 53.569 35.9337 56.9231C36.0253 57.1859 36.1536 57.4852 36.3308 57.8274C38.2431 62.6356 40.302 67.4927 42.4526 72.2703C44.6276 77.1152 47.1019 81.6118 49.7962 85.6319C52.5455 89.7314 55.753 93.0855 59.321 95.6026C63.0112 98.2114 67.2817 99.5311 72.0044 99.5311C76.385 99.5311 80.3928 98.413 83.918 96.2014C87.4371 93.9897 90.0642 91.0327 91.781 87.2753C92.1598 86.194 91.9215 85.4364 91.6527 84.9904C91.2311 84.2878 90.5102 83.8845 89.6793 83.8845H89.6854ZM18.161 19.1784C18.161 14.1625 18.3688 10.5578 18.772 8.46227C19.0958 6.76382 19.8778 6.41558 20.947 6.41558H28.4556C33.6487 6.41558 37.8949 7.8391 41.4384 10.7717C44.9147 13.6432 46.6071 17.6938 46.6071 23.1435C46.6071 27.744 45.3302 31.5869 42.8069 34.55C40.2287 37.5803 36.7829 39.8836 32.5735 41.3927C28.2723 42.9323 23.5435 43.7143 18.5215 43.7143H18.161V19.1784Z" fill="#FAFAFA"/>
<path d="M110.189 71.5922C110.122 71.586 109.957 71.5738 109.89 71.5738C109.401 71.5738 108.662 71.7205 107.935 72.4108C106.316 73.9504 105.271 74.2742 104.678 74.2742C104.293 74.2742 103.279 74.2742 103.279 71.1828V43.9159C103.279 37.2443 101.349 31.8801 97.5362 27.9761C93.6933 24.0416 88.2069 22.0499 81.2237 22.0499C76.5133 22.0499 72.3404 22.9419 68.8091 24.6953C64.9418 26.6198 62.9806 29.1675 62.9806 32.2589C62.9806 34.5744 64.1659 36.4256 66.402 37.6048C68.3631 38.6434 70.8619 39.1749 73.8251 39.1749C75.8779 39.1749 76.2994 38.0569 76.3911 37.562C76.5194 36.8105 76.2139 36.0957 75.5724 35.6131C73.935 34.0124 73.7517 32.4178 74.9737 30.4566C76.2933 28.3366 78.5661 27.3041 81.9141 27.3041C85.2621 27.3041 87.8098 28.7398 89.38 31.6846C91.1028 34.9349 91.9826 39.0466 91.9826 43.9159V46.0115C90.889 44.8812 89.6671 43.8671 88.3169 42.9873C85.476 41.13 82.1585 40.1891 78.4561 40.1891C73.0919 40.1891 68.302 42.2725 64.2331 46.3842C60.1886 50.4715 58.1358 55.7073 58.1358 61.9452C58.1358 68.183 60.0542 72.9179 63.8421 76.6386C67.6422 80.3777 72.1694 82.2716 77.3014 82.2716C81.2482 82.2716 84.81 81.1964 87.8892 79.0641C89.5693 77.9033 91.054 76.6142 92.3431 75.209C92.6791 76.9075 93.2595 78.276 94.0904 79.3391C95.575 81.2574 97.6828 82.2655 100.176 82.2655C104.318 82.2655 108.173 79.9867 111.716 75.3679C112.285 74.4697 112.254 73.7061 112.126 73.2173C111.887 72.3131 111.167 71.7021 110.189 71.5799V71.5922ZM69.4323 61.9452C69.4323 57.5341 70.4954 53.8928 72.5909 51.1313C74.601 48.4859 77.1975 47.2029 80.5333 47.2029C82.7267 47.2029 84.9689 47.9421 87.1866 49.4023C89.3189 50.8075 90.9318 53.3246 91.9826 56.8743V63.5948C91.9826 66.6923 90.7363 69.2705 88.1764 71.4761C85.5676 73.7244 82.69 74.818 79.3786 74.818C76.33 74.818 73.99 73.7549 72.2183 71.5616C70.3671 69.2827 69.4323 66.0447 69.4323 61.9391V61.9452Z" fill="#FAFAFA"/>
<path d="M217.326 79.8645C216.959 80.6893 216.141 81.178 215.114 81.178H195.472C194.446 81.178 193.609 80.6893 193.242 79.8645C192.955 79.223 192.955 78.5387 193.242 77.8972C193.438 77.4695 193.933 76.7364 195.154 76.5103C197.274 76.2232 198.38 75.2579 198.814 73.3945C199.358 71.0117 199.651 67.5782 199.651 63.161V42.8223C199.651 39.2971 199.071 36.5295 197.953 34.605C196.847 32.7294 195.497 31.3975 193.957 30.6643C192.338 29.8884 190.67 29.5035 189.014 29.5035C186.626 29.5035 184.279 30.2061 181.988 31.6113C181.457 31.929 180.931 32.2834 180.418 32.6805C179.282 33.548 178.207 34.6355 177.211 35.9185C177.192 35.9369 177.18 35.9491 177.18 35.9674C175.738 37.8308 174.437 40.1036 173.294 42.7918V63.161C173.294 67.5721 173.569 71.0117 174.113 73.3945C174.547 75.2579 175.653 76.2171 177.693 76.492C178.995 76.7364 179.508 77.4695 179.685 77.8972C179.972 78.5387 179.972 79.223 179.685 79.8645C179.319 80.6893 178.5 81.178 177.473 81.178H157.831C156.805 81.178 155.968 80.6893 155.601 79.8645C155.314 79.223 155.314 78.5387 155.601 77.8972C155.791 77.4695 156.292 76.7364 157.514 76.5103C159.634 76.2232 160.739 75.2579 161.173 73.3945C161.717 71.0117 162.01 67.5782 162.01 63.161V60.3384C155.736 71.2439 146.51 82.2777 133.369 82.2777C128.78 82.2777 124.43 81.0436 120.465 78.5998C116.5 76.1743 113.274 72.7041 110.886 68.3052C108.478 63.9247 107.275 58.7194 107.275 52.8236C107.275 44.423 109.743 37.1405 114.625 31.1714C119.567 25.123 126.049 22.056 133.894 22.056C138.482 22.056 142.637 23.1435 146.248 25.2757C150.133 27.5668 152.107 30.6338 152.107 34.3484C152.107 36.7433 151.27 38.8389 149.638 40.5923C147.989 42.3458 145.881 43.25 143.382 43.25C142.356 43.25 141.665 42.8834 141.329 42.1686C141.171 41.8326 141.006 41.24 141.262 40.4763C142.484 36.3523 142.081 33.2853 140.028 31.0859C137.829 28.7643 135.134 27.634 131.798 27.634C127.339 27.634 123.807 29.5585 121.033 33.5114C118.18 37.5437 116.732 42.7185 116.732 48.8708C116.732 56.4466 118.755 62.7028 122.732 67.4865C126.728 72.2825 131.285 74.6042 136.643 74.6042C143.62 74.6042 149.143 69.5821 153.622 63.5031C156.896 59.0432 159.621 54.0211 161.937 49.9888C161.967 49.9461 161.986 49.8972 162.016 49.8544V19.1845C162.016 14.7734 161.729 11.3338 161.179 8.95104C160.746 7.08763 159.64 6.12843 157.599 5.8535C156.298 5.60912 155.803 4.86375 155.607 4.4483C155.32 3.8068 155.32 3.12253 155.607 2.48103C155.974 1.65624 156.811 1.16748 157.837 1.16748H171.7C172.58 1.16748 173.307 1.85175 173.307 2.69487V31.9657C175.042 29.7235 177.015 27.7806 179.196 26.1616C182.905 23.4429 187.249 22.056 192.149 22.056C197.329 22.056 201.808 23.7667 205.449 27.1575C209.109 30.5605 210.972 35.833 210.972 42.8223V63.161C210.972 67.5721 211.247 71.0117 211.791 73.3945C212.224 75.2579 213.33 76.2171 215.371 76.492C216.672 76.7364 217.185 77.4695 217.363 77.8972C217.668 78.5387 217.668 79.223 217.363 79.8645H217.326Z" fill="#FAFAFA"/>
<path d="M181.976 31.6113C180.308 32.7538 178.72 34.2201 177.192 35.9185C178.188 34.6355 179.264 33.5542 180.4 32.6805C180.913 32.2834 181.445 31.9351 181.97 31.6113H181.976Z" fill="#FAFAFA"/>
<path d="M267.015 64.1568C266.502 64.1568 265.726 64.3096 264.956 65.0427C264.901 65.0977 264.846 65.1527 264.797 65.2199C262.763 67.847 260.258 70.1075 257.35 71.9465C254.551 73.7122 251.234 74.6042 247.489 74.6042C242.467 74.6042 238.123 72.924 234.194 69.4599C230.529 66.228 227.975 61.8902 226.582 56.5444L258.59 42.3702C266.496 39.4071 266.031 34.715 265.023 32.1062C263.813 29.3874 261.37 26.9986 257.765 25.0069C254.215 23.0457 249.865 22.0499 244.831 22.0499C238.99 22.0499 233.773 23.4673 229.331 26.2594C224.914 29.0331 221.432 32.8027 218.963 37.4582C216.513 42.0831 215.267 47.2579 215.267 52.8236C215.267 58.7071 216.599 63.9186 219.232 68.3113C221.865 72.7041 225.403 76.1621 229.747 78.5998C234.097 81.0375 238.862 82.2777 243.902 82.2777C249.279 82.2777 254.154 80.9581 258.407 78.3493C262.567 75.7955 266.178 72.4597 269.123 68.4457C270.241 66.9611 269.624 65.7942 269.306 65.3604C268.738 64.5845 267.919 64.163 267.009 64.163L267.015 64.1568ZM241.831 27.744C244.739 27.744 247.379 28.5993 249.89 30.3589C252.138 31.9351 254.24 34.4034 256.152 37.7086L225.739 51.1924C225.678 50.4104 225.647 49.6345 225.647 48.8586C225.647 42.7001 227.211 37.5437 230.303 33.548C233.321 29.6379 237.09 27.7379 241.831 27.7379V27.744Z" fill="#FAFAFA"/>
<path d="M291.294 71.5922C291.227 71.586 291.062 71.5738 290.995 71.5738C290.5 71.5738 289.767 71.7205 289.04 72.4108C287.421 73.9504 286.376 74.2742 285.783 74.2742C285.435 74.2742 284.384 74.2742 284.384 71.0728V2.68876C284.384 1.84564 283.663 1.16137 282.777 1.16137H268.915C267.889 1.16137 267.058 1.65013 266.691 2.47492C266.398 3.12253 266.398 3.8068 266.691 4.44219C266.88 4.86375 267.381 5.60912 268.689 5.8535C270.723 6.12843 271.829 7.08763 272.263 8.95715C272.813 11.3338 273.094 14.7734 273.094 19.1845V71.079C273.094 74.8241 273.784 77.5306 275.196 79.3513C276.68 81.2697 278.788 82.2777 281.281 82.2777C285.423 82.2777 289.278 79.9989 292.822 75.3801C293.39 74.482 293.359 73.7244 293.231 73.2295C292.993 72.3253 292.272 71.7143 291.294 71.5922Z" fill="#FAFAFA"/>
<path d="M444.802 62.9349C444.289 62.9349 443.513 63.0877 442.744 63.8208C442.689 63.8758 442.634 63.9308 442.585 63.9919C440.55 66.619 438.045 68.8856 435.137 70.7185C432.339 72.4841 429.022 73.3761 425.276 73.3761C420.254 73.3761 415.91 71.696 411.982 68.2319C408.316 65 405.763 60.6622 404.37 55.3163L436.377 41.1422C444.283 38.1791 443.819 33.4869 442.811 30.8782C441.595 28.1594 439.157 25.7706 435.553 23.7789C432.003 21.8177 427.653 20.8219 422.613 20.8219C416.772 20.8219 411.554 22.2393 407.113 25.0313C402.696 27.8051 399.207 31.5747 396.745 36.2301C394.295 40.8551 393.049 46.0298 393.049 51.5956C393.049 51.9622 393.067 52.3104 393.079 52.6709C379.962 54.3022 366.606 54.2533 353.508 52.4815C353.532 39.3704 353.55 26.2594 353.575 13.1483C353.575 10.7411 353.728 8.01017 355.64 6.4339C357.045 5.27309 359.446 4.55217 359.324 2.78651C359.208 1.10028 356.88 0.587075 355.102 0.550417C350.092 0.434336 345.083 0.324364 340.073 0.299926C337.128 0.287707 334.146 0.306036 331.306 1.03307C324.683 2.7193 319.63 8.10792 316.997 14.1319C313.221 22.7586 313.875 33.0287 318.726 41.1605C323.571 49.2862 332.503 55.0903 342.223 56.4283C342.358 60.9799 342.223 65.5376 341.814 70.077C341.643 71.9832 341.246 74.1643 339.511 75.1296C338.179 75.8688 336.175 75.8383 335.576 77.1885C335.142 78.166 335.851 79.3329 336.835 79.8339C337.818 80.3349 338.991 80.3471 340.109 80.3471C351.632 80.3349 363.148 80.3288 374.671 80.3166C377.475 80.3166 380.274 80.3166 383.078 80.3105C384.923 80.3105 389.371 81.1169 390.935 80.1333C392.499 79.1435 392.419 75.6428 392.737 74.0115C393.275 71.2317 393.818 68.458 394.362 65.6781C394.552 64.7006 394.741 63.6742 394.454 62.715C394.167 61.7558 393.244 60.8882 392.199 60.9799C391.155 61.0715 390.452 62.0124 389.945 62.8861C387.868 66.4968 386.456 70.7918 382.803 72.9912C380.622 74.3048 377.97 74.6469 375.398 74.8424C369.539 75.2884 363.656 75.1296 357.784 74.9768C356.795 74.9524 355.701 74.8852 354.998 74.2193C354.381 73.6388 354.235 72.753 354.131 71.9343C353.55 67.2483 353.337 62.5195 353.495 57.8029C353.569 57.8029 353.642 57.8029 353.715 57.809C367.004 58.3283 380.457 59.483 393.531 57.4852C394.136 61.0043 395.285 64.224 397.001 67.0833C399.635 71.4761 403.172 74.9402 407.516 77.3718C411.866 79.8095 416.631 81.0497 421.672 81.0497C427.048 81.0497 431.924 79.7301 436.176 77.1213C440.336 74.5675 443.947 71.2317 446.892 67.2177C448.004 65.7331 447.393 64.5723 447.069 64.1324C446.495 63.3626 445.682 62.9349 444.778 62.9349H444.802ZM342.229 50.9419C339.101 50.1171 336.181 48.9135 333.615 47.1234C326.461 42.1442 321.39 34.0368 321.707 25.6056C321.995 17.8343 327.756 9.98355 335.827 8.84106C337.702 8.58446 339.615 8.67611 341.49 8.56613C341.973 10.9 342.229 14.1869 342.229 18.3231V50.9419ZM408.084 32.3322C411.102 28.4221 414.872 26.5221 419.613 26.5221C422.521 26.5221 425.16 27.3774 427.671 29.137C429.92 30.7132 432.021 33.1815 433.934 36.4867L403.52 49.9705C403.459 49.1885 403.429 48.4126 403.429 47.6366C403.429 41.4782 404.993 36.3218 408.084 32.3261V32.3322Z" fill="#FAFAFA"/>
<path d="M499.684 61.5725C499.061 60.8394 498.218 60.4667 497.314 60.5217C496.801 60.5522 496.037 60.7599 495.322 61.542C495.267 61.5969 495.225 61.658 495.176 61.7252C493.331 64.4745 490.984 66.8939 488.211 68.904C485.541 70.8407 482.297 71.9465 478.558 72.1787C473.548 72.4964 469.094 71.0912 464.933 67.8837C461.054 64.8961 458.195 60.7233 456.435 55.4813L487.38 39.3155C495.06 35.8575 494.271 31.202 493.086 28.6665C491.687 26.0333 489.084 23.8033 485.352 22.0438C481.674 20.3087 477.262 19.5939 472.234 19.9115C466.406 20.2781 461.304 22.0255 457.064 25.0924C452.855 28.1411 449.635 32.1184 447.497 36.9205C445.371 41.6921 444.491 46.9279 444.882 52.4815C445.291 58.3528 446.99 63.4726 449.922 67.682C452.855 71.8976 456.624 75.1296 461.133 77.2862C465.642 79.4429 470.481 80.3777 475.515 80.06C480.879 79.7178 485.651 78.0927 489.714 75.2273C493.691 72.4169 497.057 68.8612 499.715 64.6639C500.723 63.1121 500.033 61.988 499.678 61.5725H499.684ZM454.963 47.881C454.535 41.7348 455.732 36.4928 458.537 32.3078C461.274 28.2144 464.909 26.0822 469.638 25.7828C472.54 25.5995 475.228 26.2838 477.861 27.8845C480.213 29.3141 482.48 31.6419 484.618 34.8249L455.213 50.2027C455.097 49.4267 455.012 48.6508 454.957 47.881H454.963Z" fill="#FAFAFA"/>
</svg>
