<svg width="107" height="23" viewBox="0 0 107 23" fill="none" xmlns="http://www.w3.org/2000/svg">
<path d="M19.1413 18.8309C19.1269 18.8309 19.089 18.8335 19.0746 18.8348C18.9046 18.8544 18.7556 18.9551 18.6274 19.1382C18.0796 19.9697 17.3422 20.3737 16.3721 20.3737C15.6164 20.3737 14.9679 20.175 14.3887 19.767C13.7886 19.3434 13.2408 18.7891 12.7623 18.1171C12.2733 17.4306 11.834 16.671 11.4561 15.8617C11.0731 15.0406 10.7135 14.2209 10.3827 13.4181C10.286 13.2024 10.1971 12.988 10.1147 12.7696C9.86759 12.1656 9.52635 11.6504 9.10012 11.236C8.87393 11.0163 8.59153 10.8307 8.25551 10.6829C8.77457 10.5038 9.26486 10.2855 9.72246 10.0292C10.5056 9.59122 11.141 9.03164 11.613 8.36615C12.0955 7.68759 12.34 6.87305 12.34 5.94869C12.34 4.85436 12.0131 3.93262 11.3685 3.20829C10.7397 2.50097 9.93035 1.97015 8.96284 1.63021C8.01364 1.29681 7.03829 1.12815 6.06293 1.12815H0.524611C0.306268 1.12815 0.127149 1.23275 0.0473948 1.40925C-0.014055 1.54784 -0.014055 1.69297 0.0473948 1.83025C0.0879255 1.92046 0.195136 2.07866 0.474928 2.13096C0.910306 2.1898 1.14565 2.39506 1.23847 2.79514C1.35614 3.30243 1.41629 4.03852 1.41629 4.9838V14.3948C1.41629 15.34 1.35614 16.0761 1.23847 16.5834C1.14565 16.9835 0.910306 17.1888 0.455317 17.2502C0.193828 17.2999 0.0879255 17.4581 0.0460873 17.5483C-0.0153624 17.6869 -0.0153624 17.832 0.0460873 17.9693C0.125841 18.1445 0.303653 18.2491 0.521996 18.2491H4.72542C4.94507 18.2491 5.12288 18.1445 5.20133 17.968C5.26278 17.8307 5.26278 17.6856 5.20133 17.5457C5.1608 17.4568 5.05359 17.2986 4.7738 17.2463C4.33842 17.1875 4.10308 16.9822 4.01025 16.5821C3.89258 16.0748 3.83244 15.3374 3.83244 14.3935V11.3563H3.93442C5.14903 11.3563 6.02633 11.4661 6.54015 11.6818C7.00691 11.8779 7.37691 12.3434 7.6384 13.0612C7.65801 13.1174 7.68547 13.1815 7.72339 13.2547C8.13261 14.2836 8.57322 15.323 9.03344 16.3455C9.49889 17.3823 10.0284 18.3445 10.605 19.2048C11.1933 20.0821 11.8797 20.7999 12.6433 21.3386C13.433 21.8969 14.3469 22.1793 15.3575 22.1793C16.295 22.1793 17.1527 21.94 17.907 21.4667C18.6601 20.9934 19.2223 20.3606 19.5897 19.5565C19.6708 19.3251 19.6198 19.163 19.5623 19.0676C19.4721 18.9172 19.3178 18.8309 19.14 18.8309H19.1413ZM3.83505 4.9838C3.83505 3.91039 3.87951 3.139 3.9658 2.69055C4.03509 2.32708 4.20244 2.25255 4.43125 2.25255H6.03809C7.14942 2.25255 8.05809 2.55719 8.81641 3.18476C9.56034 3.79926 9.9225 4.66609 9.9225 5.83233C9.9225 6.81683 9.64925 7.63921 9.10927 8.27332C8.55753 8.92181 7.82014 9.41472 6.91931 9.73766C5.99887 10.0671 4.98691 10.2345 3.91219 10.2345H3.83505V4.9838Z" fill="#FAFAFA"/>
<path d="M23.529 16.2003C23.5147 16.199 23.4794 16.1964 23.465 16.1964C23.3604 16.1964 23.2022 16.2278 23.0466 16.3755C22.7001 16.705 22.4766 16.7743 22.3497 16.7743C22.2674 16.7743 22.0503 16.7743 22.0503 16.1127V10.2776C22.0503 8.8499 21.6372 7.70197 20.8213 6.86651C19.999 6.02452 18.8249 5.5983 17.3305 5.5983C16.3224 5.5983 15.4294 5.78918 14.6737 6.16442C13.8461 6.57626 13.4264 7.12147 13.4264 7.78303C13.4264 8.27855 13.6801 8.67471 14.1586 8.92704C14.5783 9.14931 15.113 9.26306 15.7472 9.26306C16.1865 9.26306 16.2767 9.02379 16.2963 8.91789C16.3237 8.75708 16.2584 8.6041 16.1211 8.50082C15.7707 8.15827 15.7315 7.81702 15.993 7.39734C16.2754 6.94365 16.7617 6.7227 17.4782 6.7227C18.1947 6.7227 18.7399 7.02994 19.0759 7.66013C19.4446 8.35569 19.6329 9.2356 19.6329 10.2776V10.7261C19.3988 10.4842 19.1374 10.2672 18.8484 10.0789C18.2404 9.68144 17.5305 9.48009 16.7382 9.48009C15.5903 9.48009 14.5652 9.92593 13.6945 10.8058C12.8289 11.6805 12.3896 12.801 12.3896 14.1359C12.3896 15.4708 12.8002 16.4841 13.6108 17.2803C14.424 18.0804 15.3928 18.4857 16.4911 18.4857C17.3357 18.4857 18.0979 18.2556 18.7569 17.7993C19.1164 17.5509 19.4341 17.2751 19.71 16.9743C19.7819 17.3378 19.9061 17.6307 20.0839 17.8582C20.4016 18.2687 20.8527 18.4844 21.3862 18.4844C22.2726 18.4844 23.0976 17.9968 23.8559 17.0083C23.9775 16.8161 23.971 16.6527 23.9435 16.5481C23.8925 16.3546 23.7382 16.2239 23.529 16.1977V16.2003ZM14.8071 14.1359C14.8071 13.1919 15.0346 12.4127 15.4831 11.8217C15.9132 11.2556 16.4689 10.981 17.1827 10.981C17.6521 10.981 18.1319 11.1392 18.6065 11.4517C19.0628 11.7524 19.408 12.2911 19.6329 13.0507V14.4889C19.6329 15.1518 19.3662 15.7035 18.8183 16.1755C18.2601 16.6566 17.6443 16.8907 16.9356 16.8907C16.2832 16.8907 15.7825 16.6632 15.4033 16.1938C15.0071 15.7061 14.8071 15.0132 14.8071 14.1346V14.1359Z" fill="#FAFAFA"/>
<path d="M46.4563 17.9706C46.3779 18.1471 46.2027 18.2517 45.9831 18.2517H41.7796C41.56 18.2517 41.3809 18.1471 41.3024 17.9706C41.241 17.8333 41.241 17.6869 41.3024 17.5496C41.3443 17.4581 41.4502 17.3012 41.7116 17.2528C42.1653 17.1914 42.402 16.9848 42.4948 16.586C42.6112 16.0761 42.6739 15.3414 42.6739 14.3961V10.0436C42.6739 9.2892 42.5497 8.69693 42.3105 8.28509C42.0738 7.8837 41.7849 7.59868 41.4554 7.44179C41.1089 7.27574 40.752 7.19338 40.3977 7.19338C39.8865 7.19338 39.3844 7.34373 38.8941 7.64444C38.7804 7.71243 38.6679 7.78826 38.5581 7.87324C38.3149 8.0589 38.0848 8.29163 37.8717 8.56619C37.8678 8.57011 37.8651 8.57273 37.8651 8.57665C37.5566 8.97542 37.2781 9.46179 37.0336 10.0371V14.3961C37.0336 15.34 37.0924 16.0761 37.2088 16.586C37.3016 16.9848 37.5383 17.1901 37.975 17.2489C38.2535 17.3012 38.3633 17.4581 38.4012 17.5496C38.4627 17.6869 38.4627 17.8333 38.4012 17.9706C38.3228 18.1471 38.1476 18.2517 37.9279 18.2517H33.7245C33.5048 18.2517 33.3257 18.1471 33.2473 17.9706C33.1858 17.8333 33.1858 17.6869 33.2473 17.5496C33.2878 17.4581 33.395 17.3012 33.6565 17.2528C34.1102 17.1914 34.3468 16.9848 34.4397 16.586C34.556 16.0761 34.6188 15.3414 34.6188 14.3961V13.792C33.276 16.1258 31.3018 18.4871 28.4895 18.4871C27.5076 18.4871 26.5767 18.223 25.7282 17.7C24.8796 17.1809 24.1893 16.4383 23.6781 15.4969C23.163 14.5595 22.9054 13.4456 22.9054 12.1839C22.9054 10.3861 23.4336 8.82768 24.4783 7.55031C25.536 6.25594 26.9232 5.5996 28.6019 5.5996C29.5838 5.5996 30.4729 5.83233 31.2456 6.28863C32.0771 6.77892 32.4994 7.43525 32.4994 8.23018C32.4994 8.74269 32.3203 9.19115 31.9712 9.56638C31.6182 9.94162 31.1671 10.1351 30.6324 10.1351C30.4127 10.1351 30.265 10.0567 30.1931 9.9037C30.1591 9.83179 30.1238 9.70497 30.1787 9.54154C30.4402 8.65902 30.3539 8.00268 29.9146 7.532C29.4439 7.03517 28.8673 6.7933 28.1535 6.7933C27.199 6.7933 26.4433 7.20514 25.8498 8.05106C25.2392 8.91397 24.9293 10.0214 24.9293 11.338C24.9293 12.9592 25.3621 14.298 26.2132 15.3217C27.0683 16.3481 28.0436 16.8449 29.1903 16.8449C30.6834 16.8449 31.8653 15.7702 32.8237 14.4693C33.5244 13.5149 34.1076 12.4401 34.6031 11.5772C34.6096 11.5681 34.6135 11.5576 34.6201 11.5485V4.98511C34.6201 4.04113 34.5586 3.30504 34.441 2.79514C34.3481 2.39637 34.1115 2.1911 33.6748 2.13227C33.3963 2.07997 33.2904 1.92046 33.2486 1.83156C33.1871 1.69427 33.1871 1.54784 33.2486 1.41056C33.327 1.23406 33.5061 1.12946 33.7258 1.12946H36.6924C36.8806 1.12946 37.0362 1.27589 37.0362 1.45632V7.72027C37.4075 7.24044 37.8298 6.82468 38.2966 6.4782C39.0902 5.89639 40.0198 5.5996 41.0684 5.5996C42.1771 5.5996 43.1354 5.96569 43.9147 6.69132C44.6978 7.41956 45.0966 8.54788 45.0966 10.0436V14.3961C45.0966 15.34 45.1554 16.0761 45.2718 16.586C45.3646 16.9848 45.6013 17.1901 46.038 17.2489C46.3165 17.3012 46.4263 17.4581 46.4642 17.5496C46.5296 17.6869 46.5296 17.8333 46.4642 17.9706H46.4563Z" fill="#FAFAFA"/>
<path d="M38.8915 7.64444C38.5346 7.88893 38.1946 8.20272 37.8678 8.56619C38.0809 8.29163 38.311 8.06021 38.5542 7.87324C38.664 7.78826 38.7777 7.71374 38.8902 7.64444H38.8915Z" fill="#FAFAFA"/>
<path d="M57.0898 14.6092C56.9799 14.6092 56.8139 14.6419 56.6492 14.7988C56.6374 14.8105 56.6256 14.8223 56.6152 14.8367C56.1798 15.3989 55.6437 15.8826 55.0214 16.2762C54.4226 16.654 53.7126 16.8449 52.9112 16.8449C51.8365 16.8449 50.9069 16.4854 50.0662 15.744C49.2817 15.0524 48.7352 14.1241 48.4371 12.9801L55.2868 9.94685C56.9786 9.31274 56.8793 8.30862 56.6635 7.75035C56.4047 7.16853 55.8817 6.65732 55.1103 6.2311C54.3507 5.81141 53.4198 5.5983 52.3424 5.5983C51.0925 5.5983 49.976 5.90162 49.0255 6.49912C48.0802 7.0927 47.3349 7.89939 46.8067 8.89566C46.2825 9.8854 46.0157 10.9928 46.0157 12.1839C46.0157 13.4429 46.3008 14.5582 46.8643 15.4982C47.4278 16.4383 48.1848 17.1783 49.1144 17.7C50.0453 18.2216 51.0651 18.4871 52.1437 18.4871C53.2943 18.4871 54.3376 18.2046 55.2476 17.6464C56.138 17.0999 56.9107 16.386 57.5408 15.527C57.7801 15.2093 57.6481 14.9596 57.5801 14.8668C57.4585 14.7007 57.2833 14.6105 57.0885 14.6105L57.0898 14.6092ZM51.7005 6.81683C52.3228 6.81683 52.8877 6.99987 53.425 7.37642C53.9061 7.71374 54.3559 8.24194 54.7651 8.94927L48.2567 11.8348C48.2436 11.6674 48.2371 11.5014 48.2371 11.3354C48.2371 10.0174 48.5718 8.91397 49.2334 8.0589C49.8792 7.22214 50.6859 6.81552 51.7005 6.81552V6.81683Z" fill="#FAFAFA"/>
<path d="M62.2855 16.2003C62.2712 16.199 62.2359 16.1964 62.2215 16.1964C62.1156 16.1964 61.9587 16.2278 61.8031 16.3755C61.4566 16.705 61.2331 16.7743 61.1062 16.7743C61.0317 16.7743 60.8068 16.7743 60.8068 16.0892V1.45501C60.8068 1.27459 60.6526 1.12815 60.463 1.12815H57.4964C57.2767 1.12815 57.0989 1.23275 57.0205 1.40925C56.9577 1.54784 56.9577 1.69427 57.0205 1.83025C57.061 1.92046 57.1682 2.07997 57.448 2.13227C57.8834 2.1911 58.12 2.39637 58.2129 2.79645C58.3305 3.30504 58.3907 4.04113 58.3907 4.98511V16.0905C58.3907 16.892 58.5384 17.4712 58.8404 17.8608C59.1581 18.2713 59.6092 18.4871 60.1426 18.4871C61.0291 18.4871 61.8541 17.9994 62.6124 17.011C62.734 16.8188 62.7275 16.6566 62.7 16.5507C62.649 16.3572 62.4947 16.2265 62.2855 16.2003Z" fill="#FAFAFA"/>
<path d="M95.1363 14.3477C95.0265 14.3477 94.8605 14.3804 94.6957 14.5373C94.684 14.549 94.6722 14.5608 94.6617 14.5739C94.2263 15.1361 93.6903 15.6211 93.068 16.0134C92.4691 16.3912 91.7592 16.5821 90.9577 16.5821C89.883 16.5821 88.9534 16.2226 88.1127 15.4812C87.3283 14.7896 86.7818 13.8613 86.4837 12.7173L93.3334 9.68405C95.0252 9.04994 94.9258 8.04583 94.7101 7.48755C94.4499 6.90574 93.9283 6.39453 93.1569 5.9683C92.3972 5.54861 91.4663 5.3355 90.3877 5.3355C89.1378 5.3355 88.0212 5.63883 87.0707 6.23633C86.1254 6.82991 85.3789 7.6366 84.852 8.63287C84.3277 9.6226 84.061 10.73 84.061 11.9211C84.061 11.9995 84.0649 12.0741 84.0675 12.1512C81.2604 12.5003 78.4024 12.4898 75.5992 12.1107C75.6045 9.30489 75.6084 6.49912 75.6136 3.69335C75.6136 3.17822 75.6463 2.59379 76.0555 2.25647C76.3562 2.00806 76.8701 1.85378 76.8439 1.47593C76.8191 1.11508 76.3209 1.00525 75.9405 0.997408C74.8684 0.972567 73.7963 0.949033 72.7242 0.943803C72.094 0.941188 71.4559 0.945111 70.848 1.1007C69.4307 1.46155 68.3495 2.61471 67.786 3.90385C66.978 5.74996 67.1179 7.94777 68.156 9.68797C69.1928 11.4269 71.1042 12.6689 73.1844 12.9553C73.2131 13.9293 73.1844 14.9047 73.0968 15.8761C73.0602 16.284 72.9752 16.7508 72.6039 16.9574C72.3189 17.1156 71.89 17.109 71.7619 17.398C71.6691 17.6071 71.8207 17.8569 72.0312 17.9641C72.2417 18.0713 72.4927 18.0739 72.732 18.0739C75.1978 18.0713 77.6624 18.07 80.1282 18.0674C80.7283 18.0674 81.3271 18.0674 81.9272 18.0661C82.3221 18.0661 83.2739 18.2386 83.6086 18.0281C83.9433 17.8163 83.9263 17.0672 83.9943 16.7181C84.1094 16.1232 84.2257 15.5296 84.3421 14.9347C84.3826 14.7255 84.4231 14.5059 84.3617 14.3006C84.3002 14.0954 84.1028 13.9097 83.8793 13.9293C83.6557 13.9489 83.5053 14.1503 83.3968 14.3372C82.9523 15.1099 82.6503 16.0291 81.8684 16.4997C81.4016 16.7808 80.8342 16.8541 80.2838 16.8959C79.0299 16.9913 77.7709 16.9574 76.5144 16.9247C76.3026 16.9194 76.0686 16.9051 75.9182 16.7625C75.7862 16.6383 75.7548 16.4488 75.7326 16.2736C75.6084 15.2707 75.5626 14.2588 75.5966 13.2494C75.6123 13.2494 75.628 13.2494 75.6437 13.2508C78.4874 13.3619 81.3663 13.609 84.1643 13.1815C84.2937 13.9345 84.5395 14.6236 84.9069 15.2354C85.4704 16.1755 86.2274 16.9168 87.157 17.4372C88.0879 17.9589 89.1077 18.2243 90.1864 18.2243C91.3369 18.2243 92.3802 17.9419 93.2902 17.3836C94.1806 16.8371 94.9533 16.1232 95.5835 15.2642C95.8214 14.9465 95.6907 14.6981 95.6214 14.604C95.4985 14.4392 95.3246 14.3477 95.1311 14.3477H95.1363ZM73.1857 11.7812C72.5163 11.6047 71.8913 11.3471 71.3422 10.964C69.8112 9.89847 68.726 8.1635 68.794 6.35923C68.8554 4.69616 70.0884 3.0161 71.8155 2.77161C72.2169 2.71669 72.6261 2.73631 73.0275 2.71277C73.1308 3.21221 73.1857 3.91562 73.1857 4.80076V11.7812ZM87.2786 7.79872C87.9245 6.96196 88.7312 6.55534 89.7457 6.55534C90.3681 6.55534 90.9329 6.73839 91.4703 7.11493C91.9514 7.45225 92.4012 7.98045 92.8104 8.68778L86.3019 11.5733C86.2889 11.406 86.2823 11.2399 86.2823 11.0739C86.2823 9.75596 86.617 8.65248 87.2786 7.79741V7.79872Z" fill="#FAFAFA"/>
<path d="M106.881 14.0561C106.748 13.8992 106.567 13.8195 106.374 13.8313C106.264 13.8378 106.101 13.8822 105.948 14.0496C105.936 14.0614 105.927 14.0744 105.916 14.0888C105.521 14.6772 105.019 15.1949 104.426 15.6251C103.854 16.0395 103.16 16.2762 102.36 16.3259C101.288 16.3938 100.335 16.0931 99.4444 15.4067C98.6141 14.7674 98.0022 13.8744 97.6257 12.7526L104.248 9.29313C105.891 8.55311 105.723 7.55684 105.469 7.01426C105.17 6.45075 104.613 5.97353 103.814 5.59699C103.027 5.22567 102.083 5.0727 101.007 5.14069C99.7594 5.21914 98.6677 5.59307 97.7604 6.2494C96.8595 6.90182 96.1705 7.75296 95.7129 8.78061C95.2579 9.80172 95.0696 10.9222 95.1533 12.1107C95.2409 13.3671 95.6044 14.4628 96.232 15.3636C96.8595 16.2657 97.6662 16.9573 98.6311 17.4189C99.596 17.8804 100.632 18.0804 101.709 18.0125C102.857 17.9392 103.878 17.5915 104.747 16.9783C105.598 16.3768 106.319 15.6159 106.888 14.7177C107.103 14.3856 106.956 14.145 106.88 14.0561H106.881ZM97.3106 11.1262C97.2191 9.81087 97.4753 8.68909 98.0755 7.79349C98.6612 6.9175 99.4391 6.46121 100.451 6.39714C101.072 6.35792 101.647 6.50435 102.211 6.8469C102.714 7.15284 103.199 7.65098 103.657 8.33216L97.3642 11.623C97.3394 11.4569 97.3211 11.2909 97.3093 11.1262H97.3106Z" fill="#FAFAFA"/>
</svg>
