<svg width="214" height="43" viewBox="0 0 214 43" fill="none" xmlns="http://www.w3.org/2000/svg">
<path d="M38.7238 35.8657C38.6951 35.8657 38.6197 35.8709 38.591 35.8736C38.2527 35.9126 37.956 36.113 37.7009 36.4774C36.6104 38.1327 35.1425 38.9369 33.2113 38.9369C31.707 38.9369 30.4161 38.5413 29.2631 37.7293C28.0685 36.886 26.9779 35.7825 26.0254 34.4447C25.052 33.0783 24.1775 31.5661 23.4253 29.9551C22.6627 28.3206 21.947 26.6888 21.2885 25.0907C21.0959 24.6613 20.9189 24.2344 20.755 23.7998C20.2631 22.5974 19.5838 21.5719 18.7353 20.7469C18.285 20.3096 17.7229 19.94 17.054 19.6459C18.0872 19.2894 19.0632 18.8547 19.9742 18.3446C21.5332 17.4727 22.7981 16.3588 23.7376 15.034C24.698 13.6832 25.1847 12.0618 25.1847 10.2217C25.1847 8.04326 24.534 6.20839 23.2509 4.76651C21.9991 3.35847 20.388 2.30179 18.462 1.6251C16.5725 0.961416 14.6309 0.625672 12.6893 0.625672H1.66444C1.22979 0.625672 0.873226 0.833885 0.714464 1.18524C0.592139 1.46113 0.592139 1.75002 0.714464 2.0233C0.795146 2.20289 1.00856 2.51781 1.56553 2.62192C2.43222 2.73904 2.9007 3.14765 3.08549 3.94407C3.31973 4.9539 3.43945 6.4192 3.43945 8.30093V27.0349C3.43945 28.9166 3.31973 30.3819 3.08549 31.3918C2.9007 32.1882 2.43222 32.5968 1.5265 32.7191C1.00596 32.818 0.795146 33.1329 0.711861 33.3125C0.589536 33.5884 0.589536 33.8773 0.711861 34.1506C0.870624 34.4993 1.22459 34.7076 1.65923 34.7076H10.0268C10.464 34.7076 10.818 34.4993 10.9742 34.148C11.0965 33.8747 11.0965 33.5858 10.9742 33.3073C10.8935 33.1303 10.6801 32.8154 10.1231 32.7113C9.25641 32.5942 8.78793 32.1856 8.60314 31.3892C8.3689 30.3793 8.24918 28.9114 8.24918 27.0323V20.9863H8.45218C10.8701 20.9863 12.6164 21.2049 13.6393 21.6344C14.5684 22.0248 15.305 22.9513 15.8255 24.3802C15.8646 24.4921 15.9192 24.6196 15.9947 24.7654C16.8093 26.8137 17.6864 28.8828 18.6026 30.9181C19.5291 32.982 20.5832 34.8976 21.731 36.6101C22.9022 38.3565 24.2686 39.7854 25.7885 40.8577C27.3605 41.969 29.1798 42.5312 31.1917 42.5312C33.0578 42.5312 34.7651 42.0549 36.2669 41.1127C37.766 40.1706 38.8851 38.9109 39.6165 37.3102C39.7779 36.8496 39.6763 36.5268 39.5618 36.3368C39.3822 36.0375 39.0751 35.8657 38.7212 35.8657H38.7238ZM8.25438 8.30093C8.25438 6.16414 8.34287 4.62857 8.51465 3.73586C8.65259 3.01232 8.98573 2.86396 9.4412 2.86396H12.6399C14.8521 2.86396 16.661 3.47038 18.1705 4.71966C19.6514 5.94291 20.3724 7.66848 20.3724 9.99006C20.3724 11.9499 19.8284 13.5869 18.7535 14.8492C17.6552 16.1402 16.1873 17.1214 14.3941 17.7642C12.5618 18.4201 10.5473 18.7532 8.40794 18.7532H8.25438V8.30093Z" fill="#FAFAFA"/>
<path d="M47.4583 30.6292C47.4297 30.6266 47.3594 30.6214 47.3308 30.6214C47.1226 30.6214 46.8076 30.6838 46.4979 30.9779C45.8082 31.6338 45.3632 31.7718 45.1107 31.7718C44.9467 31.7718 44.5147 31.7718 44.5147 30.4548V18.8391C44.5147 15.997 43.6923 13.7119 42.0682 12.0488C40.4311 10.3726 38.0939 9.52418 35.1191 9.52418C33.1124 9.52418 31.3348 9.90417 29.8305 10.6511C28.183 11.471 27.3475 12.5563 27.3475 13.8732C27.3475 14.8596 27.8524 15.6483 28.805 16.1506C29.6405 16.593 30.705 16.8194 31.9673 16.8194C32.8418 16.8194 33.0213 16.3432 33.0604 16.1323C33.115 15.8122 32.9849 15.5077 32.7116 15.3021C32.0141 14.6202 31.936 13.9409 32.4566 13.1054C33.0187 12.2023 33.9869 11.7625 35.4132 11.7625C36.8394 11.7625 37.9248 12.3741 38.5936 13.6286C39.3276 15.0132 39.7024 16.7648 39.7024 18.8391V19.7318C39.2365 19.2503 38.716 18.8183 38.1408 18.4435C36.9305 17.6523 35.5173 17.2515 33.9401 17.2515C31.6549 17.2515 29.6144 18.139 27.8811 19.8906C26.1581 21.6318 25.2836 23.8623 25.2836 26.5196C25.2836 29.1769 26.1008 31.194 27.7145 32.779C29.3334 34.3718 31.2619 35.1786 33.4482 35.1786C35.1295 35.1786 36.6468 34.7206 37.9586 33.8122C38.6743 33.3177 39.3068 32.7686 39.8559 32.17C39.9991 32.8935 40.2463 33.4765 40.6003 33.9294C41.2327 34.7466 42.1307 35.176 43.1925 35.176C44.9572 35.176 46.5994 34.2052 48.109 32.2376C48.351 31.855 48.338 31.5297 48.2834 31.3215C48.1819 30.9363 47.8747 30.676 47.4583 30.624V30.6292ZM30.0959 26.5196C30.0959 24.6405 30.5488 23.0893 31.4415 21.9129C32.2978 20.7859 33.4039 20.2393 34.825 20.2393C35.7593 20.2393 36.7145 20.5543 37.6593 21.1763C38.5676 21.7749 39.2547 22.8472 39.7024 24.3594V27.2223C39.7024 28.5418 39.1714 29.6402 38.0809 30.5797C36.9696 31.5375 35.7437 32.0034 34.3331 32.0034C33.0343 32.0034 32.0375 31.5505 31.2828 30.6162C30.4941 29.6454 30.0959 28.266 30.0959 26.517V26.5196Z" fill="#FAFAFA"/>
<path d="M93.0986 34.1532C92.9425 34.5046 92.5937 34.7128 92.1565 34.7128H83.7889C83.3517 34.7128 82.9951 34.5046 82.8389 34.1532C82.7166 33.8799 82.7166 33.5884 82.8389 33.3151C82.9222 33.1329 83.133 32.8206 83.6536 32.7243C84.5567 32.602 85.0278 32.1908 85.2126 31.397C85.4442 30.3819 85.5691 28.9192 85.5691 27.0375V18.3732C85.5691 16.8715 85.3219 15.6925 84.8456 14.8727C84.3745 14.0736 83.7993 13.5063 83.1434 13.1939C82.4537 12.8634 81.7432 12.6994 81.0379 12.6994C80.0202 12.6994 79.0208 12.9987 78.0448 13.5974C77.8184 13.7327 77.5946 13.8836 77.3759 14.0528C76.8918 14.4224 76.4338 14.8857 76.0095 15.4322C76.0017 15.44 75.9965 15.4452 75.9965 15.4531C75.3823 16.2469 74.8279 17.2151 74.3412 18.3602V27.0375C74.3412 28.9166 74.4584 30.3819 74.69 31.397C74.8748 32.1908 75.3459 32.5994 76.2152 32.7165C76.7695 32.8206 76.9881 33.1329 77.0636 33.3151C77.186 33.5884 77.186 33.8799 77.0636 34.1532C76.9075 34.5046 76.5587 34.7128 76.1215 34.7128H67.7539C67.3166 34.7128 66.9601 34.5046 66.8039 34.1532C66.6816 33.8799 66.6816 33.5884 66.8039 33.3151C66.8846 33.1329 67.098 32.8206 67.6186 32.7243C68.5217 32.602 68.9928 32.1908 69.1775 31.397C69.4092 30.3819 69.5341 28.9192 69.5341 27.0375V25.8351C66.8612 30.4808 62.9312 35.1812 57.3328 35.1812C55.3782 35.1812 53.5251 34.6555 51.836 33.6144C50.1469 32.5812 48.7727 31.1029 47.755 29.229C46.7296 27.3628 46.2168 25.1454 46.2168 22.6338C46.2168 19.0551 47.2683 15.9528 49.3478 13.41C51.4534 10.8333 54.2148 9.52678 57.5566 9.52678C59.5113 9.52678 61.2811 9.99006 62.8192 10.8984C64.4745 11.8744 65.3152 13.1809 65.3152 14.7633C65.3152 15.7836 64.9586 16.6763 64.2637 17.4233C63.561 18.1702 62.6631 18.5554 61.5986 18.5554C61.1613 18.5554 60.8672 18.3993 60.7241 18.0948C60.6564 17.9516 60.5862 17.6991 60.6955 17.3738C61.216 15.617 61.0442 14.3105 60.1697 13.3735C59.2328 12.3845 58.085 11.903 56.6639 11.903C54.764 11.903 53.2597 12.7229 52.078 14.4068C50.8626 16.1245 50.2458 18.329 50.2458 20.9499C50.2458 24.1772 51.1072 26.8423 52.8016 28.8802C54.5037 30.9233 56.4453 31.9123 58.7278 31.9123C61.7001 31.9123 64.0529 29.7729 65.9607 27.1833C67.3557 25.2833 68.5165 23.1439 69.5029 21.4262C69.5159 21.4079 69.5237 21.3871 69.5367 21.3689V8.30353C69.5367 6.42441 69.4144 4.95911 69.1802 3.94407C68.9954 3.15026 68.5243 2.74164 67.655 2.62452C67.1006 2.52041 66.8898 2.20289 66.8065 2.02591C66.6842 1.75263 66.6842 1.46113 66.8065 1.18785C66.9627 0.836488 67.3192 0.628275 67.7565 0.628275H73.6619C74.0367 0.628275 74.3464 0.919773 74.3464 1.27894V13.7483C75.0856 12.7931 75.9263 11.9655 76.8554 11.2758C78.4352 10.1176 80.2857 9.52678 82.3731 9.52678C84.5801 9.52678 86.4879 10.2555 88.0391 11.7C89.5981 13.1497 90.3919 15.3958 90.3919 18.3732V27.0375C90.3919 28.9166 90.509 30.3819 90.7406 31.397C90.9254 32.1908 91.3965 32.5994 92.2658 32.7165C92.8201 32.8206 93.0388 33.1329 93.1143 33.3151C93.2444 33.5884 93.2444 33.8799 93.1143 34.1532H93.0986Z" fill="#FAFAFA"/>
<path d="M78.0396 13.5974C77.3291 14.084 76.6524 14.7087 76.0017 15.4322C76.426 14.8857 76.884 14.425 77.3681 14.0528C77.5868 13.8836 77.8132 13.7353 78.037 13.5974H78.0396Z" fill="#FAFAFA"/>
<path d="M114.266 27.4617C114.047 27.4617 113.717 27.5268 113.389 27.8391C113.366 27.8626 113.342 27.886 113.321 27.9146C112.455 29.0338 111.388 29.9967 110.149 30.7801C108.957 31.5323 107.543 31.9123 105.948 31.9123C103.809 31.9123 101.958 31.1966 100.285 29.7209C98.723 28.344 97.6351 26.4962 97.0417 24.2188L110.677 18.1806C114.045 16.9184 113.847 14.9195 113.418 13.8082C112.902 12.65 111.861 11.6323 110.326 10.7839C108.814 9.94841 106.96 9.52418 104.816 9.52418C102.328 9.52418 100.105 10.128 98.2129 11.3174C96.3311 12.499 94.8476 14.1049 93.7961 16.0881C92.7525 18.0583 92.2215 20.2628 92.2215 22.6338C92.2215 25.1402 92.7889 27.3602 93.9107 29.2316C95.0324 31.1029 96.5394 32.576 98.3899 33.6144C100.243 34.6529 102.273 35.1812 104.42 35.1812C106.711 35.1812 108.787 34.6191 110.599 33.5077C112.371 32.4198 113.91 30.9988 115.164 29.2888C115.64 28.6564 115.377 28.1593 115.242 27.9745C115 27.6439 114.651 27.4643 114.264 27.4643L114.266 27.4617ZM103.538 11.9499C104.777 11.9499 105.901 12.3142 106.971 13.0638C107.929 13.7353 108.824 14.7868 109.639 16.1948L96.6825 21.9389C96.6565 21.6057 96.6435 21.2752 96.6435 20.9447C96.6435 18.3212 97.3097 16.1245 98.6267 14.4224C99.9124 12.7567 101.518 11.9473 103.538 11.9473V11.9499Z" fill="#FAFAFA"/>
<path d="M124.609 30.6292C124.58 30.6266 124.51 30.6214 124.482 30.6214C124.271 30.6214 123.958 30.6838 123.649 30.9779C122.959 31.6338 122.514 31.7718 122.261 31.7718C122.113 31.7718 121.665 31.7718 121.665 30.408V1.27634C121.665 0.91717 121.358 0.625672 120.981 0.625672H115.076C114.638 0.625672 114.284 0.833885 114.128 1.18524C114.003 1.46113 114.003 1.75263 114.128 2.0233C114.209 2.20289 114.422 2.52041 114.979 2.62452C115.846 2.74164 116.317 3.15026 116.502 3.94667C116.736 4.95911 116.856 6.42441 116.856 8.30353V30.4106C116.856 32.006 117.15 33.159 117.751 33.9346C118.384 34.7518 119.281 35.1812 120.343 35.1812C122.108 35.1812 123.75 34.2105 125.26 32.2428C125.502 31.8602 125.489 31.5375 125.434 31.3267C125.333 30.9415 125.026 30.6812 124.609 30.6292Z" fill="#FAFAFA"/>
<path d="M190.004 26.9412C189.785 26.9412 189.454 27.0063 189.127 27.3186C189.103 27.342 189.08 27.3654 189.059 27.3915C188.192 28.5106 187.125 29.4762 185.886 30.257C184.694 31.0092 183.281 31.3892 181.686 31.3892C179.546 31.3892 177.696 30.6734 176.022 29.1977C174.461 27.8209 173.373 25.973 172.779 23.6957L186.415 17.6575C189.782 16.3952 189.585 14.3964 189.155 13.285C188.637 12.1268 187.599 11.1092 186.063 10.2607C184.551 9.42528 182.698 9.00105 180.551 9.00105C178.063 9.00105 175.84 9.60486 173.948 10.7943C172.066 11.9759 170.58 13.5817 169.531 15.565C168.487 17.5352 167.956 19.7396 167.956 22.1107C167.956 22.2668 167.964 22.4152 167.969 22.5687C162.382 23.2636 156.692 23.2428 151.112 22.4881C151.122 16.9027 151.13 11.3174 151.141 5.7321C151.141 4.70665 151.206 3.54326 152.02 2.87177C152.619 2.37727 153.642 2.07015 153.59 1.31798C153.54 0.599645 152.549 0.381021 151.791 0.365406C149.657 0.315955 147.523 0.269107 145.389 0.258696C144.134 0.253491 142.864 0.261299 141.654 0.571016C138.833 1.28935 136.68 3.5849 135.559 6.15113C133.95 9.82609 134.229 14.2012 136.295 17.6653C138.359 21.1269 142.164 23.5994 146.305 24.1694C146.362 26.1084 146.305 28.0499 146.131 29.9837C146.058 30.7958 145.888 31.7249 145.149 32.1361C144.582 32.4511 143.728 32.438 143.473 33.0132C143.288 33.4297 143.59 33.9268 144.009 34.1402C144.428 34.3536 144.928 34.3588 145.404 34.3588C150.313 34.3536 155.219 34.351 160.128 34.3458C161.322 34.3458 162.514 34.3458 163.709 34.3432C164.495 34.3432 166.39 34.6867 167.056 34.2677C167.722 33.8461 167.688 32.3548 167.824 31.6598C168.053 30.4756 168.284 29.294 168.516 28.1098C168.597 27.6934 168.677 27.2561 168.555 26.8475C168.433 26.4389 168.04 26.0693 167.595 26.1084C167.15 26.1474 166.85 26.5482 166.634 26.9204C165.749 28.4586 165.148 30.2882 163.592 31.2252C162.663 31.7848 161.533 31.9305 160.437 32.0138C157.941 32.2038 155.435 32.1361 152.934 32.0711C152.512 32.0607 152.046 32.032 151.747 31.7483C151.484 31.5011 151.422 31.1237 151.377 30.7749C151.13 28.7787 151.039 26.7642 151.107 24.755C151.138 24.755 151.169 24.755 151.201 24.7576C156.861 24.9788 162.592 25.4707 168.162 24.6196C168.42 26.1188 168.909 27.4904 169.64 28.7084C170.762 30.5797 172.269 32.0554 174.12 33.0913C175.973 34.1298 178.003 34.6581 180.15 34.6581C182.44 34.6581 184.517 34.0959 186.329 32.9846C188.101 31.8967 189.639 30.4756 190.894 28.7657C191.367 28.1332 191.107 27.6387 190.969 27.4513C190.725 27.1234 190.378 26.9412 189.993 26.9412H190.004ZM146.308 21.8322C144.975 21.4808 143.731 20.9681 142.638 20.2055C139.59 18.0843 137.43 14.6306 137.565 11.0389C137.687 7.72834 140.142 4.38392 143.58 3.89722C144.379 3.78791 145.194 3.82695 145.993 3.7801C146.198 4.77432 146.308 6.17455 146.308 7.93656V21.8322ZM174.362 13.9045C175.647 12.2388 177.253 11.4293 179.273 11.4293C180.512 11.4293 181.636 11.7937 182.706 12.5433C183.664 13.2148 184.559 14.2662 185.373 15.6743L172.417 21.4184C172.391 21.0852 172.378 20.7547 172.378 20.4241C172.378 17.8007 173.045 15.604 174.362 13.9019V13.9045Z" fill="#FAFAFA"/>
<path d="M213.383 26.3608C213.118 26.0485 212.759 25.8897 212.374 25.9132C212.155 25.9262 211.83 26.0147 211.525 26.3478C211.502 26.3712 211.483 26.3973 211.463 26.4259C210.677 27.5971 209.677 28.6277 208.496 29.484C207.358 30.3091 205.976 30.7801 204.383 30.879C202.249 31.0144 200.352 30.4158 198.579 29.0494C196.927 27.7767 195.709 25.999 194.959 23.766L208.142 16.8793C211.413 15.4062 211.077 13.423 210.572 12.3429C209.976 11.2211 208.868 10.2711 207.278 9.52158C205.711 8.78242 203.832 8.47791 201.69 8.61325C199.207 8.76941 197.033 9.51377 195.227 10.8203C193.434 12.119 192.062 13.8134 191.151 15.8591C190.246 17.8917 189.871 20.1222 190.037 22.4881C190.212 24.9892 190.935 27.1702 192.185 28.9635C193.434 30.7593 195.04 32.1361 196.961 33.0549C198.881 33.9736 200.943 34.3718 203.087 34.2365C205.372 34.0907 207.405 33.3984 209.136 32.1778C210.83 30.9805 212.264 29.4658 213.396 27.6778C213.826 27.0167 213.532 26.5378 213.381 26.3608H213.383ZM194.332 20.5282C194.15 17.91 194.66 15.6769 195.854 13.8941C197.02 12.1503 198.569 11.2419 200.583 11.1144C201.82 11.0363 202.965 11.3278 204.087 12.0097C205.089 12.6187 206.054 13.6104 206.965 14.9664L194.439 21.5173C194.389 21.1867 194.353 20.8562 194.329 20.5282H194.332Z" fill="#FAFAFA"/>
</svg>
