<svg width="213" height="56" viewBox="0 0 213 56" fill="none" xmlns="http://www.w3.org/2000/svg">
<path d="M106.811 48.3562V52.2915H105V41.5164H108.67C111.153 41.5164 112.636 42.7032 112.636 44.9207C112.636 47.1382 111.168 48.3562 108.67 48.3562H106.811ZM108.482 46.7946C110.138 46.7946 110.825 46.1544 110.825 44.9207C110.825 43.6871 110.138 43.0936 108.482 43.0936H106.811V46.7946H108.482Z" fill="white"/>
<path d="M116.272 47.6848H117.959V47.0289C117.959 46.0451 117.584 45.7796 116.413 45.7796C115.569 45.7796 115.148 45.8733 114.773 46.4823L113.571 45.6391C114.133 44.7177 114.976 44.3429 116.522 44.3429C118.521 44.3429 119.598 44.9676 119.598 47.0445V52.2915H117.959V51.5731C117.584 52.1822 117.1 52.432 116.147 52.432C114.429 52.432 113.368 51.5575 113.368 49.9959C113.368 48.325 114.601 47.6848 116.272 47.6848ZM117.959 48.9653H116.397C115.413 48.9653 115.007 49.3088 115.007 49.9959C115.007 50.683 115.538 51.011 116.335 51.011C117.35 51.011 117.959 50.6986 117.959 49.34V48.9653Z" fill="white"/>
<path d="M120.436 44.4835H121.436V42.7657H123.091V44.4835H124.746V45.9201H123.091V49.4962C123.091 50.4019 123.232 50.7923 124.106 50.7923H124.746V52.2915H123.981C122.107 52.2915 121.436 51.6512 121.436 49.8085V45.9201H120.436V44.4835Z" fill="white"/>
<path d="M125.764 41.5164H127.591V43.2186H125.764V41.5164ZM125.842 44.4835H127.513V52.2915H125.842V44.4835Z" fill="white"/>
<path d="M134.949 51.1047C134.402 52.0572 133.528 52.432 132.154 52.432C129.92 52.432 128.734 50.9797 128.734 48.9028V47.8409C128.734 45.5454 129.858 44.3429 131.904 44.3429C133.949 44.3429 135.058 45.6234 135.058 47.9346V48.7935H130.389V48.8247C130.389 50.0428 130.857 50.9953 132.091 50.9953C133.012 50.9953 133.387 50.7143 133.7 50.2302L134.949 51.1047ZM130.405 47.513H133.387C133.325 46.373 132.856 45.7952 131.904 45.7952C130.951 45.7952 130.483 46.4511 130.405 47.513Z" fill="white"/>
<path d="M136.242 44.4835H137.882V45.1862C138.226 44.7177 138.788 44.3429 139.818 44.3429C141.427 44.3429 142.66 45.155 142.66 47.4037V52.2915H141.005V47.5911C141.005 46.2168 140.381 45.8264 139.522 45.8264C138.491 45.8264 137.913 46.5292 137.913 47.5754V52.2915H136.242V44.4835Z" fill="white"/>
<path d="M143.462 44.4835H144.462V42.7657H146.117V44.4835H147.772V45.9201H146.117V49.4962C146.117 50.4019 146.257 50.7923 147.132 50.7923H147.772V52.2915H147.007C145.133 52.2915 144.462 51.6512 144.462 49.8085V45.9201H143.462V44.4835Z" fill="white"/>
<path d="M152.129 52.2915L155.877 41.5164H157.595L161.342 52.2915H159.422L158.688 50.0584H154.799L154.065 52.2915H152.129ZM155.299 48.4968H158.172L156.736 44.1399L155.299 48.4968Z" fill="white"/>
<path d="M166.636 41.5164H168.292V52.2915H166.636V51.7449C166.215 52.1822 165.621 52.432 164.762 52.432C162.685 52.432 161.655 50.9485 161.655 48.9028V47.8409C161.655 45.5922 162.873 44.3429 164.762 44.3429C165.574 44.3429 166.199 44.5772 166.636 45.03V41.5164ZM166.636 48.8247V47.8253C166.636 46.5448 166.058 45.7952 164.981 45.7952C163.903 45.7952 163.31 46.5604 163.31 47.919V48.8247C163.31 50.0428 163.779 50.9953 164.981 50.9953C166.183 50.9953 166.636 50.0428 166.636 48.8247Z" fill="white"/>
<path d="M176.846 44.4835L173.801 52.2915H172.209L169.101 44.4835H170.944L172.974 50.0584L174.988 44.4835H176.846Z" fill="white"/>
<path d="M183.691 48.8716C183.691 50.9485 182.676 52.432 180.381 52.432C178.085 52.432 177.055 51.0266 177.055 48.8716V47.8878C177.055 45.5922 178.273 44.3429 180.381 44.3429C182.489 44.3429 183.691 45.5922 183.691 47.8878V48.8716ZM182.036 48.8247V47.919C182.036 46.5604 181.49 45.7952 180.381 45.7952C179.272 45.7952 178.71 46.576 178.71 47.919V48.8247C178.71 50.0428 179.116 50.9953 180.381 50.9953C181.568 50.9953 182.036 50.0428 182.036 48.8247Z" fill="white"/>
<path d="M190.789 51.1047C190.274 52.026 189.352 52.432 188.009 52.432C185.823 52.432 184.574 51.0266 184.574 48.9028V47.8409C184.574 45.5922 185.839 44.3429 188.072 44.3429C189.259 44.3429 190.242 44.7802 190.789 45.6078L189.508 46.4979C189.212 46.0763 188.712 45.7952 188.041 45.7952C186.822 45.7952 186.229 46.576 186.229 47.919V48.8247C186.229 50.0428 186.666 50.9953 188.041 50.9953C188.696 50.9953 189.227 50.7611 189.524 50.2302L190.789 51.1047Z" fill="white"/>
<path d="M194.29 47.6848H195.976V47.0289C195.976 46.0451 195.601 45.7796 194.43 45.7796C193.587 45.7796 193.165 45.8733 192.79 46.4823L191.588 45.6391C192.15 44.7177 192.993 44.3429 194.539 44.3429C196.538 44.3429 197.616 44.9676 197.616 47.0445V52.2915H195.976V51.5731C195.601 52.1822 195.117 52.432 194.165 52.432C192.447 52.432 191.385 51.5575 191.385 49.9959C191.385 48.325 192.619 47.6848 194.29 47.6848ZM195.976 48.9653H194.414C193.431 48.9653 193.025 49.3088 193.025 49.9959C193.025 50.683 193.556 51.011 194.352 51.011C195.367 51.011 195.976 50.6986 195.976 49.34V48.9653Z" fill="white"/>
<path d="M204.963 51.1047C204.448 52.026 203.526 52.432 202.183 52.432C199.997 52.432 198.748 51.0266 198.748 48.9028V47.8409C198.748 45.5922 200.013 44.3429 202.246 44.3429C203.433 44.3429 204.417 44.7802 204.963 45.6078L203.683 46.4979C203.386 46.0763 202.886 45.7952 202.215 45.7952C200.997 45.7952 200.403 46.576 200.403 47.919V48.8247C200.403 50.0428 200.84 50.9953 202.215 50.9953C202.871 50.9953 203.401 50.7611 203.698 50.2302L204.963 51.1047Z" fill="white"/>
<path d="M207.04 44.4835L209.023 49.9803L210.803 44.4835H212.521L209.773 52.6038C209.101 54.6026 208.524 55.2585 206.337 55.2585V53.7281C207.43 53.7281 207.868 53.5564 208.258 52.3852L205.275 44.4835H207.04Z" fill="white"/>
<path d="M38.1037 36.3814C38.075 36.3814 37.9995 36.3866 37.9709 36.3892C37.6326 36.4282 37.3359 36.6286 37.0808 36.993C35.9903 38.6483 34.5224 39.4525 32.5912 39.4525C31.0869 39.4525 29.796 39.0569 28.643 38.2449C27.4483 37.4016 26.3578 36.2981 25.4053 34.9603C24.4319 33.5939 23.5574 32.0818 22.8052 30.4707C22.0426 28.8362 21.3269 27.2044 20.6684 25.6063C20.4758 25.1769 20.2988 24.7501 20.1349 24.3154C19.643 23.113 18.9637 22.0875 18.1152 21.2625C17.6649 20.8252 17.1028 20.4557 16.4339 20.1616C17.4671 19.805 18.4431 19.3704 19.3541 18.8602C20.9131 17.9883 22.178 16.8744 23.1175 15.5496C24.0779 14.1989 24.5646 12.5774 24.5646 10.7373C24.5646 8.55889 23.9139 6.72401 22.6308 5.28214C21.3789 3.87409 19.7679 2.81741 17.8419 2.14072C15.9524 1.47704 14.0108 1.1413 12.0692 1.1413H1.04432C0.609674 1.1413 0.253109 1.34951 0.0943466 1.70087C-0.0279786 1.97675 -0.0279786 2.26565 0.0943466 2.53893C0.175029 2.71851 0.388448 3.03343 0.945418 3.13754C1.8121 3.25466 2.28058 3.66328 2.46537 4.45969C2.69961 5.46953 2.81934 6.93483 2.81934 8.81655V27.5505C2.81934 29.4323 2.69961 30.8976 2.46537 31.9074C2.28058 32.7038 1.8121 33.1124 0.906378 33.2348C0.385845 33.3337 0.175029 33.6486 0.0917439 33.8282C-0.0305813 34.104 -0.0305813 34.3929 0.0917439 34.6662C0.250506 35.015 0.604469 35.2232 1.03911 35.2232H9.40668C9.84393 35.2232 10.1979 35.015 10.354 34.6636C10.4764 34.3903 10.4764 34.1014 10.354 33.823C10.2734 33.646 10.0599 33.3311 9.50298 33.2269C8.63629 33.1098 8.16781 32.7012 7.98302 31.9048C7.74878 30.895 7.62906 29.4271 7.62906 27.5479V21.5019H7.83207C10.2499 21.5019 11.9963 21.7206 13.0192 22.15C13.9483 22.5404 14.6849 23.467 15.2054 24.8958C15.2445 25.0077 15.2991 25.1353 15.3746 25.281C16.1892 27.3293 17.0663 29.3984 17.9825 31.4337C18.909 33.4976 19.9631 35.4132 21.1109 37.1257C22.2821 38.8721 23.6485 40.301 25.1684 41.3733C26.7404 42.4846 28.5597 43.0468 30.5715 43.0468C32.4377 43.0468 34.145 42.5705 35.6467 41.6283C37.1459 40.6862 38.265 39.4265 38.9964 37.8259C39.1577 37.3652 39.0562 37.0424 38.9417 36.8525C38.7621 36.5531 38.455 36.3814 38.1011 36.3814H38.1037ZM7.63426 8.81655C7.63426 6.67977 7.72276 5.1442 7.89453 4.25148C8.03247 3.52794 8.36561 3.37959 8.82108 3.37959H12.0198C14.232 3.37959 16.0409 3.98601 17.5504 5.23529C19.0313 6.45854 19.7523 8.18411 19.7523 10.5057C19.7523 12.4655 19.2083 14.1026 18.1334 15.3649C17.0351 16.6558 15.5672 17.637 13.7739 18.2798C11.9417 18.9357 9.92721 19.2689 7.78782 19.2689H7.63426V8.81655Z" fill="white"/>
<path d="M46.8382 31.1448C46.8096 31.1422 46.7393 31.137 46.7107 31.137C46.5025 31.137 46.1875 31.1995 45.8778 31.4936C45.1881 32.1494 44.743 32.2874 44.4906 32.2874C44.3266 32.2874 43.8946 32.2874 43.8946 30.9704V19.3547C43.8946 16.5126 43.0721 14.2275 41.4481 12.5644C39.811 10.8883 37.4738 10.0398 34.499 10.0398C32.4923 10.0398 30.7147 10.4198 29.2104 11.1668C27.5629 11.9866 26.7274 13.0719 26.7274 14.3889C26.7274 15.3753 27.2323 16.1639 28.1849 16.6662C29.0204 17.1086 30.0848 17.3351 31.3471 17.3351C32.2216 17.3351 32.4012 16.8588 32.4403 16.648C32.4949 16.3278 32.3648 16.0233 32.0915 15.8177C31.394 15.1358 31.3159 14.4565 31.8364 13.6211C32.3986 12.7179 33.3668 12.2781 34.7931 12.2781C36.2193 12.2781 37.3046 12.8897 37.9735 14.1442C38.7075 15.5288 39.0823 17.2804 39.0823 19.3547V20.2475C38.6164 19.766 38.0958 19.3339 37.5207 18.9591C36.3104 18.1679 34.8972 17.7671 33.32 17.7671C31.0348 17.7671 28.9943 18.6546 27.261 20.4062C25.538 22.1474 24.6635 24.3779 24.6635 27.0352C24.6635 29.6925 25.4807 31.7096 27.0944 33.2946C28.7132 34.8874 30.6418 35.6943 32.8281 35.6943C34.5094 35.6943 36.0267 35.2362 37.3385 34.3279C38.0542 33.8334 38.6867 33.2842 39.2358 32.6856C39.379 33.4091 39.6262 33.9921 39.9802 34.445C40.6126 35.2622 41.5105 35.6917 42.5724 35.6917C44.337 35.6917 45.9793 34.7209 47.4889 32.7533C47.7309 32.3707 47.7179 32.0453 47.6632 31.8371C47.5617 31.4519 47.2546 31.1917 46.8382 31.1396V31.1448ZM29.4758 27.0352C29.4758 25.1561 29.9287 23.6049 30.8214 22.4285C31.6777 21.3015 32.7838 20.755 34.2049 20.755C35.1392 20.755 36.0944 21.0699 37.0392 21.6919C37.9475 22.2905 38.6346 23.3628 39.0823 24.875V27.7379C39.0823 29.0575 38.5513 30.1558 37.4608 31.0954C36.3495 32.0531 35.1236 32.519 33.713 32.519C32.4142 32.519 31.4174 32.0662 30.6626 31.1318C29.874 30.161 29.4758 28.7816 29.4758 27.0326V27.0352Z" fill="white"/>
<path d="M92.4785 34.6688C92.3224 35.0202 91.9736 35.2284 91.5364 35.2284H83.1688C82.7315 35.2284 82.375 35.0202 82.2188 34.6688C82.0965 34.3955 82.0965 34.104 82.2188 33.8308C82.3021 33.6486 82.5129 33.3363 83.0334 33.24C83.9366 33.1176 84.4077 32.7064 84.5924 31.9126C84.8241 30.8976 84.949 29.4349 84.949 27.5531V18.8889C84.949 17.3871 84.7018 16.2081 84.2255 15.3883C83.7544 14.5893 83.1792 14.0219 82.5233 13.7096C81.8336 13.379 81.1231 13.2151 80.4178 13.2151C79.4001 13.2151 78.4007 13.5144 77.4247 14.113C77.1983 14.2483 76.9744 14.3993 76.7558 14.5684C76.2717 14.938 75.8137 15.4013 75.3894 15.9479C75.3816 15.9557 75.3764 15.9609 75.3764 15.9687C74.7622 16.7625 74.2078 17.7307 73.7211 18.8759V27.5531C73.7211 29.4323 73.8382 30.8976 74.0699 31.9126C74.2547 32.7064 74.7257 33.115 75.595 33.2322C76.1494 33.3363 76.368 33.6486 76.4435 33.8308C76.5658 34.104 76.5658 34.3955 76.4435 34.6688C76.2873 35.0202 75.9386 35.2284 75.5013 35.2284H67.1338C66.6965 35.2284 66.34 35.0202 66.1838 34.6688C66.0615 34.3955 66.0615 34.104 66.1838 33.8308C66.2645 33.6486 66.4779 33.3363 66.9984 33.24C67.9016 33.1176 68.3726 32.7064 68.5574 31.9126C68.7891 30.8976 68.914 29.4349 68.914 27.5531V26.3507C66.2411 30.9965 62.311 35.6969 56.7127 35.6969C54.7581 35.6969 52.905 35.1711 51.2159 34.1301C49.5267 33.0968 48.1525 31.6185 47.1349 29.7446C46.1094 27.8785 45.5967 25.661 45.5967 23.1494C45.5967 19.5708 46.6482 16.4684 48.7277 13.9256C50.8333 11.3489 53.5947 10.0424 56.9365 10.0424C58.8911 10.0424 60.6609 10.5057 62.1991 11.414C63.8544 12.39 64.6951 13.6966 64.6951 15.279C64.6951 16.2992 64.3385 17.1919 63.6436 17.9389C62.9409 18.6859 62.043 19.0711 60.9785 19.0711C60.5412 19.0711 60.2471 18.9149 60.104 18.6104C60.0363 18.4672 59.966 18.2148 60.0753 17.8894C60.5959 16.1326 60.4241 14.8261 59.5496 13.8891C58.6126 12.9001 57.4649 12.4186 56.0438 12.4186C54.1439 12.4186 52.6395 13.2385 51.4579 14.9224C50.2425 16.6402 49.6256 18.8446 49.6256 21.4655C49.6256 24.6928 50.4871 27.3579 52.1815 29.3958C53.8836 31.4389 55.8252 32.4279 58.1077 32.4279C61.08 32.4279 63.4328 30.2885 65.3405 27.6989C66.7356 25.7989 67.8964 23.6596 68.8828 21.9418C68.8958 21.9236 68.9036 21.9028 68.9166 21.8845V8.81916C68.9166 6.94003 68.7943 5.47473 68.56 4.45969C68.3752 3.66588 67.9042 3.25726 67.0349 3.14014C66.4805 3.03604 66.2697 2.71851 66.1864 2.54153C66.0641 2.26825 66.0641 1.97675 66.1864 1.70347C66.3426 1.35211 66.6991 1.1439 67.1364 1.1439H73.0418C73.4166 1.1439 73.7263 1.4354 73.7263 1.79457V14.2639C74.4655 13.3088 75.3061 12.4811 76.2353 11.7914C77.8151 10.6332 79.6656 10.0424 81.7529 10.0424C83.96 10.0424 85.8678 10.7712 87.4189 12.2156C88.9779 13.6653 89.7717 15.9114 89.7717 18.8889V27.5531C89.7717 29.4323 89.8889 30.8976 90.1205 31.9126C90.3053 32.7064 90.7764 33.115 91.6457 33.2322C92.2 33.3363 92.4187 33.6486 92.4941 33.8308C92.6243 34.104 92.6243 34.3955 92.4941 34.6688H92.4785Z" fill="white"/>
<path d="M77.4195 14.113C76.709 14.5997 76.0323 15.2243 75.3816 15.9479C75.8059 15.4013 76.2639 14.9406 76.748 14.5684C76.9666 14.3993 77.1931 14.2509 77.4169 14.113H77.4195Z" fill="white"/>
<path d="M113.646 27.9774C113.427 27.9774 113.097 28.0424 112.769 28.3548C112.745 28.3782 112.722 28.4016 112.701 28.4302C111.835 29.5494 110.767 30.5124 109.529 31.2958C108.337 32.0479 106.923 32.4279 105.328 32.4279C103.188 32.4279 101.338 31.7122 99.6645 30.2365C98.1029 28.8597 97.015 27.0118 96.4216 24.7345L110.057 18.6963C113.425 17.434 113.227 15.4351 112.798 14.3238C112.282 13.1656 111.241 12.148 109.706 11.2995C108.193 10.464 106.34 10.0398 104.196 10.0398C101.708 10.0398 99.4849 10.6436 97.5928 11.833C95.711 13.0147 94.2275 14.6205 93.176 16.6037C92.1324 18.5739 91.6014 20.7784 91.6014 23.1494C91.6014 25.6558 92.1688 27.8759 93.2905 29.7472C94.4123 31.6185 95.9192 33.0916 97.7697 34.1301C99.6228 35.1685 101.653 35.6969 103.8 35.6969C106.09 35.6969 108.167 35.1347 109.979 34.0234C111.751 32.9354 113.289 31.5144 114.544 29.8044C115.02 29.172 114.757 28.6749 114.622 28.4901C114.38 28.1596 114.031 27.98 113.643 27.98L113.646 27.9774ZM102.918 12.4655C104.157 12.4655 105.281 12.8299 106.351 13.5794C107.308 14.2509 108.204 15.3024 109.018 16.7104L96.0624 22.4545C96.0364 22.1214 96.0233 21.7908 96.0233 21.4603C96.0233 18.8368 96.6896 16.6402 98.0066 14.938C99.2923 13.2723 100.898 12.4629 102.918 12.4629V12.4655Z" fill="white"/>
<path d="M123.989 31.1448C123.96 31.1422 123.89 31.137 123.861 31.137C123.651 31.137 123.338 31.1995 123.029 31.4936C122.339 32.1494 121.894 32.2874 121.641 32.2874C121.493 32.2874 121.045 32.2874 121.045 30.9236V1.79196C121.045 1.4328 120.738 1.1413 120.361 1.1413H114.455C114.018 1.1413 113.664 1.34951 113.508 1.70087C113.383 1.97675 113.383 2.26825 113.508 2.53893C113.589 2.71851 113.802 3.03604 114.359 3.14014C115.226 3.25726 115.697 3.66588 115.882 4.4623C116.116 5.47473 116.236 6.94003 116.236 8.81916V30.9262C116.236 32.5216 116.53 33.6746 117.131 34.4502C117.763 35.2674 118.661 35.6969 119.723 35.6969C121.488 35.6969 123.13 34.7261 124.64 32.7585C124.882 32.3759 124.869 32.0531 124.814 31.8423C124.713 31.4571 124.405 31.1969 123.989 31.1448Z" fill="white"/>
<path d="M189.384 27.4568C189.165 27.4568 188.834 27.5219 188.506 27.8342C188.483 27.8576 188.46 27.8811 188.439 27.9071C187.572 29.0262 186.505 29.9918 185.266 30.7726C184.074 31.5248 182.661 31.9048 181.065 31.9048C178.926 31.9048 177.076 31.1891 175.402 29.7133C173.84 28.3365 172.752 26.4886 172.159 24.2113L185.794 18.1731C189.162 16.9108 188.964 14.912 188.535 13.8007C188.017 12.6425 186.979 11.6248 185.443 10.7764C183.931 9.94091 182.078 9.51667 179.931 9.51667C177.442 9.51667 175.22 10.1205 173.328 11.3099C171.446 12.4915 169.96 14.0974 168.911 16.0806C167.867 18.0508 167.336 20.2553 167.336 22.6263C167.336 22.7825 167.344 22.9308 167.349 23.0844C161.761 23.7793 156.072 23.7585 150.492 23.0037C150.502 17.4184 150.51 11.833 150.521 6.24772C150.521 5.22227 150.586 4.05888 151.4 3.3874C151.999 2.89289 153.022 2.58578 152.97 1.83361C152.92 1.11527 151.929 0.896647 151.171 0.881031C149.037 0.83158 146.903 0.784732 144.769 0.774321C143.514 0.769116 142.244 0.776924 141.034 1.08664C138.213 1.80498 136.06 4.10053 134.938 6.66675C133.33 10.3417 133.608 14.7168 135.675 18.1809C137.739 21.6425 141.544 24.115 145.685 24.685C145.742 26.624 145.685 28.5656 145.51 30.4994C145.438 31.3114 145.268 32.2405 144.529 32.6518C143.962 32.9667 143.108 32.9537 142.853 33.5289C142.668 33.9453 142.97 34.4424 143.389 34.6558C143.808 34.8692 144.308 34.8744 144.784 34.8744C149.693 34.8692 154.599 34.8666 159.508 34.8614C160.702 34.8614 161.894 34.8614 163.089 34.8588C163.875 34.8588 165.77 35.2024 166.436 34.7833C167.102 34.3617 167.068 32.8704 167.204 32.1755C167.433 30.9913 167.664 29.8096 167.896 28.6254C167.977 28.209 168.057 27.7718 167.935 27.3631C167.813 26.9545 167.42 26.5849 166.975 26.624C166.53 26.663 166.23 27.0638 166.014 27.436C165.129 28.9742 164.528 30.8039 162.972 31.7408C162.043 32.3004 160.913 32.4461 159.817 32.5294C157.321 32.7194 154.815 32.6518 152.314 32.5867C151.892 32.5763 151.426 32.5476 151.127 32.264C150.864 32.0167 150.802 31.6393 150.757 31.2906C150.51 29.2943 150.419 27.2799 150.487 25.2706C150.518 25.2706 150.549 25.2706 150.58 25.2732C156.241 25.4944 161.972 25.9863 167.542 25.1353C167.8 26.6344 168.289 28.006 169.02 29.224C170.142 31.0954 171.649 32.5711 173.499 33.6069C175.353 34.6454 177.383 35.1737 179.53 35.1737C181.82 35.1737 183.897 34.6116 185.709 33.5002C187.481 32.4123 189.019 30.9913 190.274 29.2813C190.747 28.6489 190.487 28.1544 190.349 27.967C190.104 27.639 189.758 27.4568 189.373 27.4568H189.384ZM145.687 22.3478C144.355 21.9964 143.111 21.4837 142.018 20.7211C138.97 18.6 136.81 15.1462 136.945 11.5546C137.067 8.24397 139.522 4.89954 142.96 4.41285C143.759 4.30353 144.573 4.34257 145.372 4.29573C145.578 5.28994 145.687 6.69018 145.687 8.45218V22.3478ZM173.741 14.4201C175.027 12.7544 176.633 11.945 178.653 11.945C179.892 11.945 181.016 12.3093 182.086 13.0589C183.043 13.7304 183.939 14.7819 184.753 16.1899L171.797 21.934C171.771 21.6008 171.758 21.2703 171.758 20.9398C171.758 18.3163 172.425 16.1196 173.741 14.4175V14.4201Z" fill="white"/>
<path d="M212.763 26.8764C212.498 26.5641 212.139 26.4054 211.753 26.4288C211.535 26.4418 211.209 26.5303 210.905 26.8634C210.882 26.8869 210.863 26.9129 210.842 26.9415C210.056 28.1127 209.057 29.1434 207.875 29.9996C206.738 30.8247 205.356 31.2958 203.763 31.3947C201.629 31.53 199.732 30.9314 197.959 29.565C196.307 28.2923 195.089 26.5147 194.339 24.2816L207.521 17.3949C210.793 15.9218 210.457 13.9386 209.952 12.8585C209.356 11.7367 208.248 10.7868 206.657 10.0372C205.091 9.29805 203.211 8.99354 201.069 9.12887C198.587 9.28503 196.413 10.0294 194.607 11.3359C192.814 12.6347 191.442 14.329 190.531 16.3747C189.626 18.4074 189.251 20.6379 189.417 23.0037C189.592 25.5048 190.315 27.6859 191.565 29.4791C192.814 31.2749 194.42 32.6518 196.34 33.5705C198.261 34.4892 200.323 34.8874 202.467 34.7521C204.752 34.6064 206.785 33.914 208.516 32.6934C210.21 31.4962 211.644 29.9814 212.776 28.1934C213.206 27.5323 212.912 27.0534 212.761 26.8764H212.763ZM193.712 21.0439C193.53 18.4256 194.04 16.1925 195.234 14.4097C196.4 12.6659 197.949 11.7576 199.963 11.63C201.2 11.552 202.345 11.8435 203.467 12.5254C204.469 13.1344 205.434 14.126 206.345 15.482L193.818 22.0329C193.769 21.7023 193.733 21.3718 193.709 21.0439H193.712Z" fill="white"/>
</svg>
