<svg width="145" height="38" viewBox="0 0 145 38" fill="none" xmlns="http://www.w3.org/2000/svg">
<path d="M73.0557 32.7673V35.4277H71.8311V28.1432H74.3121C75.9907 28.1432 76.9936 28.9455 76.9936 30.4447C76.9936 31.9438 76.0012 32.7673 74.3121 32.7673H73.0557ZM74.1854 31.7116C75.3044 31.7116 75.769 31.2787 75.769 30.4447C75.769 29.6107 75.3044 29.2095 74.1854 29.2095H73.0557V31.7116H74.1854Z" fill="white"/>
<path d="M79.4517 32.3133H80.5919V31.8699C80.5919 31.2048 80.3385 31.0253 79.5467 31.0253C78.9766 31.0253 78.6916 31.0887 78.4382 31.5004L77.6253 30.9303C78.0053 30.3074 78.5754 30.0541 79.6206 30.0541C80.9719 30.0541 81.7004 30.4764 81.7004 31.8805V35.4277H80.5919V34.9421C80.3385 35.3538 80.0112 35.5227 79.3672 35.5227C78.2059 35.5227 77.488 34.9315 77.488 33.8758C77.488 32.7462 78.3221 32.3133 79.4517 32.3133ZM80.5919 33.179H79.5361C78.871 33.179 78.5966 33.4113 78.5966 33.8758C78.5966 34.3403 78.9555 34.562 79.4939 34.562C80.1801 34.562 80.5919 34.3509 80.5919 33.4324V33.179Z" fill="white"/>
<path d="M82.267 30.1491H82.9426V28.9878H84.0617V30.1491H85.1808V31.1204H84.0617V33.538C84.0617 34.1503 84.1567 34.4142 84.7479 34.4142H85.1808V35.4277H84.6635C83.3966 35.4277 82.9426 34.9949 82.9426 33.7491V31.1204H82.267V30.1491Z" fill="white"/>
<path d="M85.8688 28.1432H87.104V29.2939H85.8688V28.1432ZM85.9215 30.1491H87.0512V35.4277H85.9215V30.1491Z" fill="white"/>
<path d="M92.0782 34.6254C91.7087 35.2694 91.1175 35.5227 90.1885 35.5227C88.6788 35.5227 87.8764 34.5409 87.8764 33.1368V32.4189C87.8764 30.867 88.6365 30.0541 90.0195 30.0541C91.4025 30.0541 92.1521 30.9198 92.1521 32.4822V33.0629H88.9955V33.084C88.9955 33.9075 89.3122 34.5515 90.1462 34.5515C90.7691 34.5515 91.0225 34.3614 91.2336 34.0342L92.0782 34.6254ZM89.006 32.1972H91.0225C90.9802 31.4265 90.6635 31.0359 90.0195 31.0359C89.3755 31.0359 89.0588 31.4793 89.006 32.1972Z" fill="white"/>
<path d="M92.9527 30.1491H94.0612V30.6242C94.2935 30.3074 94.6735 30.0541 95.3703 30.0541C96.4577 30.0541 97.2917 30.603 97.2917 32.1233V35.4277H96.1727V32.25C96.1727 31.3209 95.7504 31.057 95.1697 31.057C94.473 31.057 94.0823 31.5321 94.0823 32.2394V35.4277H92.9527V30.1491Z" fill="white"/>
<path d="M97.8337 30.1491H98.5094V28.9878H99.6284V30.1491H100.748V31.1204H99.6284V33.538C99.6284 34.1503 99.7234 34.4142 100.315 34.4142H100.748V35.4277H100.23C98.9633 35.4277 98.5094 34.9949 98.5094 33.7491V31.1204H97.8337V30.1491Z" fill="white"/>
<path d="M103.693 35.4277L106.227 28.1432H107.388L109.922 35.4277H108.623L108.127 33.918H105.498L105.002 35.4277H103.693ZM105.836 32.8623H107.779L106.807 29.9168L105.836 32.8623Z" fill="white"/>
<path d="M113.501 28.1432H114.62V35.4277H113.501V35.0582C113.216 35.3538 112.814 35.5227 112.234 35.5227C110.83 35.5227 110.133 34.5198 110.133 33.1368V32.4189C110.133 30.8986 110.956 30.0541 112.234 30.0541C112.783 30.0541 113.205 30.2124 113.501 30.5186V28.1432ZM113.501 33.084V32.4083C113.501 31.5426 113.11 31.0359 112.382 31.0359C111.653 31.0359 111.252 31.5532 111.252 32.4717V33.084C111.252 33.9075 111.569 34.5515 112.382 34.5515C113.195 34.5515 113.501 33.9075 113.501 33.084Z" fill="white"/>
<path d="M120.403 30.1491L118.345 35.4277H117.268L115.167 30.1491H116.413L117.785 33.918L119.147 30.1491H120.403Z" fill="white"/>
<path d="M125.031 33.1157C125.031 34.5198 124.345 35.5227 122.793 35.5227C121.241 35.5227 120.544 34.5726 120.544 33.1157V32.4506C120.544 30.8986 121.368 30.0541 122.793 30.0541C124.218 30.0541 125.031 30.8986 125.031 32.4506V33.1157ZM123.912 33.084V32.4717C123.912 31.5532 123.542 31.0359 122.793 31.0359C122.043 31.0359 121.663 31.5638 121.663 32.4717V33.084C121.663 33.9075 121.938 34.5515 122.793 34.5515C123.595 34.5515 123.912 33.9075 123.912 33.084Z" fill="white"/>
<path d="M129.829 34.6254C129.481 35.2482 128.858 35.5227 127.95 35.5227C126.472 35.5227 125.627 34.5726 125.627 33.1368V32.4189C125.627 30.8986 126.483 30.0541 127.992 30.0541C128.795 30.0541 129.46 30.3497 129.829 30.9092L128.964 31.511C128.763 31.2259 128.425 31.0359 127.971 31.0359C127.148 31.0359 126.747 31.5638 126.747 32.4717V33.084C126.747 33.9075 127.042 34.5515 127.971 34.5515C128.415 34.5515 128.774 34.3931 128.974 34.0342L129.829 34.6254Z" fill="white"/>
<path d="M132.196 32.3133H133.336V31.8699C133.336 31.2048 133.083 31.0253 132.291 31.0253C131.721 31.0253 131.436 31.0887 131.182 31.5004L130.369 30.9303C130.75 30.3074 131.32 30.0541 132.365 30.0541C133.716 30.0541 134.445 30.4764 134.445 31.8805V35.4277H133.336V34.9421C133.083 35.3538 132.755 35.5227 132.111 35.5227C130.95 35.5227 130.232 34.9315 130.232 33.8758C130.232 32.7462 131.066 32.3133 132.196 32.3133ZM133.336 33.179H132.28C131.615 33.179 131.341 33.4113 131.341 33.8758C131.341 34.3403 131.7 34.562 132.238 34.562C132.924 34.562 133.336 34.3509 133.336 33.4324V33.179Z" fill="white"/>
<path d="M139.412 34.6254C139.063 35.2482 138.441 35.5227 137.533 35.5227C136.055 35.5227 135.21 34.5726 135.21 33.1368V32.4189C135.21 30.8986 136.065 30.0541 137.575 30.0541C138.377 30.0541 139.042 30.3497 139.412 30.9092L138.546 31.511C138.346 31.2259 138.008 31.0359 137.554 31.0359C136.73 31.0359 136.329 31.5638 136.329 32.4717V33.084C136.329 33.9075 136.625 34.5515 137.554 34.5515C137.997 34.5515 138.356 34.3931 138.557 34.0342L139.412 34.6254Z" fill="white"/>
<path d="M140.816 30.1491L142.157 33.8652L143.36 30.1491H144.522L142.663 35.6389C142.209 36.9902 141.819 37.4336 140.341 37.4336V36.399C141.08 36.399 141.375 36.2829 141.639 35.4911L139.623 30.1491H140.816Z" fill="white"/>
<path d="M26.6054 24.6716C26.5861 24.6716 26.5351 24.6751 26.5157 24.6769C26.287 24.7033 26.0864 24.8388 25.9139 25.0851C25.1767 26.2042 24.1843 26.7479 22.8787 26.7479C21.8617 26.7479 20.989 26.4804 20.2095 25.9314C19.4018 25.3613 18.6646 24.6153 18.0206 23.7109C17.3625 22.7871 16.7713 21.7648 16.2628 20.6757C15.7473 19.5707 15.2634 18.4674 14.8182 17.3871C14.688 17.0968 14.5684 16.8082 14.4575 16.5143C14.125 15.7014 13.6657 15.0082 13.0921 14.4504C12.7877 14.1548 12.4076 13.9049 11.9554 13.7061C12.654 13.465 13.3138 13.1712 13.9297 12.8263C14.9836 12.2369 15.8388 11.4838 16.474 10.5882C17.1232 9.67498 17.4523 8.57878 17.4523 7.33478C17.4523 5.86204 17.0124 4.62156 16.1449 3.64677C15.2986 2.69485 14.2094 1.98048 12.9074 1.52299C11.6299 1.07431 10.3173 0.847327 9.00468 0.847327H1.55123C1.25739 0.847327 1.01633 0.98809 0.908998 1.22563C0.8263 1.41214 0.8263 1.60745 0.908998 1.7922C0.963544 1.91361 1.10783 2.12652 1.48437 2.1969C2.0703 2.27608 2.38702 2.55233 2.51195 3.09075C2.67031 3.77345 2.75124 4.76408 2.75124 6.03623V18.7015C2.75124 19.9736 2.67031 20.9642 2.51195 21.6469C2.38702 22.1854 2.0703 22.4616 1.45798 22.5443C1.10607 22.6112 0.963544 22.8241 0.907239 22.9455C0.82454 23.132 0.82454 23.3273 0.907239 23.5121C1.01457 23.7478 1.25387 23.8886 1.54771 23.8886H7.20466C7.50026 23.8886 7.73956 23.7478 7.84514 23.5103C7.92783 23.3256 7.92783 23.1302 7.84514 22.942C7.79059 22.8223 7.64631 22.6094 7.26976 22.539C6.68383 22.4599 6.36712 22.1836 6.24219 21.6452C6.08383 20.9625 6.00289 19.9701 6.00289 18.6997V14.6123H6.14013C7.77475 14.6123 8.95541 14.7601 9.64691 15.0504C10.2751 15.3143 10.773 15.9407 11.1249 16.9067C11.1513 16.9824 11.1883 17.0686 11.2393 17.1671C11.79 18.5519 12.383 19.9507 13.0024 21.3267C13.6288 22.722 14.3414 24.0171 15.1173 25.1748C15.9091 26.3555 16.8329 27.3215 17.8605 28.0464C18.9232 28.7977 20.1532 29.1778 21.5133 29.1778C22.7749 29.1778 23.9292 28.8558 24.9444 28.2189C25.9579 27.5819 26.7145 26.7303 27.209 25.6482C27.3181 25.3367 27.2494 25.1185 27.172 24.9901C27.0506 24.7877 26.843 24.6716 26.6037 24.6716H26.6054ZM6.00641 6.03623C6.00641 4.59164 6.06623 3.55351 6.18236 2.94999C6.27562 2.46083 6.50084 2.36054 6.80876 2.36054H8.97125C10.4669 2.36054 11.6897 2.77051 12.7103 3.6151C13.7115 4.44208 14.1989 5.60866 14.1989 7.17818C14.1989 8.50312 13.8311 9.60988 13.1044 10.4633C12.3619 11.336 11.3695 11.9993 10.1572 12.4339C8.91846 12.8774 7.55657 13.1026 6.11022 13.1026H6.00641V6.03623Z" fill="white"/>
<path d="M32.5105 21.1314C32.4911 21.1296 32.4436 21.1261 32.4243 21.1261C32.2835 21.1261 32.0706 21.1683 31.8612 21.3672C31.3949 21.8106 31.094 21.9038 30.9234 21.9038C30.8125 21.9038 30.5204 21.9038 30.5204 21.0135V13.1606C30.5204 11.2392 29.9644 9.69433 28.8665 8.56998C27.7597 7.43683 26.1796 6.86322 24.1685 6.86322C22.8118 6.86322 21.6101 7.12011 20.5931 7.6251C19.4793 8.17936 18.9144 8.91309 18.9144 9.80343C18.9144 10.4703 19.2558 11.0034 19.8998 11.343C20.4646 11.6422 21.1843 11.7952 22.0376 11.7952C22.6289 11.7952 22.7503 11.4732 22.7767 11.3307C22.8136 11.1143 22.7256 10.9084 22.5409 10.7694C22.0693 10.3084 22.0165 9.84917 22.3684 9.28436C22.7485 8.6738 23.4031 8.37643 24.3673 8.37643C25.3315 8.37643 26.0653 8.78993 26.5175 9.63803C27.0136 10.5741 27.267 11.7583 27.267 13.1606V13.7642C26.9521 13.4387 26.6002 13.1466 26.2113 12.8932C25.3931 12.3583 24.4377 12.0873 23.3714 12.0873C21.8265 12.0873 20.447 12.6873 19.2752 13.8715C18.1103 15.0486 17.5191 16.5566 17.5191 18.3531C17.5191 20.1496 18.0716 21.5132 19.1625 22.5848C20.257 23.6616 21.5608 24.2071 23.0388 24.2071C24.1755 24.2071 25.2013 23.8974 26.0881 23.2833C26.572 22.949 26.9996 22.5777 27.3708 22.173C27.4676 22.6622 27.6348 23.0563 27.8741 23.3625C28.3016 23.915 28.9087 24.2053 29.6266 24.2053C30.8195 24.2053 31.9298 23.549 32.9504 22.2188C33.114 21.9601 33.1052 21.7402 33.0683 21.5994C32.9996 21.339 32.792 21.1631 32.5105 21.1279V21.1314ZM20.7725 18.3531C20.7725 17.0827 21.0787 16.034 21.6822 15.2387C22.2611 14.4768 23.0089 14.1073 23.9696 14.1073C24.6013 14.1073 25.2471 14.3202 25.8858 14.7407C26.4999 15.1454 26.9644 15.8703 27.267 16.8926V18.8281C27.267 19.7202 26.9081 20.4628 26.1708 21.098C25.4195 21.7455 24.5908 22.0604 23.6371 22.0604C22.7591 22.0604 22.0852 21.7543 21.5749 21.1226C21.0417 20.4663 20.7725 19.5337 20.7725 18.3513V18.3531Z" fill="white"/>
<path d="M63.3659 23.5138C63.2603 23.7514 63.0246 23.8921 62.729 23.8921H57.072C56.7764 23.8921 56.5353 23.7514 56.4298 23.5138C56.3471 23.3291 56.3471 23.132 56.4298 22.9472C56.4861 22.8241 56.6286 22.6129 56.9805 22.5478C57.5911 22.4651 57.9096 22.1871 58.0345 21.6505C58.1911 20.9642 58.2755 19.9754 58.2755 18.7032V12.8457C58.2755 11.8304 58.1084 11.0334 57.7864 10.4791C57.4679 9.93891 57.079 9.55533 56.6356 9.34418C56.1694 9.12072 55.689 9.00987 55.2122 9.00987C54.5242 9.00987 53.8485 9.21222 53.1887 9.61691C53.0356 9.70841 52.8843 9.81046 52.7365 9.92483C52.4092 10.1747 52.0995 10.4879 51.8127 10.8574C51.8074 10.8627 51.8039 10.8662 51.8039 10.8715C51.3887 11.4081 51.0139 12.0627 50.6848 12.8369V18.7032C50.6848 19.9736 50.764 20.9642 50.9206 21.6505C51.0456 22.1871 51.364 22.4634 51.9517 22.5426C52.3265 22.6129 52.4743 22.8241 52.5253 22.9472C52.608 23.132 52.608 23.3291 52.5253 23.5138C52.4198 23.7514 52.184 23.8921 51.8884 23.8921H46.2314C45.9358 23.8921 45.6948 23.7514 45.5892 23.5138C45.5065 23.3291 45.5065 23.132 45.5892 22.9472C45.6437 22.8241 45.788 22.6129 46.1399 22.5478C46.7505 22.4651 47.069 22.1871 47.1939 21.6505C47.3505 20.9642 47.435 19.9754 47.435 18.7032V17.8903C45.6279 21.0311 42.971 24.2088 39.1862 24.2088C37.8648 24.2088 36.612 23.8534 35.47 23.1496C34.3281 22.4511 33.399 21.4516 32.7111 20.1848C32.0178 18.9232 31.6712 17.424 31.6712 15.7261C31.6712 13.3067 32.382 11.2093 33.7879 9.49023C35.2114 7.74827 37.0783 6.86498 39.3375 6.86498C40.6589 6.86498 41.8554 7.17818 42.8953 7.79226C44.0144 8.45209 44.5827 9.33539 44.5827 10.4052C44.5827 11.0949 44.3417 11.6985 43.8719 12.2034C43.3968 12.7084 42.7898 12.9689 42.0701 12.9689C41.7745 12.9689 41.5757 12.8633 41.4789 12.6574C41.4331 12.5606 41.3856 12.39 41.4595 12.17C41.8114 10.9823 41.6953 10.099 41.1041 9.46559C40.4707 8.79696 39.6947 8.47145 38.734 8.47145C37.4495 8.47145 36.4325 9.02571 35.6337 10.1641C34.812 11.3254 34.395 12.8158 34.395 14.5876C34.395 16.7695 34.9774 18.5713 36.1228 19.949C37.2736 21.3302 38.5862 21.9989 40.1293 21.9989C42.1387 21.9989 43.7294 20.5525 45.0191 18.8018C45.9622 17.5173 46.747 16.0709 47.4138 14.9096C47.4226 14.8973 47.4279 14.8832 47.4367 14.8709V6.03799C47.4367 4.7676 47.354 3.77697 47.1957 3.09075C47.0707 2.55409 46.7523 2.27784 46.1646 2.19866C45.7898 2.12828 45.6473 1.91361 45.591 1.79396C45.5083 1.60921 45.5083 1.41214 45.591 1.22739C45.6965 0.98985 45.9376 0.849086 46.2332 0.849086H50.2256C50.479 0.849086 50.6884 1.04616 50.6884 1.28897V9.71897C51.1881 9.07321 51.7564 8.51368 52.3846 8.0474C53.4526 7.2644 54.7037 6.86498 56.1148 6.86498C57.6069 6.86498 58.8967 7.35765 59.9453 8.3342C60.9993 9.31427 61.536 10.8328 61.536 12.8457V18.7032C61.536 19.9736 61.6152 20.9642 61.7718 21.6505C61.8967 22.1871 62.2152 22.4634 62.8028 22.5426C63.1776 22.6129 63.3254 22.8241 63.3765 22.9472C63.4644 23.132 63.4644 23.3291 63.3765 23.5138H63.3659Z" fill="white"/>
<path d="M53.1852 9.61691C52.7048 9.94595 52.2473 10.3682 51.8074 10.8574C52.0942 10.4879 52.4039 10.1764 52.7312 9.92483C52.879 9.81046 53.0321 9.71017 53.1834 9.61691H53.1852Z" fill="white"/>
<path d="M77.6763 18.99C77.5285 18.99 77.305 19.034 77.0833 19.2452C77.0675 19.261 77.0517 19.2768 77.0376 19.2962C76.4517 20.0528 75.7303 20.7038 74.8927 21.2334C74.0868 21.742 73.1314 21.9989 72.0528 21.9989C70.6064 21.9989 69.3554 21.515 68.224 20.5173C67.1683 19.5865 66.4328 18.3372 66.0316 16.7976L75.2499 12.7155C77.5267 11.8621 77.393 10.5108 77.1027 9.75944C76.7543 8.97644 76.0505 8.28845 75.0124 7.71484C73.9901 7.15003 72.7373 6.86322 71.2874 6.86322C69.6053 6.86322 68.1026 7.27144 66.8234 8.07555C65.5513 8.87438 64.5483 9.96002 63.8375 11.3008C63.1319 12.6328 62.7729 14.1231 62.7729 15.7261C62.7729 17.4205 63.1565 18.9214 63.9149 20.1865C64.6732 21.4516 65.692 22.4475 66.9431 23.1496C68.1959 23.8517 69.5683 24.2088 71.0199 24.2088C72.5683 24.2088 73.9725 23.8288 75.1971 23.0775C76.3954 22.342 77.4353 21.3813 78.2834 20.2252C78.6053 19.7977 78.4276 19.4616 78.3361 19.3367C78.1725 19.1132 77.9367 18.9918 77.6746 18.9918L77.6763 18.99ZM70.4235 8.50312C71.261 8.50312 72.0211 8.74946 72.7443 9.25621C73.3918 9.71017 73.9971 10.421 74.5478 11.3729L65.7888 15.2563C65.7712 15.031 65.7624 14.8076 65.7624 14.5841C65.7624 12.8105 66.2129 11.3254 67.1032 10.1747C67.9724 9.04858 69.058 8.50136 70.4235 8.50136V8.50312Z" fill="white"/>
<path d="M84.6688 21.1314C84.6494 21.1296 84.6019 21.1261 84.5825 21.1261C84.44 21.1261 84.2289 21.1683 84.0195 21.3672C83.5532 21.8106 83.2523 21.9038 83.0816 21.9038C82.9813 21.9038 82.6787 21.9038 82.6787 20.9818V1.28721C82.6787 1.0444 82.4711 0.847327 82.2159 0.847327H78.2235C77.9279 0.847327 77.6886 0.98809 77.5831 1.22563C77.4986 1.41214 77.4986 1.60921 77.5831 1.7922C77.6376 1.91361 77.7819 2.12828 78.1584 2.19866C78.7444 2.27784 79.0628 2.55409 79.1878 3.09251C79.3461 3.77697 79.4271 4.7676 79.4271 6.03799V20.9836C79.4271 22.0622 79.6259 22.8417 80.0323 23.366C80.4599 23.9185 81.067 24.2088 81.7849 24.2088C82.9778 24.2088 84.0881 23.5525 85.1086 22.2223C85.2723 21.9637 85.2635 21.7455 85.2265 21.603C85.1579 21.3425 84.9503 21.1666 84.6688 21.1314Z" fill="white"/>
<path d="M128.879 18.6381C128.731 18.6381 128.508 18.6821 128.286 18.8932C128.27 18.9091 128.255 18.9249 128.24 18.9425C127.655 19.6991 126.933 20.3519 126.096 20.8798C125.29 21.3883 124.334 21.6452 123.256 21.6452C121.809 21.6452 120.558 21.1613 119.427 20.1636C118.371 19.2328 117.636 17.9836 117.234 16.444L126.453 12.3618C128.73 11.5084 128.596 10.1571 128.306 9.40577C127.955 8.62277 127.253 7.93479 126.215 7.36117C125.193 6.79636 123.94 6.50955 122.488 6.50955C120.806 6.50955 119.304 6.91777 118.025 7.72188C116.752 8.52071 115.748 9.60636 115.039 10.9471C114.333 12.2791 113.974 13.7694 113.974 15.3724C113.974 15.478 113.979 15.5783 113.983 15.6821C110.205 16.1519 106.359 16.1378 102.586 15.6275C102.593 11.8515 102.599 8.07555 102.606 4.29956C102.606 3.6063 102.65 2.81978 103.2 2.36582C103.605 2.0315 104.297 1.82388 104.261 1.31537C104.228 0.829731 103.557 0.681929 103.045 0.671372C101.603 0.63794 100.16 0.606268 98.717 0.59923C97.8689 0.595711 97.0102 0.60099 96.192 0.810376C94.2847 1.29601 92.8295 2.84793 92.0712 4.58285C90.9838 7.06733 91.172 10.0251 92.5691 12.3671C93.9644 14.7073 96.5369 16.3789 99.3363 16.7642C99.375 18.0751 99.3363 19.3877 99.2185 20.695C99.1692 21.244 99.0548 21.8722 98.5551 22.1502C98.1715 22.3631 97.5944 22.3543 97.422 22.7431C97.297 23.0247 97.5011 23.3607 97.7844 23.505C98.0677 23.6493 98.4055 23.6528 98.7275 23.6528C102.046 23.6493 105.363 23.6475 108.681 23.644C109.489 23.644 110.295 23.644 111.102 23.6423C111.634 23.6423 112.915 23.8745 113.365 23.5912C113.816 23.3062 113.793 22.298 113.884 21.8282C114.039 21.0276 114.196 20.2287 114.352 19.4282C114.407 19.1466 114.461 18.851 114.379 18.5748C114.296 18.2985 114.03 18.0487 113.729 18.0751C113.429 18.1015 113.226 18.3724 113.08 18.624C112.482 19.6639 112.075 20.9009 111.023 21.5343C110.395 21.9126 109.631 22.0112 108.891 22.0675C107.203 22.1959 105.509 22.1502 103.818 22.1062C103.533 22.0991 103.218 22.0798 103.016 21.888C102.838 21.7208 102.796 21.4657 102.766 21.2299C102.599 19.8804 102.537 18.5185 102.583 17.1601C102.604 17.1601 102.625 17.1601 102.646 17.1619C106.473 17.3114 110.348 17.644 114.113 17.0686C114.287 18.0821 114.618 19.0094 115.112 19.8328C115.871 21.098 116.89 22.0956 118.141 22.7959C119.393 23.498 120.766 23.8552 122.218 23.8552C123.766 23.8552 125.17 23.4751 126.395 22.7238C127.593 21.9883 128.633 21.0276 129.481 19.8716C129.801 19.444 129.625 19.1097 129.532 18.983C129.367 18.7613 129.133 18.6381 128.872 18.6381H128.879ZM99.3381 15.1841C98.4372 14.9466 97.5962 14.6 96.8571 14.0844C94.7967 12.6504 93.3363 10.3155 93.4278 7.88728C93.5105 5.64913 95.1697 3.38811 97.4941 3.05908C98.0343 2.98518 98.585 3.01157 99.1252 2.9799C99.2642 3.65205 99.3381 4.59868 99.3381 5.7899V15.1841ZM118.304 9.82454C119.173 8.69843 120.259 8.15121 121.625 8.15121C122.462 8.15121 123.222 8.39755 123.945 8.9043C124.593 9.35826 125.198 10.0691 125.749 11.021L116.99 14.9044C116.972 14.6791 116.963 14.4557 116.963 14.2322C116.963 12.4586 117.414 10.9735 118.304 9.82278V9.82454Z" fill="white"/>
<path d="M144.685 18.2457C144.506 18.0346 144.263 17.9273 144.002 17.9431C143.855 17.9519 143.635 18.0117 143.429 18.2369C143.413 18.2528 143.401 18.2704 143.387 18.2897C142.855 19.0815 142.18 19.7783 141.381 20.3572C140.612 20.915 139.677 21.2334 138.601 21.3003C137.158 21.3918 135.875 20.9871 134.677 20.0633C133.56 19.2029 132.736 18.0012 132.229 16.4915L141.141 11.8357C143.353 10.8398 143.126 9.49902 142.785 8.76881C142.382 8.01045 141.632 7.36821 140.557 6.86146C139.498 6.36175 138.228 6.15588 136.78 6.24738C135.101 6.35295 133.632 6.85618 132.411 7.73948C131.198 8.61749 130.271 9.76296 129.655 11.146C129.043 12.5202 128.789 14.0281 128.902 15.6275C129.02 17.3185 129.509 18.793 130.354 20.0053C131.198 21.2194 132.284 22.1502 133.582 22.7713C134.881 23.3924 136.275 23.6616 137.724 23.5701C139.269 23.4716 140.643 23.0036 141.814 22.1783C142.959 21.3689 143.929 20.3449 144.694 19.1361C144.984 18.6891 144.785 18.3654 144.683 18.2457H144.685ZM131.805 14.3026C131.682 12.5325 132.027 11.0228 132.835 9.8175C133.623 8.6386 134.67 8.02452 136.032 7.9383C136.867 7.88552 137.642 8.08259 138.4 8.54359C139.077 8.95532 139.73 9.62571 140.346 10.5424L131.877 14.9712C131.844 14.7478 131.819 14.5243 131.804 14.3026H131.805Z" fill="white"/>
</svg>
