<svg width="108" height="28" viewBox="0 0 108 28" fill="none" xmlns="http://www.w3.org/2000/svg">
<path d="M54.3464 24.2342V26.211H53.4364V20.7982H55.2799C56.5272 20.7982 57.2724 21.3944 57.2724 22.5083C57.2724 23.6223 56.535 24.2342 55.2799 24.2342H54.3464ZM55.1857 23.4497C56.0173 23.4497 56.3624 23.1281 56.3624 22.5083C56.3624 21.8886 56.0173 21.5905 55.1857 21.5905H54.3464V23.4497H55.1857Z" fill="white"/>
<path d="M59.0989 23.8968H59.9461V23.5674C59.9461 23.0731 59.7579 22.9398 59.1695 22.9398C58.7459 22.9398 58.5341 22.9868 58.3458 23.2928L57.7418 22.8692C58.0242 22.4063 58.4478 22.2181 59.2244 22.2181C60.2286 22.2181 60.7698 22.5319 60.7698 23.5752V26.211H59.9461V25.8501C59.7579 26.1561 59.5147 26.2816 59.0362 26.2816C58.1733 26.2816 57.6398 25.8423 57.6398 25.0578C57.6398 24.2185 58.2595 23.8968 59.0989 23.8968ZM59.9461 24.5401H59.1617C58.6675 24.5401 58.4635 24.7127 58.4635 25.0578C58.4635 25.403 58.7302 25.5677 59.1303 25.5677C59.6402 25.5677 59.9461 25.4108 59.9461 24.7284V24.5401Z" fill="white"/>
<path d="M61.1908 22.2887H61.6929V21.4258H62.5244V22.2887H63.356V23.0104H62.5244V24.8068C62.5244 25.2618 62.595 25.4579 63.0343 25.4579H63.356V26.211H62.9716C62.0302 26.211 61.6929 25.8894 61.6929 24.9637V23.0104H61.1908V22.2887Z" fill="white"/>
<path d="M63.8672 20.7982H64.785V21.6533H63.8672V20.7982ZM63.9064 22.2887H64.7458V26.211H63.9064V22.2887Z" fill="white"/>
<path d="M68.4811 25.6148C68.2066 26.0933 67.7673 26.2816 67.0769 26.2816C65.9551 26.2816 65.359 25.5521 65.359 24.5087V23.9753C65.359 22.8221 65.9238 22.2181 66.9514 22.2181C67.9791 22.2181 68.536 22.8613 68.536 24.0223V24.4538H66.1905V24.4695C66.1905 25.0814 66.4258 25.5599 67.0456 25.5599C67.5084 25.5599 67.6967 25.4187 67.8536 25.1755L68.4811 25.6148ZM66.1983 23.8105H67.6967C67.6653 23.2379 67.4299 22.9476 66.9514 22.9476C66.4729 22.9476 66.2376 23.2771 66.1983 23.8105Z" fill="white"/>
<path d="M69.1309 22.2887H69.9546V22.6417C70.1272 22.4063 70.4096 22.2181 70.9273 22.2181C71.7353 22.2181 72.3551 22.626 72.3551 23.7556V26.211H71.5235V23.8498C71.5235 23.1594 71.2098 22.9633 70.7783 22.9633C70.2606 22.9633 69.9703 23.3163 69.9703 23.8419V26.211H69.1309V22.2887Z" fill="white"/>
<path d="M72.7578 22.2887H73.2598V21.4258H74.0914V22.2887H74.9229V23.0104H74.0914V24.8068C74.0914 25.2618 74.162 25.4579 74.6013 25.4579H74.9229V26.211H74.5385C73.5971 26.211 73.2598 25.8894 73.2598 24.9637V23.0104H72.7578V22.2887Z" fill="white"/>
<path d="M77.1115 26.211L78.9943 20.7982H79.8572L81.7399 26.211H80.775L80.4063 25.0892H78.453L78.0843 26.211H77.1115ZM78.704 24.3048H80.1474L79.4257 22.1161L78.704 24.3048Z" fill="white"/>
<path d="M84.3992 20.7982H85.2308V26.211H84.3992V25.9364C84.1874 26.1561 83.8893 26.2816 83.4579 26.2816C82.4145 26.2816 81.8968 25.5364 81.8968 24.5087V23.9753C81.8968 22.8456 82.5087 22.2181 83.4579 22.2181C83.8658 22.2181 84.1796 22.3357 84.3992 22.5632V20.7982ZM84.3992 24.4695V23.9674C84.3992 23.3242 84.109 22.9476 83.5677 22.9476C83.0264 22.9476 82.7283 23.332 82.7283 24.0145V24.4695C82.7283 25.0814 82.9637 25.5599 83.5677 25.5599C84.1717 25.5599 84.3992 25.0814 84.3992 24.4695Z" fill="white"/>
<path d="M89.5283 22.2887L87.9986 26.211H87.1985L85.6374 22.2887H86.563L87.5829 25.0892L88.5948 22.2887H89.5283Z" fill="white"/>
<path d="M92.9669 24.493C92.9669 25.5364 92.457 26.2816 91.3038 26.2816C90.1507 26.2816 89.6329 25.5756 89.6329 24.493V23.9988C89.6329 22.8456 90.2448 22.2181 91.3038 22.2181C92.3629 22.2181 92.9669 22.8456 92.9669 23.9988V24.493ZM92.1354 24.4695V24.0145C92.1354 23.332 91.8608 22.9476 91.3038 22.9476C90.7469 22.9476 90.4645 23.3399 90.4645 24.0145V24.4695C90.4645 25.0814 90.6684 25.5599 91.3038 25.5599C91.9 25.5599 92.1354 25.0814 92.1354 24.4695Z" fill="white"/>
<path d="M96.5323 25.6148C96.2734 26.0776 95.8106 26.2816 95.1359 26.2816C94.0377 26.2816 93.4101 25.5756 93.4101 24.5087V23.9753C93.4101 22.8456 94.0455 22.2181 95.1673 22.2181C95.7635 22.2181 96.2577 22.4377 96.5323 22.8535L95.889 23.3006C95.74 23.0888 95.4889 22.9476 95.1516 22.9476C94.5397 22.9476 94.2417 23.3399 94.2417 24.0145V24.4695C94.2417 25.0814 94.4613 25.5599 95.1516 25.5599C95.4811 25.5599 95.7478 25.4422 95.8969 25.1755L96.5323 25.6148Z" fill="white"/>
<path d="M98.2908 23.8968H99.138V23.5674C99.138 23.0731 98.9498 22.9398 98.3614 22.9398C97.9378 22.9398 97.726 22.9868 97.5377 23.2928L96.9337 22.8692C97.2161 22.4063 97.6397 22.2181 98.4163 22.2181C99.4204 22.2181 99.9617 22.5319 99.9617 23.5752V26.211H99.138V25.8501C98.9497 26.1561 98.7066 26.2816 98.228 26.2816C97.3651 26.2816 96.8317 25.8423 96.8317 25.0578C96.8317 24.2185 97.4514 23.8968 98.2908 23.8968ZM99.138 24.5401H98.3535C97.8593 24.5401 97.6554 24.7127 97.6554 25.0578C97.6554 25.403 97.9221 25.5677 98.3222 25.5677C98.8321 25.5677 99.138 25.4108 99.138 24.7284V24.5401Z" fill="white"/>
<path d="M103.653 25.6148C103.394 26.0776 102.931 26.2816 102.256 26.2816C101.158 26.2816 100.53 25.5756 100.53 24.5087V23.9753C100.53 22.8456 101.166 22.2181 102.288 22.2181C102.884 22.2181 103.378 22.4377 103.653 22.8535L103.009 23.3006C102.86 23.0888 102.609 22.9476 102.272 22.9476C101.66 22.9476 101.362 23.3399 101.362 24.0145V24.4695C101.362 25.0814 101.582 25.5599 102.272 25.5599C102.601 25.5599 102.868 25.4422 103.017 25.1755L103.653 25.6148Z" fill="white"/>
<path d="M104.696 22.2887L105.692 25.05L106.587 22.2887H107.449L106.069 26.3679C105.731 27.372 105.441 27.7015 104.343 27.7015V26.9327C104.892 26.9327 105.112 26.8464 105.308 26.2581L103.81 22.2887H104.696Z" fill="white"/>
<path d="M19.8312 18.2186C19.8168 18.2186 19.7789 18.2212 19.7645 18.2225C19.5946 18.2421 19.4455 18.3428 19.3174 18.5259C18.7696 19.3574 18.0322 19.7614 17.0621 19.7614C16.3064 19.7614 15.6579 19.5627 15.0787 19.1547C14.4785 18.7311 13.9307 18.1768 13.4522 17.5047C12.9632 16.8183 12.5239 16.0587 12.1461 15.2494C11.763 14.4283 11.4034 13.6086 11.0727 12.8058C10.9759 12.5901 10.887 12.3757 10.8046 12.1573C10.5575 11.5533 10.2163 11.0381 9.79006 10.6237C9.56387 10.404 9.28147 10.2184 8.94546 10.0706C9.46451 9.89151 9.9548 9.67317 10.4124 9.41691C11.1956 8.97892 11.831 8.41933 12.303 7.75385C12.7854 7.07528 13.0299 6.26075 13.0299 5.33639C13.0299 4.24206 12.703 3.32031 12.0585 2.59599C11.4296 1.88866 10.6203 1.35784 9.65278 1.01791C8.70358 0.684508 7.72823 0.515848 6.75288 0.515848H1.21455C0.99621 0.515848 0.81709 0.620443 0.737336 0.796948C0.675886 0.935537 0.675886 1.08066 0.737336 1.21794C0.777867 1.30816 0.885077 1.46636 1.16487 1.51866C1.60025 1.57749 1.83559 1.78276 1.92842 2.18284C2.04609 2.69012 2.10623 3.42621 2.10623 4.37149V13.7825C2.10623 14.7277 2.04609 15.4638 1.92842 15.9711C1.83559 16.3712 1.60025 16.5765 1.14526 16.6379C0.88377 16.6876 0.777867 16.8458 0.736029 16.936C0.674579 17.0746 0.674579 17.2197 0.736029 17.357C0.815783 17.5322 0.993595 17.6368 1.21194 17.6368H5.41536C5.63501 17.6368 5.81283 17.5322 5.89127 17.3557C5.95272 17.2184 5.95272 17.0733 5.89127 16.9334C5.85074 16.8445 5.74353 16.6863 5.46374 16.634C5.02836 16.5752 4.79302 16.3699 4.70019 15.9698C4.58252 15.4625 4.52238 14.7251 4.52238 13.7812V10.744H4.62436C5.83897 10.744 6.71627 10.8538 7.23009 11.0695C7.69685 11.2656 8.06685 11.7311 8.32834 12.4489C8.34795 12.5051 8.37541 12.5692 8.41333 12.6424C8.82256 13.6713 9.26316 14.7107 9.72338 15.7332C10.1888 16.77 10.7183 17.7322 11.2949 18.5925C11.8833 19.4698 12.5697 20.1876 13.3332 20.7263C14.1229 21.2846 15.0368 21.567 16.0475 21.567C16.9849 21.567 17.8426 21.3277 18.597 20.8544C19.3501 20.3811 19.9123 19.7483 20.2797 18.9442C20.3607 18.7128 20.3097 18.5507 20.2522 18.4553C20.162 18.3049 20.0077 18.2186 19.8299 18.2186H19.8312ZM4.52499 4.37149C4.52499 3.29808 4.56945 2.52669 4.65574 2.07824C4.72503 1.71477 4.89239 1.64025 5.12119 1.64025H6.72803C7.83936 1.64025 8.74803 1.94488 9.50635 2.57245C10.2503 3.18695 10.6124 4.05379 10.6124 5.22002C10.6124 6.20453 10.3392 7.02691 9.79921 7.66102C9.24747 8.30951 8.51008 8.80241 7.60925 9.12535C6.68881 9.45483 5.67685 9.62218 4.60213 9.62218H4.52499V4.37149Z" fill="white"/>
<path d="M24.219 15.588C24.2046 15.5867 24.1693 15.5841 24.1549 15.5841C24.0503 15.5841 23.8921 15.6155 23.7365 15.7632C23.3901 16.0927 23.1665 16.162 23.0397 16.162C22.9573 16.162 22.7403 16.162 22.7403 15.5004V9.66533C22.7403 8.2376 22.3271 7.08966 21.5113 6.25421C20.6889 5.41222 19.5148 4.98599 18.0204 4.98599C17.0124 4.98599 16.1194 5.17688 15.3637 5.55211C14.5361 5.96396 14.1164 6.50916 14.1164 7.17073C14.1164 7.66625 14.37 8.0624 14.8486 8.31474C15.2682 8.537 15.803 8.65075 16.4371 8.65075C16.8764 8.65075 16.9666 8.41149 16.9862 8.30559C17.0137 8.14477 16.9483 7.9918 16.811 7.88851C16.4606 7.54596 16.4214 7.20472 16.6829 6.78503C16.9653 6.33135 17.4517 6.11039 18.1681 6.11039C18.8846 6.11039 19.4298 6.41764 19.7658 7.04783C20.1345 7.74339 20.3228 8.62329 20.3228 9.66533V10.1138C20.0888 9.8719 19.8273 9.65487 19.5383 9.46659C18.9304 9.06913 18.2204 8.86779 17.4281 8.86779C16.2802 8.86779 15.2552 9.31362 14.3844 10.1935C13.5189 11.0682 13.0796 12.1887 13.0796 13.5236C13.0796 14.8585 13.4901 15.8718 14.3007 16.668C15.114 17.4681 16.0828 17.8734 17.181 17.8734C18.0256 17.8734 18.7879 17.6433 19.4468 17.187C19.8064 16.9386 20.1241 16.6628 20.4 16.362C20.4719 16.7255 20.5961 17.0184 20.7739 17.2459C21.0916 17.6564 21.5427 17.8721 22.0761 17.8721C22.9625 17.8721 23.7875 17.3845 24.5458 16.396C24.6674 16.2038 24.6609 16.0404 24.6334 15.9358C24.5825 15.7423 24.4282 15.6116 24.219 15.5854V15.588ZM15.497 13.5236C15.497 12.5796 15.7245 11.8004 16.173 11.2094C16.6031 10.6433 17.1588 10.3687 17.8727 10.3687C18.342 10.3687 18.8219 10.5269 19.2965 10.8394C19.7528 11.1401 20.0979 11.6788 20.3228 12.4384V13.8766C20.3228 14.5395 20.0561 15.0912 19.5083 15.5632C18.95 16.0443 18.3342 16.2784 17.6256 16.2784C16.9731 16.2784 16.4724 16.0509 16.0932 15.5815C15.6971 15.0938 15.497 14.4009 15.497 13.5223V13.5236Z" fill="white"/>
<path d="M47.1463 17.3583C47.0678 17.5348 46.8926 17.6394 46.673 17.6394H42.4696C42.2499 17.6394 42.0708 17.5348 41.9924 17.3583C41.9309 17.221 41.9309 17.0746 41.9924 16.9373C42.0342 16.8458 42.1401 16.6889 42.4016 16.6405C42.8553 16.5791 43.0919 16.3725 43.1847 15.9737C43.3011 15.4638 43.3639 14.729 43.3639 13.7838V9.43129C43.3639 8.6769 43.2397 8.08463 43.0004 7.67278C42.7637 7.2714 42.4748 6.98638 42.1453 6.82948C41.7989 6.66344 41.4419 6.58107 41.0876 6.58107C40.5764 6.58107 40.0743 6.73143 39.584 7.03214C39.4703 7.10012 39.3579 7.17596 39.248 7.26094C39.0048 7.4466 38.7747 7.67932 38.5616 7.95388C38.5577 7.95781 38.5551 7.96042 38.5551 7.96434C38.2465 8.36311 37.968 8.84948 37.7236 9.42476V13.7838C37.7236 14.7277 37.7824 15.4638 37.8988 15.9737C37.9916 16.3725 38.2282 16.5778 38.6649 16.6366C38.9434 16.6889 39.0532 16.8458 39.0911 16.9373C39.1526 17.0746 39.1526 17.221 39.0911 17.3583C39.0127 17.5348 38.8375 17.6394 38.6178 17.6394H34.4144C34.1948 17.6394 34.0157 17.5348 33.9372 17.3583C33.8758 17.221 33.8758 17.0746 33.9372 16.9373C33.9777 16.8458 34.0849 16.6889 34.3464 16.6405C34.8001 16.5791 35.0368 16.3725 35.1296 15.9737C35.246 15.4638 35.3087 14.729 35.3087 13.7838V13.1797C33.966 15.5135 31.9917 17.8748 29.1794 17.8748C28.1975 17.8748 27.2666 17.6107 26.4181 17.0877C25.5696 16.5686 24.8792 15.826 24.368 14.8846C23.8529 13.9472 23.5953 12.8333 23.5953 11.5716C23.5953 9.77384 24.1235 8.21537 25.1682 6.938C26.2259 5.64363 27.6131 4.9873 29.2919 4.9873C30.2738 4.9873 31.1628 5.22002 31.9355 5.67632C32.767 6.16661 33.1893 6.82295 33.1893 7.61787C33.1893 8.13039 33.0102 8.57884 32.6611 8.95408C32.3081 9.32931 31.8571 9.52281 31.3223 9.52281C31.1027 9.52281 30.9549 9.44437 30.883 9.2914C30.849 9.21949 30.8137 9.09267 30.8686 8.92924C31.1301 8.04671 31.0438 7.39038 30.6045 6.9197C30.1339 6.42287 29.5573 6.18099 28.8434 6.18099C27.889 6.18099 27.1333 6.59284 26.5397 7.43875C25.9291 8.30166 25.6193 9.40907 25.6193 10.7257C25.6193 12.3469 26.052 13.6857 26.9032 14.7094C27.7582 15.7358 28.7336 16.2326 29.8802 16.2326C31.3733 16.2326 32.5552 15.1579 33.5136 13.857C34.2144 12.9026 34.7975 11.8278 35.293 10.9649C35.2996 10.9558 35.3035 10.9453 35.31 10.9362V4.3728C35.31 3.42883 35.2486 2.69274 35.1309 2.18284C35.0381 1.78407 34.8014 1.5788 34.3647 1.51996C34.0863 1.46767 33.9803 1.30816 33.9385 1.21925C33.8771 1.08197 33.8771 0.935537 33.9385 0.798255C34.017 0.621751 34.1961 0.517155 34.4157 0.517155H37.3823C37.5706 0.517155 37.7262 0.663589 37.7262 0.844016V7.10797C38.0975 6.62814 38.5198 6.21237 38.9865 5.8659C39.7802 5.28409 40.7098 4.9873 41.7583 4.9873C42.867 4.9873 43.8254 5.35338 44.6046 6.07901C45.3878 6.80726 45.7866 7.93558 45.7866 9.43129V13.7838C45.7866 14.7277 45.8454 15.4638 45.9617 15.9737C46.0546 16.3725 46.2912 16.5778 46.7279 16.6366C47.0064 16.6889 47.1162 16.8458 47.1541 16.9373C47.2195 17.0746 47.2195 17.221 47.1541 17.3583H47.1463Z" fill="white"/>
<path d="M39.5814 7.03214C39.2245 7.27663 38.8846 7.59042 38.5577 7.95388C38.7708 7.67932 39.0009 7.4479 39.2441 7.26094C39.3539 7.17596 39.4677 7.10143 39.5801 7.03214H39.5814Z" fill="white"/>
<path d="M57.7797 13.9969C57.6699 13.9969 57.5038 14.0296 57.3391 14.1865C57.3273 14.1982 57.3156 14.21 57.3051 14.2244C56.8697 14.7866 56.3337 15.2703 55.7113 15.6639C55.1125 16.0417 54.4026 16.2326 53.6011 16.2326C52.5264 16.2326 51.5968 15.8731 50.7561 15.1317C49.9717 14.4401 49.4252 13.5118 49.1271 12.3678L55.9768 9.33454C57.6686 8.70043 57.5692 7.69632 57.3535 7.13804C57.0946 6.55623 56.5716 6.04502 55.8002 5.61879C55.0406 5.1991 54.1097 4.98599 53.0324 4.98599C51.7825 4.98599 50.6659 5.28932 49.7154 5.88682C48.7701 6.4804 48.0249 7.28709 47.4967 8.28336C46.9724 9.27309 46.7057 10.3805 46.7057 11.5716C46.7057 12.8306 46.9907 13.9459 47.5542 14.8859C48.1177 15.826 48.8747 16.566 49.8043 17.0877C50.7352 17.6093 51.755 17.8748 52.8337 17.8748C53.9842 17.8748 55.0275 17.5923 55.9375 17.0341C56.8279 16.4876 57.6006 15.7737 58.2308 14.9147C58.47 14.597 58.338 14.3473 58.27 14.2544C58.1484 14.0884 57.9732 13.9982 57.7784 13.9982L57.7797 13.9969ZM52.3904 6.20453C53.0128 6.20453 53.5776 6.38757 54.115 6.76411C54.5961 7.10143 55.0459 7.62964 55.4551 8.33696L48.9466 11.2225C48.9336 11.0551 48.927 10.8891 48.927 10.723C48.927 9.40514 49.2617 8.30166 49.9233 7.4466C50.5692 6.60983 51.3759 6.20322 52.3904 6.20322V6.20453Z" fill="white"/>
<path d="M62.9755 15.588C62.9611 15.5867 62.9258 15.5841 62.9114 15.5841C62.8055 15.5841 62.6486 15.6155 62.493 15.7632C62.1466 16.0927 61.923 16.162 61.7962 16.162C61.7217 16.162 61.4968 16.162 61.4968 15.4769V0.842708C61.4968 0.662281 61.3425 0.515848 61.1529 0.515848H58.1863C57.9667 0.515848 57.7889 0.620443 57.7104 0.796948C57.6477 0.935537 57.6477 1.08197 57.7104 1.21794C57.7509 1.30816 57.8582 1.46767 58.138 1.51996C58.5733 1.5788 58.81 1.78407 58.9028 2.18414C59.0205 2.69274 59.0806 3.42883 59.0806 4.3728V15.4782C59.0806 16.2797 59.2284 16.8589 59.5304 17.2485C59.8481 17.659 60.2992 17.8747 60.8326 17.8747C61.719 17.8747 62.544 17.3871 63.3024 16.3987C63.4239 16.2065 63.4174 16.0443 63.3899 15.9384C63.339 15.7449 63.1847 15.6142 62.9755 15.588Z" fill="white"/>
<path d="M95.8263 13.7354C95.7164 13.7354 95.5504 13.7681 95.3857 13.925C95.3739 13.9367 95.3621 13.9485 95.3517 13.9616C94.9163 14.5238 94.3802 15.0088 93.7579 15.4011C93.1591 15.7789 92.4491 15.9698 91.6477 15.9698C90.573 15.9698 89.6434 15.6103 88.8027 14.8689C88.0182 14.1773 87.4717 13.249 87.1736 12.105L94.0233 9.07175C95.7151 8.43764 95.6158 7.43352 95.4 6.87524C95.1399 6.29343 94.6182 5.78222 93.8468 5.356C93.0872 4.93631 92.1563 4.7232 91.0776 4.7232C89.8277 4.7232 88.7112 5.02652 87.7607 5.62402C86.8154 6.2176 86.0688 7.02429 85.5419 8.02056C85.0176 9.0103 84.7509 10.1177 84.7509 11.3088C84.7509 11.3872 84.7548 11.4618 84.7575 11.5389C81.9504 11.888 79.0923 11.8775 76.2892 11.4984C76.2944 8.69259 76.2983 5.88682 76.3035 3.08105C76.3035 2.56592 76.3362 1.98149 76.7455 1.64417C77.0462 1.39576 77.56 1.24148 77.5338 0.863627C77.509 0.502774 77.0109 0.392948 76.6304 0.385104C75.5583 0.360262 74.4862 0.336728 73.4141 0.331499C72.7839 0.328884 72.1459 0.332806 71.5379 0.488392C70.1207 0.849246 69.0394 2.00241 68.4759 3.29155C67.6679 5.13765 67.8078 7.33546 68.8459 9.07567C69.8827 10.8146 71.7942 12.0566 73.8743 12.343C73.9031 13.317 73.8743 14.2924 73.7867 15.2638C73.7501 15.6717 73.6651 16.1385 73.2938 16.345C73.0088 16.5032 72.58 16.4967 72.4518 16.7857C72.359 16.9948 72.5107 17.2446 72.7212 17.3518C72.9317 17.459 73.1827 17.4616 73.422 17.4616C75.8878 17.459 78.3523 17.4577 80.8181 17.4551C81.4183 17.4551 82.0171 17.4551 82.6172 17.4538C83.012 17.4538 83.9638 17.6263 84.2986 17.4158C84.6333 17.204 84.6163 16.4549 84.6842 16.1058C84.7993 15.5109 84.9157 14.9173 85.032 14.3224C85.0726 14.1132 85.1131 13.8936 85.0516 13.6883C84.9902 13.4831 84.7928 13.2974 84.5692 13.317C84.3456 13.3366 84.1953 13.538 84.0867 13.7249C83.6422 14.4976 83.3402 15.4168 82.5583 15.8874C82.0916 16.1685 81.5242 16.2418 80.9737 16.2836C79.7199 16.379 78.4608 16.345 77.2044 16.3124C76.9926 16.3071 76.7585 16.2927 76.6082 16.1502C76.4761 16.026 76.4447 15.8365 76.4225 15.6613C76.2983 14.6584 76.2526 13.6465 76.2866 12.6371C76.3022 12.6371 76.3179 12.6371 76.3336 12.6384C79.1773 12.7496 82.0563 12.9967 84.8542 12.5692C84.9836 13.3222 85.2295 14.0113 85.5968 14.6231C86.1604 15.5632 86.9174 16.3045 87.8469 16.8249C88.7778 17.3465 89.7977 17.612 90.8763 17.612C92.0268 17.612 93.0702 17.3295 93.9802 16.7713C94.8705 16.2248 95.6432 15.5109 96.2734 14.6519C96.5114 14.3342 96.3806 14.0858 96.3113 13.9917C96.1884 13.8269 96.0145 13.7354 95.821 13.7354H95.8263ZM73.8756 11.1689C73.2062 10.9924 72.5813 10.7348 72.0321 10.3517C70.5011 9.28617 69.4159 7.55119 69.4839 5.74692C69.5454 4.08386 70.7783 2.40379 72.5054 2.1593C72.9068 2.10439 73.316 2.124 73.7174 2.10047C73.8207 2.59991 73.8756 3.30331 73.8756 4.18845V11.1689ZM87.9685 7.18642C88.6144 6.34965 89.4211 5.94304 90.4357 5.94304C91.058 5.94304 91.6228 6.12608 92.1602 6.50262C92.6413 6.83994 93.0911 7.36815 93.5003 8.07548L86.9919 10.961C86.9788 10.7936 86.9723 10.6276 86.9723 10.4616C86.9723 9.14366 87.307 8.04017 87.9685 7.18511V7.18642Z" fill="white"/>
<path d="M107.571 13.4438C107.438 13.2869 107.257 13.2072 107.064 13.219C106.954 13.2255 106.79 13.2699 106.638 13.4373C106.626 13.4491 106.617 13.4621 106.606 13.4765C106.211 14.0649 105.709 14.5826 105.116 15.0128C104.544 15.4272 103.85 15.6639 103.05 15.7136C101.978 15.7815 101.025 15.4808 100.134 14.7944C99.3041 14.1551 98.6922 13.2621 98.3156 12.1403L104.938 8.68082C106.581 7.94081 106.413 6.94454 106.159 6.40195C105.86 5.83844 105.303 5.36123 104.504 4.98468C103.717 4.61337 102.773 4.4604 101.697 4.52839C100.449 4.60683 99.3577 4.98076 98.4503 5.6371C97.5495 6.28951 96.8605 7.14065 96.4028 8.1683C95.9479 9.18942 95.7596 10.3099 95.8433 11.4984C95.9309 12.7548 96.2943 13.8504 96.9219 14.7513C97.5495 15.6534 98.3562 16.345 99.3211 16.8066C100.286 17.2681 101.321 17.4681 102.399 17.4001C103.547 17.3269 104.568 16.9792 105.437 16.366C106.288 15.7645 107.009 15.0036 107.578 14.1054C107.793 13.7733 107.646 13.5327 107.57 13.4438H107.571ZM98.0005 10.5139C97.909 9.19857 98.1653 8.07678 98.7654 7.18119C99.3511 6.3052 100.129 5.8489 101.141 5.78484C101.762 5.74561 102.337 5.89205 102.901 6.2346C103.404 6.54054 103.889 7.03867 104.347 7.71985L98.0541 11.0107C98.0293 10.8446 98.011 10.6786 97.9992 10.5139H98.0005Z" fill="white"/>
</svg>
