<svg width="144" height="29" viewBox="0 0 144 29" fill="none" xmlns="http://www.w3.org/2000/svg">
<path d="M25.7602 24.3147C25.7409 24.3147 25.6898 24.3182 25.6705 24.3199C25.4417 24.3463 25.2412 24.4818 25.0687 24.7282C24.3315 25.8472 23.3391 26.3909 22.0335 26.3909C21.0165 26.3909 20.1437 26.1235 19.3643 25.5745C18.5566 25.0044 17.8194 24.2584 17.1754 23.354C16.5173 22.4302 15.9261 21.4079 15.4176 20.3187C14.902 19.2137 14.4182 18.1105 13.973 17.0301C13.8428 16.7398 13.7232 16.4512 13.6123 16.1574C13.2797 15.3445 12.8205 14.6512 12.2469 14.0935C11.9425 13.7979 11.5624 13.548 11.1102 13.3492C11.8088 13.1081 12.4686 12.8143 13.0844 12.4694C14.1384 11.8799 14.9935 11.1269 15.6287 10.2312C16.278 9.31804 16.6071 8.22184 16.6071 6.97784C16.6071 5.5051 16.1672 4.26462 15.2997 3.28983C14.4534 2.33792 13.3642 1.62354 12.0621 1.16606C10.7847 0.717375 9.47209 0.490393 8.15946 0.490393H0.706018C0.412174 0.490393 0.171116 0.631157 0.0637836 0.868696C-0.0189151 1.05521 -0.0189151 1.25052 0.0637836 1.43527C0.11833 1.55668 0.262612 1.76958 0.639156 1.83997C1.22509 1.91915 1.5418 2.19539 1.66673 2.73382C1.82509 3.41652 1.90603 4.40715 1.90603 5.6793V18.3445C1.90603 19.6167 1.82509 20.6073 1.66673 21.29C1.5418 21.8284 1.22509 22.1047 0.612763 22.1874C0.260853 22.2542 0.11833 22.4671 0.0620241 22.5886C-0.0206747 22.7751 -0.0206747 22.9704 0.0620241 23.1551C0.169356 23.3909 0.408655 23.5317 0.702499 23.5317H6.35945C6.65505 23.5317 6.89435 23.3909 6.99992 23.1534C7.08262 22.9686 7.08262 22.7733 6.99992 22.585C6.94538 22.4654 6.80109 22.2525 6.42455 22.1821C5.83862 22.1029 5.5219 21.8267 5.39697 21.2882C5.23861 20.6055 5.15767 19.6132 5.15767 18.3428V14.2553H5.29492C6.92954 14.2553 8.1102 14.4031 8.8017 14.6935C9.42986 14.9574 9.92781 15.5838 10.2797 16.5498C10.3061 16.6254 10.3431 16.7117 10.3941 16.8102C10.9448 18.195 11.5378 19.5938 12.1572 20.9698C12.7836 22.3651 13.4962 23.6601 14.2721 24.8179C15.0639 25.9986 15.9877 26.9645 17.0153 27.6895C18.078 28.4408 19.308 28.8209 20.6681 28.8209C21.9297 28.8209 23.0839 28.4989 24.0992 27.8619C25.1127 27.225 25.8693 26.3733 26.3637 25.2912C26.4728 24.9798 26.4042 24.7616 26.3268 24.6331C26.2054 24.4308 25.9978 24.3147 25.7585 24.3147H25.7602ZM5.16119 5.6793C5.16119 4.23471 5.22102 3.19658 5.33715 2.59305C5.4304 2.1039 5.65563 2.0036 5.96355 2.0036H8.12603C9.62165 2.0036 10.8445 2.41358 11.8651 3.25816C12.8663 4.08515 13.3536 5.25173 13.3536 6.82124C13.3536 8.14618 12.9859 9.25294 12.2592 10.1063C11.5167 10.9791 10.5243 11.6424 9.31197 12.077C8.07325 12.5204 6.71136 12.7456 5.26501 12.7456H5.16119V5.6793Z" fill="#FAFAFA"/>
<path d="M31.6653 20.7745C31.6459 20.7727 31.5984 20.7692 31.579 20.7692C31.4383 20.7692 31.2254 20.8114 31.016 21.0102C30.5497 21.4536 30.2488 21.5469 30.0781 21.5469C29.9673 21.5469 29.6752 21.5469 29.6752 20.6566V12.8037C29.6752 10.8823 29.1192 9.3374 28.0212 8.21305C26.9145 7.0799 25.3344 6.50629 23.3232 6.50629C21.9666 6.50629 20.7649 6.76318 19.7478 7.26817C18.6341 7.82243 18.0692 8.55616 18.0692 9.44649C18.0692 10.1134 18.4106 10.6465 19.0546 10.9861C19.6194 11.2852 20.3391 11.4383 21.1924 11.4383C21.7836 11.4383 21.905 11.1163 21.9314 10.9738C21.9684 10.7574 21.8804 10.5515 21.6957 10.4125C21.2241 9.95148 21.1713 9.49224 21.5232 8.92742C21.9033 8.31686 22.5578 8.0195 23.5221 8.0195C24.4863 8.0195 25.22 8.43299 25.6722 9.28109C26.1684 10.2172 26.4218 11.4013 26.4218 12.8037V13.4072C26.1068 13.0817 25.7549 12.7896 25.3661 12.5363C24.5479 12.0014 23.5925 11.7304 22.5262 11.7304C20.9813 11.7304 19.6018 12.3304 18.4299 13.5146C17.2651 14.6917 16.6739 16.1996 16.6739 17.9961C16.6739 19.7926 17.2264 21.1563 18.3173 22.2278C19.4118 23.3047 20.7156 23.8501 22.1936 23.8501C23.3303 23.8501 24.3561 23.5405 25.2429 22.9264C25.7268 22.5921 26.1544 22.2208 26.5256 21.8161C26.6224 22.3053 26.7896 22.6994 27.0289 23.0056C27.4564 23.5581 28.0635 23.8484 28.7814 23.8484C29.9743 23.8484 31.0846 23.1921 32.1051 21.8619C32.2688 21.6032 32.26 21.3833 32.223 21.2425C32.1544 20.9821 31.9468 20.8061 31.6653 20.7709V20.7745ZM19.9273 17.9961C19.9273 16.7257 20.2335 15.677 20.837 14.8817C21.4159 14.1198 22.1637 13.7503 23.1244 13.7503C23.7561 13.7503 24.4018 13.9632 25.0406 14.3838C25.6546 14.7885 26.1192 15.5134 26.4218 16.5357V18.4712C26.4218 19.3633 26.0629 20.1058 25.3256 20.741C24.5743 21.3885 23.7455 21.7035 22.7919 21.7035C21.9138 21.7035 21.2399 21.3973 20.7297 20.7657C20.1965 20.1093 19.9273 19.1768 19.9273 17.9944V17.9961Z" fill="#FAFAFA"/>
<path d="M62.5207 23.1569C62.4151 23.3944 62.1793 23.5352 61.8837 23.5352H56.2268C55.9312 23.5352 55.6901 23.3944 55.5846 23.1569C55.5019 22.9721 55.5019 22.7751 55.5846 22.5903C55.6409 22.4671 55.7834 22.256 56.1353 22.1909C56.7459 22.1082 57.0643 21.8302 57.1893 21.2935C57.3459 20.6073 57.4303 19.6184 57.4303 18.3463V12.4887C57.4303 11.4735 57.2632 10.6764 56.9412 10.1222C56.6227 9.58198 56.2338 9.19839 55.7904 8.98725C55.3241 8.76379 54.8438 8.65293 54.3669 8.65293C53.679 8.65293 53.0033 8.85528 52.3435 9.25998C52.1904 9.35148 52.0391 9.45353 51.8913 9.5679C51.564 9.81776 51.2543 10.131 50.9675 10.5005C50.9622 10.5057 50.9587 10.5093 50.9587 10.5145C50.5435 11.0512 50.1687 11.7057 49.8396 12.48V18.3463C49.8396 19.6167 49.9188 20.6073 50.0754 21.2935C50.2003 21.8302 50.5188 22.1064 51.1065 22.1856C51.4813 22.256 51.6291 22.4671 51.6801 22.5903C51.7628 22.7751 51.7628 22.9721 51.6801 23.1569C51.5745 23.3944 51.3388 23.5352 51.0432 23.5352H45.3862C45.0906 23.5352 44.8496 23.3944 44.744 23.1569C44.6613 22.9721 44.6613 22.7751 44.744 22.5903C44.7985 22.4671 44.9428 22.256 45.2947 22.1909C45.9053 22.1082 46.2238 21.8302 46.3487 21.2935C46.5053 20.6073 46.5897 19.6184 46.5897 18.3463V17.5334C44.7827 20.6742 42.1258 23.8519 38.341 23.8519C37.0196 23.8519 35.7668 23.4965 34.6248 22.7927C33.4829 22.0941 32.5538 21.0947 31.8658 19.8278C31.1726 18.5662 30.826 17.0671 30.826 15.3691C30.826 12.9497 31.5368 10.8524 32.9427 9.13329C34.3662 7.39134 36.233 6.50805 38.4923 6.50805C39.8137 6.50805 41.0102 6.82125 42.0501 7.43533C43.1692 8.09516 43.7375 8.97845 43.7375 10.0483C43.7375 10.738 43.4965 11.3415 43.0267 11.8465C42.5516 12.3515 41.9445 12.6119 41.2249 12.6119C40.9293 12.6119 40.7305 12.5063 40.6337 12.3005C40.5879 12.2037 40.5404 12.033 40.6143 11.8131C40.9662 10.6254 40.8501 9.74209 40.2589 9.10866C39.6255 8.44003 38.8495 8.11451 37.8888 8.11451C36.6043 8.11451 35.5873 8.66877 34.7885 9.8072C33.9667 10.9685 33.5497 12.4588 33.5497 14.2307C33.5497 16.4125 34.1321 18.2143 35.2776 19.592C36.4284 20.9733 37.741 21.6419 39.2841 21.6419C41.2935 21.6419 42.8841 20.1956 44.1739 18.4448C45.117 17.1603 45.9018 15.714 46.5686 14.5527C46.5774 14.5404 46.5827 14.5263 46.5915 14.514V5.68106C46.5915 4.41066 46.5088 3.42004 46.3504 2.73382C46.2255 2.19715 45.907 1.92091 45.3194 1.84173C44.9446 1.77134 44.802 1.55668 44.7457 1.43703C44.663 1.25228 44.663 1.05521 44.7457 0.870455C44.8513 0.632916 45.0924 0.492152 45.388 0.492152H49.3804C49.6338 0.492152 49.8432 0.689222 49.8432 0.932039V9.36203C50.3429 8.71628 50.9112 8.15674 51.5394 7.69046C52.6074 6.90746 53.8584 6.50805 55.2696 6.50805C56.7617 6.50805 58.0514 7.00072 59.1001 7.97727C60.1541 8.95734 60.6908 10.4758 60.6908 12.4887V18.3463C60.6908 19.6167 60.7699 20.6073 60.9265 21.2935C61.0515 21.8302 61.3699 22.1064 61.9576 22.1856C62.3324 22.256 62.4802 22.4671 62.5312 22.5903C62.6192 22.7751 62.6192 22.9721 62.5312 23.1569H62.5207Z" fill="#FAFAFA"/>
<path d="M52.34 9.25998C51.8596 9.58901 51.4021 10.0113 50.9622 10.5005C51.249 10.131 51.5587 9.81951 51.886 9.5679C52.0338 9.45353 52.1869 9.35323 52.3382 9.25998H52.34Z" fill="#FAFAFA"/>
<path d="M76.8311 18.6331C76.6833 18.6331 76.4598 18.6771 76.2381 18.8882C76.2223 18.9041 76.2065 18.9199 76.1924 18.9392C75.6065 19.6959 74.885 20.3469 74.0475 20.8765C73.2416 21.385 72.2862 21.6419 71.2076 21.6419C69.7612 21.6419 68.5102 21.158 67.3788 20.1604C66.3231 19.2296 65.5876 17.9803 65.1864 16.4407L74.4047 12.3585C76.6815 11.5052 76.5478 10.1538 76.2575 9.4025C75.9091 8.6195 75.2053 7.93152 74.1671 7.35791C73.1448 6.79309 71.892 6.50629 70.4422 6.50629C68.76 6.50629 67.2574 6.9145 65.9782 7.71861C64.706 8.51745 63.7031 9.60309 62.9922 10.9439C62.2867 12.2758 61.9277 13.7662 61.9277 15.3691C61.9277 17.0636 62.3113 18.5645 63.0697 19.8296C63.828 21.0947 64.8468 22.0906 66.0979 22.7927C67.3507 23.4947 68.7231 23.8519 70.1747 23.8519C71.7231 23.8519 73.1272 23.4718 74.3519 22.7205C75.5501 21.985 76.59 21.0243 77.4381 19.8683C77.7601 19.4407 77.5824 19.1046 77.4909 18.9797C77.3273 18.7563 77.0915 18.6348 76.8293 18.6348L76.8311 18.6331ZM69.5782 8.14618C70.4158 8.14618 71.1759 8.39252 71.8991 8.89927C72.5466 9.35323 73.1519 10.0641 73.7026 11.016L64.9436 14.8993C64.926 14.6741 64.9172 14.4506 64.9172 14.2272C64.9172 12.4536 65.3676 10.9685 66.258 9.81775C67.1272 8.69164 68.2128 8.14442 69.5782 8.14442V8.14618Z" fill="#FAFAFA"/>
<path d="M83.8235 20.7745C83.8042 20.7727 83.7567 20.7692 83.7373 20.7692C83.5948 20.7692 83.3837 20.8114 83.1743 21.0102C82.708 21.4536 82.4071 21.5469 82.2364 21.5469C82.1361 21.5469 81.8335 21.5469 81.8335 20.6249V0.93028C81.8335 0.687462 81.6259 0.490393 81.3707 0.490393H77.3783C77.0827 0.490393 76.8434 0.631157 76.7378 0.868696C76.6534 1.05521 76.6534 1.25228 76.7378 1.43527C76.7924 1.55668 76.9367 1.77134 77.3132 1.84173C77.8991 1.92091 78.2176 2.19715 78.3425 2.73558C78.5009 3.42004 78.5818 4.41066 78.5818 5.68106V20.6267C78.5818 21.7053 78.7807 22.4847 79.1871 23.0091C79.6147 23.5616 80.2217 23.8519 80.9396 23.8519C82.1326 23.8519 83.2429 23.1956 84.2634 21.8654C84.4271 21.6067 84.4183 21.3885 84.3813 21.246C84.3127 20.9856 84.1051 20.8096 83.8235 20.7745Z" fill="#FAFAFA"/>
<path d="M128.034 18.2812C127.886 18.2812 127.663 18.3252 127.441 18.5363C127.425 18.5521 127.409 18.568 127.395 18.5856C126.809 19.3422 126.088 19.995 125.25 20.5228C124.444 21.0314 123.489 21.2882 122.41 21.2882C120.964 21.2882 119.713 20.8044 118.582 19.8067C117.526 18.8759 116.79 17.6266 116.389 16.087L125.608 12.0049C127.884 11.1515 127.751 9.80016 127.46 9.04883C127.11 8.26583 126.408 7.57785 125.37 7.00424C124.348 6.43942 123.095 6.15262 121.643 6.15262C119.961 6.15262 118.458 6.56083 117.179 7.36495C115.907 8.16378 114.902 9.24942 114.193 10.5902C113.488 11.9222 113.129 13.4125 113.129 15.0155C113.129 15.121 113.134 15.2213 113.138 15.3251C109.36 15.7949 105.513 15.7809 101.741 15.2706C101.748 11.4946 101.753 7.71861 101.76 3.94263C101.76 3.24936 101.804 2.46285 102.355 2.00888C102.76 1.67457 103.451 1.46694 103.416 0.958433C103.383 0.472797 102.712 0.324995 102.2 0.314438C100.757 0.281007 99.3146 0.249335 97.8718 0.242297C97.0237 0.238778 96.165 0.244056 95.3468 0.453442C93.4395 0.939078 91.9843 2.491 91.226 4.22591C90.1386 6.71039 90.3268 9.66819 91.7239 12.0102C93.1192 14.3503 95.6917 16.0219 98.4911 16.4073C98.5298 17.7181 98.4911 19.0307 98.3732 20.3381C98.324 20.8871 98.2096 21.5152 97.7099 21.7932C97.3263 22.0061 96.7492 21.9973 96.5767 22.3862C96.4518 22.6677 96.6559 23.0038 96.9392 23.1481C97.2225 23.2924 97.5603 23.2959 97.8823 23.2959C101.201 23.2924 104.518 23.2906 107.836 23.2871C108.644 23.2871 109.45 23.2871 110.257 23.2853C110.789 23.2853 112.07 23.5176 112.52 23.2343C112.97 22.9493 112.948 21.941 113.039 21.4712C113.194 20.6706 113.351 19.8718 113.507 19.0712C113.562 18.7897 113.616 18.4941 113.533 18.2178C113.451 17.9416 113.185 17.6917 112.884 17.7181C112.583 17.7445 112.381 18.0155 112.235 18.2671C111.637 19.307 111.23 20.544 110.178 21.1774C109.55 21.5557 108.786 21.6542 108.045 21.7105C106.358 21.839 104.664 21.7932 102.973 21.7492C102.688 21.7422 102.373 21.7229 102.17 21.5311C101.993 21.3639 101.95 21.1088 101.92 20.873C101.753 19.5234 101.692 18.1615 101.737 16.8032C101.759 16.8032 101.78 16.8032 101.801 16.8049C105.628 16.9545 109.502 17.287 113.268 16.7117C113.442 17.7252 113.773 18.6524 114.267 19.4759C115.026 20.741 116.044 21.7387 117.295 22.439C118.548 23.141 119.921 23.4982 121.372 23.4982C122.921 23.4982 124.325 23.1182 125.549 22.3668C126.748 21.6314 127.788 20.6706 128.636 19.5146C128.956 19.0871 128.78 18.7527 128.687 18.6261C128.521 18.4043 128.287 18.2812 128.027 18.2812H128.034ZM98.4929 14.8272C97.592 14.5896 96.7509 14.243 96.0119 13.7275C93.9515 12.2934 92.4911 9.95852 92.5826 7.53034C92.6653 5.2922 94.3245 3.03118 96.6489 2.70214C97.1891 2.62824 97.7398 2.65464 98.28 2.62296C98.419 3.29511 98.4929 4.24175 98.4929 5.43296V14.8272ZM117.459 9.4676C118.328 8.34149 119.414 7.79427 120.779 7.79427C121.617 7.79427 122.377 8.04061 123.1 8.54736C123.748 9.00132 124.353 9.71218 124.904 10.6641L116.145 14.5474C116.127 14.3222 116.118 14.0987 116.118 13.8753C116.118 12.1016 116.569 10.6166 117.459 9.46584V9.4676Z" fill="#FAFAFA"/>
<path d="M143.84 17.8888C143.66 17.6777 143.418 17.5703 143.157 17.5862C143.009 17.595 142.79 17.6548 142.584 17.88C142.568 17.8958 142.555 17.9134 142.541 17.9328C142.01 18.7246 141.334 19.4214 140.536 20.0003C139.767 20.558 138.832 20.8765 137.755 20.9434C136.313 21.0349 135.03 20.6302 133.832 19.7064C132.714 18.846 131.891 17.6442 131.384 16.1345L140.296 11.4788C142.508 10.4829 142.281 9.14209 141.94 8.41188C141.537 7.65351 140.787 7.01128 139.712 6.50453C138.653 6.00482 137.382 5.79895 135.934 5.89044C134.256 5.99602 132.786 6.49925 131.565 7.38254C130.353 8.26056 129.426 9.40602 128.81 10.789C128.198 12.1632 127.944 13.6712 128.057 15.2706C128.175 16.9615 128.664 18.436 129.508 19.6483C130.353 20.8624 131.439 21.7932 132.737 22.4144C134.036 23.0355 135.429 23.3047 136.879 23.2132C138.424 23.1147 139.798 22.6466 140.968 21.8214C142.114 21.012 143.083 19.9879 143.849 18.7791C144.139 18.3322 143.94 18.0084 143.838 17.8888H143.84ZM130.96 13.9457C130.837 12.1755 131.182 10.6659 131.989 9.46057C132.778 8.28167 133.825 7.66759 135.186 7.58137C136.022 7.52858 136.796 7.72565 137.555 8.18665C138.232 8.59839 138.885 9.26878 139.501 10.1855L131.032 14.6143C130.999 14.3908 130.974 14.1674 130.958 13.9457H130.96Z" fill="#FAFAFA"/>
</svg>
