<svg width="330" height="86" viewBox="0 0 330 86" fill="none" xmlns="http://www.w3.org/2000/svg">
<path d="M165.636 74.4339V80.5123H162.838V63.8692H168.507C172.342 63.8692 174.633 65.7023 174.633 69.1274C174.633 72.5525 172.366 74.4339 168.507 74.4339H165.636ZM168.217 72.0219C170.774 72.0219 171.835 71.0329 171.835 69.1274C171.835 67.2219 170.774 66.3053 168.217 66.3053H165.636V72.0219H168.217Z" fill="white"/>
<path d="M180.249 73.3968H182.854V72.3837C182.854 70.8641 182.275 70.4541 180.466 70.4541C179.164 70.4541 178.513 70.5988 177.934 71.5395L176.076 70.237C176.945 68.8139 178.247 68.235 180.635 68.235C183.723 68.235 185.387 69.1998 185.387 72.4078V80.5123H182.854V79.4027C182.275 80.3434 181.528 80.7294 180.056 80.7294C177.403 80.7294 175.763 79.3786 175.763 76.9666C175.763 74.3857 177.668 73.3968 180.249 73.3968ZM182.854 75.3746H180.442C178.923 75.3746 178.295 75.9053 178.295 76.9666C178.295 78.0279 179.116 78.5344 180.346 78.5344C181.914 78.5344 182.854 78.052 182.854 75.9535V75.3746Z" fill="white"/>
<path d="M186.681 68.4521H188.225V65.7988H190.782V68.4521H193.339V70.6711H190.782V76.1947C190.782 77.5937 190.999 78.1967 192.35 78.1967H193.339V80.5123H192.157C189.262 80.5123 188.225 79.5233 188.225 76.6771V70.6711H186.681V68.4521Z" fill="white"/>
<path d="M194.91 63.8692H197.733V66.4983H194.91V63.8692ZM195.031 68.4521H197.612V80.5123H195.031V68.4521Z" fill="white"/>
<path d="M209.097 78.6791C208.253 80.1505 206.902 80.7294 204.78 80.7294C201.331 80.7294 199.497 78.4862 199.497 75.2781V73.638C199.497 70.0922 201.234 68.235 204.394 68.235C207.554 68.235 209.266 70.2128 209.266 73.7827V75.1093H202.054V75.1575C202.054 77.0389 202.778 78.5103 204.683 78.5103C206.106 78.5103 206.685 78.0761 207.168 77.3284L209.097 78.6791ZM202.078 73.1314H206.685C206.589 71.3706 205.865 70.4782 204.394 70.4782C202.922 70.4782 202.199 71.4912 202.078 73.1314Z" fill="white"/>
<path d="M211.095 68.4521H213.628V69.5375C214.159 68.8139 215.027 68.235 216.619 68.235C219.103 68.235 221.009 69.4892 221.009 72.9626V80.5123H218.452V73.252C218.452 71.1294 217.487 70.5264 216.161 70.5264C214.569 70.5264 213.676 71.6118 213.676 73.2279V80.5123H211.095V68.4521Z" fill="white"/>
<path d="M222.247 68.4521H223.791V65.7988H226.347V68.4521H228.904V70.6711H226.347V76.1947C226.347 77.5937 226.565 78.1967 227.915 78.1967H228.904V80.5123H227.722C224.828 80.5123 223.791 79.5233 223.791 76.6771V70.6711H222.247V68.4521Z" fill="white"/>
<path d="M235.634 80.5123L241.423 63.8692H244.076L249.865 80.5123H246.898L245.764 77.0631H239.758L238.625 80.5123H235.634ZM240.53 74.651H244.968L242.749 67.9214L240.53 74.651Z" fill="white"/>
<path d="M258.042 63.8692H260.599V80.5123H258.042V79.6681C257.39 80.3434 256.474 80.7294 255.147 80.7294C251.939 80.7294 250.347 78.4379 250.347 75.2781V73.638C250.347 70.1646 252.229 68.235 255.147 68.235C256.402 68.235 257.366 68.5968 258.042 69.2963V63.8692ZM258.042 75.1575V73.6138C258.042 71.636 257.149 70.4782 255.485 70.4782C253.821 70.4782 252.904 71.6601 252.904 73.7586V75.1575C252.904 77.0389 253.628 78.5103 255.485 78.5103C257.342 78.5103 258.042 77.0389 258.042 75.1575Z" fill="white"/>
<path d="M273.813 68.4521L269.109 80.5123H266.649L261.849 68.4521H264.695L267.831 77.0631L270.942 68.4521H273.813Z" fill="white"/>
<path d="M284.385 75.2299C284.385 78.4379 282.817 80.7294 279.272 80.7294C275.726 80.7294 274.134 78.5585 274.134 75.2299V73.7103C274.134 70.1646 276.016 68.235 279.272 68.235C282.528 68.235 284.385 70.1646 284.385 73.7103V75.2299ZM281.829 75.1575V73.7586C281.829 71.6601 280.984 70.4782 279.272 70.4782C277.559 70.4782 276.691 71.6842 276.691 73.7586V75.1575C276.691 77.0389 277.318 78.5103 279.272 78.5103C281.105 78.5103 281.829 77.0389 281.829 75.1575Z" fill="white"/>
<path d="M295.348 78.6791C294.552 80.1022 293.129 80.7294 291.055 80.7294C287.678 80.7294 285.748 78.5585 285.748 75.2781V73.638C285.748 70.1646 287.702 68.235 291.151 68.235C292.984 68.235 294.504 68.9103 295.348 70.1887L293.37 71.5636C292.912 70.9123 292.14 70.4782 291.103 70.4782C289.221 70.4782 288.305 71.6842 288.305 73.7586V75.1575C288.305 77.0389 288.98 78.5103 291.103 78.5103C292.116 78.5103 292.936 78.1485 293.394 77.3284L295.348 78.6791Z" fill="white"/>
<path d="M300.755 73.3968H303.36V72.3837C303.36 70.8641 302.781 70.4541 300.972 70.4541C299.67 70.4541 299.018 70.5988 298.44 71.5395L296.582 70.237C297.451 68.8139 298.753 68.235 301.141 68.235C304.228 68.235 305.893 69.1998 305.893 72.4078V80.5123H303.36V79.4027C302.781 80.3434 302.033 80.7294 300.562 80.7294C297.909 80.7294 296.269 79.3786 296.269 76.9666C296.269 74.3857 298.174 73.3968 300.755 73.3968ZM303.36 75.3746H300.948C299.428 75.3746 298.801 75.9053 298.801 76.9666C298.801 78.0279 299.621 78.5344 300.852 78.5344C302.419 78.5344 303.36 78.052 303.36 75.9535V75.3746Z" fill="white"/>
<path d="M317.241 78.6791C316.445 80.1022 315.022 80.7294 312.948 80.7294C309.571 80.7294 307.641 78.5585 307.641 75.2781V73.638C307.641 70.1646 309.595 68.235 313.044 68.235C314.878 68.235 316.397 68.9103 317.241 70.1887L315.264 71.5636C314.805 70.9123 314.033 70.4782 312.996 70.4782C311.115 70.4782 310.198 71.6842 310.198 73.7586V75.1575C310.198 77.0389 310.874 78.5103 312.996 78.5103C314.009 78.5103 314.829 78.1485 315.288 77.3284L317.241 78.6791Z" fill="white"/>
<path d="M320.449 68.4521L323.513 76.9425L326.262 68.4521H328.916L324.671 80.9947C323.633 84.0821 322.741 85.0952 319.364 85.0952V82.7314C321.052 82.7314 321.728 82.466 322.331 80.657L317.724 68.4521H320.449Z" fill="white"/>
<path d="M59.5102 55.9375C59.466 55.9375 59.3494 55.9456 59.3052 55.9496C58.7826 56.0099 58.3243 56.3195 57.9303 56.8823C56.2459 59.439 53.9786 60.6812 50.9957 60.6812C48.6721 60.6812 46.6781 60.0702 44.8972 58.8159C43.052 57.5134 41.3676 55.8089 39.8963 53.7426C38.3927 51.632 37.042 49.2964 35.8802 46.808C34.7023 44.2833 33.5968 41.7628 32.5797 39.2944C32.2822 38.6311 32.0089 37.9718 31.7556 37.3005C30.9958 35.4432 29.9466 33.8593 28.636 32.5849C27.9405 31.9095 27.0722 31.3387 26.039 30.8844C27.635 30.3337 29.1425 29.6623 30.5496 28.8744C32.9576 27.5277 34.9114 25.8071 36.3626 23.7608C37.846 21.6744 38.5978 19.1699 38.5978 16.3277C38.5978 12.9629 37.5928 10.1288 35.6109 7.90164C33.6772 5.72678 31.1888 4.09463 28.2139 3.04941C25.2953 2.02429 22.2964 1.5057 19.2974 1.5057H2.26833C1.59698 1.5057 1.04623 1.8273 0.801001 2.37001C0.612058 2.79614 0.612058 3.24237 0.801001 3.66448C0.925624 3.94186 1.25527 4.42829 2.11557 4.5891C3.45425 4.77 4.17787 5.40115 4.46329 6.6313C4.8251 8.19109 5.01002 10.4544 5.01002 13.3609V42.2974C5.01002 45.2039 4.8251 47.4672 4.46329 49.027C4.17787 50.2572 3.45425 50.8883 2.05527 51.0773C1.25125 51.23 0.925624 51.7165 0.796981 51.9939C0.608038 52.42 0.608038 52.8662 0.796981 53.2883C1.04221 53.827 1.58894 54.1486 2.26029 54.1486H15.1848C15.8602 54.1486 16.4069 53.827 16.6481 53.2843C16.8371 52.8622 16.8371 52.416 16.6481 51.9858C16.5235 51.7124 16.1939 51.226 15.3336 51.0652C13.9949 50.8843 13.2713 50.2532 12.9859 49.023C12.624 47.4632 12.4391 45.1959 12.4391 42.2934V32.9548H12.7527C16.4873 32.9548 19.1848 33.2925 20.7647 33.9558C22.1999 34.5588 23.3376 35.9899 24.1416 38.1969C24.2019 38.3698 24.2863 38.5668 24.4029 38.7919C25.6612 41.9557 27.0159 45.1517 28.431 48.2954C29.8621 51.4833 31.4903 54.4421 33.2631 57.0873C35.0722 59.7848 37.1827 61.9918 39.5304 63.6481C41.9586 65.3646 44.7686 66.233 47.8761 66.233C50.7585 66.233 53.3957 65.4973 55.7153 64.042C58.0308 62.5868 59.7595 60.641 60.8891 58.1687C61.1383 57.4571 60.9816 56.9586 60.8047 56.6652C60.5273 56.2029 60.0529 55.9375 59.5062 55.9375H59.5102ZM12.4472 13.3609C12.4472 10.0604 12.5838 7.68858 12.8492 6.30969C13.0622 5.19211 13.5768 4.96296 14.2803 4.96296H19.221C22.6381 4.96296 25.432 5.89964 27.7637 7.82928C30.0511 9.71871 31.1646 12.384 31.1646 15.9699C31.1646 18.9971 30.3245 21.5257 28.6642 23.4754C26.9677 25.4694 24.7004 26.985 21.9305 27.9779C19.1004 28.991 15.9889 29.5055 12.6844 29.5055H12.4472V13.3609Z" fill="white"/>
<path d="M73.0016 47.8492C72.9574 47.8451 72.8488 47.8371 72.8046 47.8371C72.483 47.8371 71.9966 47.9336 71.5182 48.3878C70.4529 49.4009 69.7654 49.614 69.3755 49.614C69.1222 49.614 68.4549 49.614 68.4549 47.5798V29.6382C68.4549 25.2483 67.1845 21.7186 64.676 19.1498C62.1474 16.5609 58.5374 15.2503 53.9424 15.2503C50.8429 15.2503 48.0972 15.8373 45.7736 16.991C43.2289 18.2574 41.9385 19.9337 41.9385 21.9679C41.9385 23.4915 42.7183 24.7096 44.1897 25.4855C45.4801 26.1689 47.1244 26.5186 49.0741 26.5186C50.4248 26.5186 50.7022 25.7829 50.7625 25.4573C50.8469 24.9629 50.6459 24.4925 50.2238 24.1749C49.1465 23.1217 49.0258 22.0724 49.8299 20.782C50.6982 19.387 52.1937 18.7076 54.3967 18.7076C56.5997 18.7076 58.276 19.6523 59.3092 21.59C60.4429 23.7287 61.0218 26.4342 61.0218 29.6382V31.0171C60.3022 30.2734 59.4982 29.606 58.6097 29.0272C56.7404 27.805 54.5575 27.186 52.1213 27.186C48.5917 27.186 45.4399 28.5568 42.7626 31.2623C40.1013 33.9517 38.7505 37.397 38.7505 41.5015C38.7505 45.606 40.0128 48.7215 42.5053 51.1697C45.0058 53.63 47.9847 54.8763 51.3615 54.8763C53.9585 54.8763 56.3022 54.1687 58.3283 52.7657C59.4338 52.0019 60.4107 51.1537 61.2589 50.229C61.4801 51.3466 61.862 52.2471 62.4087 52.9466C63.3856 54.2089 64.7725 54.8722 66.4127 54.8722C69.1383 54.8722 71.675 53.3727 74.0066 50.3336C74.3805 49.7426 74.3604 49.2401 74.276 48.9185C74.1192 48.3235 73.6448 47.9215 73.0016 47.8411V47.8492ZM46.1837 41.5015C46.1837 38.599 46.8832 36.203 48.262 34.3859C49.5846 32.6452 51.2932 31.801 53.4881 31.801C54.9313 31.801 56.4067 32.2874 57.866 33.2482C59.269 34.1728 60.3303 35.8291 61.0218 38.1648V42.5869C61.0218 44.6251 60.2017 46.3215 58.5173 47.7728C56.8007 49.2522 54.9072 49.9718 52.7283 49.9718C50.7223 49.9718 49.1826 49.2723 48.0168 47.8291C46.7987 46.3296 46.1837 44.1989 46.1837 41.4974V41.5015Z" fill="white"/>
<path d="M143.498 53.2923C143.256 53.8351 142.718 54.1567 142.042 54.1567H129.118C128.442 54.1567 127.892 53.8351 127.651 53.2923C127.462 52.8702 127.462 52.42 127.651 51.9979C127.779 51.7165 128.105 51.2341 128.909 51.0853C130.304 50.8964 131.031 50.2612 131.317 49.0351C131.675 47.4672 131.868 45.208 131.868 42.3014V28.9186C131.868 26.599 131.486 24.7779 130.75 23.5116C130.022 22.2774 129.134 21.4011 128.121 20.9187C127.056 20.4081 125.958 20.1548 124.869 20.1548C123.297 20.1548 121.753 20.6171 120.246 21.5418C119.896 21.7508 119.55 21.984 119.212 22.2453C118.465 22.8161 117.757 23.5317 117.102 24.3759C117.09 24.388 117.082 24.396 117.082 24.4081C116.133 25.6342 115.277 27.1297 114.525 28.8985V42.3014C114.525 45.2039 114.706 47.4672 115.064 49.0351C115.349 50.2612 116.077 50.8924 117.419 51.0733C118.276 51.2341 118.613 51.7165 118.73 51.9979C118.919 52.42 118.919 52.8702 118.73 53.2923C118.489 53.8351 117.95 54.1567 117.275 54.1567H104.35C103.675 54.1567 103.124 53.8351 102.883 53.2923C102.694 52.8702 102.694 52.42 102.883 51.9979C103.007 51.7165 103.337 51.2341 104.141 51.0853C105.536 50.8964 106.264 50.2612 106.549 49.0351C106.907 47.4672 107.1 45.208 107.1 42.3014V40.4442C102.971 47.62 96.901 54.8803 88.2538 54.8803C85.2347 54.8803 82.3724 54.0682 79.7634 52.4602C77.1543 50.8642 75.0317 48.5808 73.4599 45.6864C71.876 42.804 71.084 39.3788 71.084 35.4995C71.084 29.9719 72.7081 25.1799 75.9202 21.2523C79.1724 17.2724 83.4377 15.2544 88.5995 15.2544C91.6186 15.2544 94.3522 15.9699 96.7281 17.3729C99.2849 18.8805 100.583 20.8986 100.583 23.3428C100.583 24.9186 100.033 26.2975 98.9592 27.4513C97.8738 28.605 96.4869 29.2 94.8427 29.2C94.1673 29.2 93.713 28.9588 93.4919 28.4885C93.3874 28.2674 93.2789 27.8774 93.4477 27.3749C94.2517 24.6613 93.9864 22.6433 92.6356 21.196C91.1884 19.6684 89.4156 18.9247 87.2206 18.9247C84.286 18.9247 81.9623 20.191 80.1372 22.792C78.2599 25.4453 77.3071 28.8503 77.3071 32.8985C77.3071 37.8834 78.6377 41.9999 81.2548 45.1477C83.8839 48.3034 86.8829 49.8311 90.4085 49.8311C94.9995 49.8311 98.6336 46.5265 101.58 42.5266C103.735 39.5919 105.528 36.2874 107.052 33.6342C107.072 33.606 107.084 33.5739 107.104 33.5457V13.3649C107.104 10.4624 106.915 8.19913 106.553 6.6313C106.268 5.40517 105.54 4.77402 104.197 4.59312C103.341 4.43231 103.015 3.94186 102.887 3.6685C102.698 3.24639 102.698 2.79614 102.887 2.37403C103.128 1.83132 103.679 1.50972 104.354 1.50972H113.476C114.055 1.50972 114.533 1.95996 114.533 2.51474V21.7749C115.675 20.2996 116.973 19.0212 118.408 17.9559C120.849 16.1669 123.707 15.2544 126.931 15.2544C130.34 15.2544 133.287 16.38 135.683 18.6111C138.091 20.8503 139.317 24.3196 139.317 28.9186V42.3014C139.317 45.2039 139.498 47.4672 139.855 49.0351C140.141 50.2612 140.869 50.8924 142.211 51.0733C143.068 51.2341 143.405 51.7165 143.522 51.9979C143.723 52.42 143.723 52.8702 143.522 53.2923H143.498Z" fill="white"/>
<path d="M120.238 21.5418C119.14 22.2935 118.095 23.2583 117.09 24.3759C117.745 23.5317 118.453 22.8201 119.2 22.2453C119.538 21.984 119.888 21.7548 120.233 21.5418H120.238Z" fill="white"/>
<path d="M176.193 42.9567C175.855 42.9567 175.345 43.0572 174.838 43.5396C174.802 43.5758 174.766 43.612 174.734 43.6562C173.395 45.3848 171.747 46.8723 169.833 48.0823C167.992 49.2441 165.809 49.8311 163.345 49.8311C160.04 49.8311 157.182 48.7255 154.597 46.4461C152.185 44.3195 150.505 41.4653 149.588 37.9477L170.649 28.6211C175.851 26.6714 175.546 23.584 174.882 21.8674C174.086 20.0785 172.478 18.5066 170.107 17.1961C167.771 15.9056 164.909 15.2503 161.596 15.2503C157.753 15.2503 154.32 16.183 151.397 18.0202C148.491 19.8453 146.199 22.3257 144.575 25.389C142.963 28.4322 142.143 31.8372 142.143 35.4995C142.143 39.3708 143.019 42.7999 144.752 45.6904C146.485 48.5808 148.812 50.8562 151.671 52.4602C154.533 54.0642 157.668 54.8803 160.985 54.8803C164.523 54.8803 167.731 54.0119 170.529 52.2954C173.266 50.615 175.642 48.42 177.58 45.7788C178.316 44.8019 177.91 44.0341 177.701 43.7487C177.327 43.2381 176.788 42.9607 176.189 42.9607L176.193 42.9567ZM159.622 18.9971C161.536 18.9971 163.272 19.5599 164.925 20.7176C166.404 21.7548 167.787 23.3789 169.045 25.5538L149.033 34.4261C148.993 33.9115 148.973 33.401 148.973 32.8904C148.973 28.8382 150.002 25.4453 152.036 22.8161C154.022 20.2433 156.503 18.993 159.622 18.993V18.9971Z" fill="white"/>
<path d="M192.169 47.8492C192.125 47.8451 192.016 47.8371 191.972 47.8371C191.646 47.8371 191.164 47.9336 190.685 48.3878C189.62 49.4009 188.933 49.614 188.543 49.614C188.314 49.614 187.622 49.614 187.622 47.5074V2.51072C187.622 1.95594 187.148 1.5057 186.565 1.5057H177.443C176.768 1.5057 176.221 1.8273 175.98 2.37001C175.787 2.79614 175.787 3.24639 175.98 3.66448C176.105 3.94186 176.434 4.43231 177.294 4.59312C178.633 4.77402 179.361 5.40517 179.646 6.63532C180.008 8.19913 180.193 10.4624 180.193 13.3649V47.5115C180.193 49.9758 180.647 51.7567 181.576 52.9546C182.553 54.217 183.94 54.8803 185.58 54.8803C188.305 54.8803 190.842 53.3808 193.174 50.3416C193.548 49.7507 193.528 49.2522 193.443 48.9265C193.286 48.3316 192.812 47.9296 192.169 47.8492Z" fill="white"/>
<path d="M293.177 42.1527C292.84 42.1527 292.329 42.2532 291.822 42.7356C291.786 42.7718 291.75 42.808 291.718 42.8482C290.379 44.5768 288.731 46.0683 286.817 47.2743C284.976 48.4361 282.793 49.023 280.329 49.023C277.025 49.023 274.166 47.9175 271.581 45.6381C269.169 43.5115 267.489 40.6572 266.572 37.1397L287.634 27.8131C292.836 25.8633 292.53 22.7759 291.867 21.0594C291.067 19.2704 289.463 17.6986 287.091 16.388C284.755 15.0976 281.893 14.4423 278.576 14.4423C274.733 14.4423 271.3 15.375 268.377 17.2121C265.471 19.0373 263.175 21.5176 261.555 24.5809C259.943 27.6241 259.123 31.0291 259.123 34.6914C259.123 34.9326 259.135 35.1618 259.143 35.399C250.512 36.4723 241.724 36.4402 233.105 35.2744C233.121 26.6473 233.133 18.0202 233.149 9.39309C233.149 7.80918 233.25 6.0122 234.508 4.97502C235.433 4.21121 237.013 3.73684 236.932 2.57504C236.856 1.4655 235.324 1.12781 234.154 1.10369C230.858 1.02731 227.562 0.954945 224.265 0.938865C222.327 0.930825 220.366 0.942885 218.496 1.42127C214.138 2.53082 210.814 6.07652 209.081 10.0403C206.597 15.7167 207.027 22.4744 210.219 27.8251C213.407 33.1718 219.284 36.9909 225.68 37.8713C225.769 40.8663 225.68 43.8653 225.411 46.8522C225.298 48.1064 225.037 49.5416 223.895 50.1768C223.019 50.6632 221.7 50.6431 221.306 51.5315C221.021 52.1748 221.487 52.9426 222.134 53.2722C222.782 53.6019 223.554 53.6099 224.289 53.6099C231.871 53.6019 239.449 53.5979 247.031 53.5898C248.876 53.5898 250.717 53.5898 252.562 53.5858C253.776 53.5858 256.703 54.1165 257.732 53.4692C258.761 52.818 258.709 50.5145 258.918 49.4411C259.272 47.612 259.63 45.7869 259.987 43.9577C260.112 43.3145 260.237 42.6391 260.048 42.008C259.859 41.3768 259.252 40.806 258.564 40.8663C257.877 40.9266 257.415 41.5457 257.081 42.1205C255.714 44.4964 254.785 47.3225 252.381 48.7698C250.946 49.6341 249.202 49.8592 247.509 49.9878C243.654 50.2813 239.783 50.1768 235.919 50.0763C235.268 50.0602 234.548 50.016 234.086 49.5778C233.68 49.1959 233.584 48.613 233.515 48.0743C233.133 44.9909 232.993 41.8793 233.097 38.7758C233.145 38.7758 233.194 38.7758 233.242 38.7799C241.986 39.1216 250.838 39.8814 259.441 38.5668C259.839 40.8824 260.595 43.0009 261.724 44.8823C263.457 47.7728 265.784 50.0522 268.643 51.6521C271.505 53.2562 274.641 54.0722 277.957 54.0722C281.495 54.0722 284.703 53.2039 287.501 51.4873C290.239 49.8069 292.614 47.612 294.552 44.9708C295.284 43.9939 294.882 43.2301 294.669 42.9406C294.291 42.4341 293.756 42.1527 293.161 42.1527H293.177ZM225.684 34.2613C223.626 33.7186 221.704 32.9266 220.016 31.7487C215.308 28.4724 211.972 23.1377 212.181 17.59C212.37 12.4765 216.161 7.31069 221.471 6.55893C222.705 6.39009 223.964 6.45039 225.198 6.37803C225.515 7.9137 225.684 10.0765 225.684 12.7981V34.2613ZM269.017 22.0161C271.002 19.4433 273.483 18.193 276.602 18.193C278.516 18.193 280.253 18.7559 281.905 19.9136C283.384 20.9508 284.767 22.5749 286.026 24.7498L266.014 33.6221C265.973 33.1075 265.953 32.597 265.953 32.0864C265.953 28.0342 266.982 24.6412 269.017 22.0121V22.0161Z" fill="white"/>
<path d="M329.29 41.2562C328.88 40.7738 328.325 40.5286 327.73 40.5648C327.392 40.5849 326.89 40.7216 326.419 41.2361C326.383 41.2723 326.355 41.3125 326.323 41.3567C325.109 43.1658 323.565 44.7577 321.74 46.0803C319.983 47.3547 317.848 48.0823 315.388 48.2351C312.092 48.4441 309.161 47.5195 306.423 45.409C303.871 43.4431 301.989 40.6974 300.831 37.2482L321.193 26.6111C326.246 24.3357 325.728 21.2724 324.948 19.6041C324.027 17.8714 322.315 16.4041 319.858 15.2463C317.438 14.1046 314.536 13.6343 311.227 13.8433C307.392 14.0845 304.035 15.2343 301.246 17.2523C298.476 19.2584 296.357 21.8754 294.95 25.0352C293.551 28.1749 292.972 31.6201 293.229 35.2744C293.499 39.1376 294.616 42.5065 296.546 45.2763C298.476 48.0502 300.956 50.1768 303.923 51.5959C306.89 53.015 310.074 53.63 313.386 53.421C316.916 53.1959 320.055 52.1265 322.729 50.2411C325.346 48.3919 327.561 46.0522 329.31 43.2904C329.973 42.2693 329.519 41.5296 329.286 41.2562H329.29ZM299.863 32.2472C299.581 28.203 300.369 24.7538 302.214 22.0001C304.015 19.3066 306.407 17.9036 309.519 17.7066C311.428 17.586 313.197 18.0363 314.93 19.0895C316.478 20.0302 317.969 21.5619 319.376 23.6563L300.027 33.7749C299.951 33.2643 299.895 32.7538 299.859 32.2472H299.863Z" fill="white"/>
</svg>
