<svg width="330" height="67" viewBox="0 0 330 67" fill="none" xmlns="http://www.w3.org/2000/svg">
<path d="M59.1001 55.8838C59.0558 55.8838 58.9393 55.8919 58.895 55.8959C58.3724 55.9562 57.9141 56.2657 57.5202 56.8286C55.8358 59.3853 53.5684 60.6275 50.5855 60.6275C48.2619 60.6275 46.268 60.0165 44.4871 58.7622C42.6419 57.4597 40.9574 55.7552 39.4861 53.6889C37.9826 51.5783 36.6318 49.2427 35.47 46.7542C34.2922 44.2296 33.1866 41.709 32.1696 39.2407C31.8721 38.5774 31.5987 37.9181 31.3454 37.2468C30.5856 35.3895 29.5364 33.8056 28.2259 32.5312C27.5304 31.8558 26.6621 31.285 25.6289 30.8307C27.2249 30.28 28.7324 29.6086 30.1394 28.8207C32.5474 27.4739 34.5012 25.7534 35.9524 23.7071C37.4359 21.6207 38.1876 19.1162 38.1876 16.274C38.1876 12.9092 37.1826 10.0751 35.2007 7.84793C33.267 5.67307 30.7786 4.04092 27.8038 2.9957C24.8852 1.97058 21.8862 1.45199 18.8872 1.45199H1.85817C1.18682 1.45199 0.63607 1.77359 0.390845 2.3163C0.201901 2.74243 0.201901 3.18866 0.390845 3.61077C0.515467 3.88815 0.845114 4.37458 1.70541 4.53538C3.0441 4.71629 3.76771 5.34744 4.05314 6.57758C4.41494 8.13737 4.59987 10.4007 4.59987 13.3072V42.2437C4.59987 45.1502 4.41494 47.4135 4.05314 48.9733C3.76771 50.2035 3.0441 50.8346 1.64511 51.0236C0.841094 51.1763 0.515467 51.6628 0.386825 51.9401C0.197881 52.3663 0.197881 52.8125 0.386825 53.2346C0.63205 53.7733 1.17878 54.0949 1.85013 54.0949H14.7747C15.4501 54.0949 15.9968 53.7733 16.238 53.2306C16.4269 52.8085 16.4269 52.3622 16.238 51.9321C16.1134 51.6587 15.7837 51.1723 14.9234 51.0115C13.5847 50.8306 12.8611 50.1994 12.5757 48.9693C12.2139 47.4095 12.029 45.1422 12.029 42.2397V32.9011H12.3425C16.0772 32.9011 18.7747 33.2387 20.3545 33.9021C21.7897 34.5051 22.9274 35.9362 23.7314 38.1432C23.7917 38.3161 23.8761 38.5131 23.9927 38.7382C25.251 41.902 26.6058 45.098 28.0208 48.2417C29.452 51.4296 31.0801 54.3884 32.853 57.0336C34.662 59.731 36.7725 61.9381 39.1203 63.5943C41.5484 65.3109 44.3584 66.1793 47.466 66.1793C50.3483 66.1793 52.9855 65.4436 55.3051 63.9883C57.6207 62.533 59.3493 60.5873 60.4789 58.115C60.7282 57.4034 60.5714 56.9049 60.3945 56.6115C60.1171 56.1492 59.6428 55.8838 59.096 55.8838H59.1001ZM12.037 13.3072C12.037 10.0067 12.1737 7.63486 12.439 6.25598C12.6521 5.1384 13.1667 4.90925 13.8702 4.90925H18.8108C22.2279 4.90925 25.0219 5.84593 27.3535 7.77557C29.6409 9.665 30.7545 12.3303 30.7545 15.9162C30.7545 18.9433 29.9143 21.472 28.254 23.4217C26.5575 25.4157 24.2902 26.9312 21.5204 27.9242C18.6902 28.9373 15.5787 29.4518 12.2742 29.4518H12.037V13.3072Z" fill="#FAFAFA"/>
<path d="M72.5914 47.7954C72.5472 47.7914 72.4387 47.7834 72.3945 47.7834C72.0728 47.7834 71.5864 47.8799 71.108 48.3341C70.0427 49.3472 69.3553 49.5603 68.9653 49.5603C68.7121 49.5603 68.0447 49.5603 68.0447 47.5261V29.5845C68.0447 25.1946 66.7744 21.6649 64.2659 19.0961C61.7372 16.5072 58.1272 15.1966 53.5322 15.1966C50.4328 15.1966 47.6871 15.7836 45.3635 16.9373C42.8187 18.2036 41.5283 19.88 41.5283 21.9142C41.5283 23.4378 42.3082 24.6559 43.7795 25.4317C45.07 26.1152 46.7142 26.4649 48.6639 26.4649C50.0147 26.4649 50.2921 25.7292 50.3524 25.4036C50.4368 24.9091 50.2358 24.4388 49.8137 24.1212C48.7363 23.0679 48.6157 22.0187 49.4197 20.7283C50.288 19.3333 51.7835 18.6539 53.9865 18.6539C56.1895 18.6539 57.8659 19.5986 58.8991 21.5363C60.0327 23.675 60.6116 26.3805 60.6116 29.5845V30.9634C59.892 30.2197 59.088 29.5523 58.1996 28.9734C56.3302 27.7513 54.1473 27.1322 51.7112 27.1322C48.1815 27.1322 45.0298 28.5031 42.3524 31.2086C39.6911 33.898 38.3404 37.3432 38.3404 41.4477C38.3404 45.5522 39.6027 48.6678 42.0951 51.116C44.5956 53.5763 47.5745 54.8225 50.9514 54.8225C53.5483 54.8225 55.892 54.115 57.9182 52.712C59.0237 51.9482 60.0006 51.0999 60.8488 50.1753C61.0699 51.2929 61.4518 52.1934 61.9985 52.8929C62.9754 54.1552 64.3623 54.8185 66.0025 54.8185C68.7281 54.8185 71.2648 53.319 73.5965 50.2798C73.9703 49.6889 73.9502 49.1864 73.8658 48.8648C73.709 48.2698 73.2346 47.8678 72.5914 47.7874V47.7954ZM45.7735 41.4477C45.7735 38.5452 46.473 36.1493 47.8519 34.3322C49.1745 32.5915 50.883 31.7473 53.078 31.7473C54.5212 31.7473 55.9966 32.2337 57.4558 33.1945C58.8589 34.1191 59.9202 35.7754 60.6116 38.1111V42.5332C60.6116 44.5713 59.7915 46.2678 58.1071 47.7191C56.3905 49.1984 54.4971 49.918 52.3182 49.918C50.3122 49.918 48.7725 49.2185 47.6067 47.7753C46.3886 46.2758 45.7735 44.1452 45.7735 41.4437V41.4477Z" fill="#FAFAFA"/>
<path d="M143.088 53.2386C142.846 53.7813 142.308 54.1029 141.632 54.1029H128.708C128.032 54.1029 127.482 53.7813 127.24 53.2386C127.051 52.8165 127.051 52.3663 127.24 51.9442C127.369 51.6628 127.695 51.1803 128.499 51.0316C129.894 50.8427 130.621 50.2075 130.907 48.9814C131.264 47.4135 131.457 45.1542 131.457 42.2477V28.8649C131.457 26.5453 131.076 24.7242 130.34 23.4579C129.612 22.2237 128.724 21.3474 127.711 20.8649C126.645 20.3544 125.548 20.1011 124.458 20.1011C122.887 20.1011 121.343 20.5634 119.835 21.4881C119.486 21.6971 119.14 21.9303 118.802 22.1916C118.054 22.7624 117.347 23.478 116.692 24.3222C116.68 24.3343 116.672 24.3423 116.672 24.3544C115.723 25.5805 114.867 27.076 114.115 28.8448V42.2477C114.115 45.1502 114.296 47.4135 114.654 48.9814C114.939 50.2075 115.667 50.8386 117.009 51.0195C117.866 51.1803 118.203 51.6628 118.32 51.9442C118.509 52.3663 118.509 52.8165 118.32 53.2386C118.079 53.7813 117.54 54.1029 116.865 54.1029H103.94C103.265 54.1029 102.714 53.7813 102.473 53.2386C102.284 52.8165 102.284 52.3663 102.473 51.9442C102.597 51.6628 102.927 51.1803 103.731 51.0316C105.126 50.8427 105.854 50.2075 106.139 48.9814C106.497 47.4135 106.69 45.1542 106.69 42.2477V40.3905C102.561 47.5663 96.4908 54.8266 87.8436 54.8266C84.8245 54.8266 81.9622 54.0145 79.3532 52.4065C76.7442 50.8105 74.6216 48.5271 73.0497 45.6326C71.4658 42.7502 70.6739 39.3251 70.6739 35.4458C70.6739 29.9182 72.298 25.1262 75.51 21.1986C78.7623 17.2187 83.0276 15.2007 88.1893 15.2007C91.2084 15.2007 93.9421 15.9162 96.3179 17.3192C98.8747 18.8268 100.173 20.8448 100.173 23.289C100.173 24.8649 99.6224 26.2438 98.5491 27.3976C97.4637 28.5513 96.0767 29.1463 94.4325 29.1463C93.7571 29.1463 93.3029 28.9051 93.0818 28.4347C92.9772 28.2136 92.8687 27.8237 93.0376 27.3212C93.8416 24.6076 93.5762 22.5896 92.2255 21.1423C90.7783 19.6147 89.0054 18.871 86.8105 18.871C83.8758 18.871 81.5522 20.1373 79.7271 22.7383C77.8497 25.3915 76.8969 28.7966 76.8969 32.8448C76.8969 37.8297 78.2276 41.9462 80.8447 45.0939C83.4738 48.2497 86.4728 49.7773 89.9984 49.7773C94.5893 49.7773 98.2234 46.4728 101.17 42.4729C103.325 39.5382 105.118 36.2337 106.641 33.5804C106.662 33.5523 106.674 33.5201 106.694 33.492V13.3112C106.694 10.4087 106.505 8.14541 106.143 6.57758C105.858 5.35146 105.13 4.72031 103.787 4.5394C102.931 4.3786 102.605 3.88815 102.477 3.61479C102.288 3.19268 102.288 2.74243 102.477 2.32032C102.718 1.77761 103.269 1.45601 103.944 1.45601H113.066C113.644 1.45601 114.123 1.90625 114.123 2.46102V21.7212C115.265 20.2458 116.563 18.9675 117.998 17.9021C120.438 16.1132 123.297 15.2007 126.521 15.2007C129.93 15.2007 132.877 16.3263 135.272 18.5574C137.681 20.7966 138.907 24.2659 138.907 28.8649V42.2477C138.907 45.1502 139.088 47.4135 139.445 48.9814C139.731 50.2075 140.458 50.8386 141.801 51.0195C142.657 51.1803 142.995 51.6628 143.112 51.9442C143.313 52.3663 143.313 52.8165 143.112 53.2386H143.088Z" fill="#FAFAFA"/>
<path d="M119.827 21.4881C118.73 22.2398 117.685 23.2046 116.68 24.3222C117.335 23.478 118.042 22.7664 118.79 22.1916C119.128 21.9303 119.478 21.7011 119.823 21.4881H119.827Z" fill="#FAFAFA"/>
<path d="M175.783 42.903C175.445 42.903 174.935 43.0035 174.428 43.4859C174.392 43.5221 174.356 43.5583 174.324 43.6025C172.985 45.3311 171.337 46.8186 169.423 48.0286C167.582 49.1904 165.399 49.7773 162.935 49.7773C159.63 49.7773 156.772 48.6718 154.187 46.3924C151.775 44.2658 150.095 41.4116 149.178 37.894L170.239 28.5674C175.441 26.6177 175.136 23.5303 174.472 21.8137C173.676 20.0247 172.068 18.4529 169.696 17.1423C167.361 15.8519 164.498 15.1966 161.186 15.1966C157.343 15.1966 153.91 16.1293 150.987 17.9665C148.08 19.7916 145.789 22.272 144.165 25.3353C142.553 28.3785 141.733 31.7835 141.733 35.4458C141.733 39.3171 142.609 42.7462 144.342 45.6367C146.074 48.5271 148.402 50.8025 151.26 52.4065C154.123 54.0105 157.258 54.8266 160.575 54.8266C164.113 54.8266 167.321 53.9582 170.119 52.2416C172.856 50.5613 175.232 48.3663 177.17 45.7251C177.905 44.7482 177.499 43.9804 177.29 43.695C176.916 43.1844 176.378 42.907 175.779 42.907L175.783 42.903ZM159.212 18.9433C161.126 18.9433 162.862 19.5062 164.515 20.6639C165.994 21.7011 167.377 23.3252 168.635 25.5001L148.623 34.3724C148.583 33.8578 148.563 33.3473 148.563 32.8367C148.563 28.7845 149.592 25.3915 151.626 22.7624C153.612 20.1896 156.092 18.9393 159.212 18.9393V18.9433Z" fill="#FAFAFA"/>
<path d="M191.759 47.7954C191.714 47.7914 191.606 47.7834 191.562 47.7834C191.236 47.7834 190.754 47.8799 190.275 48.3341C189.21 49.3472 188.522 49.5603 188.132 49.5603C187.903 49.5603 187.212 49.5603 187.212 47.4537V2.457C187.212 1.90223 186.738 1.45199 186.155 1.45199H177.033C176.358 1.45199 175.811 1.77359 175.57 2.3163C175.377 2.74243 175.377 3.19268 175.57 3.61077C175.694 3.88815 176.024 4.3786 176.884 4.5394C178.223 4.72031 178.951 5.35146 179.236 6.5816C179.598 8.14541 179.783 10.4087 179.783 13.3112V47.4578C179.783 49.9221 180.237 51.703 181.166 52.9009C182.143 54.1632 183.53 54.8265 185.17 54.8265C187.895 54.8265 190.432 53.3271 192.764 50.2879C193.137 49.6969 193.117 49.1984 193.033 48.8728C192.876 48.2778 192.402 47.8758 191.759 47.7954Z" fill="#FAFAFA"/>
<path d="M292.767 42.099C292.429 42.099 291.919 42.1995 291.412 42.6819C291.376 42.7181 291.34 42.7543 291.308 42.7945C289.969 44.5231 288.321 46.0145 286.407 47.2206C284.566 48.3824 282.383 48.9693 279.919 48.9693C276.614 48.9693 273.756 47.8638 271.171 45.5844C268.759 43.4578 267.079 40.6035 266.162 37.086L287.223 27.7594C292.425 25.8096 292.12 22.7222 291.457 21.0056C290.657 19.2167 289.053 17.6449 286.681 16.3343C284.345 15.0439 281.483 14.3886 278.166 14.3886C274.323 14.3886 270.89 15.3213 267.967 17.1584C265.061 18.9835 262.765 21.4639 261.145 24.5272C259.533 27.5704 258.713 30.9754 258.713 34.6377C258.713 34.8789 258.725 35.1081 258.733 35.3453C250.102 36.4186 241.314 36.3865 232.695 35.2206C232.711 26.5936 232.723 17.9665 232.739 9.33938C232.739 7.75547 232.84 5.95849 234.098 4.92131C235.023 4.1575 236.603 3.68313 236.522 2.52133C236.446 1.41178 234.914 1.0741 233.744 1.04998C230.448 0.973596 227.151 0.901234 223.855 0.885154C221.917 0.877114 219.955 0.889174 218.086 1.36756C213.728 2.4771 210.404 6.02281 208.671 9.98661C206.187 15.663 206.617 22.4207 209.809 27.7714C212.997 33.1181 218.874 36.9372 225.27 37.8176C225.358 40.8126 225.27 43.8115 225.001 46.7985C224.888 48.0527 224.627 49.4879 223.485 50.1231C222.609 50.6095 221.29 50.5894 220.896 51.4778C220.611 52.121 221.077 52.8889 221.724 53.2185C222.371 53.5482 223.143 53.5562 223.879 53.5562C231.461 53.5482 239.039 53.5442 246.621 53.5361C248.466 53.5361 250.307 53.5361 252.152 53.5321C253.366 53.5321 256.293 54.0627 257.322 53.4155C258.351 52.7643 258.299 50.4608 258.508 49.3874C258.862 47.5583 259.22 45.7331 259.577 43.904C259.702 43.2608 259.827 42.5854 259.638 41.9543C259.449 41.3231 258.842 40.7523 258.154 40.8126C257.467 40.8729 257.004 41.492 256.671 42.0668C255.304 44.4427 254.375 47.2688 251.971 48.716C250.536 49.5804 248.791 49.8055 247.099 49.9341C243.244 50.2276 239.372 50.1231 235.509 50.0226C234.858 50.0065 234.138 49.9623 233.676 49.5241C233.27 49.1422 233.173 48.5593 233.105 48.0206C232.723 44.9372 232.582 41.8256 232.687 38.7221C232.735 38.7221 232.783 38.7221 232.832 38.7261C241.575 39.0678 250.428 39.8276 259.031 38.5131C259.429 40.8286 260.184 42.9472 261.314 44.8286C263.047 47.7191 265.374 49.9984 268.233 51.5984C271.095 53.2024 274.231 54.0185 277.547 54.0185C281.085 54.0185 284.293 53.1502 287.091 51.4336C289.828 49.7532 292.204 47.5583 294.142 44.9171C294.874 43.9402 294.472 43.1764 294.259 42.8869C293.881 42.3804 293.346 42.099 292.751 42.099H292.767ZM225.274 34.2076C223.216 33.6649 221.294 32.8729 219.606 31.695C214.898 28.4187 211.561 23.084 211.771 17.5363C211.959 12.4228 215.75 7.25698 221.061 6.50522C222.295 6.33638 223.553 6.39668 224.788 6.32432C225.105 7.85999 225.274 10.0228 225.274 12.7444V34.2076ZM268.606 21.9624C270.592 19.3896 273.073 18.1393 276.192 18.1393C278.106 18.1393 279.843 18.7021 281.495 19.8599C282.974 20.8971 284.357 22.5212 285.615 24.6961L265.603 33.5684C265.563 33.0538 265.543 32.5433 265.543 32.0327C265.543 27.9805 266.572 24.5875 268.606 21.9584V21.9624Z" fill="#FAFAFA"/>
<path d="M328.879 41.2025C328.469 40.7201 327.915 40.4749 327.32 40.5111C326.982 40.5312 326.479 40.6678 326.009 41.1824C325.973 41.2186 325.945 41.2588 325.913 41.303C324.699 43.112 323.155 44.704 321.33 46.0266C319.573 47.301 317.438 48.0286 314.978 48.1814C311.682 48.3904 308.751 47.4658 306.013 45.3553C303.46 43.3894 301.579 40.6437 300.421 37.1945L320.783 26.5574C325.836 24.282 325.318 21.2187 324.538 19.5504C323.617 17.8177 321.905 16.3504 319.448 15.1926C317.028 14.0509 314.126 13.5806 310.817 13.7896C306.982 14.0308 303.625 15.1806 300.835 17.1986C298.066 19.2046 295.947 21.8217 294.54 24.9815C293.141 28.1212 292.562 31.5664 292.819 35.2206C293.089 39.0839 294.206 42.4528 296.136 45.2226C298.066 47.9964 300.546 50.1231 303.513 51.5422C306.48 52.9612 309.663 53.5763 312.976 53.3673C316.506 53.1421 319.645 52.0728 322.319 50.1874C324.936 48.3381 327.151 45.9985 328.9 43.2367C329.563 42.2156 329.109 41.4759 328.875 41.2025H328.879ZM299.452 32.1935C299.171 28.1493 299.959 24.7001 301.804 21.9463C303.605 19.2529 305.997 17.8499 309.109 17.6529C311.018 17.5323 312.787 17.9825 314.52 19.0358C316.067 19.9765 317.559 21.5082 318.966 23.6026L299.617 33.7211C299.541 33.2106 299.485 32.7 299.448 32.1935H299.452Z" fill="#FAFAFA"/>
</svg>
